<svg width="375" height="420" viewBox="0 0 375 420" fill="none" xmlns="http://www.w3.org/2000/svg">
<mask id="mask0" mask-type="alpha" maskUnits="userSpaceOnUse" x="0" y="0" width="375" height="420">
<rect width="375" height="420" fill="#C4C4C4"/>
</mask>
<g mask="url(#mask0)">
<path d="M77.7088 13.5C57.5375 13.5 42.7236 18.2833 32.9588 28.1311C23.1947 37.978 18.5703 52.7964 18.5703 72.6612V639.631C18.5703 659.496 23.1947 674.314 32.9588 684.161C42.7236 694.009 57.5375 698.792 77.7088 698.792H296.608C316.137 698.792 330.944 693.666 340.867 683.657C350.788 673.648 355.746 658.837 355.746 639.631V72.6612C355.746 52.7964 351.122 37.978 341.358 28.1311C331.593 18.2833 316.779 13.5 296.608 13.5H77.7088Z" stroke="#003262"/>
<path fill-rule="evenodd" clip-rule="evenodd" d="M16.6826 190.974C16.1355 191.116 15.4795 191.48 15.1292 191.996C15.0571 192.103 15 192.439 15 192.537C15 197.423 15 212.306 15 237.184C15 237.288 15.0803 237.813 15.1295 237.941C15.413 238.675 15.9055 238.852 16.6826 239.276H17.644C17.644 237.939 17.6602 192.281 17.644 190.974H16.6826Z" stroke="#003262"/>
<path fill-rule="evenodd" clip-rule="evenodd" d="M16.6826 254.178C16.1355 254.32 15.4795 254.684 15.1292 255.2C15.0571 255.307 15 255.644 15 255.741C15 260.627 15 275.51 15 300.388C15 300.492 15.0803 301.017 15.1295 301.145C15.413 301.879 15.9055 302.056 16.6826 302.48H17.644C17.644 301.143 17.6602 255.485 17.644 254.178H16.6826Z" stroke="#003262"/>
<path fill-rule="evenodd" clip-rule="evenodd" d="M16.6826 142.671C15.7533 142.671 15 143.492 15 144.505V167.043C15 168.056 15.7533 168.878 16.6826 168.878H17.644C17.644 167.499 17.6602 144.018 17.644 142.671H16.6826Z" stroke="#003262"/>
<path fill-rule="evenodd" clip-rule="evenodd" d="M358.317 216.924C359.247 216.924 360 219.38 360 222.409V289.802C360 292.831 359.247 295.287 358.317 295.287H357.356C357.356 291.165 357.34 220.953 357.356 216.924H358.317Z" stroke="#003262"/>
<path fill-rule="evenodd" clip-rule="evenodd" d="M223.095 44.7582C225.731 44.7582 227.868 42.6208 227.868 39.9841C227.868 37.3474 225.731 35.21 223.095 35.21C220.46 35.21 218.323 37.3474 218.323 39.9841C218.323 42.6208 220.46 44.7582 223.095 44.7582Z" stroke="#003262"/>
<g opacity="0.801364">
<g filter="url(#filter0_d)">
<rect x="165.947" y="37.3398" width="41.9151" height="5.45241" rx="2.72621" stroke="#003262"/>
</g>
<mask id="mask1" mask-type="alpha" maskUnits="userSpaceOnUse" x="165" y="36" width="44" height="8">
<rect x="165.947" y="37.3398" width="41.9151" height="5.45241" rx="2.72621" stroke="white"/>
</mask>
<g mask="url(#mask1)">
<path opacity="0.05" d="M140.612 33.1611L155.613 48.1682M143.39 33.1611L158.391 48.1682M146.168 33.1611L161.169 48.1682M148.946 33.1611L163.947 48.1682M151.724 33.1611L166.725 48.1682M169.503 48.1682L154.502 33.1611L139.501 48.1682M172.281 48.1682L157.28 33.1611L142.279 48.1682M175.059 48.1682L160.058 33.1611L145.057 48.1682M177.837 48.1682L162.836 33.1611L147.835 48.1682M180.615 48.1682L165.614 33.1611L150.613 48.1682M183.393 48.1682L168.392 33.1611L153.391 48.1682M186.171 48.1682L171.17 33.1611L156.169 48.1682M188.949 48.1682L173.948 33.1611L158.947 48.1682M191.727 48.1682L176.726 33.1611L161.725 48.1682M194.505 48.1682L179.504 33.1611L164.503 48.1682M197.283 48.1682L182.282 33.1611L167.281 48.1682M200.061 48.1682L185.06 33.1611L170.059 48.1682M202.839 48.1682L187.838 33.1611L172.837 48.1682M205.617 48.1682L190.616 33.1611L175.615 48.1682M208.395 48.1682L193.394 33.1611L178.393 48.1682M211.173 48.1682L196.172 33.1611L181.171 48.1682M213.951 48.1682L198.95 33.1611L183.949 48.1682M216.729 48.1682L201.728 33.1611L186.726 48.1682M215.617 33.1611L200.616 48.1682M212.839 33.1611L197.838 48.1682M210.061 33.1611L195.06 48.1682M207.283 33.1611L192.282 48.1682M204.506 33.1611L189.504 48.1682" stroke="#003262"/>
</g>
</g>
</g>
<defs>
<filter id="filter0_d" x="164.114" y="36.8398" width="45.5817" height="9.11908" filterUnits="userSpaceOnUse" color-interpolation-filters="sRGB">
<feFlood flood-opacity="0" result="BackgroundImageFix"/>
<feColorMatrix in="SourceAlpha" type="matrix" values="0 0 0 0 0 0 0 0 0 0 0 0 0 0 0 0 0 0 127 0"/>
<feOffset dy="1.33333"/>
<feGaussianBlur stdDeviation="0.666667"/>
<feColorMatrix type="matrix" values="0 0 0 0 1 0 0 0 0 1 0 0 0 0 1 0 0 0 0.217589 0"/>
<feBlend mode="normal" in2="BackgroundImageFix" result="effect1_dropShadow"/>
<feBlend mode="normal" in="SourceGraphic" in2="effect1_dropShadow" result="shape"/>
</filter>
</defs>
</svg>
