<svg width="347" height="407" viewBox="0 0 347 407" fill="none" xmlns="http://www.w3.org/2000/svg">
<path d="M63.7083 0.5C43.537 0.5 28.7231 5.28334 18.9583 15.1311C9.19421 24.978 4.56982 39.7964 4.56982 59.6612V626.631C4.56982 646.496 9.19421 661.314 18.9583 671.161C28.7231 681.009 43.537 685.792 63.7083 685.792H282.607C302.136 685.792 316.944 680.666 326.866 670.657C336.788 660.648 341.746 645.837 341.746 626.631V59.6612C341.746 39.7964 337.121 24.978 327.357 15.1311C317.593 5.28334 302.779 0.5 282.607 0.5H63.7083Z" stroke="white"/>
<path fill-rule="evenodd" clip-rule="evenodd" d="M2.68257 177.974C2.13551 178.116 1.4795 178.48 1.12922 178.996C1.05707 179.103 1 179.44 1 179.537C1 184.423 1 199.306 1 224.184C1 224.288 1.08033 224.813 1.12951 224.941C1.41297 225.675 1.90548 225.852 2.68257 226.276H3.64403C3.64403 224.939 3.66023 179.281 3.64403 177.974H2.68257Z" stroke="white"/>
<path fill-rule="evenodd" clip-rule="evenodd" d="M2.68257 241.178C2.13551 241.32 1.4795 241.684 1.12922 242.2C1.05707 242.307 1 242.644 1 242.741C1 247.627 1 262.51 1 287.389C1 287.493 1.08033 288.018 1.12951 288.145C1.41297 288.879 1.90548 289.056 2.68257 289.48H3.64403C3.64403 288.143 3.66023 242.485 3.64403 241.178H2.68257Z" stroke="white"/>
<path fill-rule="evenodd" clip-rule="evenodd" d="M2.68257 129.671C1.75331 129.671 1 130.492 1 131.505V154.043C1 155.056 1.75331 155.878 2.68257 155.878H3.64403C3.64403 154.499 3.66023 131.018 3.64403 129.671H2.68257Z" stroke="white"/>
<path fill-rule="evenodd" clip-rule="evenodd" d="M344.318 203.923C345.247 203.923 346 206.379 346 209.409V276.801C346 279.831 345.247 282.287 344.318 282.287H343.356C343.356 278.165 343.34 207.953 343.356 203.923H344.318Z" stroke="white"/>
<path fill-rule="evenodd" clip-rule="evenodd" d="M209.095 31.7584C211.731 31.7584 213.868 29.6209 213.868 26.9842C213.868 24.3475 211.731 22.2101 209.095 22.2101C206.46 22.2101 204.323 24.3475 204.323 26.9842C204.323 29.6209 206.46 31.7584 209.095 31.7584Z" stroke="white"/>
<g opacity="0.801364">
<g filter="url(#filter0_d)">
<rect x="151.947" y="24.3401" width="41.9151" height="5.45241" rx="2.72621" stroke="white"/>
</g>
<mask id="mask0" mask-type="alpha" maskUnits="userSpaceOnUse" x="151" y="23" width="44" height="8">
<rect x="151.947" y="24.3401" width="41.9151" height="5.45241" rx="2.72621" stroke="white"/>
</mask>
<g mask="url(#mask0)">
<path opacity="0.05" d="M126.612 20.1615L141.613 35.1686M129.39 20.1615L144.391 35.1686M132.168 20.1615L147.169 35.1686M134.946 20.1615L149.947 35.1686M137.724 20.1615L152.725 35.1686M155.503 35.1686L140.502 20.1615L125.501 35.1686M158.281 35.1686L143.28 20.1615L128.279 35.1686M161.059 35.1686L146.058 20.1615L131.057 35.1686M163.837 35.1686L148.836 20.1615L133.835 35.1686M166.615 35.1686L151.614 20.1615L136.613 35.1686M169.393 35.1686L154.392 20.1615L139.391 35.1686M172.171 35.1686L157.17 20.1615L142.169 35.1686M174.949 35.1686L159.948 20.1615L144.947 35.1686M177.727 35.1686L162.726 20.1615L147.725 35.1686M180.505 35.1686L165.504 20.1615L150.503 35.1686M183.283 35.1686L168.282 20.1615L153.281 35.1686M186.061 35.1686L171.06 20.1615L156.059 35.1686M188.839 35.1686L173.838 20.1615L158.837 35.1686M191.617 35.1686L176.616 20.1615L161.615 35.1686M194.395 35.1686L179.394 20.1615L164.393 35.1686M197.173 35.1686L182.172 20.1615L167.171 35.1686M199.951 35.1686L184.95 20.1615L169.949 35.1686M202.729 35.1686L187.728 20.1615L172.726 35.1686M201.617 20.1615L186.616 35.1686M198.839 20.1615L183.838 35.1686M196.061 20.1615L181.06 35.1686M193.283 20.1615L178.282 35.1686M190.506 20.1615L175.504 35.1686" stroke="white"/>
</g>
</g>
<defs>
<filter id="filter0_d" x="150.114" y="23.8401" width="45.5817" height="9.11908" filterUnits="userSpaceOnUse" color-interpolation-filters="sRGB">
<feFlood flood-opacity="0" result="BackgroundImageFix"/>
<feColorMatrix in="SourceAlpha" type="matrix" values="0 0 0 0 0 0 0 0 0 0 0 0 0 0 0 0 0 0 127 0"/>
<feOffset dy="1.33333"/>
<feGaussianBlur stdDeviation="0.666667"/>
<feColorMatrix type="matrix" values="0 0 0 0 1 0 0 0 0 1 0 0 0 0 1 0 0 0 0.217589 0"/>
<feBlend mode="normal" in2="BackgroundImageFix" result="effect1_dropShadow"/>
<feBlend mode="normal" in="SourceGraphic" in2="effect1_dropShadow" result="shape"/>
</filter>
</defs>
</svg>
