<svg width="26" height="26" viewBox="0 0 26 26" fill="none" xmlns="http://www.w3.org/2000/svg">
<g id="thumb_down_alt_24px">
<path id="icon/social/thumb_down_alt_24px" fill-rule="evenodd" clip-rule="evenodd" d="M24.3417 2.11667H20.1083V14.8167H24.3417V2.11667ZM15.875 2.11667H6.35002C5.4716 2.11667 4.72018 2.64584 4.40268 3.40784L1.20652 10.8691C1.11127 11.1125 1.05835 11.3665 1.05835 11.6417V13.7583C1.05835 14.9225 2.01085 15.875 3.17502 15.875H9.8531L8.84768 20.7116L8.81593 21.0503C8.81593 21.4842 8.99585 21.8863 9.2816 22.1721L10.4034 23.2833L17.3673 16.3089C17.7589 15.9279 17.9917 15.3988 17.9917 14.8167V4.23334C17.9917 3.06917 17.0392 2.11667 15.875 2.11667ZM15.875 14.8167L11.2818 19.4098L12.4566 13.7583H3.175V11.6417L6.35 4.23334H15.875V14.8167Z" fill="#0060F2"/>
</g>
</svg>
