<svg width="81" height="25" viewBox="0 0 81 25" fill="none" xmlns="http://www.w3.org/2000/svg">
<path d="M22.4433 1.19862C22.4433 1.26924 22.4396 1.33056 22.4321 1.3826C22.4247 1.43463 22.4117 1.47737 22.3931 1.51082C22.3782 1.54055 22.3578 1.56285 22.3318 1.57772C22.3095 1.59258 22.2835 1.60002 22.2537 1.60002H20.2245V7.85505C20.2245 7.88479 20.217 7.9108 20.2022 7.9331C20.1873 7.9554 20.1613 7.97398 20.1241 7.98885C20.087 8 20.0368 8.00929 19.9736 8.01672C19.9141 8.02787 19.8379 8.03345 19.745 8.03345C19.6558 8.03345 19.5796 8.02787 19.5165 8.01672C19.4533 8.00929 19.4031 8 19.3659 7.98885C19.3288 7.97398 19.3028 7.9554 19.2879 7.9331C19.273 7.9108 19.2656 7.88479 19.2656 7.85505V1.60002H17.2363C17.2066 1.60002 17.1787 1.59258 17.1527 1.57772C17.1304 1.56285 17.1118 1.54055 17.097 1.51082C17.0821 1.47737 17.0691 1.43463 17.0579 1.3826C17.0505 1.33056 17.0468 1.26924 17.0468 1.19862C17.0468 1.12801 17.0505 1.06669 17.0579 1.01465C17.0691 0.958904 17.0821 0.914305 17.097 0.880855C17.1118 0.847406 17.1304 0.823248 17.1527 0.808382C17.1787 0.793515 17.2066 0.786082 17.2363 0.786082H22.2537C22.2835 0.786082 22.3095 0.793515 22.3318 0.808382C22.3578 0.823248 22.3782 0.847406 22.3931 0.880855C22.4117 0.914305 22.4247 0.958904 22.4321 1.01465C22.4396 1.06669 22.4433 1.12801 22.4433 1.19862ZM27.7004 7.86063C27.7004 7.89036 27.693 7.91638 27.6781 7.93868C27.6632 7.95726 27.6391 7.97398 27.6056 7.98885C27.5722 8.00372 27.5257 8.01487 27.4663 8.0223C27.4068 8.02973 27.3325 8.03345 27.2433 8.03345C27.1504 8.03345 27.0742 8.02973 27.0147 8.0223C26.9552 8.01487 26.9088 8.00372 26.8753 7.98885C26.8419 7.97398 26.8177 7.95726 26.8029 7.93868C26.788 7.91638 26.7806 7.89036 26.7806 7.86063V4.92266C26.7806 4.63648 26.7583 4.40605 26.7137 4.23137C26.6691 4.05669 26.604 3.90617 26.5185 3.7798C26.4331 3.65344 26.3216 3.55681 26.184 3.48991C26.0502 3.42301 25.8941 3.38956 25.7157 3.38956C25.4853 3.38956 25.2549 3.47132 25.0245 3.63485C24.794 3.79839 24.5525 4.03811 24.2997 4.35402V7.86063C24.2997 7.89036 24.2923 7.91638 24.2774 7.93868C24.2626 7.95726 24.2384 7.97398 24.205 7.98885C24.1715 8.00372 24.125 8.01487 24.0656 8.0223C24.0061 8.02973 23.9299 8.03345 23.837 8.03345C23.7478 8.03345 23.6735 8.02973 23.614 8.0223C23.5545 8.01487 23.5062 8.00372 23.4691 7.98885C23.4356 7.97398 23.4115 7.95726 23.3966 7.93868C23.3854 7.91638 23.3799 7.89036 23.3799 7.86063V0.412564C23.3799 0.382831 23.3854 0.356815 23.3966 0.334515C23.4115 0.312216 23.4356 0.293633 23.4691 0.278766C23.5062 0.2639 23.5545 0.25275 23.614 0.245317C23.6735 0.237884 23.7478 0.234167 23.837 0.234167C23.9299 0.234167 24.0061 0.237884 24.0656 0.245317C24.125 0.25275 24.1715 0.2639 24.205 0.278766C24.2384 0.293633 24.2626 0.312216 24.2774 0.334515C24.2923 0.356815 24.2997 0.382831 24.2997 0.412564V3.41743C24.5636 3.13869 24.8293 2.93242 25.0969 2.79862C25.3645 2.66111 25.634 2.59235 25.9053 2.59235C26.2398 2.59235 26.5204 2.64996 26.7471 2.76517C26.9775 2.87667 27.1634 3.02719 27.3046 3.21674C27.4458 3.40628 27.5462 3.62928 27.6056 3.88573C27.6688 4.13845 27.7004 4.44507 27.7004 4.80558V7.86063ZM33.66 5.1345C33.66 5.27945 33.6228 5.38351 33.5485 5.4467C33.4779 5.50616 33.3961 5.5359 33.3032 5.5359H30.014C30.014 5.81464 30.0419 6.06551 30.0976 6.28851C30.1534 6.5115 30.2463 6.70291 30.3764 6.86272C30.5064 7.02253 30.6755 7.14518 30.8837 7.23066C31.0918 7.31615 31.3464 7.35889 31.6474 7.35889C31.8853 7.35889 32.0971 7.3403 32.283 7.30314C32.4688 7.26226 32.6286 7.21766 32.7624 7.16934C32.8999 7.12102 33.0114 7.07828 33.0969 7.04112C33.1861 7.00023 33.253 6.97979 33.2976 6.97979C33.3236 6.97979 33.3459 6.98723 33.3645 7.00209C33.3868 7.01324 33.4035 7.03183 33.4147 7.05784C33.4258 7.08386 33.4333 7.12102 33.437 7.16934C33.4444 7.21394 33.4481 7.26969 33.4481 7.33659C33.4481 7.3849 33.4463 7.42764 33.4426 7.46481C33.4388 7.49826 33.4333 7.52985 33.4258 7.55958C33.4221 7.5856 33.4128 7.60976 33.398 7.63206C33.3868 7.65436 33.3701 7.67666 33.3478 7.69896C33.3292 7.71754 33.2697 7.75099 33.1694 7.7993C33.069 7.8439 32.939 7.8885 32.7791 7.9331C32.6193 7.9777 32.4335 8.01672 32.2217 8.05017C32.0135 8.08734 31.7905 8.10592 31.5527 8.10592C31.1401 8.10592 30.7778 8.04832 30.4656 7.9331C30.1571 7.81789 29.8969 7.64692 29.6851 7.42021C29.4732 7.1935 29.3134 6.90918 29.2056 6.56725C29.0979 6.22532 29.044 5.82765 29.044 5.37422C29.044 4.9431 29.0997 4.55657 29.2112 4.21464C29.3227 3.869 29.4825 3.57725 29.6907 3.33939C29.9025 3.09781 30.1571 2.91383 30.4544 2.78747C30.7517 2.65739 31.0844 2.59235 31.4523 2.59235C31.8463 2.59235 32.1808 2.65553 32.4558 2.7819C32.7345 2.90826 32.9631 3.07922 33.1415 3.29479C33.3199 3.50663 33.45 3.7575 33.5318 4.0474C33.6172 4.33358 33.66 4.64019 33.66 4.96726V5.1345ZM32.7345 4.86133C32.7457 4.37817 32.6379 3.99908 32.4112 3.72405C32.1882 3.44903 31.8556 3.31151 31.4133 3.31151C31.1866 3.31151 30.9877 3.35425 30.8168 3.43973C30.6458 3.52522 30.5027 3.63857 30.3875 3.7798C30.2723 3.92103 30.1831 4.08642 30.1199 4.27597C30.0567 4.4618 30.0214 4.65692 30.014 4.86133H32.7345ZM44.6648 7.78815C44.65 7.84019 44.6277 7.88293 44.5979 7.91638C44.5682 7.94611 44.5273 7.97027 44.4753 7.98885C44.4232 8.00372 44.3582 8.01487 44.2802 8.0223C44.2058 8.02973 44.1129 8.03345 44.0014 8.03345C43.8862 8.03345 43.7877 8.02973 43.7059 8.0223C43.6279 8.01487 43.5629 8.00372 43.5108 7.98885C43.4588 7.97027 43.4198 7.94611 43.3937 7.91638C43.3677 7.88293 43.3473 7.84019 43.3324 7.78815L41.8216 2.34148H41.8105L40.4168 7.78815C40.4056 7.84019 40.387 7.88293 40.361 7.91638C40.335 7.94611 40.2978 7.97027 40.2495 7.98885C40.2012 8.00372 40.138 8.01487 40.06 8.0223C39.9856 8.02973 39.889 8.03345 39.7701 8.03345C39.6474 8.03345 39.5452 8.02973 39.4634 8.0223C39.3817 8.01487 39.3148 8.00372 39.2627 7.98885C39.2107 7.97027 39.1698 7.94611 39.1401 7.91638C39.1141 7.88293 39.0955 7.84019 39.0844 7.78815L37.1777 1.12615C37.1554 1.04067 37.1424 0.97377 37.1387 0.925455C37.1387 0.877139 37.1536 0.839973 37.1833 0.813957C37.2168 0.78794 37.2688 0.771216 37.3394 0.763783C37.41 0.756349 37.5048 0.752633 37.6237 0.752633C37.7389 0.752633 37.83 0.756349 37.8969 0.763783C37.9638 0.767499 38.014 0.776791 38.0474 0.791657C38.0846 0.806523 38.1087 0.826965 38.1199 0.852981C38.1348 0.878997 38.1459 0.912447 38.1533 0.953329L39.7756 6.99652H39.7812L41.3199 0.964479C41.331 0.923596 41.344 0.890147 41.3589 0.864131C41.3775 0.834398 41.4054 0.812098 41.4425 0.797232C41.4797 0.782366 41.5317 0.771216 41.5986 0.763783C41.6692 0.756349 41.7603 0.752633 41.8718 0.752633C41.9759 0.752633 42.0576 0.756349 42.1171 0.763783C42.1803 0.771216 42.2305 0.782366 42.2676 0.797232C42.3048 0.812098 42.3308 0.834398 42.3457 0.864131C42.3643 0.890147 42.3791 0.923596 42.3903 0.964479L44.046 6.99652H44.0572L45.646 0.958904C45.6572 0.921738 45.6683 0.890147 45.6795 0.864131C45.6906 0.834398 45.7129 0.812098 45.7464 0.797232C45.7835 0.782366 45.8337 0.771216 45.8969 0.763783C45.9638 0.756349 46.0511 0.752633 46.1589 0.752633C46.2704 0.752633 46.3577 0.758208 46.4209 0.769357C46.4878 0.776791 46.5361 0.793515 46.5659 0.819532C46.5956 0.845548 46.6086 0.882714 46.6049 0.93103C46.6049 0.979345 46.5956 1.04624 46.577 1.13173L44.6648 7.78815ZM51.1875 7.8662C51.1875 7.9108 51.1726 7.94425 51.1429 7.96655C51.1131 7.98885 51.0722 8.00557 51.0202 8.01672C50.9682 8.02787 50.892 8.03345 50.7916 8.03345C50.695 8.03345 50.617 8.02787 50.5575 8.01672C50.5017 8.00557 50.4609 7.98885 50.4348 7.96655C50.4088 7.94425 50.3958 7.9108 50.3958 7.8662V7.36446C50.1765 7.59861 49.9312 7.78072 49.6599 7.9108C49.3923 8.04088 49.108 8.10592 48.807 8.10592C48.5431 8.10592 48.3034 8.07062 48.0878 8C47.876 7.9331 47.6939 7.83461 47.5415 7.70453C47.3928 7.57445 47.2757 7.41464 47.1903 7.22509C47.1085 7.03554 47.0676 6.81998 47.0676 6.5784C47.0676 6.29594 47.1252 6.05064 47.2404 5.84251C47.3556 5.63439 47.521 5.46156 47.7366 5.32405C47.9522 5.18653 48.216 5.08433 48.5282 5.01743C48.8404 4.94681 49.1916 4.91151 49.5819 4.91151H50.2732V4.52126C50.2732 4.328 50.2527 4.15704 50.2119 4.00837C50.171 3.85971 50.1041 3.73706 50.0112 3.64043C49.922 3.54008 49.8049 3.46575 49.6599 3.41743C49.515 3.3654 49.3366 3.33939 49.1247 3.33939C48.898 3.33939 48.6936 3.36726 48.5115 3.42301C48.3331 3.47504 48.1752 3.53451 48.0376 3.60141C47.9038 3.66459 47.7905 3.72405 47.6976 3.7798C47.6084 3.83183 47.5415 3.85785 47.4969 3.85785C47.4671 3.85785 47.4411 3.85042 47.4188 3.83555C47.3965 3.82068 47.3761 3.79839 47.3575 3.76865C47.3426 3.73892 47.3315 3.70175 47.3241 3.65715C47.3166 3.60884 47.3129 3.55681 47.3129 3.50106C47.3129 3.40814 47.3185 3.33567 47.3296 3.28364C47.3445 3.22789 47.3761 3.17586 47.4244 3.12754C47.4764 3.07922 47.5638 3.02347 47.6864 2.96029C47.8091 2.89339 47.9503 2.83393 48.1101 2.7819C48.2699 2.72615 48.4446 2.68155 48.6342 2.6481C48.8237 2.61093 49.0151 2.59235 49.2084 2.59235C49.5689 2.59235 49.8755 2.63323 50.1282 2.715C50.381 2.79676 50.5854 2.91755 50.7415 3.07737C50.8976 3.23346 51.0109 3.42858 51.0815 3.66273C51.1522 3.89688 51.1875 4.17005 51.1875 4.48224V7.8662ZM50.2732 5.57492H49.4871C49.2344 5.57492 49.0151 5.59722 48.8293 5.64182C48.6434 5.6827 48.4892 5.74588 48.3666 5.83136C48.2439 5.91313 48.1529 6.01348 48.0934 6.13241C48.0376 6.24762 48.0098 6.38142 48.0098 6.5338C48.0098 6.79396 48.0915 7.00209 48.2551 7.15819C48.4223 7.31057 48.6546 7.38676 48.9519 7.38676C49.1935 7.38676 49.4165 7.32544 49.6209 7.20279C49.829 7.08014 50.0465 6.89245 50.2732 6.63972V5.57492ZM57.2028 7.86063C57.2028 7.89036 57.1953 7.91638 57.1805 7.93868C57.1656 7.95726 57.1414 7.97398 57.108 7.98885C57.0745 8.00372 57.0281 8.01487 56.9686 8.0223C56.9092 8.02973 56.8348 8.03345 56.7456 8.03345C56.6527 8.03345 56.5765 8.02973 56.5171 8.0223C56.4576 8.01487 56.4111 8.00372 56.3777 7.98885C56.3442 7.97398 56.3201 7.95726 56.3052 7.93868C56.2903 7.91638 56.2829 7.89036 56.2829 7.86063V4.92266C56.2829 4.63648 56.2606 4.40605 56.216 4.23137C56.1714 4.05669 56.1064 3.90617 56.0209 3.7798C55.9354 3.65344 55.8239 3.55681 55.6864 3.48991C55.5526 3.42301 55.3965 3.38956 55.2181 3.38956C54.9877 3.38956 54.7572 3.47132 54.5268 3.63485C54.2964 3.79839 54.0548 4.03811 53.8021 4.35402V7.86063C53.8021 7.89036 53.7947 7.91638 53.7798 7.93868C53.7649 7.95726 53.7408 7.97398 53.7073 7.98885C53.6739 8.00372 53.6274 8.01487 53.5679 8.0223C53.5085 8.02973 53.4323 8.03345 53.3394 8.03345C53.2502 8.03345 53.1758 8.02973 53.1164 8.0223C53.0569 8.01487 53.0086 8.00372 52.9714 7.98885C52.938 7.97398 52.9138 7.95726 52.899 7.93868C52.8878 7.91638 52.8822 7.89036 52.8822 7.86063V2.84322C52.8822 2.81349 52.8878 2.78933 52.899 2.77075C52.9101 2.74845 52.9324 2.72986 52.9658 2.715C52.9993 2.69641 53.042 2.68526 53.0941 2.68155C53.1461 2.67411 53.2149 2.6704 53.3003 2.6704C53.3821 2.6704 53.449 2.67411 53.501 2.68155C53.5568 2.68526 53.5995 2.69641 53.6293 2.715C53.659 2.72986 53.6794 2.74845 53.6906 2.77075C53.7055 2.78933 53.7129 2.81349 53.7129 2.84322V3.50663C53.9953 3.19072 54.276 2.96029 54.5547 2.81534C54.8372 2.66668 55.1215 2.59235 55.4077 2.59235C55.7421 2.59235 56.0228 2.64996 56.2495 2.76517C56.4799 2.87667 56.6657 3.02719 56.807 3.21674C56.9482 3.40628 57.0485 3.62928 57.108 3.88573C57.1712 4.13845 57.2028 4.44322 57.2028 4.80001V7.86063ZM63.0731 3.07179C63.0731 3.20187 63.0546 3.29664 63.0174 3.35611C62.9839 3.41186 62.9393 3.43973 62.8836 3.43973H62.1644C62.2945 3.57353 62.3856 3.7222 62.4376 3.88573C62.4896 4.04554 62.5156 4.21279 62.5156 4.38747C62.5156 4.67736 62.4692 4.93381 62.3763 5.1568C62.2834 5.3798 62.1496 5.56934 61.9749 5.72544C61.8039 5.87782 61.5995 5.9949 61.3616 6.07666C61.1238 6.15843 60.8599 6.19931 60.57 6.19931C60.3656 6.19931 60.1705 6.17329 59.9846 6.12126C59.8025 6.06551 59.6613 5.99675 59.561 5.91499C59.4941 5.98189 59.4383 6.05808 59.3937 6.14356C59.3528 6.22904 59.3324 6.32753 59.3324 6.43903C59.3324 6.56911 59.3918 6.67689 59.5108 6.76237C59.6334 6.84785 59.7951 6.89431 59.9958 6.90175L61.3059 6.95749C61.5549 6.96493 61.7835 7.00023 61.9916 7.06342C62.1997 7.12288 62.38 7.21022 62.5324 7.32544C62.6848 7.43694 62.8037 7.57631 62.8892 7.74355C62.9746 7.90709 63.0174 8.09849 63.0174 8.31777C63.0174 8.5482 62.9691 8.76748 62.8724 8.97561C62.7758 9.18374 62.6271 9.36585 62.4264 9.52195C62.2295 9.68176 61.9767 9.80627 61.6683 9.89547C61.3598 9.98838 60.9956 10.0348 60.5756 10.0348C60.1705 10.0348 59.8248 9.99953 59.5387 9.92891C59.2562 9.86202 59.0239 9.7691 58.8418 9.65017C58.6597 9.53124 58.5277 9.38815 58.446 9.2209C58.3642 9.05737 58.3233 8.87898 58.3233 8.68571C58.3233 8.56306 58.3382 8.44413 58.3679 8.32892C58.3977 8.2137 58.4423 8.10406 58.5017 8C58.5649 7.89594 58.6411 7.79745 58.7303 7.70453C58.8232 7.6079 58.9291 7.51313 59.0481 7.42021C58.8659 7.3273 58.7303 7.21022 58.6411 7.06899C58.5556 6.92776 58.5129 6.77538 58.5129 6.61185C58.5129 6.38514 58.5593 6.18258 58.6522 6.00419C58.7452 5.82579 58.8604 5.66598 58.9979 5.52475C58.8827 5.38723 58.7916 5.23299 58.7247 5.06203C58.6578 4.88735 58.6244 4.67736 58.6244 4.43207C58.6244 4.14589 58.6727 3.88944 58.7693 3.66273C58.8659 3.43602 58.9997 3.24461 59.1707 3.08851C59.3417 2.93242 59.5461 2.81349 59.7839 2.73172C60.0255 2.64624 60.2875 2.6035 60.57 2.6035C60.7224 2.6035 60.8636 2.61279 60.9937 2.63137C61.1275 2.64624 61.252 2.66854 61.3672 2.69827H62.8836C62.9468 2.69827 62.9932 2.72986 63.023 2.79305C63.0564 2.85251 63.0731 2.94543 63.0731 3.07179ZM61.6348 4.39304C61.6348 4.05111 61.54 3.78538 61.3505 3.59583C61.1647 3.40257 60.8989 3.30594 60.5533 3.30594C60.3749 3.30594 60.2188 3.33567 60.085 3.39513C59.9549 3.4546 59.8453 3.53637 59.7561 3.64043C59.6706 3.74449 59.6056 3.86528 59.561 4.0028C59.5201 4.1366 59.4996 4.27783 59.4996 4.42649C59.4996 4.75727 59.5925 5.01743 59.7784 5.20698C59.9679 5.39652 60.2318 5.4913 60.57 5.4913C60.7521 5.4913 60.9101 5.46342 61.0439 5.40767C61.1777 5.34821 61.2873 5.2683 61.3728 5.16795C61.462 5.06389 61.527 4.94496 61.5679 4.81116C61.6125 4.67736 61.6348 4.53799 61.6348 4.39304ZM62.0975 8.36794C62.0975 8.15238 62.0083 7.98699 61.8299 7.87178C61.6553 7.75285 61.4174 7.68966 61.1163 7.68223L59.8174 7.63763C59.6985 7.73055 59.6 7.81974 59.5219 7.90523C59.4476 7.98699 59.3881 8.06504 59.3435 8.13937C59.2989 8.21742 59.2673 8.29361 59.2488 8.36794C59.2339 8.44228 59.2265 8.51847 59.2265 8.59651C59.2265 8.83809 59.3491 9.02021 59.5944 9.14285C59.8397 9.26922 60.1816 9.3324 60.6202 9.3324C60.8989 9.3324 61.1312 9.30453 61.317 9.24878C61.5066 9.19674 61.659 9.12613 61.7742 9.03693C61.8894 8.94773 61.9712 8.84553 62.0195 8.73031C62.0715 8.6151 62.0975 8.49431 62.0975 8.36794ZM5.48444 21.8551C5.48444 21.8848 5.47701 21.9108 5.46215 21.9331C5.44728 21.9554 5.42126 21.974 5.3841 21.9889C5.34693 22 5.29676 22.0093 5.23357 22.0167C5.17411 22.0279 5.09978 22.0334 5.01058 22.0334C4.91395 22.0334 4.8359 22.0279 4.77643 22.0167C4.71697 22.0093 4.66865 22 4.63149 21.9889C4.59432 21.974 4.5683 21.9554 4.55344 21.9331C4.53857 21.9108 4.53114 21.8848 4.53114 21.8551V18.6551H1.24752V21.8551C1.24752 21.8848 1.24009 21.9108 1.22522 21.9331C1.21036 21.9554 1.18434 21.974 1.14717 21.9889C1.11001 22 1.05983 22.0093 0.996652 22.0167C0.937187 22.0279 0.860996 22.0334 0.768081 22.0334C0.678883 22.0334 0.602693 22.0279 0.539511 22.0167C0.476328 22.0093 0.426154 22 0.388988 21.9889C0.351822 21.974 0.325806 21.9554 0.31094 21.9331C0.296073 21.9108 0.28864 21.8848 0.28864 21.8551V14.931C0.28864 14.9013 0.296073 14.8753 0.31094 14.853C0.325806 14.8307 0.351822 14.814 0.388988 14.8028C0.426154 14.7879 0.476328 14.7768 0.539511 14.7694C0.602693 14.7582 0.678883 14.7526 0.768081 14.7526C0.860996 14.7526 0.937187 14.7582 0.996652 14.7694C1.05983 14.7768 1.11001 14.7879 1.14717 14.8028C1.18434 14.814 1.21036 14.8307 1.22522 14.853C1.24009 14.8753 1.24752 14.9013 1.24752 14.931V17.8188H4.53114V14.931C4.53114 14.9013 4.53857 14.8753 4.55344 14.853C4.5683 14.8307 4.59432 14.814 4.63149 14.8028C4.66865 14.7879 4.71697 14.7768 4.77643 14.7694C4.8359 14.7582 4.91395 14.7526 5.01058 14.7526C5.09978 14.7526 5.17411 14.7582 5.23357 14.7694C5.29676 14.7768 5.34693 14.7879 5.3841 14.8028C5.42126 14.814 5.44728 14.8307 5.46215 14.853C5.47701 14.8753 5.48444 14.9013 5.48444 14.931V21.8551ZM11.5778 19.1345C11.5778 19.2794 11.5406 19.3835 11.4663 19.4467C11.3957 19.5062 11.3139 19.5359 11.221 19.5359H7.93182C7.93182 19.8146 7.9597 20.0655 8.01545 20.2885C8.0712 20.5115 8.16411 20.7029 8.29419 20.8627C8.42427 21.0225 8.59338 21.1452 8.80151 21.2307C9.00964 21.3161 9.26423 21.3589 9.56527 21.3589C9.80313 21.3589 10.015 21.3403 10.2008 21.3031C10.3866 21.2623 10.5465 21.2177 10.6802 21.1693C10.8178 21.121 10.9293 21.0783 11.0147 21.0411C11.1039 21.0002 11.1708 20.9798 11.2154 20.9798C11.2415 20.9798 11.2638 20.9872 11.2823 21.0021C11.3046 21.0132 11.3214 21.0318 11.3325 21.0578C11.3437 21.0839 11.3511 21.121 11.3548 21.1693C11.3622 21.2139 11.366 21.2697 11.366 21.3366C11.366 21.3849 11.3641 21.4276 11.3604 21.4648C11.3567 21.4983 11.3511 21.5299 11.3437 21.5596C11.3399 21.5856 11.3307 21.6098 11.3158 21.6321C11.3046 21.6544 11.2879 21.6767 11.2656 21.699C11.247 21.7175 11.1876 21.751 11.0872 21.7993C10.9869 21.8439 10.8568 21.8885 10.697 21.9331C10.5372 21.9777 10.3513 22.0167 10.1395 22.0502C9.93135 22.0873 9.70836 22.1059 9.4705 22.1059C9.05795 22.1059 8.69559 22.0483 8.38339 21.9331C8.07491 21.8179 7.81475 21.6469 7.60291 21.4202C7.39106 21.1935 7.23125 20.9092 7.12346 20.5673C7.01568 20.2253 6.96179 19.8276 6.96179 19.3742C6.96179 18.9431 7.01754 18.5566 7.12904 18.2146C7.24054 17.869 7.40035 17.5772 7.60848 17.3394C7.82033 17.0978 8.07491 16.9138 8.37224 16.7875C8.66957 16.6574 9.00221 16.5923 9.37015 16.5923C9.76411 16.5923 10.0986 16.6555 10.3736 16.7819C10.6524 16.9083 10.8809 17.0792 11.0593 17.2948C11.2377 17.5066 11.3678 17.7575 11.4496 18.0474C11.5351 18.3336 11.5778 18.6402 11.5778 18.9673V19.1345ZM10.6524 18.8613C10.6635 18.3782 10.5557 17.9991 10.329 17.7241C10.106 17.449 9.7734 17.3115 9.33112 17.3115C9.10441 17.3115 8.90557 17.3543 8.73461 17.4397C8.56365 17.5252 8.42056 17.6386 8.30534 17.7798C8.19013 17.921 8.10093 18.0864 8.03775 18.276C7.97457 18.4618 7.93926 18.6569 7.93182 18.8613H10.6524ZM16.7625 21.8662C16.7625 21.9108 16.7476 21.9443 16.7179 21.9666C16.6881 21.9889 16.6472 22.0056 16.5952 22.0167C16.5432 22.0279 16.467 22.0334 16.3666 22.0334C16.27 22.0334 16.192 22.0279 16.1325 22.0167C16.0768 22.0056 16.0359 21.9889 16.0099 21.9666C15.9838 21.9443 15.9708 21.9108 15.9708 21.8662V21.3645C15.7515 21.5986 15.5063 21.7807 15.2349 21.9108C14.9673 22.0409 14.683 22.1059 14.382 22.1059C14.1181 22.1059 13.8784 22.0706 13.6628 22C13.451 21.9331 13.2689 21.8346 13.1165 21.7045C12.9678 21.5744 12.8507 21.4146 12.7653 21.2251C12.6835 21.0355 12.6426 20.82 12.6426 20.5784C12.6426 20.2959 12.7002 20.0506 12.8154 19.8425C12.9306 19.6344 13.096 19.4616 13.3116 19.324C13.5272 19.1865 13.791 19.0843 14.1032 19.0174C14.4154 18.9468 14.7666 18.9115 15.1569 18.9115H15.8482V18.5213C15.8482 18.328 15.8277 18.157 15.7869 18.0084C15.746 17.8597 15.6791 17.7371 15.5862 17.6404C15.497 17.5401 15.3799 17.4657 15.2349 17.4174C15.09 17.3654 14.9116 17.3394 14.6998 17.3394C14.473 17.3394 14.2686 17.3673 14.0865 17.423C13.9081 17.475 13.7502 17.5345 13.6126 17.6014C13.4788 17.6646 13.3655 17.7241 13.2726 17.7798C13.1834 17.8318 13.1165 17.8579 13.0719 17.8579C13.0421 17.8579 13.0161 17.8504 12.9938 17.8356C12.9715 17.8207 12.9511 17.7984 12.9325 17.7687C12.9176 17.7389 12.9065 17.7018 12.8991 17.6572C12.8916 17.6088 12.8879 17.5568 12.8879 17.5011C12.8879 17.4081 12.8935 17.3357 12.9046 17.2836C12.9195 17.2279 12.9511 17.1759 12.9994 17.1275C13.0514 17.0792 13.1388 17.0235 13.2614 16.9603C13.3841 16.8934 13.5253 16.8339 13.6851 16.7819C13.8449 16.7261 14.0196 16.6815 14.2092 16.6481C14.3987 16.6109 14.5901 16.5923 14.7834 16.5923C15.1439 16.5923 15.4505 16.6332 15.7032 16.715C15.956 16.7968 16.1604 16.9176 16.3165 17.0774C16.4726 17.2335 16.5859 17.4286 16.6565 17.6627C16.7272 17.8969 16.7625 18.17 16.7625 18.4822V21.8662ZM15.8482 19.5749H15.0621C14.8094 19.5749 14.5901 19.5972 14.4043 19.6418C14.2185 19.6827 14.0642 19.7459 13.9416 19.8314C13.8189 19.9131 13.7279 20.0135 13.6684 20.1324C13.6126 20.2476 13.5848 20.3814 13.5848 20.5338C13.5848 20.794 13.6665 21.0021 13.8301 21.1582C13.9973 21.3106 14.2296 21.3868 14.5269 21.3868C14.7685 21.3868 14.9915 21.3254 15.1959 21.2028C15.404 21.0801 15.6215 20.8925 15.8482 20.6397V19.5749ZM19.3771 21.8606C19.3771 21.8904 19.3697 21.9164 19.3548 21.9387C19.3399 21.9573 19.3158 21.974 19.2823 21.9889C19.2489 22.0037 19.2024 22.0149 19.1429 22.0223C19.0835 22.0297 19.0073 22.0334 18.9144 22.0334C18.8252 22.0334 18.7508 22.0297 18.6914 22.0223C18.6319 22.0149 18.5836 22.0037 18.5464 21.9889C18.513 21.974 18.4888 21.9573 18.474 21.9387C18.4628 21.9164 18.4572 21.8904 18.4572 21.8606V14.4126C18.4572 14.3828 18.4628 14.3568 18.474 14.3345C18.4888 14.3122 18.513 14.2936 18.5464 14.2788C18.5836 14.2639 18.6319 14.2528 18.6914 14.2453C18.7508 14.2379 18.8252 14.2342 18.9144 14.2342C19.0073 14.2342 19.0835 14.2379 19.1429 14.2453C19.2024 14.2528 19.2489 14.2639 19.2823 14.2788C19.3158 14.2936 19.3399 14.3122 19.3548 14.3345C19.3697 14.3568 19.3771 14.3828 19.3771 14.4126V21.8606ZM23.6865 21.4927C23.6865 21.6005 23.6791 21.6859 23.6642 21.7491C23.6493 21.8123 23.627 21.8588 23.5973 21.8885C23.5676 21.9182 23.523 21.9461 23.4635 21.9721C23.404 21.9981 23.3353 22.0186 23.2572 22.0334C23.1829 22.052 23.103 22.0669 23.0175 22.078C22.932 22.0892 22.8465 22.0948 22.7611 22.0948C22.5009 22.0948 22.2779 22.0613 22.0921 21.9944C21.9062 21.9238 21.7539 21.8197 21.6349 21.6822C21.516 21.541 21.4287 21.3645 21.3729 21.1526C21.3209 20.9371 21.2949 20.6843 21.2949 20.3944V17.462H20.5924C20.5367 17.462 20.4921 17.4323 20.4586 17.3728C20.4252 17.3134 20.4084 17.2167 20.4084 17.0829C20.4084 17.0123 20.4122 16.9529 20.4196 16.9045C20.4307 16.8562 20.4438 16.8172 20.4586 16.7875C20.4735 16.754 20.4921 16.7317 20.5144 16.7206C20.5404 16.7057 20.5683 16.6983 20.598 16.6983H21.2949V15.5052C21.2949 15.4792 21.3004 15.4551 21.3116 15.4328C21.3264 15.4105 21.3506 15.3919 21.3841 15.377C21.4212 15.3584 21.4695 15.3454 21.529 15.338C21.5885 15.3306 21.6628 15.3268 21.752 15.3268C21.8449 15.3268 21.9211 15.3306 21.9806 15.338C22.04 15.3454 22.0865 15.3584 22.1199 15.377C22.1534 15.3919 22.1775 15.4105 22.1924 15.4328C22.2073 15.4551 22.2147 15.4792 22.2147 15.5052V16.6983H23.5025C23.5322 16.6983 23.5583 16.7057 23.5806 16.7206C23.6029 16.7317 23.6214 16.754 23.6363 16.7875C23.6549 16.8172 23.6679 16.8562 23.6753 16.9045C23.6828 16.9529 23.6865 17.0123 23.6865 17.0829C23.6865 17.2167 23.6698 17.3134 23.6363 17.3728C23.6029 17.4323 23.5583 17.462 23.5025 17.462H22.2147V20.2606C22.2147 20.6063 22.2649 20.8683 22.3652 21.0467C22.4693 21.2214 22.6533 21.3087 22.9172 21.3087C23.0026 21.3087 23.0788 21.3013 23.1457 21.2864C23.2126 21.2678 23.2721 21.2492 23.3241 21.2307C23.3762 21.2121 23.4208 21.1954 23.4579 21.1805C23.4951 21.1619 23.5285 21.1526 23.5583 21.1526C23.5768 21.1526 23.5936 21.1582 23.6084 21.1693C23.627 21.1768 23.64 21.1935 23.6475 21.2195C23.6586 21.2455 23.6679 21.2808 23.6753 21.3254C23.6828 21.37 23.6865 21.4258 23.6865 21.4927ZM29.2224 21.8606C29.2224 21.8904 29.2149 21.9164 29.2001 21.9387C29.1852 21.9573 29.161 21.974 29.1276 21.9889C29.0941 22.0037 29.0477 22.0149 28.9882 22.0223C28.9287 22.0297 28.8544 22.0334 28.7652 22.0334C28.6723 22.0334 28.5961 22.0297 28.5366 22.0223C28.4772 22.0149 28.4307 22.0037 28.3973 21.9889C28.3638 21.974 28.3397 21.9573 28.3248 21.9387C28.3099 21.9164 28.3025 21.8904 28.3025 21.8606V18.9227C28.3025 18.6365 28.2802 18.406 28.2356 18.2314C28.191 18.0567 28.126 17.9062 28.0405 17.7798C27.955 17.6534 27.8435 17.5568 27.706 17.4899C27.5722 17.423 27.4161 17.3896 27.2377 17.3896C27.0073 17.3896 26.7768 17.4713 26.5464 17.6349C26.316 17.7984 26.0744 18.0381 25.8217 18.354V21.8606C25.8217 21.8904 25.8142 21.9164 25.7994 21.9387C25.7845 21.9573 25.7603 21.974 25.7269 21.9889C25.6934 22.0037 25.647 22.0149 25.5875 22.0223C25.5281 22.0297 25.4519 22.0334 25.359 22.0334C25.2698 22.0334 25.1954 22.0297 25.136 22.0223C25.0765 22.0149 25.0282 22.0037 24.991 21.9889C24.9576 21.974 24.9334 21.9573 24.9185 21.9387C24.9074 21.9164 24.9018 21.8904 24.9018 21.8606V14.4126C24.9018 14.3828 24.9074 14.3568 24.9185 14.3345C24.9334 14.3122 24.9576 14.2936 24.991 14.2788C25.0282 14.2639 25.0765 14.2528 25.136 14.2453C25.1954 14.2379 25.2698 14.2342 25.359 14.2342C25.4519 14.2342 25.5281 14.2379 25.5875 14.2453C25.647 14.2528 25.6934 14.2639 25.7269 14.2788C25.7603 14.2936 25.7845 14.3122 25.7994 14.3345C25.8142 14.3568 25.8217 14.3828 25.8217 14.4126V17.4174C26.0856 17.1387 26.3513 16.9324 26.6189 16.7986C26.8865 16.6611 27.1559 16.5923 27.4272 16.5923C27.7617 16.5923 28.0423 16.65 28.2691 16.7652C28.4995 16.8767 28.6853 17.0272 28.8265 17.2167C28.9678 17.4063 29.0681 17.6293 29.1276 17.8857C29.1908 18.1385 29.2224 18.4451 29.2224 18.8056V21.8606ZM31.9652 21.8551C31.9652 21.8848 31.9578 21.9108 31.9429 21.9331C31.928 21.9554 31.902 21.974 31.8649 21.9889C31.8277 22 31.7775 22.0093 31.7143 22.0167C31.6549 22.0279 31.5787 22.0334 31.4858 22.0334C31.3966 22.0334 31.3204 22.0279 31.2572 22.0167C31.194 22.0093 31.1438 22 31.1067 21.9889C31.0695 21.974 31.0435 21.9554 31.0286 21.9331C31.0138 21.9108 31.0063 21.8848 31.0063 21.8551V14.931C31.0063 14.9013 31.0138 14.8753 31.0286 14.853C31.0472 14.8307 31.0751 14.814 31.1123 14.8028C31.1531 14.7879 31.2033 14.7768 31.2628 14.7694C31.326 14.7582 31.4003 14.7526 31.4858 14.7526C31.5787 14.7526 31.6549 14.7582 31.7143 14.7694C31.7775 14.7768 31.8277 14.7879 31.8649 14.8028C31.902 14.814 31.928 14.8307 31.9429 14.853C31.9578 14.8753 31.9652 14.9013 31.9652 14.931V21.8551ZM41.2195 21.8606C41.2195 21.8904 41.2121 21.9164 41.1972 21.9387C41.1824 21.9573 41.1582 21.974 41.1248 21.9889C41.0913 22.0037 41.0449 22.0149 40.9854 22.0223C40.9259 22.0297 40.8516 22.0334 40.7624 22.0334C40.6695 22.0334 40.5933 22.0297 40.5338 22.0223C40.4744 22.0149 40.426 22.0037 40.3889 21.9889C40.3554 21.974 40.3313 21.9573 40.3164 21.9387C40.3015 21.9164 40.2941 21.8904 40.2941 21.8606V18.8112C40.2941 18.5993 40.2755 18.406 40.2384 18.2314C40.2012 18.0567 40.1417 17.9062 40.06 17.7798C39.9782 17.6534 39.8741 17.5568 39.7478 17.4899C39.6214 17.423 39.4727 17.3896 39.3018 17.3896C39.0899 17.3896 38.8762 17.4713 38.6607 17.6349C38.4488 17.7984 38.2147 18.0381 37.9582 18.354V21.8606C37.9582 21.8904 37.9508 21.9164 37.9359 21.9387C37.9211 21.9573 37.895 21.974 37.8579 21.9889C37.8244 22.0037 37.778 22.0149 37.7185 22.0223C37.659 22.0297 37.5847 22.0334 37.4955 22.0334C37.41 22.0334 37.3357 22.0297 37.2725 22.0223C37.213 22.0149 37.1647 22.0037 37.1276 21.9889C37.0941 21.974 37.07 21.9573 37.0551 21.9387C37.0439 21.9164 37.0384 21.8904 37.0384 21.8606V18.8112C37.0384 18.5993 37.0179 18.406 36.977 18.2314C36.9362 18.0567 36.8748 17.9062 36.7931 17.7798C36.7113 17.6534 36.6072 17.5568 36.4809 17.4899C36.3582 17.423 36.2114 17.3896 36.0405 17.3896C35.8286 17.3896 35.6149 17.4713 35.3993 17.6349C35.1838 17.7984 34.9496 18.0381 34.6969 18.354V21.8606C34.6969 21.8904 34.6895 21.9164 34.6746 21.9387C34.6597 21.9573 34.6356 21.974 34.6021 21.9889C34.5687 22.0037 34.5222 22.0149 34.4628 22.0223C34.4033 22.0297 34.3271 22.0334 34.2342 22.0334C34.145 22.0334 34.0707 22.0297 34.0112 22.0223C33.9517 22.0149 33.9034 22.0037 33.8662 21.9889C33.8328 21.974 33.8086 21.9573 33.7938 21.9387C33.7826 21.9164 33.7771 21.8904 33.7771 21.8606V16.8432C33.7771 16.8135 33.7826 16.7893 33.7938 16.7707C33.8049 16.7484 33.8272 16.7299 33.8607 16.715C33.8941 16.6964 33.9369 16.6853 33.9889 16.6815C34.0409 16.6741 34.1097 16.6704 34.1952 16.6704C34.2769 16.6704 34.3438 16.6741 34.3959 16.6815C34.4516 16.6853 34.4944 16.6964 34.5241 16.715C34.5538 16.7299 34.5743 16.7484 34.5854 16.7707C34.6003 16.7893 34.6077 16.8135 34.6077 16.8432V17.5066C34.8902 17.1907 35.1633 16.9603 35.4272 16.8153C35.6948 16.6667 35.9643 16.5923 36.2356 16.5923C36.4437 16.5923 36.6295 16.6165 36.7931 16.6648C36.9603 16.7131 37.1071 16.7819 37.2335 16.8711C37.3599 16.9566 37.4676 17.0606 37.5568 17.1833C37.646 17.3022 37.7204 17.436 37.7798 17.5847C37.9471 17.4026 38.105 17.2483 38.2537 17.122C38.4061 16.9956 38.551 16.8934 38.6885 16.8153C38.8298 16.7373 38.9654 16.6815 39.0955 16.6481C39.2293 16.6109 39.3631 16.5923 39.4969 16.5923C39.8202 16.5923 40.0916 16.65 40.3108 16.7652C40.5301 16.8767 40.7066 17.0272 40.8404 17.2167C40.978 17.4063 41.0746 17.6293 41.1303 17.8857C41.1898 18.1385 41.2195 18.406 41.2195 18.6885V21.8606ZM47.5136 19.2739C47.5136 19.7124 47.4653 20.1064 47.3687 20.4558C47.2757 20.8051 47.1364 21.1024 46.9505 21.3477C46.7684 21.5893 46.5417 21.777 46.2704 21.9108C45.9991 22.0409 45.6887 22.1059 45.3394 22.1059C45.1907 22.1059 45.0532 22.0911 44.9268 22.0613C44.8005 22.0316 44.676 21.9851 44.5533 21.922C44.4344 21.8588 44.3155 21.7789 44.1965 21.6822C44.0776 21.5856 43.9512 21.4722 43.8174 21.3422V23.8509C43.8174 23.8806 43.81 23.9066 43.7951 23.9289C43.7803 23.9512 43.7561 23.9698 43.7227 23.9847C43.6892 23.9995 43.6428 24.0107 43.5833 24.0181C43.5238 24.0255 43.4476 24.0293 43.3547 24.0293C43.2655 24.0293 43.1912 24.0255 43.1317 24.0181C43.0723 24.0107 43.0239 23.9995 42.9868 23.9847C42.9533 23.9698 42.9292 23.9512 42.9143 23.9289C42.9032 23.9066 42.8976 23.8806 42.8976 23.8509V16.8432C42.8976 16.8098 42.9032 16.7838 42.9143 16.7652C42.9255 16.7429 42.9478 16.7243 42.9812 16.7094C43.0147 16.6946 43.0574 16.6853 43.1094 16.6815C43.1615 16.6741 43.2246 16.6704 43.299 16.6704C43.377 16.6704 43.4402 16.6741 43.4885 16.6815C43.5406 16.6853 43.5833 16.6946 43.6167 16.7094C43.6502 16.7243 43.6725 16.7429 43.6836 16.7652C43.6985 16.7838 43.7059 16.8098 43.7059 16.8432V17.5178C43.8583 17.3617 44.0051 17.226 44.1464 17.1108C44.2876 16.9956 44.4288 16.9008 44.5701 16.8265C44.715 16.7484 44.8618 16.6908 45.0105 16.6537C45.1629 16.6128 45.3227 16.5923 45.4899 16.5923C45.8541 16.5923 46.1645 16.663 46.4209 16.8042C46.6774 16.9454 46.8855 17.1387 47.0453 17.384C47.2088 17.6293 47.3278 17.9155 47.4021 18.2425C47.4764 18.5659 47.5136 18.9096 47.5136 19.2739ZM46.5436 19.3798C46.5436 19.1234 46.5231 18.8762 46.4822 18.6383C46.4451 18.3968 46.3782 18.1831 46.2815 17.9972C46.1886 17.8114 46.0623 17.6627 45.9025 17.5512C45.7426 17.4397 45.5438 17.384 45.3059 17.384C45.187 17.384 45.0699 17.4026 44.9547 17.4397C44.8395 17.4732 44.7224 17.5289 44.6035 17.607C44.4846 17.6813 44.3601 17.7817 44.23 17.908C44.0999 18.0307 43.9624 18.1831 43.8174 18.3652V20.361C44.0702 20.6695 44.3099 20.9055 44.5366 21.069C44.7633 21.2325 45.0012 21.3143 45.2502 21.3143C45.4806 21.3143 45.6776 21.2585 45.8411 21.147C46.0084 21.0355 46.1422 20.8869 46.2425 20.701C46.3466 20.5152 46.4228 20.3071 46.4711 20.0767C46.5194 19.8462 46.5436 19.6139 46.5436 19.3798ZM52.676 21.8662C52.676 21.9108 52.6611 21.9443 52.6314 21.9666C52.6016 21.9889 52.5607 22.0056 52.5087 22.0167C52.4567 22.0279 52.3805 22.0334 52.2801 22.0334C52.1835 22.0334 52.1055 22.0279 52.046 22.0167C51.9902 22.0056 51.9494 21.9889 51.9233 21.9666C51.8973 21.9443 51.8843 21.9108 51.8843 21.8662V21.3645C51.665 21.5986 51.4197 21.7807 51.1484 21.9108C50.8808 22.0409 50.5965 22.1059 50.2955 22.1059C50.0316 22.1059 49.7919 22.0706 49.5763 22C49.3645 21.9331 49.1824 21.8346 49.03 21.7045C48.8813 21.5744 48.7642 21.4146 48.6788 21.2251C48.597 21.0355 48.5561 20.82 48.5561 20.5784C48.5561 20.2959 48.6137 20.0506 48.7289 19.8425C48.8441 19.6344 49.0095 19.4616 49.2251 19.324C49.4407 19.1865 49.7045 19.0843 50.0167 19.0174C50.3289 18.9468 50.6801 18.9115 51.0704 18.9115H51.7617V18.5213C51.7617 18.328 51.7412 18.157 51.7003 18.0084C51.6595 17.8597 51.5926 17.7371 51.4997 17.6404C51.4105 17.5401 51.2934 17.4657 51.1484 17.4174C51.0035 17.3654 50.8251 17.3394 50.6132 17.3394C50.3865 17.3394 50.1821 17.3673 50 17.423C49.8216 17.475 49.6637 17.5345 49.5261 17.6014C49.3923 17.6646 49.279 17.7241 49.1861 17.7798C49.0969 17.8318 49.03 17.8579 48.9854 17.8579C48.9556 17.8579 48.9296 17.8504 48.9073 17.8356C48.885 17.8207 48.8646 17.7984 48.846 17.7687C48.8311 17.7389 48.82 17.7018 48.8126 17.6572C48.8051 17.6088 48.8014 17.5568 48.8014 17.5011C48.8014 17.4081 48.807 17.3357 48.8181 17.2836C48.833 17.2279 48.8646 17.1759 48.9129 17.1275C48.9649 17.0792 49.0523 17.0235 49.1749 16.9603C49.2976 16.8934 49.4388 16.8339 49.5986 16.7819C49.7584 16.7261 49.9331 16.6815 50.1227 16.6481C50.3122 16.6109 50.5036 16.5923 50.6969 16.5923C51.0574 16.5923 51.364 16.6332 51.6167 16.715C51.8695 16.7968 52.0739 16.9176 52.23 17.0774C52.3861 17.2335 52.4994 17.4286 52.57 17.6627C52.6406 17.8969 52.676 18.17 52.676 18.4822V21.8662ZM51.7617 19.5749H50.9756C50.7229 19.5749 50.5036 19.5972 50.3178 19.6418C50.1319 19.6827 49.9777 19.7459 49.8551 19.8314C49.7324 19.9131 49.6414 20.0135 49.5819 20.1324C49.5261 20.2476 49.4983 20.3814 49.4983 20.5338C49.4983 20.794 49.58 21.0021 49.7436 21.1582C49.9108 21.3106 50.1431 21.3868 50.4404 21.3868C50.682 21.3868 50.905 21.3254 51.1094 21.2028C51.3175 21.0801 51.535 20.8925 51.7617 20.6397V19.5749ZM57.9777 21.0969C57.9777 21.16 57.9758 21.2158 57.9721 21.2641C57.9684 21.3087 57.961 21.3477 57.9498 21.3812C57.9424 21.4109 57.9312 21.4388 57.9164 21.4648C57.9052 21.4871 57.8755 21.5224 57.8272 21.5707C57.7826 21.6153 57.7045 21.6729 57.593 21.7436C57.4815 21.8105 57.3552 21.8718 57.2139 21.9275C57.0764 21.9796 56.9259 22.0223 56.7624 22.0557C56.5988 22.0892 56.4297 22.1059 56.255 22.1059C55.8945 22.1059 55.5749 22.0465 55.2962 21.9275C55.0174 21.8086 54.7833 21.6358 54.5937 21.4091C54.4079 21.1786 54.2648 20.898 54.1645 20.5673C54.0678 20.2328 54.0195 19.8481 54.0195 19.4132C54.0195 18.9189 54.079 18.4952 54.1979 18.1422C54.3206 17.7854 54.4859 17.4936 54.6941 17.2669C54.9059 17.0402 55.1531 16.873 55.4355 16.7652C55.7217 16.6537 56.0302 16.5979 56.361 16.5979C56.5208 16.5979 56.675 16.6128 56.8237 16.6425C56.9761 16.6723 57.1154 16.7113 57.2418 16.7596C57.3682 16.8079 57.4797 16.8637 57.5763 16.9268C57.6766 16.99 57.7491 17.0439 57.7937 17.0885C57.8383 17.1331 57.868 17.1684 57.8829 17.1944C57.9015 17.2205 57.9164 17.252 57.9275 17.2892C57.9387 17.3227 57.9461 17.3617 57.9498 17.4063C57.9535 17.4509 57.9554 17.5066 57.9554 17.5735C57.9554 17.7185 57.9387 17.8207 57.9052 17.8802C57.8718 17.9359 57.8309 17.9638 57.7826 17.9638C57.7268 17.9638 57.6618 17.934 57.5874 17.8746C57.5168 17.8114 57.4258 17.7426 57.3143 17.6683C57.2028 17.594 57.0671 17.5271 56.9073 17.4676C56.7512 17.4044 56.5654 17.3728 56.3498 17.3728C55.9075 17.3728 55.5675 17.5438 55.3296 17.8857C55.0955 18.2239 54.9784 18.7164 54.9784 19.3631C54.9784 19.6864 55.0081 19.9707 55.0676 20.216C55.1308 20.4576 55.2218 20.6602 55.3408 20.8237C55.4597 20.9872 55.6046 21.1099 55.7756 21.1916C55.9503 21.2697 56.1491 21.3087 56.3721 21.3087C56.584 21.3087 56.7698 21.2753 56.9296 21.2084C57.0894 21.1415 57.2269 21.069 57.3421 20.9909C57.4611 20.9092 57.5596 20.8367 57.6376 20.7735C57.7194 20.7066 57.7826 20.6732 57.8272 20.6732C57.8532 20.6732 57.8755 20.6806 57.8941 20.6955C57.9126 20.7103 57.9275 20.7364 57.9387 20.7735C57.9535 20.807 57.9628 20.8516 57.9665 20.9073C57.974 20.9594 57.9777 21.0225 57.9777 21.0969ZM61.8076 21.4927C61.8076 21.6005 61.8002 21.6859 61.7853 21.7491C61.7705 21.8123 61.7482 21.8588 61.7184 21.8885C61.6887 21.9182 61.6441 21.9461 61.5846 21.9721C61.5252 21.9981 61.4564 22.0186 61.3784 22.0334C61.304 22.052 61.2241 22.0669 61.1387 22.078C61.0532 22.0892 60.9677 22.0948 60.8822 22.0948C60.622 22.0948 60.399 22.0613 60.2132 21.9944C60.0274 21.9238 59.875 21.8197 59.7561 21.6822C59.6371 21.541 59.5498 21.3645 59.4941 21.1526C59.442 20.9371 59.416 20.6843 59.416 20.3944V17.462H58.7136C58.6578 17.462 58.6132 17.4323 58.5798 17.3728C58.5463 17.3134 58.5296 17.2167 58.5296 17.0829C58.5296 17.0123 58.5333 16.9529 58.5407 16.9045C58.5519 16.8562 58.5649 16.8172 58.5798 16.7875C58.5946 16.754 58.6132 16.7317 58.6355 16.7206C58.6615 16.7057 58.6894 16.6983 58.7191 16.6983H59.416V15.5052C59.416 15.4792 59.4216 15.4551 59.4327 15.4328C59.4476 15.4105 59.4718 15.3919 59.5052 15.377C59.5424 15.3584 59.5907 15.3454 59.6502 15.338C59.7096 15.3306 59.784 15.3268 59.8731 15.3268C59.9661 15.3268 60.0423 15.3306 60.1017 15.338C60.1612 15.3454 60.2076 15.3584 60.2411 15.377C60.2745 15.3919 60.2987 15.4105 60.3136 15.4328C60.3284 15.4551 60.3359 15.4792 60.3359 15.5052V16.6983H61.6237C61.6534 16.6983 61.6794 16.7057 61.7017 16.7206C61.724 16.7317 61.7426 16.754 61.7575 16.7875C61.776 16.8172 61.7891 16.8562 61.7965 16.9045C61.8039 16.9529 61.8076 17.0123 61.8076 17.0829C61.8076 17.2167 61.7909 17.3134 61.7575 17.3728C61.724 17.4323 61.6794 17.462 61.6237 17.462H60.3359V20.2606C60.3359 20.6063 60.386 20.8683 60.4864 21.0467C60.5905 21.2214 60.7744 21.3087 61.0383 21.3087C61.1238 21.3087 61.2 21.3013 61.2669 21.2864C61.3338 21.2678 61.3932 21.2492 61.4453 21.2307C61.4973 21.2121 61.5419 21.1954 61.5791 21.1805C61.6162 21.1619 61.6497 21.1526 61.6794 21.1526C61.698 21.1526 61.7147 21.1582 61.7296 21.1693C61.7482 21.1768 61.7612 21.1935 61.7686 21.2195C61.7798 21.2455 61.7891 21.2808 61.7965 21.3254C61.8039 21.37 61.8076 21.4258 61.8076 21.4927ZM69.4564 21.5819C69.4564 21.6562 69.4527 21.7194 69.4452 21.7714C69.4378 21.8197 69.4248 21.8625 69.4062 21.8997C69.3914 21.9331 69.3709 21.9591 69.3449 21.9777C69.3226 21.9926 69.2947 22 69.2613 22H66.0724C65.987 22 65.9052 21.9721 65.8271 21.9164C65.7528 21.8569 65.7156 21.7547 65.7156 21.6098V14.931C65.7156 14.9013 65.7231 14.8753 65.7379 14.853C65.7528 14.8307 65.7788 14.814 65.816 14.8028C65.8532 14.7879 65.9033 14.7768 65.9665 14.7694C66.0297 14.7582 66.1059 14.7526 66.1951 14.7526C66.288 14.7526 66.3642 14.7582 66.4237 14.7694C66.4868 14.7768 66.537 14.7879 66.5742 14.8028C66.6113 14.814 66.6374 14.8307 66.6522 14.853C66.6671 14.8753 66.6745 14.9013 66.6745 14.931V21.1693H69.2613C69.2947 21.1693 69.3226 21.1786 69.3449 21.1972C69.3709 21.2121 69.3914 21.2362 69.4062 21.2697C69.4248 21.2994 69.4378 21.3403 69.4452 21.3923C69.4527 21.4444 69.4564 21.5076 69.4564 21.5819ZM74.1951 21.8662C74.1951 21.9108 74.1802 21.9443 74.1505 21.9666C74.1207 21.9889 74.0799 22.0056 74.0278 22.0167C73.9758 22.0279 73.8996 22.0334 73.7992 22.0334C73.7026 22.0334 73.6246 22.0279 73.5651 22.0167C73.5094 22.0056 73.4685 21.9889 73.4425 21.9666C73.4164 21.9443 73.4034 21.9108 73.4034 21.8662V21.3645C73.1841 21.5986 72.9389 21.7807 72.6675 21.9108C72.3999 22.0409 72.1156 22.1059 71.8146 22.1059C71.5507 22.1059 71.311 22.0706 71.0954 22C70.8836 21.9331 70.7015 21.8346 70.5491 21.7045C70.4004 21.5744 70.2833 21.4146 70.1979 21.2251C70.1161 21.0355 70.0752 20.82 70.0752 20.5784C70.0752 20.2959 70.1328 20.0506 70.248 19.8425C70.3633 19.6344 70.5286 19.4616 70.7442 19.324C70.9598 19.1865 71.2236 19.0843 71.5358 19.0174C71.848 18.9468 72.1993 18.9115 72.5895 18.9115H73.2808V18.5213C73.2808 18.328 73.2603 18.157 73.2195 18.0084C73.1786 17.8597 73.1117 17.7371 73.0188 17.6404C72.9296 17.5401 72.8125 17.4657 72.6675 17.4174C72.5226 17.3654 72.3442 17.3394 72.1324 17.3394C71.9056 17.3394 71.7012 17.3673 71.5191 17.423C71.3407 17.475 71.1828 17.5345 71.0452 17.6014C70.9114 17.6646 70.7981 17.7241 70.7052 17.7798C70.616 17.8318 70.5491 17.8579 70.5045 17.8579C70.4747 17.8579 70.4487 17.8504 70.4264 17.8356C70.4041 17.8207 70.3837 17.7984 70.3651 17.7687C70.3502 17.7389 70.3391 17.7018 70.3317 17.6572C70.3242 17.6088 70.3205 17.5568 70.3205 17.5011C70.3205 17.4081 70.3261 17.3357 70.3372 17.2836C70.3521 17.2279 70.3837 17.1759 70.432 17.1275C70.484 17.0792 70.5714 17.0235 70.694 16.9603C70.8167 16.8934 70.9579 16.8339 71.1177 16.7819C71.2775 16.7261 71.4522 16.6815 71.6418 16.6481C71.8313 16.6109 72.0227 16.5923 72.216 16.5923C72.5765 16.5923 72.8831 16.6332 73.1358 16.715C73.3886 16.7968 73.593 16.9176 73.7491 17.0774C73.9052 17.2335 74.0185 17.4286 74.0891 17.6627C74.1598 17.8969 74.1951 18.17 74.1951 18.4822V21.8662ZM73.2808 19.5749H72.4947C72.242 19.5749 72.0227 19.5972 71.8369 19.6418C71.6511 19.6827 71.4968 19.7459 71.3742 19.8314C71.2515 19.9131 71.1605 20.0135 71.101 20.1324C71.0452 20.2476 71.0174 20.3814 71.0174 20.5338C71.0174 20.794 71.0991 21.0021 71.2627 21.1582C71.4299 21.3106 71.6622 21.3868 71.9595 21.3868C72.2011 21.3868 72.4241 21.3254 72.6285 21.2028C72.8366 21.0801 73.0541 20.8925 73.2808 20.6397V19.5749ZM80.5058 19.285C80.5058 19.7199 80.4575 20.112 80.3609 20.4613C80.268 20.807 80.1286 21.1024 79.9428 21.3477C79.7607 21.593 79.5358 21.7807 79.2682 21.9108C79.0006 22.0409 78.694 22.1059 78.3484 22.1059C78.1885 22.1059 78.0399 22.0892 77.9024 22.0557C77.7686 22.026 77.6366 21.9758 77.5066 21.9052C77.3765 21.8346 77.2464 21.7454 77.1163 21.6376C76.9862 21.5299 76.8487 21.3998 76.7038 21.2474V21.8606C76.7038 21.8904 76.6963 21.9164 76.6815 21.9387C76.6666 21.961 76.6424 21.9796 76.609 21.9944C76.5755 22.0056 76.5328 22.0149 76.4808 22.0223C76.4325 22.0297 76.3693 22.0334 76.2912 22.0334C76.2169 22.0334 76.1537 22.0297 76.1017 22.0223C76.0496 22.0149 76.0069 22.0056 75.9735 21.9944C75.94 21.9796 75.9177 21.961 75.9066 21.9387C75.8954 21.9164 75.8898 21.8904 75.8898 21.8606V14.4126C75.8898 14.3828 75.8954 14.3568 75.9066 14.3345C75.9214 14.3122 75.9456 14.2936 75.979 14.2788C76.0162 14.2639 76.0645 14.2528 76.124 14.2453C76.1834 14.2379 76.2578 14.2342 76.347 14.2342C76.4399 14.2342 76.5161 14.2379 76.5755 14.2453C76.635 14.2528 76.6815 14.2639 76.7149 14.2788C76.7484 14.2936 76.7725 14.3122 76.7874 14.3345C76.8023 14.3568 76.8097 14.3828 76.8097 14.4126V17.4174C76.9584 17.2651 77.1014 17.1368 77.239 17.0328C77.3802 16.9287 77.5177 16.8451 77.6515 16.7819C77.7853 16.715 77.9191 16.6667 78.0529 16.6369C78.1867 16.6072 78.3279 16.5923 78.4766 16.5923C78.8408 16.5923 79.1511 16.6648 79.4076 16.8098C79.6678 16.9547 79.8777 17.1498 80.0376 17.3951C80.2011 17.6367 80.32 17.921 80.3943 18.2481C80.4687 18.5752 80.5058 18.9208 80.5058 19.285ZM79.5358 19.3909C79.5358 19.1345 79.5154 18.8855 79.4745 18.6439C79.4373 18.4023 79.3704 18.1886 79.2738 18.0028C79.1772 17.817 79.0489 17.6683 78.8891 17.5568C78.7293 17.4416 78.5305 17.384 78.2926 17.384C78.1737 17.384 78.0566 17.4007 77.9414 17.4342C77.8262 17.4676 77.7091 17.5234 77.5902 17.6014C77.4712 17.6795 77.3467 17.7798 77.2167 17.9025C77.0903 18.0251 76.9546 18.1793 76.8097 18.3652V20.3666C77.0624 20.675 77.304 20.911 77.5344 21.0746C77.7649 21.2344 78.0046 21.3143 78.2536 21.3143C78.484 21.3143 78.681 21.2585 78.8445 21.147C79.0081 21.0355 79.14 20.8887 79.2403 20.7066C79.3444 20.5208 79.4187 20.3145 79.4633 20.0878C79.5117 19.8574 79.5358 19.6251 79.5358 19.3909Z" fill="#366091"/>
</svg>
