<svg width="358" height="312" viewBox="0 0 358 312" fill="none" xmlns="http://www.w3.org/2000/svg">
<g filter="url(#filter0_d)">
<mask id="mask0" mask-type="alpha" maskUnits="userSpaceOnUse" x="0" y="0" width="350" height="304">
<path d="M323.012 26.8758C314.46 18.3554 304.306 11.5964 293.13 6.98496C281.954 2.37352 269.975 0 257.878 0C245.781 0 233.802 2.37352 222.626 6.98496C211.45 11.5964 201.296 18.3554 192.744 26.8758L174.996 44.5504L157.247 26.8758C139.972 9.67323 116.543 0.0089167 92.1132 0.00891688C67.6832 0.00891706 44.2539 9.67323 26.9793 26.8758C9.70475 44.0784 1.82017e-07 67.4101 0 91.7382C-1.82017e-07 116.066 9.70475 139.398 26.9793 156.601L44.7279 174.275L174.996 304L305.263 174.275L323.012 156.601C331.568 148.084 338.355 137.973 342.986 126.843C347.617 115.714 350 103.785 350 91.7382C350 79.6914 347.617 67.7625 342.986 56.6332C338.355 45.5039 331.568 35.3922 323.012 26.8758Z" fill="#303030"/>
</mask>
<g mask="url(#mask0)">
<rect x="-32" y="-92" width="112" height="475" fill="#FDB515"/>
<rect x="38" y="-111" width="281" height="426" fill="#CFDD45"/>
<rect x="18" y="-9" width="58" height="407" fill="#00B0DA"/>
<rect x="291" y="-8" width="58" height="306" fill="#00B0DA"/>
<rect x="194" y="2" width="66" height="306" fill="#00B0DA"/>
<rect x="96" y="-105" width="127" height="306" fill="#D9661F"/>
<rect x="76" y="92" width="236" height="74" fill="#00A598"/>
<rect x="107" y="-69" width="44" height="240" fill="#00B0DA"/>
<rect x="126" y="-72" width="44" height="240" fill="#00B0DA"/>
<rect x="131" y="36" width="51" height="28" fill="#EE1F60"/>
<rect x="108" y="-24" width="80" height="39" fill="#FDB515"/>
<rect x="162" y="28" width="44" height="240" fill="#CFDD45"/>
<rect x="153" y="183" width="50" height="39" fill="#EE1F60"/>
<rect x="175" y="-88" width="78" height="126" fill="#EE1F60"/>
<rect x="230" y="134" width="50" height="126" fill="#EE1F60"/>
<rect x="292" y="182" width="50" height="39" fill="#EE1F60"/>
<rect x="26" y="114" width="50" height="39" fill="#EE1F60"/>
<rect x="194" y="166" width="51" height="75" fill="#FDB515"/>
<rect x="235" y="-41" width="112" height="150" fill="#FDB515"/>
<rect x="201" y="-28" width="51" height="56" fill="#D9661F"/>
<rect x="170" y="-8" width="43" height="83" fill="#00A598"/>
<rect x="38" y="66" width="78" height="26" fill="#00A598"/>
<rect x="265" y="197" width="38" height="211" fill="#00A598"/>
<rect x="102" y="214" width="72" height="83" fill="#00A598"/>
<rect x="76" y="-82" width="31" height="83" fill="#00A598"/>
<rect x="262" y="38" width="50" height="39" fill="#00B0DA"/>
<rect x="91" y="207" width="50" height="39" fill="#00B0DA"/>
<rect x="-20" y="151" width="136" height="29" fill="#CFDD45"/>
<rect x="66" y="241" width="80" height="39" fill="#FDB515"/>
<rect x="51" y="47" width="51" height="150" fill="#FDB515"/>
<path fill-rule="evenodd" clip-rule="evenodd" d="M181 29.5C181 23.695 185.695 19 191.5 19C197.305 19 202 23.695 202 29.5C202 35.755 195.37 44.38 192.655 47.665C192.055 48.385 190.96 48.385 190.36 47.665C187.63 44.38 181 35.755 181 29.5ZM187.75 29.5C187.75 31.57 189.43 33.25 191.5 33.25C193.57 33.25 195.25 31.57 195.25 29.5C195.25 27.43 193.57 25.75 191.5 25.75C189.43 25.75 187.75 27.43 187.75 29.5Z" fill="#DB7B2B"/>
<path fill-rule="evenodd" clip-rule="evenodd" d="M185 112.5C185 106.695 189.695 102 195.5 102C201.305 102 206 106.695 206 112.5C206 118.755 199.37 127.38 196.655 130.665C196.055 131.385 194.96 131.385 194.36 130.665C191.63 127.38 185 118.755 185 112.5ZM191.75 112.5C191.75 114.57 193.43 116.25 195.5 116.25C197.57 116.25 199.25 114.57 199.25 112.5C199.25 110.43 197.57 108.75 195.5 108.75C193.43 108.75 191.75 110.43 191.75 112.5Z" fill="#DB7B2B"/>
<path fill-rule="evenodd" clip-rule="evenodd" d="M30 10.5C30 4.695 34.695 0 40.5 0C46.305 0 51 4.695 51 10.5C51 16.755 44.37 25.38 41.655 28.665C41.055 29.385 39.96 29.385 39.36 28.665C36.63 25.38 30 16.755 30 10.5ZM36.75 10.5C36.75 12.57 38.43 14.25 40.5 14.25C42.57 14.25 44.25 12.57 44.25 10.5C44.25 8.43 42.57 6.75 40.5 6.75C38.43 6.75 36.75 8.43 36.75 10.5Z" fill="#E7B416"/>
<path fill-rule="evenodd" clip-rule="evenodd" d="M322 70.5C322 64.695 326.695 60 332.5 60C338.305 60 343 64.695 343 70.5C343 76.755 336.37 85.38 333.655 88.665C333.055 89.385 331.96 89.385 331.36 88.665C328.63 85.38 322 76.755 322 70.5ZM328.75 70.5C328.75 72.57 330.43 74.25 332.5 74.25C334.57 74.25 336.25 72.57 336.25 70.5C336.25 68.43 334.57 66.75 332.5 66.75C330.43 66.75 328.75 68.43 328.75 70.5Z" fill="#E7B416"/>
<path fill-rule="evenodd" clip-rule="evenodd" d="M302 49.5C302 43.695 306.695 39 312.5 39C318.305 39 323 43.695 323 49.5C323 55.755 316.37 64.38 313.655 67.665C313.055 68.385 311.96 68.385 311.36 67.665C308.63 64.38 302 55.755 302 49.5ZM308.75 49.5C308.75 51.57 310.43 53.25 312.5 53.25C314.57 53.25 316.25 51.57 316.25 49.5C316.25 47.43 314.57 45.75 312.5 45.75C310.43 45.75 308.75 47.43 308.75 49.5Z" fill="#E7B416"/>
<path fill-rule="evenodd" clip-rule="evenodd" d="M230 294.5C230 288.695 234.695 284 240.5 284C246.305 284 251 288.695 251 294.5C251 300.755 244.37 309.38 241.655 312.665C241.055 313.385 239.96 313.385 239.36 312.665C236.63 309.38 230 300.755 230 294.5ZM236.75 294.5C236.75 296.57 238.43 298.25 240.5 298.25C242.57 298.25 244.25 296.57 244.25 294.5C244.25 292.43 242.57 290.75 240.5 290.75C238.43 290.75 236.75 292.43 236.75 294.5Z" fill="#E7B416"/>
<path fill-rule="evenodd" clip-rule="evenodd" d="M151 245.5C151 239.695 155.695 235 161.5 235C167.305 235 172 239.695 172 245.5C172 251.755 165.37 260.38 162.655 263.665C162.055 264.385 160.96 264.385 160.36 263.665C157.63 260.38 151 251.755 151 245.5ZM157.75 245.5C157.75 247.57 159.43 249.25 161.5 249.25C163.57 249.25 165.25 247.57 165.25 245.5C165.25 243.43 163.57 241.75 161.5 241.75C159.43 241.75 157.75 243.43 157.75 245.5Z" fill="#E7B416"/>
<path fill-rule="evenodd" clip-rule="evenodd" d="M56 50.5C56 44.695 60.695 40 66.5 40C72.305 40 77 44.695 77 50.5C77 56.755 70.37 65.38 67.655 68.665C67.055 69.385 65.96 69.385 65.36 68.665C62.63 65.38 56 56.755 56 50.5ZM62.75 50.5C62.75 52.57 64.43 54.25 66.5 54.25C68.57 54.25 70.25 52.57 70.25 50.5C70.25 48.43 68.57 46.75 66.5 46.75C64.43 46.75 62.75 48.43 62.75 50.5Z" fill="#CC3232"/>
<path fill-rule="evenodd" clip-rule="evenodd" d="M176 259.5C176 253.695 180.695 249 186.5 249C192.305 249 197 253.695 197 259.5C197 265.755 190.37 274.38 187.655 277.665C187.055 278.385 185.96 278.385 185.36 277.665C182.63 274.38 176 265.755 176 259.5ZM182.75 259.5C182.75 261.57 184.43 263.25 186.5 263.25C188.57 263.25 190.25 261.57 190.25 259.5C190.25 257.43 188.57 255.75 186.5 255.75C184.43 255.75 182.75 257.43 182.75 259.5Z" fill="#CC3232"/>
<path fill-rule="evenodd" clip-rule="evenodd" d="M73 114.5C73 108.695 77.695 104 83.5 104C89.305 104 94 108.695 94 114.5C94 120.755 87.37 129.38 84.655 132.665C84.055 133.385 82.96 133.385 82.36 132.665C79.63 129.38 73 120.755 73 114.5ZM79.75 114.5C79.75 116.57 81.43 118.25 83.5 118.25C85.57 118.25 87.25 116.57 87.25 114.5C87.25 112.43 85.57 110.75 83.5 110.75C81.43 110.75 79.75 112.43 79.75 114.5Z" fill="#CC3232"/>
<path fill-rule="evenodd" clip-rule="evenodd" d="M126 32.5C126 26.695 130.695 22 136.5 22C142.305 22 147 26.695 147 32.5C147 38.755 140.37 47.38 137.655 50.665C137.055 51.385 135.96 51.385 135.36 50.665C132.63 47.38 126 38.755 126 32.5ZM132.75 32.5C132.75 34.57 134.43 36.25 136.5 36.25C138.57 36.25 140.25 34.57 140.25 32.5C140.25 30.43 138.57 28.75 136.5 28.75C134.43 28.75 132.75 30.43 132.75 32.5Z" fill="#CC3232"/>
<path fill-rule="evenodd" clip-rule="evenodd" d="M80 75.5C80 69.695 84.695 65 90.5 65C96.305 65 101 69.695 101 75.5C101 81.755 94.37 90.38 91.655 93.665C91.055 94.385 89.96 94.385 89.36 93.665C86.63 90.38 80 81.755 80 75.5ZM86.75 75.5C86.75 77.57 88.43 79.25 90.5 79.25C92.57 79.25 94.25 77.57 94.25 75.5C94.25 73.43 92.57 71.75 90.5 71.75C88.43 71.75 86.75 73.43 86.75 75.5Z" fill="#DB7B2B"/>
<path fill-rule="evenodd" clip-rule="evenodd" d="M105 248.5C105 242.695 109.695 238 115.5 238C121.305 238 126 242.695 126 248.5C126 254.755 119.37 263.38 116.655 266.665C116.055 267.385 114.96 267.385 114.36 266.665C111.63 263.38 105 254.755 105 248.5ZM111.75 248.5C111.75 250.57 113.43 252.25 115.5 252.25C117.57 252.25 119.25 250.57 119.25 248.5C119.25 246.43 117.57 244.75 115.5 244.75C113.43 244.75 111.75 246.43 111.75 248.5Z" fill="#DB7B2B"/>
<path fill-rule="evenodd" clip-rule="evenodd" d="M45 312.5C45 306.695 49.695 302 55.5 302C61.305 302 66 306.695 66 312.5C66 318.755 59.37 327.38 56.655 330.665C56.055 331.385 54.96 331.385 54.36 330.665C51.63 327.38 45 318.755 45 312.5ZM51.75 312.5C51.75 314.57 53.43 316.25 55.5 316.25C57.57 316.25 59.25 314.57 59.25 312.5C59.25 310.43 57.57 308.75 55.5 308.75C53.43 308.75 51.75 310.43 51.75 312.5Z" fill="#DB7B2B"/>
<path fill-rule="evenodd" clip-rule="evenodd" d="M30 162.5C30 156.695 34.695 152 40.5 152C46.305 152 51 156.695 51 162.5C51 168.755 44.37 177.38 41.655 180.665C41.055 181.385 39.96 181.385 39.36 180.665C36.63 177.38 30 168.755 30 162.5ZM36.75 162.5C36.75 164.57 38.43 166.25 40.5 166.25C42.57 166.25 44.25 164.57 44.25 162.5C44.25 160.43 42.57 158.75 40.5 158.75C38.43 158.75 36.75 160.43 36.75 162.5Z" fill="#DB7B2B"/>
<path fill-rule="evenodd" clip-rule="evenodd" d="M68 173.5C68 167.695 72.695 163 78.5 163C84.305 163 89 167.695 89 173.5C89 179.755 82.37 188.38 79.655 191.665C79.055 192.385 77.96 192.385 77.36 191.665C74.63 188.38 68 179.755 68 173.5ZM74.75 173.5C74.75 175.57 76.43 177.25 78.5 177.25C80.57 177.25 82.25 175.57 82.25 173.5C82.25 171.43 80.57 169.75 78.5 169.75C76.43 169.75 74.75 171.43 74.75 173.5Z" fill="#DB7B2B"/>
<path fill-rule="evenodd" clip-rule="evenodd" d="M34 118.5C34 112.695 38.695 108 44.5 108C50.305 108 55 112.695 55 118.5C55 124.755 48.37 133.38 45.655 136.665C45.055 137.385 43.96 137.385 43.36 136.665C40.63 133.38 34 124.755 34 118.5ZM40.75 118.5C40.75 120.57 42.43 122.25 44.5 122.25C46.57 122.25 48.25 120.57 48.25 118.5C48.25 116.43 46.57 114.75 44.5 114.75C42.43 114.75 40.75 116.43 40.75 118.5Z" fill="#DB7B2B"/>
<path fill-rule="evenodd" clip-rule="evenodd" d="M124 119.5C124 113.695 128.695 109 134.5 109C140.305 109 145 113.695 145 119.5C145 125.755 138.37 134.38 135.655 137.665C135.055 138.385 133.96 138.385 133.36 137.665C130.63 134.38 124 125.755 124 119.5ZM130.75 119.5C130.75 121.57 132.43 123.25 134.5 123.25C136.57 123.25 138.25 121.57 138.25 119.5C138.25 117.43 136.57 115.75 134.5 115.75C132.43 115.75 130.75 117.43 130.75 119.5Z" fill="#DB7B2B"/>
<path fill-rule="evenodd" clip-rule="evenodd" d="M159 198.5C159 192.695 163.695 188 169.5 188C175.305 188 180 192.695 180 198.5C180 204.755 173.37 213.38 170.655 216.665C170.055 217.385 168.96 217.385 168.36 216.665C165.63 213.38 159 204.755 159 198.5ZM165.75 198.5C165.75 200.57 167.43 202.25 169.5 202.25C171.57 202.25 173.25 200.57 173.25 198.5C173.25 196.43 171.57 194.75 169.5 194.75C167.43 194.75 165.75 196.43 165.75 198.5Z" fill="#DB7B2B"/>
<path fill-rule="evenodd" clip-rule="evenodd" d="M282 132.5C282 126.695 286.695 122 292.5 122C298.305 122 303 126.695 303 132.5C303 138.755 296.37 147.38 293.655 150.665C293.055 151.385 291.96 151.385 291.36 150.665C288.63 147.38 282 138.755 282 132.5ZM288.75 132.5C288.75 134.57 290.43 136.25 292.5 136.25C294.57 136.25 296.25 134.57 296.25 132.5C296.25 130.43 294.57 128.75 292.5 128.75C290.43 128.75 288.75 130.43 288.75 132.5Z" fill="#DB7B2B"/>
<path fill-rule="evenodd" clip-rule="evenodd" d="M250 168.5C250 162.695 254.695 158 260.5 158C266.305 158 271 162.695 271 168.5C271 174.755 264.37 183.38 261.655 186.665C261.055 187.385 259.96 187.385 259.36 186.665C256.63 183.38 250 174.755 250 168.5ZM256.75 168.5C256.75 170.57 258.43 172.25 260.5 172.25C262.57 172.25 264.25 170.57 264.25 168.5C264.25 166.43 262.57 164.75 260.5 164.75C258.43 164.75 256.75 166.43 256.75 168.5Z" fill="#DB7B2B"/>
<path fill-rule="evenodd" clip-rule="evenodd" d="M155 65.5C155 59.695 159.695 55 165.5 55C171.305 55 176 59.695 176 65.5C176 71.755 169.37 80.38 166.655 83.665C166.055 84.385 164.96 84.385 164.36 83.665C161.63 80.38 155 71.755 155 65.5ZM161.75 65.5C161.75 67.57 163.43 69.25 165.5 69.25C167.57 69.25 169.25 67.57 169.25 65.5C169.25 63.43 167.57 61.75 165.5 61.75C163.43 61.75 161.75 63.43 161.75 65.5Z" fill="#E7B416"/>
<path fill-rule="evenodd" clip-rule="evenodd" d="M110 73.5C110 67.695 114.695 63 120.5 63C126.305 63 131 67.695 131 73.5C131 79.755 124.37 88.38 121.655 91.665C121.055 92.385 119.96 92.385 119.36 91.665C116.63 88.38 110 79.755 110 73.5ZM116.75 73.5C116.75 75.57 118.43 77.25 120.5 77.25C122.57 77.25 124.25 75.57 124.25 73.5C124.25 71.43 122.57 69.75 120.5 69.75C118.43 69.75 116.75 71.43 116.75 73.5Z" fill="#E7B416"/>
<path fill-rule="evenodd" clip-rule="evenodd" d="M34 237.5C34 231.695 38.695 227 44.5 227C50.305 227 55 231.695 55 237.5C55 243.755 48.37 252.38 45.655 255.665C45.055 256.385 43.96 256.385 43.36 255.665C40.63 252.38 34 243.755 34 237.5ZM40.75 237.5C40.75 239.57 42.43 241.25 44.5 241.25C46.57 241.25 48.25 239.57 48.25 237.5C48.25 235.43 46.57 233.75 44.5 233.75C42.43 233.75 40.75 235.43 40.75 237.5Z" fill="#E7B416"/>
<path fill-rule="evenodd" clip-rule="evenodd" d="M205 95.5C205 89.695 209.695 85 215.5 85C221.305 85 226 89.695 226 95.5C226 101.755 219.37 110.38 216.655 113.665C216.055 114.385 214.96 114.385 214.36 113.665C211.63 110.38 205 101.755 205 95.5ZM211.75 95.5C211.75 97.57 213.43 99.25 215.5 99.25C217.57 99.25 219.25 97.57 219.25 95.5C219.25 93.43 217.57 91.75 215.5 91.75C213.43 91.75 211.75 93.43 211.75 95.5Z" fill="#CC3232"/>
<path fill-rule="evenodd" clip-rule="evenodd" d="M133 166.5C133 160.695 137.695 156 143.5 156C149.305 156 154 160.695 154 166.5C154 172.755 147.37 181.38 144.655 184.665C144.055 185.385 142.96 185.385 142.36 184.665C139.63 181.38 133 172.755 133 166.5ZM139.75 166.5C139.75 168.57 141.43 170.25 143.5 170.25C145.57 170.25 147.25 168.57 147.25 166.5C147.25 164.43 145.57 162.75 143.5 162.75C141.43 162.75 139.75 164.43 139.75 166.5Z" fill="#CC3232"/>
<path fill-rule="evenodd" clip-rule="evenodd" d="M115 212.5C115 206.695 119.695 202 125.5 202C131.305 202 136 206.695 136 212.5C136 218.755 129.37 227.38 126.655 230.665C126.055 231.385 124.96 231.385 124.36 230.665C121.63 227.38 115 218.755 115 212.5ZM121.75 212.5C121.75 214.57 123.43 216.25 125.5 216.25C127.57 216.25 129.25 214.57 129.25 212.5C129.25 210.43 127.57 208.75 125.5 208.75C123.43 208.75 121.75 210.43 121.75 212.5Z" fill="#CC3232"/>
<path fill-rule="evenodd" clip-rule="evenodd" d="M276 -4.5C276 -10.305 280.695 -15 286.5 -15C292.305 -15 297 -10.305 297 -4.5C297 1.755 290.37 10.38 287.655 13.665C287.055 14.385 285.96 14.385 285.36 13.665C282.63 10.38 276 1.755 276 -4.5ZM282.75 -4.5C282.75 -2.43 284.43 -0.750001 286.5 -0.750001C288.57 -0.750001 290.25 -2.43 290.25 -4.5C290.25 -6.57 288.57 -8.25 286.5 -8.25C284.43 -8.25 282.75 -6.57 282.75 -4.5Z" fill="#CC3232"/>
<path fill-rule="evenodd" clip-rule="evenodd" d="M206 32.5C206 26.695 210.695 22 216.5 22C222.305 22 227 26.695 227 32.5C227 38.755 220.37 47.38 217.655 50.665C217.055 51.385 215.96 51.385 215.36 50.665C212.63 47.38 206 38.755 206 32.5ZM212.75 32.5C212.75 34.57 214.43 36.25 216.5 36.25C218.57 36.25 220.25 34.57 220.25 32.5C220.25 30.43 218.57 28.75 216.5 28.75C214.43 28.75 212.75 30.43 212.75 32.5Z" fill="#E7B416"/>
<path fill-rule="evenodd" clip-rule="evenodd" d="M259 45.5C259 39.695 263.695 35 269.5 35C275.305 35 280 39.695 280 45.5C280 51.755 273.37 60.38 270.655 63.665C270.055 64.385 268.96 64.385 268.36 63.665C265.63 60.38 259 51.755 259 45.5ZM265.75 45.5C265.75 47.57 267.43 49.25 269.5 49.25C271.57 49.25 273.25 47.57 273.25 45.5C273.25 43.43 271.57 41.75 269.5 41.75C267.43 41.75 265.75 43.43 265.75 45.5Z" fill="#99C140"/>
<path fill-rule="evenodd" clip-rule="evenodd" d="M315 137.5C315 131.695 319.695 127 325.5 127C331.305 127 336 131.695 336 137.5C336 143.755 329.37 152.38 326.655 155.665C326.055 156.385 324.96 156.385 324.36 155.665C321.63 152.38 315 143.755 315 137.5ZM321.75 137.5C321.75 139.57 323.43 141.25 325.5 141.25C327.57 141.25 329.25 139.57 329.25 137.5C329.25 135.43 327.57 133.75 325.5 133.75C323.43 133.75 321.75 135.43 321.75 137.5Z" fill="#99C140"/>
<path fill-rule="evenodd" clip-rule="evenodd" d="M176 147.5C176 141.695 180.695 137 186.5 137C192.305 137 197 141.695 197 147.5C197 153.755 190.37 162.38 187.655 165.665C187.055 166.385 185.96 166.385 185.36 165.665C182.63 162.38 176 153.755 176 147.5ZM182.75 147.5C182.75 149.57 184.43 151.25 186.5 151.25C188.57 151.25 190.25 149.57 190.25 147.5C190.25 145.43 188.57 143.75 186.5 143.75C184.43 143.75 182.75 145.43 182.75 147.5Z" fill="#99C140"/>
<path fill-rule="evenodd" clip-rule="evenodd" d="M73 23.5C73 17.695 77.695 13 83.5 13C89.305 13 94 17.695 94 23.5C94 29.755 87.37 38.38 84.655 41.665C84.055 42.385 82.96 42.385 82.36 41.665C79.63 38.38 73 29.755 73 23.5ZM79.75 23.5C79.75 25.57 81.43 27.25 83.5 27.25C85.57 27.25 87.25 25.57 87.25 23.5C87.25 21.43 85.57 19.75 83.5 19.75C81.43 19.75 79.75 21.43 79.75 23.5Z" fill="#99C140"/>
<path fill-rule="evenodd" clip-rule="evenodd" d="M35 70.5C35 64.695 39.695 60 45.5 60C51.305 60 56 64.695 56 70.5C56 76.755 49.37 85.38 46.655 88.665C46.055 89.385 44.96 89.385 44.36 88.665C41.63 85.38 35 76.755 35 70.5ZM41.75 70.5C41.75 72.57 43.43 74.25 45.5 74.25C47.57 74.25 49.25 72.57 49.25 70.5C49.25 68.43 47.57 66.75 45.5 66.75C43.43 66.75 41.75 68.43 41.75 70.5Z" fill="#99C140"/>
<path fill-rule="evenodd" clip-rule="evenodd" d="M229 59.5C229 53.695 233.695 49 239.5 49C245.305 49 250 53.695 250 59.5C250 65.755 243.37 74.38 240.655 77.665C240.055 78.385 238.96 78.385 238.36 77.665C235.63 74.38 229 65.755 229 59.5ZM235.75 59.5C235.75 61.57 237.43 63.25 239.5 63.25C241.57 63.25 243.25 61.57 243.25 59.5C243.25 57.43 241.57 55.75 239.5 55.75C237.43 55.75 235.75 57.43 235.75 59.5Z" fill="#99C140"/>
<path fill-rule="evenodd" clip-rule="evenodd" d="M159 288.5C159 282.695 163.695 278 169.5 278C175.305 278 180 282.695 180 288.5C180 294.755 173.37 303.38 170.655 306.665C170.055 307.385 168.96 307.385 168.36 306.665C165.63 303.38 159 294.755 159 288.5ZM165.75 288.5C165.75 290.57 167.43 292.25 169.5 292.25C171.57 292.25 173.25 290.57 173.25 288.5C173.25 286.43 171.57 284.75 169.5 284.75C167.43 284.75 165.75 286.43 165.75 288.5Z" fill="#99C140"/>
<path fill-rule="evenodd" clip-rule="evenodd" d="M340 152.5C340 146.695 344.695 142 350.5 142C356.305 142 361 146.695 361 152.5C361 158.755 354.37 167.38 351.655 170.665C351.055 171.385 349.96 171.385 349.36 170.665C346.63 167.38 340 158.755 340 152.5ZM346.75 152.5C346.75 154.57 348.43 156.25 350.5 156.25C352.57 156.25 354.25 154.57 354.25 152.5C354.25 150.43 352.57 148.75 350.5 148.75C348.43 148.75 346.75 150.43 346.75 152.5Z" fill="#99C140"/>
<path fill-rule="evenodd" clip-rule="evenodd" d="M277 88.5C277 82.695 281.695 78 287.5 78C293.305 78 298 82.695 298 88.5C298 94.755 291.37 103.38 288.655 106.665C288.055 107.385 286.96 107.385 286.36 106.665C283.63 103.38 277 94.755 277 88.5ZM283.75 88.5C283.75 90.57 285.43 92.25 287.5 92.25C289.57 92.25 291.25 90.57 291.25 88.5C291.25 86.43 289.57 84.75 287.5 84.75C285.43 84.75 283.75 86.43 283.75 88.5Z" fill="#2DC937"/>
<path fill-rule="evenodd" clip-rule="evenodd" d="M226 139.5C226 133.695 230.695 129 236.5 129C242.305 129 247 133.695 247 139.5C247 145.755 240.37 154.38 237.655 157.665C237.055 158.385 235.96 158.385 235.36 157.665C232.63 154.38 226 145.755 226 139.5ZM230.75 137.5C230.75 139.57 232.43 141.25 234.5 141.25C236.57 141.25 238.25 139.57 238.25 137.5C238.25 135.43 236.57 133.75 234.5 133.75C232.43 133.75 230.75 135.43 230.75 137.5Z" fill="#2DC937"/>
<path fill-rule="evenodd" clip-rule="evenodd" d="M80 202.5C80 196.695 84.695 192 90.5 192C96.305 192 101 196.695 101 202.5C101 208.755 94.37 217.38 91.655 220.665C91.055 221.385 89.96 221.385 89.36 220.665C86.63 217.38 80 208.755 80 202.5ZM86.75 202.5C86.75 204.57 88.43 206.25 90.5 206.25C92.57 206.25 94.25 204.57 94.25 202.5C94.25 200.43 92.57 198.75 90.5 198.75C88.43 198.75 86.75 200.43 86.75 202.5Z" fill="#2DC937"/>
<path fill-rule="evenodd" clip-rule="evenodd" d="M212 203.5C212 197.695 216.695 193 222.5 193C228.305 193 233 197.695 233 203.5C233 209.755 226.37 218.38 223.655 221.665C223.055 222.385 221.96 222.385 221.36 221.665C218.63 218.38 212 209.755 212 203.5ZM218.75 203.5C218.75 205.57 220.43 207.25 222.5 207.25C224.57 207.25 226.25 205.57 226.25 203.5C226.25 201.43 224.57 199.75 222.5 199.75C220.43 199.75 218.75 201.43 218.75 203.5Z" fill="#2DC937"/>
<path fill-rule="evenodd" clip-rule="evenodd" d="M165 98.5C165 92.695 169.695 88 175.5 88C181.305 88 186 92.695 186 98.5C186 104.755 179.37 113.38 176.655 116.665C176.055 117.385 174.96 117.385 174.36 116.665C171.63 113.38 165 104.755 165 98.5ZM171.75 98.5C171.75 100.57 173.43 102.25 175.5 102.25C177.57 102.25 179.25 100.57 179.25 98.5C179.25 96.43 177.57 94.75 175.5 94.75C173.43 94.75 171.75 96.43 171.75 98.5Z" fill="#2DC937"/>
<path fill-rule="evenodd" clip-rule="evenodd" d="M-3 90.5C-3 84.695 1.695 80 7.5 80C13.305 80 18 84.695 18 90.5C18 96.755 11.37 105.38 8.655 108.665C8.055 109.385 6.96 109.385 6.36 108.665C3.63 105.38 -3 96.755 -3 90.5ZM3.75 90.5C3.75 92.57 5.43 94.25 7.5 94.25C9.57 94.25 11.25 92.57 11.25 90.5C11.25 88.43 9.57 86.75 7.5 86.75C5.43 86.75 3.75 88.43 3.75 90.5Z" fill="#2DC937"/>
<path fill-rule="evenodd" clip-rule="evenodd" d="M21 43.5C21 37.695 25.695 33 31.5 33C37.305 33 42 37.695 42 43.5C42 49.755 35.37 58.38 32.655 61.665C32.055 62.385 30.96 62.385 30.36 61.665C27.63 58.38 21 49.755 21 43.5ZM27.75 43.5C27.75 45.57 29.43 47.25 31.5 47.25C33.57 47.25 35.25 45.57 35.25 43.5C35.25 41.43 33.57 39.75 31.5 39.75C29.43 39.75 27.75 41.43 27.75 43.5Z" fill="#2DC937"/>
<path fill-rule="evenodd" clip-rule="evenodd" d="M275 255.5C275 249.695 279.695 245 285.5 245C291.305 245 296 249.695 296 255.5C296 261.755 289.37 270.38 286.655 273.665C286.055 274.385 284.96 274.385 284.36 273.665C281.63 270.38 275 261.755 275 255.5ZM281.75 255.5C281.75 257.57 283.43 259.25 285.5 259.25C287.57 259.25 289.25 257.57 289.25 255.5C289.25 253.43 287.57 251.75 285.5 251.75C283.43 251.75 281.75 253.43 281.75 255.5Z" fill="#2DC937"/>
<path fill-rule="evenodd" clip-rule="evenodd" d="M92 -0.5C92 -6.305 96.695 -11 102.5 -11C108.305 -11 113 -6.305 113 -0.5C113 5.755 106.37 14.38 103.655 17.665C103.055 18.385 101.96 18.385 101.36 17.665C98.63 14.38 92 5.755 92 -0.5ZM98.75 -0.500001C98.75 1.57 100.43 3.25 102.5 3.25C104.57 3.25 106.25 1.57 106.25 -0.500001C106.25 -2.57 104.57 -4.25 102.5 -4.25C100.43 -4.25 98.75 -2.57 98.75 -0.500001Z" fill="#2DC937"/>
</g>
</g>
<defs>
<filter id="filter0_d" x="0" y="0" width="358" height="312" filterUnits="userSpaceOnUse" color-interpolation-filters="sRGB">
<feFlood flood-opacity="0" result="BackgroundImageFix"/>
<feColorMatrix in="SourceAlpha" type="matrix" values="0 0 0 0 0 0 0 0 0 0 0 0 0 0 0 0 0 0 127 0"/>
<feOffset dx="4" dy="4"/>
<feGaussianBlur stdDeviation="2"/>
<feColorMatrix type="matrix" values="0 0 0 0 0 0 0 0 0 0 0 0 0 0 0 0 0 0 0.4 0"/>
<feBlend mode="normal" in2="BackgroundImageFix" result="effect1_dropShadow"/>
<feBlend mode="normal" in="SourceGraphic" in2="effect1_dropShadow" result="shape"/>
</filter>
</defs>
</svg>
