<svg width="325" height="242" viewBox="0 0 325 242" fill="none" xmlns="http://www.w3.org/2000/svg">
<path d="M79.0997 188.386H31.4229V243.602H79.0997V188.386Z" fill="#81CFFA"/>
<path d="M79.0997 129.922H31.4229V187.304H79.0997V129.922Z" fill="#E3C878"/>
<path d="M79.0997 85.5312H31.4229V128.838H79.0997V85.5312Z" fill="#E688A1"/>
<path d="M79.0997 41.1416H31.4229V84.4487H79.0997V41.1416Z" fill="#BBEAA6"/>
<path d="M79.0997 35.7285H31.4229V40.0592H79.0997V35.7285Z" fill="#ED9A73"/>
<path d="M79.0997 18.4053H31.4229V34.6454H79.0997V18.4053Z" fill="#E29AF4"/>
<path d="M79.0997 12.9922H31.4229V17.3229H79.0997V12.9922Z" fill="#E3EBF8"/>
<path d="M127.86 37.8936H80.1836V42.2243H127.86V37.8936Z" fill="#E3EBF8"/>
<path d="M176.621 43.3076H128.944V45.473H176.621V43.3076Z" fill="#E3EBF8"/>
<path d="M176.621 30.3154H128.944V42.2249H176.621V30.3154Z" fill="#E3EBF8"/>
<path d="M225.382 19.4883H177.705V25.9843H225.382V19.4883Z" fill="#E3EBF8"/>
<path d="M225.382 14.0752H177.705V18.4059H225.382V14.0752Z" fill="#E3EBF8"/>
<path d="M274.142 71.457H226.465V73.6224H274.142V71.457Z" fill="#E3EBF8"/>
<path d="M225.382 27.0674H177.705V29.2327H225.382V27.0674Z" fill="#E3EBF8"/>
<path d="M274.142 74.7051H226.465V81.2011H274.142V74.7051Z" fill="#E3EBF8"/>
<path d="M127.86 176.477H80.1836V243.603H127.86V176.477Z" fill="#81CFFA"/>
<path d="M127.86 112.599H80.1836V175.394H127.86V112.599Z" fill="#E3C878"/>
<path d="M127.86 73.6221H80.1836V111.516H127.86V73.6221Z" fill="#E688A1"/>
<path d="M127.86 58.4648H80.1836V72.5396H127.86V58.4648Z" fill="#BBEAA6"/>
<path d="M127.86 48.7207H80.1836V57.3821H127.86V48.7207Z" fill="#ED9A73"/>
<path d="M127.86 43.3076H80.1836V47.6383H127.86V43.3076Z" fill="#E29AF4"/>
<path d="M176.621 168.897H128.944V243.602H176.621V168.897Z" fill="#81CFFA"/>
<path d="M176.621 112.599H128.944V167.815H176.621V112.599Z" fill="#E3C878"/>
<path d="M176.621 75.7871H128.944V111.515H176.621V75.7871Z" fill="#E688A1"/>
<path d="M176.621 46.5557H128.944V74.7053H176.621V46.5557Z" fill="#BBEAA6"/>
<path d="M225.382 166.732H177.705V243.603H225.382V166.732Z" fill="#81CFFA"/>
<path d="M225.382 118.012H177.705V165.65H225.382V118.012Z" fill="#E3C878"/>
<path d="M225.382 73.6221H177.705V116.929H225.382V73.6221Z" fill="#E688A1"/>
<path d="M225.382 48.7207H177.705V72.5396H225.382V48.7207Z" fill="#BBEAA6"/>
<path d="M225.382 33.5635H177.705V47.6383H225.382V33.5635Z" fill="#ED9A73"/>
<path d="M225.382 30.3154H177.705V32.4808H225.382V30.3154Z" fill="#E29AF4"/>
<path d="M274.142 171.063H226.465V243.603H274.142V171.063Z" fill="#81CFFA"/>
<path d="M274.142 132.087H226.465V169.981H274.142V132.087Z" fill="#E3C878"/>
<path d="M274.142 97.4414H226.465V131.004H274.142V97.4414Z" fill="#E688A1"/>
<path d="M274.142 92.0273H226.465V96.3581H274.142V92.0273Z" fill="#BBEAA6"/>
<path d="M274.142 82.2832H226.465V90.9446H274.142V82.2832Z" fill="#ED9A73"/>
<path d="M18.127 207.874H11.0578V206.571L14.5924 203.388C15.1082 202.923 15.5329 202.448 15.8667 201.963C16.2004 201.468 16.3673 200.947 16.3673 200.401V200.22C16.3673 199.583 16.2004 199.093 15.8667 198.749C15.5329 198.395 15.0374 198.219 14.38 198.219C13.7328 198.219 13.2322 198.386 12.8782 198.719C12.5344 199.043 12.2765 199.477 12.1045 200.023L10.9668 199.598C11.068 199.285 11.2045 198.982 11.3764 198.689C11.5584 198.386 11.786 198.118 12.059 197.885C12.3321 197.653 12.6608 197.466 13.0451 197.325C13.4395 197.183 13.8946 197.112 14.4104 197.112C14.9363 197.112 15.4015 197.188 15.806 197.34C16.2207 197.491 16.5645 197.703 16.8376 197.976C17.1208 198.249 17.3332 198.573 17.4747 198.946C17.6264 199.32 17.7022 199.729 17.7022 200.174C17.7022 200.578 17.6416 200.957 17.5202 201.311C17.409 201.665 17.2471 202.003 17.0348 202.326C16.8326 202.65 16.5848 202.969 16.2914 203.281C16.0083 203.585 15.6897 203.888 15.3357 204.191L12.3776 206.768H18.127V207.874ZM23.6278 208.056C22.9805 208.056 22.4243 207.935 21.9591 207.692C21.4938 207.44 21.1096 207.081 20.8062 206.616C20.5028 206.152 20.2803 205.58 20.1387 204.903C19.9971 204.227 19.9264 203.454 19.9264 202.584C19.9264 201.726 19.9971 200.957 20.1387 200.28C20.2803 199.593 20.5028 199.017 20.8062 198.552C21.1096 198.088 21.4938 197.734 21.9591 197.491C22.4243 197.239 22.9805 197.112 23.6278 197.112C24.275 197.112 24.8312 197.239 25.2965 197.491C25.7617 197.734 26.146 198.088 26.4494 198.552C26.7528 199.017 26.9753 199.593 27.1169 200.28C27.2584 200.957 27.3293 201.726 27.3293 202.584C27.3293 203.454 27.2584 204.227 27.1169 204.903C26.9753 205.58 26.7528 206.152 26.4494 206.616C26.146 207.081 25.7617 207.44 25.2965 207.692C24.8312 207.935 24.275 208.056 23.6278 208.056ZM23.6278 206.95C24.0526 206.95 24.4167 206.868 24.7201 206.707C25.0235 206.535 25.2662 206.298 25.4482 205.995C25.6403 205.691 25.782 205.328 25.873 204.903C25.964 204.469 26.0095 203.984 26.0095 203.448V201.72C26.0095 201.195 25.964 200.714 25.873 200.28C25.782 199.846 25.6403 199.477 25.4482 199.174C25.2662 198.871 25.0235 198.638 24.7201 198.476C24.4167 198.304 24.0526 198.219 23.6278 198.219C23.2031 198.219 22.839 198.304 22.5356 198.476C22.2322 198.638 21.9844 198.871 21.7923 199.174C21.6102 199.477 21.4737 199.846 21.3827 200.28C21.2917 200.714 21.2461 201.195 21.2461 201.72V203.448C21.2461 203.984 21.2917 204.469 21.3827 204.903C21.4737 205.328 21.6102 205.691 21.7923 205.995C21.9844 206.298 22.2322 206.535 22.5356 206.707C22.839 206.868 23.2031 206.95 23.6278 206.95ZM23.6278 203.478C23.2738 203.478 23.026 203.408 22.8845 203.266C22.753 203.124 22.6873 202.953 22.6873 202.751V202.417C22.6873 202.215 22.753 202.044 22.8845 201.902C23.026 201.76 23.2738 201.69 23.6278 201.69C23.9817 201.69 24.2244 201.76 24.356 201.902C24.4975 202.044 24.5684 202.215 24.5684 202.417V202.751C24.5684 202.953 24.4975 203.124 24.356 203.266C24.2244 203.408 23.9817 203.478 23.6278 203.478Z" fill="#545454"/>
<path d="M15.7155 159.153V157.077H10.4971V155.955L15.0783 148.573H16.9291V156.031H18.5067V157.077H16.9291V159.153H15.7155ZM11.6348 156.031H15.7155V149.559H15.6548L11.6348 156.031ZM23.6283 159.335C22.981 159.335 22.4248 159.214 21.9596 158.972C21.4943 158.719 21.1101 158.36 20.8067 157.895C20.5033 157.431 20.2808 156.859 20.1392 156.183C19.9976 155.506 19.9269 154.733 19.9269 153.863C19.9269 153.005 19.9976 152.236 20.1392 151.56C20.2808 150.872 20.5033 150.296 20.8067 149.832C21.1101 149.367 21.4943 149.013 21.9596 148.771C22.4248 148.518 22.981 148.392 23.6283 148.392C24.2755 148.392 24.8317 148.518 25.297 148.771C25.7622 149.013 26.1465 149.367 26.4499 149.832C26.7533 150.296 26.9758 150.872 27.1174 151.56C27.2589 152.236 27.3298 153.005 27.3298 153.863C27.3298 154.733 27.2589 155.506 27.1174 156.183C26.9758 156.859 26.7533 157.431 26.4499 157.895C26.1465 158.36 25.7622 158.719 25.297 158.972C24.8317 159.214 24.2755 159.335 23.6283 159.335ZM23.6283 158.229C24.0531 158.229 24.4172 158.148 24.7206 157.986C25.024 157.814 25.2667 157.577 25.4487 157.274C25.6408 156.971 25.7825 156.607 25.8735 156.183C25.9645 155.748 26.01 155.263 26.01 154.727V152.999C26.01 152.474 25.9645 151.994 25.8735 151.56C25.7825 151.125 25.6408 150.756 25.4487 150.453C25.2667 150.15 25.024 149.917 24.7206 149.756C24.4172 149.584 24.0531 149.498 23.6283 149.498C23.2036 149.498 22.8395 149.584 22.5361 149.756C22.2327 149.917 21.9849 150.15 21.7928 150.453C21.6107 150.756 21.4742 151.125 21.3832 151.56C21.2922 151.994 21.2466 152.474 21.2466 152.999V154.727C21.2466 155.263 21.2922 155.748 21.3832 156.183C21.4742 156.607 21.6107 156.971 21.7928 157.274C21.9849 157.577 22.2327 157.814 22.5361 157.986C22.8395 158.148 23.2036 158.229 23.6283 158.229ZM23.6283 154.758C23.2743 154.758 23.0265 154.687 22.885 154.546C22.7535 154.404 22.6878 154.233 22.6878 154.03V153.697C22.6878 153.494 22.7535 153.323 22.885 153.181C23.0265 153.04 23.2743 152.969 23.6283 152.969C23.9822 152.969 24.2249 153.04 24.3565 153.181C24.498 153.323 24.5689 153.494 24.5689 153.697V154.03C24.5689 154.233 24.498 154.404 24.3565 154.546C24.2249 154.687 23.9822 154.758 23.6283 154.758Z" fill="#545454"/>
<path d="M14.5464 110.616C13.9902 110.616 13.4896 110.525 13.0446 110.343C12.5997 110.151 12.2205 109.883 11.9069 109.539C11.6035 109.185 11.3659 108.757 11.1939 108.251C11.0321 107.746 10.9512 107.18 10.9512 106.553C10.9512 105.765 11.0675 105.028 11.3001 104.34C11.5428 103.643 11.8462 103.012 12.2103 102.446C12.5845 101.87 12.9991 101.364 13.4542 100.93C13.9093 100.485 14.3543 100.127 14.7892 99.8538H16.4275C15.8511 100.268 15.3353 100.672 14.8802 101.066C14.4353 101.46 14.0408 101.875 13.6969 102.309C13.3531 102.734 13.0649 103.193 12.8322 103.689C12.5997 104.174 12.4075 104.724 12.2558 105.341L12.3316 105.371C12.5845 104.937 12.9183 104.578 13.3328 104.295C13.7475 104.002 14.2836 103.855 14.9409 103.855C15.4061 103.855 15.8309 103.931 16.2151 104.083C16.5995 104.234 16.9332 104.452 17.2163 104.734C17.4996 105.017 17.717 105.361 17.8687 105.765C18.0305 106.169 18.1114 106.619 18.1114 107.114C18.1114 107.63 18.0254 108.105 17.8535 108.539C17.6816 108.963 17.4389 109.333 17.1253 109.645C16.8219 109.949 16.4478 110.186 16.0028 110.358C15.5679 110.53 15.0825 110.616 14.5464 110.616ZM14.5313 109.539C15.2594 109.539 15.8207 109.342 16.2151 108.948C16.6197 108.554 16.8219 107.998 16.8219 107.281V107.16C16.8219 106.442 16.6197 105.886 16.2151 105.492C15.8207 105.098 15.2594 104.901 14.5313 104.901C13.8031 104.901 13.2368 105.098 12.8322 105.492C12.4378 105.886 12.2406 106.442 12.2406 107.16V107.281C12.2406 107.998 12.4378 108.554 12.8322 108.948C13.2368 109.342 13.8031 109.539 14.5313 109.539ZM23.6274 110.616C22.98 110.616 22.4239 110.494 21.9587 110.252C21.4934 110 21.1092 109.64 20.8058 109.176C20.5024 108.711 20.2798 108.14 20.1383 107.463C19.9967 106.786 19.9259 106.013 19.9259 105.144C19.9259 104.285 19.9967 103.517 20.1383 102.84C20.2798 102.153 20.5024 101.577 20.8058 101.112C21.1092 100.647 21.4934 100.293 21.9587 100.051C22.4239 99.7982 22.98 99.6719 23.6274 99.6719C24.2746 99.6719 24.8308 99.7982 25.2961 100.051C25.7612 100.293 26.1456 100.647 26.449 101.112C26.7524 101.577 26.9748 102.153 27.1164 102.84C27.258 103.517 27.3288 104.285 27.3288 105.144C27.3288 106.013 27.258 106.786 27.1164 107.463C26.9748 108.14 26.7524 108.711 26.449 109.176C26.1456 109.64 25.7612 110 25.2961 110.252C24.8308 110.494 24.2746 110.616 23.6274 110.616ZM23.6274 109.509C24.0521 109.509 24.4162 109.428 24.7196 109.267C25.023 109.094 25.2657 108.857 25.4478 108.554C25.6399 108.251 25.7815 107.887 25.8725 107.463C25.9635 107.028 26.009 106.543 26.009 106.008V104.28C26.009 103.754 25.9635 103.274 25.8725 102.84C25.7815 102.405 25.6399 102.036 25.4478 101.733C25.2657 101.43 25.023 101.198 24.7196 101.036C24.4162 100.864 24.0521 100.778 23.6274 100.778C23.2026 100.778 22.8385 100.864 22.5351 101.036C22.2317 101.198 21.9839 101.43 21.7918 101.733C21.6098 102.036 21.4732 102.405 21.3822 102.84C21.2912 103.274 21.2457 103.754 21.2457 104.28V106.008C21.2457 106.543 21.2912 107.028 21.3822 107.463C21.4732 107.887 21.6098 108.251 21.7918 108.554C21.9839 108.857 22.2317 109.094 22.5351 109.267C22.8385 109.428 23.2026 109.509 23.6274 109.509ZM23.6274 106.038C23.2734 106.038 23.0256 105.967 22.884 105.826C22.7525 105.684 22.6868 105.513 22.6868 105.31V104.977C22.6868 104.775 22.7525 104.603 22.884 104.462C23.0256 104.32 23.2734 104.249 23.6274 104.249C23.9813 104.249 24.224 104.32 24.3555 104.462C24.497 104.603 24.5679 104.775 24.5679 104.977V105.31C24.5679 105.513 24.497 105.684 24.3555 105.826C24.224 105.967 23.9813 106.038 23.6274 106.038Z" fill="#545454"/>
<path d="M14.532 61.8949C13.9151 61.8949 13.3741 61.8191 12.9088 61.6675C12.4437 61.5059 12.0543 61.2886 11.7408 61.0157C11.4374 60.7429 11.2048 60.4195 11.0429 60.0457C10.8912 59.6718 10.8154 59.2675 10.8154 58.8331C10.8154 58.1055 11.0126 57.5295 11.407 57.1051C11.8014 56.6807 12.3223 56.3826 12.9695 56.2108V56.0896C12.4032 55.8976 11.9531 55.5894 11.6194 55.1649C11.2958 54.7305 11.134 54.21 11.134 53.6037C11.134 52.7953 11.4324 52.1537 12.029 51.6787C12.6257 51.1937 13.46 50.9512 14.532 50.9512C15.6041 50.9512 16.4384 51.1937 17.0351 51.6787C17.6318 52.1537 17.9301 52.7953 17.9301 53.6037C17.9301 54.21 17.7632 54.7305 17.4295 55.1649C17.1059 55.5894 16.6609 55.8976 16.0945 56.0896V56.2108C16.7418 56.3826 17.2626 56.6807 17.657 57.1051C18.0514 57.5295 18.2486 58.1055 18.2486 58.8331C18.2486 59.2675 18.1678 59.6718 18.0059 60.0457C17.8542 60.4195 17.6217 60.7429 17.3081 61.0157C16.9946 61.2886 16.6053 61.5059 16.14 61.6675C15.6849 61.8191 15.149 61.8949 14.532 61.8949ZM14.532 60.8187C15.2804 60.8187 15.867 60.652 16.2917 60.3185C16.7165 59.985 16.9289 59.5151 16.9289 58.9088V58.5754C16.9289 57.9691 16.7165 57.4992 16.2917 57.1657C15.8772 56.8323 15.2905 56.6655 14.532 56.6655C13.7735 56.6655 13.1819 56.8323 12.7571 57.1657C12.3426 57.4992 12.1352 57.9691 12.1352 58.5754V58.9088C12.1352 59.5151 12.3475 59.985 12.7723 60.3185C13.1971 60.652 13.7837 60.8187 14.532 60.8187ZM14.532 55.6348C15.2198 55.6348 15.7406 55.4883 16.0945 55.1953C16.4586 54.9022 16.6406 54.4829 16.6406 53.9372V53.725C16.6406 53.1793 16.4536 52.76 16.0793 52.4669C15.7153 52.1738 15.1995 52.0274 14.532 52.0274C13.8645 52.0274 13.3438 52.1738 12.9695 52.4669C12.6054 52.76 12.4234 53.1793 12.4234 53.725V53.9372C12.4234 54.4829 12.6005 54.9022 12.9543 55.1953C13.3184 55.4883 13.8444 55.6348 14.532 55.6348ZM23.6281 61.8949C22.9808 61.8949 22.4246 61.7736 21.9594 61.5311C21.4941 61.2785 21.1099 60.9197 20.8065 60.4549C20.5031 59.9901 20.2805 59.4191 20.139 58.7421C19.9974 58.0651 19.9267 57.2921 19.9267 56.423C19.9267 55.5641 19.9974 54.7961 20.139 54.1191C20.2805 53.4319 20.5031 52.8559 20.8065 52.3911C21.1099 51.9263 21.4941 51.5726 21.9594 51.3301C22.4246 51.0775 22.9808 50.9512 23.6281 50.9512C24.2753 50.9512 24.8315 51.0775 25.2968 51.3301C25.762 51.5726 26.1463 51.9263 26.4497 52.3911C26.7531 52.8559 26.9756 53.4319 27.1172 54.1191C27.2587 54.7961 27.3296 55.5641 27.3296 56.423C27.3296 57.2921 27.2587 58.0651 27.1172 58.7421C26.9756 59.4191 26.7531 59.9901 26.4497 60.4549C26.1463 60.9197 25.762 61.2785 25.2968 61.5311C24.8315 61.7736 24.2753 61.8949 23.6281 61.8949ZM23.6281 60.7884C24.0529 60.7884 24.417 60.7075 24.7203 60.5459C25.0237 60.374 25.2665 60.1366 25.4485 59.8335C25.6406 59.5303 25.7822 59.1665 25.8733 58.7421C25.9643 58.3076 26.0098 57.8226 26.0098 57.287V55.559C26.0098 55.0336 25.9643 54.5536 25.8733 54.1191C25.7822 53.6846 25.6406 53.3157 25.4485 53.0126C25.2665 52.7094 25.0237 52.477 24.7203 52.3153C24.417 52.1435 24.0529 52.0577 23.6281 52.0577C23.2034 52.0577 22.8393 52.1435 22.5359 52.3153C22.2325 52.477 21.9847 52.7094 21.7926 53.0126C21.6105 53.3157 21.474 53.6846 21.383 54.1191C21.2919 54.5536 21.2464 55.0336 21.2464 55.559V57.287C21.2464 57.8226 21.2919 58.3076 21.383 58.7421C21.474 59.1665 21.6105 59.5303 21.7926 59.8335C21.9847 60.1366 22.2325 60.374 22.5359 60.5459C22.8393 60.7075 23.2034 60.7884 23.6281 60.7884ZM23.6281 57.3173C23.2741 57.3173 23.0263 57.2466 22.8848 57.1051C22.7532 56.9636 22.6876 56.7919 22.6876 56.5898V56.2563C22.6876 56.0542 22.7532 55.8824 22.8848 55.7409C23.0263 55.5994 23.2741 55.5287 23.6281 55.5287C23.982 55.5287 24.2247 55.5994 24.3563 55.7409C24.4978 55.8824 24.5686 56.0542 24.5686 56.2563V56.5898C24.5686 56.7919 24.4978 56.9636 24.3563 57.1051C24.2247 57.2466 23.982 57.3173 23.6281 57.3173Z" fill="#545454"/>
<path d="M2.17391 12.9923V11.8858H5.2079V3.35212H5.10171L2.4318 5.83795L1.68848 5.0346L4.49491 2.41236H6.48217V11.8858H9.27343V12.9923H2.17391ZM14.5314 13.1742C13.8842 13.1742 13.328 13.0529 12.8627 12.8104C12.3976 12.5578 12.0132 12.199 11.7098 11.7342C11.4064 11.2694 11.184 10.6984 11.0423 10.0214C10.9008 9.34438 10.83 8.57135 10.83 7.70232C10.83 6.8434 10.9008 6.07541 11.0423 5.39838C11.184 4.71124 11.4064 4.13526 11.7098 3.67043C12.0132 3.2056 12.3976 2.85193 12.8627 2.60941C13.328 2.35678 13.8842 2.23047 14.5314 2.23047C15.1787 2.23047 15.7349 2.35678 16.2001 2.60941C16.6654 2.85193 17.0496 3.2056 17.353 3.67043C17.6564 4.13526 17.879 4.71124 18.0205 5.39838C18.1621 6.07541 18.2329 6.8434 18.2329 7.70232C18.2329 8.57135 18.1621 9.34438 18.0205 10.0214C17.879 10.6984 17.6564 11.2694 17.353 11.7342C17.0496 12.199 16.6654 12.5578 16.2001 12.8104C15.7349 13.0529 15.1787 13.1742 14.5314 13.1742ZM14.5314 12.0677C14.9562 12.0677 15.3203 11.9868 15.6237 11.8252C15.9271 11.6533 16.1698 11.4159 16.3518 11.1128C16.544 10.8096 16.6856 10.4458 16.7766 10.0214C16.8676 9.5869 16.9131 9.10186 16.9131 8.5663V6.83834C16.9131 6.31289 16.8676 5.83289 16.7766 5.39838C16.6856 4.96387 16.544 4.59504 16.3518 4.29189C16.1698 3.98874 15.9271 3.75632 15.6237 3.59464C15.3203 3.42285 14.9562 3.33697 14.5314 3.33697C14.1067 3.33697 13.7426 3.42285 13.4392 3.59464C13.1358 3.75632 12.8881 3.98874 12.6959 4.29189C12.5138 4.59504 12.3773 4.96387 12.2863 5.39838C12.1953 5.83289 12.1497 6.31289 12.1497 6.83834V8.5663C12.1497 9.10186 12.1953 9.5869 12.2863 10.0214C12.3773 10.4458 12.5138 10.8096 12.6959 11.1128C12.8881 11.4159 13.1358 11.6533 13.4392 11.8252C13.7426 11.9868 14.1067 12.0677 14.5314 12.0677ZM14.5314 8.59661C14.1775 8.59661 13.9297 8.52588 13.7881 8.38441C13.6567 8.24293 13.5909 8.07116 13.5909 7.86905V7.53559C13.5909 7.33348 13.6567 7.16171 13.7881 7.02023C13.9297 6.87876 14.1775 6.80803 14.5314 6.80803C14.8854 6.80803 15.1281 6.87876 15.2596 7.02023C15.4012 7.16171 15.472 7.33348 15.472 7.53559V7.86905C15.472 8.07116 15.4012 8.24293 15.2596 8.38441C15.1281 8.52588 14.8854 8.59661 14.5314 8.59661ZM23.6275 13.1742C22.9802 13.1742 22.424 13.0529 21.9588 12.8104C21.4935 12.5578 21.1093 12.199 20.8059 11.7342C20.5025 11.2694 20.28 10.6984 20.1384 10.0214C19.9968 9.34438 19.9261 8.57135 19.9261 7.70232C19.9261 6.8434 19.9968 6.07541 20.1384 5.39838C20.28 4.71124 20.5025 4.13526 20.8059 3.67043C21.1093 3.2056 21.4935 2.85193 21.9588 2.60941C22.424 2.35678 22.9802 2.23047 23.6275 2.23047C24.2747 2.23047 24.8309 2.35678 25.2962 2.60941C25.7614 2.85193 26.1457 3.2056 26.4491 3.67043C26.7525 4.13526 26.975 4.71124 27.1166 5.39838C27.2581 6.07541 27.329 6.8434 27.329 7.70232C27.329 8.57135 27.2581 9.34438 27.1166 10.0214C26.975 10.6984 26.7525 11.2694 26.4491 11.7342C26.1457 12.199 25.7614 12.5578 25.2962 12.8104C24.8309 13.0529 24.2747 13.1742 23.6275 13.1742ZM23.6275 12.0677C24.0523 12.0677 24.4164 11.9868 24.7198 11.8252C25.0232 11.6533 25.2659 11.4159 25.4479 11.1128C25.64 10.8096 25.7817 10.4458 25.8727 10.0214C25.9637 9.5869 26.0092 9.10186 26.0092 8.5663V6.83834C26.0092 6.31289 25.9637 5.83289 25.8727 5.39838C25.7817 4.96387 25.64 4.59504 25.4479 4.29189C25.2659 3.98874 25.0232 3.75632 24.7198 3.59464C24.4164 3.42285 24.0523 3.33697 23.6275 3.33697C23.2028 3.33697 22.8387 3.42285 22.5353 3.59464C22.2319 3.75632 21.9841 3.98874 21.792 4.29189C21.6099 4.59504 21.4734 4.96387 21.3824 5.39838C21.2914 5.83289 21.2458 6.31289 21.2458 6.83834V8.5663C21.2458 9.10186 21.2914 9.5869 21.3824 10.0214C21.4734 10.4458 21.6099 10.8096 21.792 11.1128C21.9841 11.4159 22.2319 11.6533 22.5353 11.8252C22.8387 11.9868 23.2028 12.0677 23.6275 12.0677ZM23.6275 8.59661C23.2735 8.59661 23.0257 8.52588 22.8842 8.38441C22.7527 8.24293 22.687 8.07116 22.687 7.86905V7.53559C22.687 7.33348 22.7527 7.16171 22.8842 7.02023C23.0257 6.87876 23.2735 6.80803 23.6275 6.80803C23.9814 6.80803 24.2241 6.87876 24.3557 7.02023C24.4972 7.16171 24.5681 7.33348 24.5681 7.53559V7.86905C24.5681 8.07116 24.4972 8.24293 24.3557 8.38441C24.2241 8.52588 23.9814 8.59661 23.6275 8.59661Z" fill="#545454"/>
<path d="M31.4229 12.4512H79.0997" stroke="black"/>
<path d="M80.1836 37.3525H127.86" stroke="black"/>
<path d="M128.944 29.7734H176.621" stroke="black"/>
<path d="M177.705 13.5332H225.382" stroke="black"/>
<path d="M226.465 70.915H274.142" stroke="black"/>
</svg>
