<svg width="280" height="341" viewBox="0 0 280 341" fill="none" xmlns="http://www.w3.org/2000/svg">
<g clip-path="url(#clip0)">
<path d="M2.0909 6.16826H5.97682V5.52621H2.0909V2.34699H6.36314V1.69458H1.28418V9.61673H2.0909V6.16826ZM10.5375 2.40913H10.5602C10.5602 2.40913 10.7079 2.89585 10.9011 3.37221L12.1169 6.42716H8.94677L10.1739 3.38257C10.3557 2.92692 10.5148 2.46091 10.5375 2.40913ZM13.3894 9.61673H14.2416L11.0374 1.69458H10.083L6.86743 9.61673H7.67415L8.70816 7.02779H12.3555L13.3894 9.61673ZM19.1161 2.17095C20.7523 2.17095 21.4454 3.10296 21.5704 3.97285H22.3998C22.2067 2.22272 20.5932 1.57031 19.1161 1.57031C16.9346 1.57031 15.2757 3.0719 15.2757 5.68154C15.2757 8.49831 16.9005 9.78242 19.082 9.78242C21.025 9.78242 22.2635 8.73649 22.3998 7.31775H21.5931C21.4795 8.2187 20.7977 9.17143 19.1502 9.17143C17.1959 9.17143 16.1392 7.80447 16.1392 5.68154C16.1392 3.65182 17.1504 2.17095 19.1161 2.17095ZM24.4971 9.61673H30.0873V8.96432H25.3038V5.89902H29.6215V5.25696H25.3038V2.34699H30.0419V1.69458H24.4971V9.61673ZM38.5563 2.17095C40.1925 2.17095 40.8856 3.10296 41.0106 3.97285H41.84C41.6469 2.22272 40.0334 1.57031 38.5563 1.57031C36.3748 1.57031 34.7159 3.0719 34.7159 5.68154C34.7159 8.49831 36.3407 9.78242 38.5222 9.78242C40.4652 9.78242 41.7037 8.73649 41.84 7.31775H41.0333C40.9197 8.2187 40.2379 9.17143 38.5904 9.17143C36.6361 9.17143 35.5794 7.80447 35.5794 5.68154C35.5794 3.65182 36.5906 2.17095 38.5563 2.17095ZM43.4373 5.6919C43.4373 8.55009 45.2212 9.78242 47.2778 9.78242C49.3344 9.78242 51.141 8.55009 51.141 5.6919C51.141 2.813 49.323 1.58067 47.2778 1.58067C45.2553 1.58067 43.4373 2.813 43.4373 5.6919ZM47.2778 9.19214C45.528 9.19214 44.2781 8.00123 44.2781 5.6919C44.2781 3.34115 45.5507 2.17095 47.2778 2.17095C49.0276 2.17095 50.3002 3.37221 50.3002 5.6919C50.3002 7.99088 49.0162 9.19214 47.2778 9.19214ZM55.3423 9.61673H56.2399L59.4441 1.69458H58.6374L56.1604 7.87696C55.9104 8.49831 55.8081 8.89183 55.8081 8.89183H55.7854C55.7854 8.89183 55.6945 8.49831 55.4445 7.86661L52.9789 1.69458H52.1267L55.3423 9.61673ZM61.0917 9.61673H66.682V8.96432H61.8984V5.89902H66.2161V5.25696H61.8984V2.34699H66.6365V1.69458H61.0917V9.61673ZM69.6102 5.62977V2.31593H71.9167C73.1211 2.31593 73.9051 2.86478 73.9051 3.91071C73.9051 5.13269 73.0075 5.62977 71.894 5.62977H69.6102ZM73.8824 9.61673H74.8141L72.8371 6.1372V6.11649C73.8029 5.89901 74.7346 5.23625 74.7346 3.90036C74.7346 2.98905 74.2915 2.38842 73.6211 2.04668C73.1325 1.80849 72.5417 1.69458 71.9167 1.69458H68.8035V9.61673H69.6102V6.24075H71.9963L73.8824 9.61673ZM76.8481 9.61673H77.6548V1.69458H76.8481V9.61673ZM80.2323 9.61673H81.0163V2.69909H81.0391C81.0391 2.69909 81.1751 2.95798 81.4478 3.3515L85.7655 9.61673H86.7767V1.69458H85.9927V8.62258H85.97C85.97 8.62258 85.845 8.36368 85.5837 7.98052L81.2319 1.69458H80.2323V9.61673ZM92.7281 2.17095C94.0007 2.17095 94.9551 2.79229 95.171 3.7968H96.0005C95.7846 2.46091 94.5575 1.58067 92.7281 1.58067C90.5238 1.58067 88.8309 3.04083 88.8309 5.6919C88.8309 8.59151 90.5466 9.78242 92.6259 9.78242C94.1711 9.78242 95.046 9.1093 95.4437 8.36368H95.4778V9.61673H96.205V5.70226H92.7622V6.35467H95.421V6.77925C95.421 8.20835 94.3984 9.18179 92.694 9.18179C90.7852 9.18179 89.6717 7.88732 89.6717 5.73332C89.6717 3.60004 90.7624 2.17095 92.7281 2.17095ZM104.245 3.80715C104.189 2.45055 103.177 1.58067 101.405 1.58067C99.7005 1.58067 98.4848 2.42984 98.4848 3.73466C98.4848 4.84273 99.0642 5.55728 100.769 5.83688L102.166 6.06471C103.291 6.25111 103.689 6.71712 103.689 7.47309C103.689 8.38439 103.052 9.18179 101.371 9.18179C99.7346 9.18179 99.0642 8.28084 98.9393 7.41095H98.1212C98.2234 8.65364 99.3597 9.78242 101.359 9.78242C103.393 9.78242 104.507 8.80898 104.507 7.41095C104.507 6.30289 103.78 5.5987 102.337 5.36052L100.882 5.12233C99.746 4.93593 99.3142 4.54241 99.3142 3.69324C99.3142 2.75087 100.144 2.17095 101.405 2.17095C102.848 2.17095 103.359 2.92692 103.45 3.80715H104.245ZM2.0909 18.2046V14.8908H4.39746C5.60186 14.8908 6.38586 15.4396 6.38586 16.4855C6.38586 17.7075 5.48824 18.2046 4.37473 18.2046H2.0909ZM6.36314 22.1916H7.29485L5.3178 18.712V18.6913C6.2836 18.4739 7.21531 17.8111 7.21531 16.4752C7.21531 15.5639 6.77218 14.9633 6.1018 14.6215C5.61322 14.3833 5.02238 14.2694 4.39746 14.2694H1.28418V22.1916H2.0909V18.8156H4.47699L6.36314 22.1916ZM9.32878 22.1916H14.919V21.5392H10.1355V18.4739H14.4532V17.8318H10.1355V14.9218H14.8736V14.2694H9.32878V22.1916ZM16.4851 18.2667C16.4851 21.1249 18.269 22.3365 20.3256 22.3365C21.0641 22.3365 21.3936 22.2123 21.8936 22.2123C22.7685 22.2123 23.257 22.4505 23.7911 23.1754L24.4501 22.7197C23.9729 22.088 23.4729 21.767 22.5412 21.7256V21.6841C23.5638 21.0939 24.1887 19.9651 24.1887 18.2667C24.1887 15.3878 22.3708 14.1555 20.3256 14.1555C18.3031 14.1555 16.4851 15.3878 16.4851 18.2667ZM20.3256 21.767C18.5758 21.767 17.3259 20.5761 17.3259 18.2667C17.3259 15.916 18.5985 14.7458 20.3256 14.7458C22.0754 14.7458 23.3479 15.947 23.3479 18.2667C23.3479 20.6382 22.0867 21.767 20.3256 21.767ZM26.1022 19.5508C26.1022 21.5495 27.3862 22.3469 29.3291 22.3469C31.2494 22.3469 32.5447 21.5392 32.5447 19.5508V14.2694H31.7493V18.7845C31.7493 19.5716 31.7607 20.4932 31.2948 21.0317C30.8631 21.5288 30.204 21.7463 29.3519 21.7463C28.4997 21.7463 27.8293 21.5288 27.3862 21.0317C26.9203 20.4932 26.9203 19.5716 26.9203 18.7845V14.2694H26.1022V19.5508ZM34.9495 22.1916H35.7562V14.2694H34.9495V22.1916ZM39.1405 18.2046V14.8908H41.4471C42.6515 14.8908 43.4355 15.4396 43.4355 16.4855C43.4355 17.7075 42.5378 18.2046 41.4243 18.2046H39.1405ZM43.4127 22.1916H44.3444L42.3674 18.712V18.6913C43.3332 18.4739 44.2649 17.8111 44.2649 16.4752C44.2649 15.5639 43.8218 14.9633 43.1514 14.6215C42.6628 14.3833 42.072 14.2694 41.4471 14.2694H38.3338V22.1916H39.1405V18.8156H41.5266L43.4127 22.1916ZM46.3784 22.1916H51.9686V21.5392H47.1851V18.4739H51.5028V17.8318H47.1851V14.9218H51.9232V14.2694H46.3784V22.1916ZM54.0902 22.1916H56.8512C59.135 22.1916 60.9303 20.9592 60.9303 18.1528C60.9303 15.3671 59.0896 14.2694 56.7944 14.2694H54.0902V22.1916ZM54.8969 21.5495V14.9115H56.8057C58.6464 14.9115 60.0895 15.8021 60.0895 18.1839C60.0895 20.7314 58.6578 21.5495 56.7717 21.5495H54.8969Z" fill="black"/>
<path d="M273.913 11.0954C277.275 11.0954 280 8.61164 280 5.54772C280 2.4838 277.275 0 273.913 0C270.551 0 267.826 2.4838 267.826 5.54772C267.826 8.61164 270.551 11.0954 273.913 11.0954Z" fill="#F1F1F1"/>
<path d="M249.565 11.0954C252.927 11.0954 255.652 8.61164 255.652 5.54772C255.652 2.4838 252.927 0 249.565 0C246.204 0 243.479 2.4838 243.479 5.54772C243.479 8.61164 246.204 11.0954 249.565 11.0954Z" fill="#99C140"/>
<path d="M225.218 11.0954C228.58 11.0954 231.305 8.61164 231.305 5.54772C231.305 2.4838 228.58 0 225.218 0C221.856 0 219.131 2.4838 219.131 5.54772C219.131 8.61164 221.856 11.0954 225.218 11.0954Z" fill="#99C140"/>
<path d="M200.869 11.0954C204.231 11.0954 206.956 8.61164 206.956 5.54772C206.956 2.4838 204.231 0 200.869 0C197.507 0 194.782 2.4838 194.782 5.54772C194.782 8.61164 197.507 11.0954 200.869 11.0954Z" fill="#99C140"/>
<path d="M176.522 11.0954C179.883 11.0954 182.608 8.61164 182.608 5.54772C182.608 2.4838 179.883 0 176.522 0C173.16 0 170.435 2.4838 170.435 5.54772C170.435 8.61164 173.16 11.0954 176.522 11.0954Z" fill="#99C140"/>
<path d="M0 35.875H280" stroke="#EDEDED"/>
<path d="M7.01101 47.4488C6.9542 46.0922 5.94295 45.2223 4.17043 45.2223C2.46608 45.2223 1.25031 46.0714 1.25031 47.3763C1.25031 48.4843 1.82979 49.1989 3.53414 49.4785L4.9317 49.7063C6.05657 49.8927 6.45426 50.3587 6.45426 51.1147C6.45426 52.026 5.81797 52.8234 4.13634 52.8234C2.50017 52.8234 1.82979 51.9224 1.70481 51.0526H0.886719C0.98898 52.2952 2.12521 53.424 4.12498 53.424C6.15883 53.424 7.27234 52.4506 7.27234 51.0526C7.27234 49.9445 6.54515 49.2403 5.10214 49.0021L3.64776 48.7639C2.51153 48.5775 2.07976 48.184 2.07976 47.3348C2.07976 46.3925 2.90921 45.8125 4.17043 45.8125C5.61344 45.8125 6.12475 46.5685 6.21565 47.4488H7.01101ZM8.87346 49.3335C8.87346 52.1917 10.6573 53.424 12.7139 53.424C14.7705 53.424 16.5771 52.1917 16.5771 49.3335C16.5771 46.4546 14.7591 45.2223 12.7139 45.2223C10.6914 45.2223 8.87346 46.4546 8.87346 49.3335ZM12.7139 52.8337C10.9641 52.8337 9.71427 51.6428 9.71427 49.3335C9.71427 46.9827 10.9868 45.8125 12.7139 45.8125C14.4637 45.8125 15.7363 47.0138 15.7363 49.3335C15.7363 51.6325 14.4524 52.8337 12.7139 52.8337ZM22.0456 45.8125C23.6818 45.8125 24.3749 46.7446 24.4999 47.6144H25.3293C25.1362 45.8643 23.5227 45.2119 22.0456 45.2119C19.8641 45.2119 18.2052 46.7135 18.2052 49.3231C18.2052 52.1399 19.83 53.424 22.0115 53.424C23.9545 53.424 25.193 52.3781 25.3293 50.9594H24.5226C24.409 51.8603 23.7273 52.813 22.0797 52.813C20.1254 52.813 19.0687 51.4461 19.0687 49.3231C19.0687 47.2934 20.08 45.8125 22.0456 45.8125ZM27.4266 53.2583H28.2333V45.3362H27.4266V53.2583ZM33.6174 46.0507H33.6401C33.6401 46.0507 33.7879 46.5374 33.981 47.0138L35.1968 50.0688H32.0267L33.2538 47.0242C33.4356 46.5685 33.5947 46.1025 33.6174 46.0507ZM36.4694 53.2583H37.3215L34.1174 45.3362H33.1629L29.9474 53.2583H30.7541L31.7881 50.6694H35.4354L36.4694 53.2583ZM39.0219 53.2583H44.3167V52.6059H39.8286V45.3362H39.0219V53.2583ZM49.0306 53.2583H51.7916C54.0754 53.2583 55.8707 52.026 55.8707 49.2196C55.8707 46.4339 54.03 45.3362 51.7348 45.3362H49.0306V53.2583ZM49.8373 52.6163V45.9782H51.7462C53.5869 45.9782 55.0299 46.8688 55.0299 49.2507C55.0299 51.7982 53.5982 52.6163 51.7121 52.6163H49.8373ZM57.9185 53.2583H58.7252V45.3362H57.9185V53.2583ZM66.9184 47.4488C66.8616 46.0922 65.8504 45.2223 64.0779 45.2223C62.3735 45.2223 61.1577 46.0714 61.1577 47.3763C61.1577 48.4843 61.7372 49.1989 63.4416 49.4785L64.8391 49.7063C65.964 49.8927 66.3617 50.3587 66.3617 51.1147C66.3617 52.026 65.7254 52.8234 64.0438 52.8234C62.4076 52.8234 61.7372 51.9224 61.6122 51.0526H60.7941C60.8964 52.2952 62.0326 53.424 64.0324 53.424C66.0663 53.424 67.1798 52.4506 67.1798 51.0526C67.1798 49.9445 66.4526 49.2403 65.0096 49.0021L63.5552 48.7639C62.419 48.5775 61.9872 48.184 61.9872 47.3348C61.9872 46.3925 62.8166 45.8125 64.0779 45.8125C65.5209 45.8125 66.0322 46.5685 66.1231 47.4488H66.9184ZM75.1123 45.3362H68.0676V45.9782H71.1809V53.2583H71.9876V45.9782H75.1123V45.3362ZM78.867 46.0507H78.8897C78.8897 46.0507 79.0374 46.5374 79.2306 47.0138L80.4463 50.0688H77.2762L78.5034 47.0242C78.6852 46.5685 78.8442 46.1025 78.867 46.0507ZM81.7191 53.2583H82.5712L79.3669 45.3362H78.4125L75.1969 53.2583H76.0037L77.0376 50.6694H80.6849L81.7191 53.2583ZM84.2715 53.2583H85.0555V46.3407H85.0783C85.0783 46.3407 85.2146 46.5996 85.4873 46.9931L89.805 53.2583H90.8162V45.3362H90.0322V52.2642H90.0095C90.0095 52.2642 89.8845 52.0053 89.6232 51.6221L85.2714 45.3362H84.2715V53.2583ZM96.7108 45.8125C98.347 45.8125 99.0401 46.7446 99.1651 47.6144H99.9945C99.8014 45.8643 98.1879 45.2119 96.7108 45.2119C94.5293 45.2119 92.8704 46.7135 92.8704 49.3231C92.8704 52.1399 94.4952 53.424 96.6768 53.424C98.6197 53.424 99.8582 52.3781 99.9945 50.9594H99.1878C99.0742 51.8603 98.3925 52.813 96.7449 52.813C94.7906 52.813 93.7339 51.4461 93.7339 49.3231C93.7339 47.2934 94.7452 45.8125 96.7108 45.8125ZM102.092 53.2583H102.898V45.3362H102.092V53.2583ZM105.476 53.2583H106.26V46.3407H106.283C106.283 46.3407 106.419 46.5996 106.692 46.9931L111.01 53.2583H112.021V45.3362H111.237V52.2642H111.214C111.214 52.2642 111.089 52.0053 110.828 51.6221L106.476 45.3362H105.476V53.2583ZM117.972 45.8125C119.245 45.8125 120.199 46.4339 120.415 47.4384H121.245C121.029 46.1025 119.802 45.2223 117.972 45.2223C115.768 45.2223 114.075 46.6824 114.075 49.3335C114.075 52.2331 115.791 53.424 117.87 53.424C119.415 53.424 120.29 52.7509 120.688 52.0053H120.722V53.2583H121.449V49.3439H118.006V49.9963H120.665V50.4209C120.665 51.85 119.642 52.8234 117.938 52.8234C116.029 52.8234 114.916 51.5289 114.916 49.3749C114.916 47.2416 116.007 45.8125 117.972 45.8125Z" fill="black"/>
<path d="M273.913 54.737C277.275 54.737 280 52.2532 280 49.1893C280 46.1254 277.275 43.6416 273.913 43.6416C270.551 43.6416 267.826 46.1254 267.826 49.1893C267.826 52.2532 270.551 54.737 273.913 54.737Z" fill="#F1F1F1"/>
<path d="M249.565 54.737C252.927 54.737 255.652 52.2532 255.652 49.1893C255.652 46.1254 252.927 43.6416 249.565 43.6416C246.204 43.6416 243.479 46.1254 243.479 49.1893C243.479 52.2532 246.204 54.737 249.565 54.737Z" fill="#F1F1F1"/>
<path d="M225.218 54.737C228.58 54.737 231.305 52.2532 231.305 49.1893C231.305 46.1254 228.58 43.6416 225.218 43.6416C221.856 43.6416 219.131 46.1254 219.131 49.1893C219.131 52.2532 221.856 54.737 225.218 54.737Z" fill="#F1F1F1"/>
<path d="M200.869 54.737C204.231 54.737 206.956 52.2532 206.956 49.1893C206.956 46.1254 204.231 43.6416 200.869 43.6416C197.507 43.6416 194.782 46.1254 194.782 49.1893C194.782 52.2532 197.507 54.737 200.869 54.737Z" fill="#DB7B2B"/>
<path d="M176.522 54.737C179.883 54.737 182.608 52.2532 182.608 49.1893C182.608 46.1254 179.883 43.6416 176.522 43.6416C173.16 43.6416 170.435 46.1254 170.435 49.1893C170.435 52.2532 173.16 54.737 176.522 54.737Z" fill="#DB7B2B"/>
<path d="M0 66.9424H280" stroke="#EDEDED"/>
<path d="M7.22628 76.4036H0.181641V77.0456H3.29492V84.3257H4.10164V77.0456H7.22628V76.4036ZM8.74031 84.3257H14.3306V83.6733H9.54703V80.608H13.8647V79.9659H9.54703V77.056H14.2851V76.4036H8.74031V84.3257ZM16.4521 84.3257H17.2361V77.4909H17.2702C17.2702 77.4909 17.4292 77.9155 17.6906 78.5058L20.2812 84.3257H20.997L23.6217 78.5058C23.8944 77.8948 24.0307 77.4909 24.0307 77.4909H24.0648V84.3257H24.8829V76.4036H23.7921L21.0084 82.6067C20.8038 83.0727 20.6902 83.4144 20.6902 83.4144H20.6675C20.6675 83.4144 20.5425 83.0727 20.338 82.6067L17.5656 76.4036H16.4521V84.3257ZM29.9934 81.1776C31.8454 81.1776 32.9476 80.287 32.9476 78.7543C32.9476 77.2424 31.8341 76.4036 30.0388 76.4036H27.4482V84.3257H28.2549V81.1776H29.9934ZM28.2549 80.5873V77.0146H30.0388C31.3455 77.0146 32.1181 77.6152 32.1181 78.775C32.1181 80.0488 31.2319 80.5873 30.0161 80.5873H28.2549ZM34.7938 84.3257H40.384V83.6733H35.6005V80.608H39.9182V79.9659H35.6005V77.056H40.3386V76.4036H34.7938V84.3257ZM43.3122 80.3388V77.0249H45.6187C46.8231 77.0249 47.6071 77.5738 47.6071 78.6197C47.6071 79.8417 46.7095 80.3388 45.596 80.3388H43.3122ZM47.5844 84.3257H48.5161L46.5391 80.8462V80.8255C47.5049 80.608 48.4366 79.9452 48.4366 78.6093C48.4366 77.698 47.9935 77.0974 47.3231 76.7557C46.8345 76.5175 46.2437 76.4036 45.6187 76.4036H42.5055V84.3257H43.3122V80.9497H45.6983L47.5844 84.3257ZM53.3566 77.1181H53.3793C53.3793 77.1181 53.527 77.6048 53.7202 78.0812L54.9359 81.1361H51.7658L52.993 78.0916C53.1748 77.6359 53.3338 77.1699 53.3566 77.1181ZM56.2085 84.3257H57.0607L53.8565 76.4036H52.9021L49.6865 84.3257H50.4933L51.5272 81.7368H55.1745L56.2085 84.3257ZM64.1932 76.4036H57.1486V77.0456H60.2619V84.3257H61.0686V77.0456H64.1932V76.4036ZM65.4927 81.685C65.4927 83.6837 66.7766 84.4811 68.7196 84.4811C70.6398 84.4811 71.9351 83.6733 71.9351 81.685V76.4036H71.1397V80.9187C71.1397 81.7057 71.1511 82.6274 70.6852 83.1659C70.2535 83.6629 69.5945 83.8804 68.7423 83.8804C67.8901 83.8804 67.2197 83.6629 66.7766 83.1659C66.3107 82.6274 66.3107 81.7057 66.3107 80.9187V76.4036H65.4927V81.685ZM75.1466 80.3388V77.0249H77.4532C78.6576 77.0249 79.4416 77.5738 79.4416 78.6197C79.4416 79.8417 78.544 80.3388 77.4305 80.3388H75.1466ZM79.4189 84.3257H80.3506L78.3735 80.8462V80.8255C79.3393 80.608 80.2711 79.9452 80.2711 78.6093C80.2711 77.698 79.8279 77.0974 79.1575 76.7557C78.669 76.5175 78.0781 76.4036 77.4532 76.4036H74.3399V84.3257H75.1466V80.9497H77.5327L79.4189 84.3257ZM82.3848 84.3257H87.975V83.6733H83.1915V80.608H87.5092V79.9659H83.1915V77.056H87.9296V76.4036H82.3848V84.3257ZM96.444 76.8799C98.0802 76.8799 98.7733 77.8119 98.8983 78.6818H99.7277C99.5346 76.9317 97.9211 76.2793 96.444 76.2793C94.2625 76.2793 92.6036 77.7809 92.6036 80.3905C92.6036 83.2073 94.2284 84.4914 96.4099 84.4914C98.3529 84.4914 99.5914 83.4455 99.7277 82.0267H98.921C98.8074 82.9277 98.1256 83.8804 96.4781 83.8804C94.5238 83.8804 93.4671 82.5135 93.4671 80.3905C93.4671 78.3608 94.4783 76.8799 96.444 76.8799ZM102.632 80.608H107.517V84.3257H108.324V76.4036H107.517V79.9659H102.632V76.4036H101.825V84.3257H102.632V80.608ZM110.89 84.3257H116.481V83.6733H111.697V80.608H116.015V79.9659H111.697V77.056H116.435V76.4036H110.89V84.3257ZM121.887 76.8799C123.523 76.8799 124.216 77.8119 124.341 78.6818H125.17C124.977 76.9317 123.364 76.2793 121.887 76.2793C119.705 76.2793 118.046 77.7809 118.046 80.3905C118.046 83.2073 119.671 84.4914 121.853 84.4914C123.796 84.4914 125.034 83.4455 125.17 82.0267H124.364C124.25 82.9277 123.568 83.8804 121.921 83.8804C119.966 83.8804 118.91 82.5135 118.91 80.3905C118.91 78.3608 119.921 76.8799 121.887 76.8799ZM128.074 81.5918L129.483 80.2352L132.835 84.3257H133.812L130.074 79.7381L133.585 76.4036H132.585L128.074 80.6908V76.4036H127.268V84.3257H128.074V81.5918ZM140.828 78.5161C140.772 77.1595 139.76 76.2897 137.988 76.2897C136.284 76.2897 135.068 77.1388 135.068 78.4436C135.068 79.5517 135.647 80.2663 137.352 80.5459L138.749 80.7737C139.874 80.9601 140.272 81.4261 140.272 82.1821C140.272 83.0934 139.635 83.8908 137.954 83.8908C136.318 83.8908 135.647 82.9898 135.522 82.1199H134.704C134.806 83.3626 135.943 84.4914 137.942 84.4914C139.976 84.4914 141.09 83.518 141.09 82.1199C141.09 81.0119 140.363 80.3077 138.92 80.0695L137.465 79.8313C136.329 79.6449 135.897 79.2514 135.897 78.4022C135.897 77.4598 136.727 76.8799 137.988 76.8799C139.431 76.8799 139.942 77.6359 140.033 78.5161H140.828Z" fill="black"/>
<path d="M273.913 85.8044C277.275 85.8044 280 83.3206 280 80.2567C280 77.1928 277.275 74.709 273.913 74.709C270.551 74.709 267.826 77.1928 267.826 80.2567C267.826 83.3206 270.551 85.8044 273.913 85.8044Z" fill="#F1F1F1"/>
<path d="M249.565 85.8044C252.927 85.8044 255.652 83.3206 255.652 80.2567C255.652 77.1928 252.927 74.709 249.565 74.709C246.204 74.709 243.479 77.1928 243.479 80.2567C243.479 83.3206 246.204 85.8044 249.565 85.8044Z" fill="#F1F1F1"/>
<path d="M225.218 85.8044C228.58 85.8044 231.305 83.3206 231.305 80.2567C231.305 77.1928 228.58 74.709 225.218 74.709C221.856 74.709 219.131 77.1928 219.131 80.2567C219.131 83.3206 221.856 85.8044 225.218 85.8044Z" fill="#E7B416"/>
<path d="M200.869 85.8044C204.231 85.8044 206.956 83.3206 206.956 80.2567C206.956 77.1928 204.231 74.709 200.869 74.709C197.507 74.709 194.782 77.1928 194.782 80.2567C194.782 83.3206 197.507 85.8044 200.869 85.8044Z" fill="#E7B416"/>
<path d="M176.522 85.8044C179.883 85.8044 182.608 83.3206 182.608 80.2567C182.608 77.1928 179.883 74.709 176.522 74.709C173.16 74.709 170.435 77.1928 170.435 80.2567C170.435 83.3206 173.16 85.8044 176.522 85.8044Z" fill="#E7B416"/>
<path d="M0 98.0098H280" stroke="#EDEDED"/>
<path d="M2.0909 111.675H6.9767V115.393H7.78343V107.47H6.9767V111.033H2.0909V107.47H1.28418V115.393H2.0909V111.675ZM13.1561 108.185H13.1788C13.1788 108.185 13.3265 108.672 13.5197 109.148L14.7355 112.203H11.5654L12.7925 109.158C12.9743 108.703 13.1334 108.237 13.1561 108.185ZM16.008 115.393H16.8602L13.656 107.47H12.7016L9.48607 115.393H10.2928L11.3268 112.804H14.9741L16.008 115.393ZM18.5607 115.393H19.3447V108.475H19.3674C19.3674 108.475 19.5037 108.734 19.7764 109.127L24.0941 115.393H25.1054V107.47H24.3214V114.398H24.2986C24.2986 114.398 24.1737 114.139 23.9123 113.756L19.5606 107.47H18.5607V115.393ZM27.6594 115.393H30.4204C32.7042 115.393 34.4995 114.16 34.4995 111.354C34.4995 108.568 32.6588 107.47 30.3636 107.47H27.6594V115.393ZM28.4661 114.75V108.112H30.375C32.2157 108.112 33.6587 109.003 33.6587 111.385C33.6587 113.932 32.227 114.75 30.3409 114.75H28.4661ZM45.2809 109.583C45.2241 108.226 44.2129 107.356 42.4404 107.356C40.736 107.356 39.5203 108.206 39.5203 109.51C39.5203 110.619 40.0997 111.333 41.8041 111.613L43.2016 111.84C44.3265 112.027 44.7242 112.493 44.7242 113.249C44.7242 114.16 44.0879 114.958 42.4063 114.958C40.7701 114.958 40.0997 114.057 39.9747 113.187H39.1567C39.2589 114.429 40.3951 115.558 42.3949 115.558C44.4288 115.558 45.5423 114.585 45.5423 113.187C45.5423 112.079 44.8151 111.374 43.3721 111.136L41.9177 110.898C40.7815 110.712 40.3497 110.318 40.3497 109.469C40.3497 108.527 41.1791 107.947 42.4404 107.947C43.8834 107.947 44.3947 108.703 44.4856 109.583H45.2809ZM50.3389 108.185H50.3616C50.3616 108.185 50.5093 108.672 50.7025 109.148L51.9182 112.203H48.7482L49.9753 109.158C50.1571 108.703 50.3162 108.237 50.3389 108.185ZM53.1908 115.393H54.043L50.8388 107.47H49.8844L46.6689 115.393H47.4756L48.5096 112.804H52.1569L53.1908 115.393ZM55.7435 115.393H56.5275V108.475H56.5502C56.5502 108.475 56.6865 108.734 56.9592 109.127L61.2769 115.393H62.2881V107.47H61.5041V114.398H61.4814C61.4814 114.398 61.3564 114.139 61.0951 113.756L56.7433 107.47H55.7435V115.393ZM64.8422 115.393H65.6489V107.47H64.8422V115.393ZM74.1689 107.47H67.1243V108.112H70.2375V115.393H71.0443V108.112H74.1689V107.47ZM75.6829 115.393H76.4897V107.47H75.6829V115.393ZM78.4778 108.102H83.5677L78.2391 114.823V115.393H84.5562V114.761H79.2277L84.5562 108.04V107.47H78.4778V108.102ZM86.435 115.393H92.0253V114.74H87.2418V111.675H91.5594V111.033H87.2418V108.123H91.9798V107.47H86.435V115.393ZM94.9535 111.406V108.092H97.2601C98.4645 108.092 99.2485 108.641 99.2485 109.686C99.2485 110.908 98.3508 111.406 97.2373 111.406H94.9535ZM99.2258 115.393H100.157L98.1804 111.913V111.892C99.1462 111.675 100.078 111.012 100.078 109.676C100.078 108.765 99.6348 108.164 98.9644 107.822C98.4758 107.584 97.885 107.47 97.2601 107.47H94.1468V115.393H94.9535V112.017H97.3396L99.2258 115.393Z" fill="black"/>
<path d="M273.913 116.872C277.275 116.872 280 114.388 280 111.324C280 108.26 277.275 105.776 273.913 105.776C270.551 105.776 267.826 108.26 267.826 111.324C267.826 114.388 270.551 116.872 273.913 116.872Z" fill="#F1F1F1"/>
<path d="M249.565 116.872C252.927 116.872 255.652 114.388 255.652 111.324C255.652 108.26 252.927 105.776 249.565 105.776C246.204 105.776 243.479 108.26 243.479 111.324C243.479 114.388 246.204 116.872 249.565 116.872Z" fill="#F1F1F1"/>
<path d="M225.218 116.872C228.58 116.872 231.305 114.388 231.305 111.324C231.305 108.26 228.58 105.776 225.218 105.776C221.856 105.776 219.131 108.26 219.131 111.324C219.131 114.388 221.856 116.872 225.218 116.872Z" fill="#F1F1F1"/>
<path d="M200.869 116.872C204.231 116.872 206.956 114.388 206.956 111.324C206.956 108.26 204.231 105.776 200.869 105.776C197.507 105.776 194.782 108.26 194.782 111.324C194.782 114.388 197.507 116.872 200.869 116.872Z" fill="#F1F1F1"/>
<path d="M176.522 116.872C179.883 116.872 182.608 114.388 182.608 111.324C182.608 108.26 179.883 105.776 176.522 105.776C173.16 105.776 170.435 108.26 170.435 111.324C170.435 114.388 173.16 116.872 176.522 116.872Z" fill="#CC3232"/>
<path d="M0 129.077H280" stroke="#EDEDED"/>
<path d="M1.28418 146.46H6.87444V145.807H2.0909V142.742H6.40859V142.1H2.0909V139.19H6.82899V138.537H1.28418V146.46ZM8.44049 142.535C8.44049 145.393 10.2244 146.604 12.281 146.604C13.0195 146.604 13.349 146.48 13.849 146.48C14.7239 146.48 15.2124 146.718 15.7465 147.443L16.4055 146.988C15.9283 146.356 15.4283 146.035 14.4966 145.993V145.952C15.5192 145.362 16.1441 144.233 16.1441 142.535C16.1441 139.656 14.3262 138.423 12.281 138.423C10.2585 138.423 8.44049 139.656 8.44049 142.535ZM12.281 146.035C10.5312 146.035 9.2813 144.844 9.2813 142.535C9.2813 140.184 10.5539 139.014 12.281 139.014C14.0308 139.014 15.3033 140.215 15.3033 142.535C15.3033 144.906 14.0421 146.035 12.281 146.035ZM18.0576 143.819C18.0576 145.817 19.3416 146.615 21.2845 146.615C23.2048 146.615 24.5001 145.807 24.5001 143.819V138.537H23.7047V143.052C23.7047 143.839 23.7161 144.761 23.2502 145.3C22.8185 145.797 22.1594 146.014 21.3073 146.014C20.4551 146.014 19.7847 145.797 19.3416 145.3C18.8757 144.761 18.8757 143.839 18.8757 143.052V138.537H18.0576V143.819ZM26.9049 146.46H27.7116V138.537H26.9049V146.46ZM32.8343 143.311C34.6864 143.311 35.7885 142.421 35.7885 140.888C35.7885 139.376 34.675 138.537 32.8798 138.537H30.2892V146.46H31.0959V143.311H32.8343ZM31.0959 142.721V139.148H32.8798C34.1864 139.148 34.9591 139.749 34.9591 140.909C34.9591 142.183 34.0728 142.721 32.8571 142.721H31.0959ZM37.6348 146.46H38.4188V139.625H38.4528C38.4528 139.625 38.6119 140.049 38.8732 140.64L41.4639 146.46H42.1797L44.8044 140.64C45.0771 140.029 45.2134 139.625 45.2134 139.625H45.2475V146.46H46.0656V138.537H44.9748L42.191 144.74C41.9865 145.206 41.8729 145.548 41.8729 145.548H41.8502C41.8502 145.548 41.7252 145.206 41.5207 144.74L38.7483 138.537H37.6348V146.46ZM48.6309 146.46H54.2211V145.807H49.4376V142.742H53.7553V142.1H49.4376V139.19H54.1757V138.537H48.6309V146.46ZM56.3426 146.46H57.1266V139.542H57.1493C57.1493 139.542 57.2856 139.801 57.5583 140.194L61.876 146.46H62.8873V138.537H62.1033V145.465H62.0805C62.0805 145.465 61.9555 145.206 61.6942 144.823L57.3424 138.537H56.3426V146.46ZM71.3838 138.537H64.3392V139.179H67.4525V146.46H68.2592V139.179H71.3838V138.537ZM75.8494 146.46H78.6104C80.8943 146.46 82.6895 145.227 82.6895 142.421C82.6895 139.635 80.8488 138.537 78.5536 138.537H75.8494V146.46ZM76.6561 145.817V139.179H78.565C80.4057 139.179 81.8487 140.07 81.8487 142.452C81.8487 144.999 80.417 145.817 78.5309 145.817H76.6561ZM84.7372 146.46H85.5439V138.537H84.7372V146.46ZM93.7369 140.65C93.6801 139.293 92.6689 138.423 90.8963 138.423C89.192 138.423 87.9762 139.273 87.9762 140.577C87.9762 141.686 88.5557 142.4 90.2601 142.68L91.6576 142.907C92.7825 143.094 93.1802 143.56 93.1802 144.316C93.1802 145.227 92.5439 146.025 90.8623 146.025C89.2261 146.025 88.5557 145.124 88.4307 144.254H87.6126C87.7149 145.496 88.8511 146.625 90.8509 146.625C92.8848 146.625 93.9983 145.652 93.9983 144.254C93.9983 143.146 93.2711 142.441 91.828 142.203L90.3737 141.965C89.2374 141.779 88.8057 141.385 88.8057 140.536C88.8057 139.594 89.6351 139.014 90.8963 139.014C92.3394 139.014 92.8507 139.77 92.9416 140.65H93.7369ZM96.0995 146.46H96.9062V138.537H96.0995V146.46ZM99.4838 146.46H100.268V139.542H100.291C100.291 139.542 100.427 139.801 100.7 140.194L105.017 146.46H106.029V138.537H105.245V145.465H105.222C105.222 145.465 105.097 145.206 104.835 144.823L100.484 138.537H99.4838V146.46ZM109.389 143.011H113.275V142.369H109.389V139.19H113.662V138.537H108.583V146.46H109.389V143.011ZM115.54 146.46H121.13V145.807H116.346V142.742H120.664V142.1H116.346V139.19H121.084V138.537H115.54V146.46ZM126.537 139.014C128.173 139.014 128.866 139.946 128.991 140.816H129.82C129.627 139.065 128.014 138.413 126.537 138.413C124.355 138.413 122.696 139.915 122.696 142.524C122.696 145.341 124.321 146.625 126.503 146.625C128.446 146.625 129.684 145.579 129.82 144.161H129.014C128.9 145.061 128.218 146.014 126.571 146.014C124.616 146.014 123.56 144.647 123.56 142.524C123.56 140.495 124.571 139.014 126.537 139.014ZM137.805 138.537H130.76V139.179H133.874V146.46H134.68V139.179H137.805V138.537ZM139.318 146.46H144.909V145.807H140.125V142.742H144.443V142.1H140.125V139.19H144.863V138.537H139.318V146.46ZM147.03 146.46H149.791C152.075 146.46 153.87 145.227 153.87 142.421C153.87 139.635 152.03 138.537 149.734 138.537H147.03V146.46ZM147.837 145.817V139.179H149.746C151.587 139.179 153.03 140.07 153.03 142.452C153.03 144.999 151.598 145.817 149.712 145.817H147.837Z" fill="black"/>
<path d="M273.913 147.939C277.275 147.939 280 145.455 280 142.391C280 139.328 277.275 136.844 273.913 136.844C270.551 136.844 267.826 139.328 267.826 142.391C267.826 145.455 270.551 147.939 273.913 147.939Z" fill="#2DC937"/>
<path d="M249.565 147.939C252.927 147.939 255.652 145.455 255.652 142.391C255.652 139.328 252.927 136.844 249.565 136.844C246.204 136.844 243.479 139.328 243.479 142.391C243.479 145.455 246.204 147.939 249.565 147.939Z" fill="#2DC937"/>
<path d="M225.218 147.939C228.58 147.939 231.305 145.455 231.305 142.391C231.305 139.328 228.58 136.844 225.218 136.844C221.856 136.844 219.131 139.328 219.131 142.391C219.131 145.455 221.856 147.939 225.218 147.939Z" fill="#2DC937"/>
<path d="M200.869 147.939C204.231 147.939 206.956 145.455 206.956 142.391C206.956 139.328 204.231 136.844 200.869 136.844C197.507 136.844 194.782 139.328 194.782 142.391C194.782 145.455 197.507 147.939 200.869 147.939Z" fill="#2DC937"/>
<path d="M176.522 147.939C179.883 147.939 182.608 145.455 182.608 142.391C182.608 139.328 179.883 136.844 176.522 136.844C173.16 136.844 170.435 139.328 170.435 142.391C170.435 145.455 173.16 147.939 176.522 147.939Z" fill="#2DC937"/>
<path d="M0 160.145H280" stroke="#EDEDED"/>
<path d="M7.01101 171.717C6.9542 170.361 5.94295 169.491 4.17043 169.491C2.46608 169.491 1.25031 170.34 1.25031 171.645C1.25031 172.753 1.82979 173.467 3.53414 173.747L4.9317 173.975C6.05657 174.161 6.45426 174.627 6.45426 175.383C6.45426 176.295 5.81797 177.092 4.13634 177.092C2.50017 177.092 1.82979 176.191 1.70481 175.321H0.886719C0.98898 176.564 2.12521 177.693 4.12498 177.693C6.15883 177.693 7.27234 176.719 7.27234 175.321C7.27234 174.213 6.54515 173.509 5.10214 173.271L3.64776 173.032C2.51153 172.846 2.07976 172.453 2.07976 171.603C2.07976 170.661 2.90921 170.081 4.17043 170.081C5.61344 170.081 6.12475 170.837 6.21565 171.717H7.01101ZM9.15881 174.886C9.15881 176.885 10.4428 177.682 12.3857 177.682C14.3059 177.682 15.6012 176.874 15.6012 174.886V169.605H14.8059V174.12C14.8059 174.907 14.8172 175.829 14.3514 176.367C13.9196 176.864 13.2606 177.082 12.4084 177.082C11.5563 177.082 10.8859 176.864 10.4428 176.367C9.9769 175.829 9.9769 174.907 9.9769 174.12V169.605H9.15881V174.886ZM18.8128 173.54V170.226H21.1194C22.3238 170.226 23.1078 170.775 23.1078 171.821C23.1078 173.043 22.2101 173.54 21.0966 173.54H18.8128ZM23.085 177.527H24.0167L22.0397 174.047V174.027C23.0055 173.809 23.9372 173.146 23.9372 171.811C23.9372 170.899 23.4941 170.299 22.8237 169.957C22.3351 169.719 21.7443 169.605 21.1194 169.605H18.0061V177.527H18.8128V174.151H21.1989L23.085 177.527ZM26.8574 174.078H30.7433V173.436H26.8574V170.257H31.1296V169.605H26.0507V177.527H26.8574V174.078ZM35.304 170.319H35.3267C35.3267 170.319 35.4744 170.806 35.6676 171.282L36.8834 174.337H33.7133L34.9404 171.293C35.1222 170.837 35.2813 170.371 35.304 170.319ZM38.1559 177.527H39.0081L35.8039 169.605H34.8495L31.634 177.527H32.4407L33.4747 174.938H37.122L38.1559 177.527ZM43.8826 170.081C45.5188 170.081 46.2119 171.013 46.3369 171.883H47.1663C46.9732 170.133 45.3597 169.48 43.8826 169.48C41.7011 169.48 40.0422 170.982 40.0422 173.592C40.0422 176.408 41.667 177.693 43.8485 177.693C45.7915 177.693 47.03 176.647 47.1663 175.228H46.3596C46.246 176.129 45.5642 177.082 43.9167 177.082C41.9624 177.082 40.9057 175.715 40.9057 173.592C40.9057 171.562 41.9169 170.081 43.8826 170.081ZM49.2636 177.527H54.8538V176.874H50.0703V173.809H54.388V173.167H50.0703V170.257H54.8084V169.605H49.2636V177.527ZM62.5355 171.717C62.4787 170.361 61.4674 169.491 59.6949 169.491C57.9906 169.491 56.7748 170.34 56.7748 171.645C56.7748 172.753 57.3543 173.467 59.0586 173.747L60.4562 173.975C61.5811 174.161 61.9787 174.627 61.9787 175.383C61.9787 176.295 61.3424 177.092 59.6608 177.092C58.0247 177.092 57.3543 176.191 57.2293 175.321H56.4112C56.5135 176.564 57.6497 177.693 59.6495 177.693C61.6833 177.693 62.7968 176.719 62.7968 175.321C62.7968 174.213 62.0696 173.509 60.6266 173.271L59.1722 173.032C58.036 172.846 57.6042 172.453 57.6042 171.603C57.6042 170.661 58.4337 170.081 59.6949 170.081C61.1379 170.081 61.6492 170.837 61.7401 171.717H62.5355ZM67.9048 177.527H70.6659C72.9497 177.527 74.745 176.295 74.745 173.488C74.745 170.702 72.9043 169.605 70.6091 169.605H67.9048V177.527ZM68.7116 176.885V170.247H70.6204C72.4611 170.247 73.9041 171.137 73.9041 173.519C73.9041 176.067 72.4725 176.885 70.5863 176.885H68.7116ZM76.7928 177.527H77.5995V169.605H76.7928V177.527ZM85.7925 171.717C85.7356 170.361 84.7244 169.491 82.9519 169.491C81.2475 169.491 80.032 170.34 80.032 171.645C80.032 172.753 80.6115 173.467 82.3156 173.747L83.7132 173.975C84.838 174.161 85.2357 174.627 85.2357 175.383C85.2357 176.295 84.5994 177.092 82.9178 177.092C81.2816 177.092 80.6115 176.191 80.4865 175.321H79.6684C79.7707 176.564 80.9069 177.693 82.9064 177.693C84.9403 177.693 86.0538 176.719 86.0538 175.321C86.0538 174.213 85.3266 173.509 83.8836 173.271L82.4292 173.032C81.293 172.846 80.8615 172.453 80.8615 171.603C80.8615 170.661 81.6907 170.081 82.9519 170.081C84.3949 170.081 84.9062 170.837 84.9971 171.717H85.7925ZM88.155 177.527H88.9617V169.605H88.155V177.527ZM91.5394 177.527H92.3233V170.609H92.3461C92.3461 170.609 92.4824 170.868 92.7551 171.262L97.0728 177.527H98.084V169.605H97.3V176.533H97.2773C97.2773 176.533 97.1523 176.274 96.891 175.891L92.5392 169.605H91.5394V177.527ZM101.445 174.078H105.331V173.436H101.445V170.257H105.717V169.605H100.638V177.527H101.445V174.078ZM107.595 177.527H113.185V176.874H108.402V173.809H112.72V173.167H108.402V170.257H113.14V169.605H107.595V177.527ZM118.592 170.081C120.228 170.081 120.922 171.013 121.046 171.883H121.876C121.683 170.133 120.069 169.48 118.592 169.48C116.411 169.48 114.752 170.982 114.752 173.592C114.752 176.408 116.377 177.693 118.558 177.693C120.501 177.693 121.74 176.647 121.876 175.228H121.069C120.956 176.129 120.274 177.082 118.626 177.082C116.672 177.082 115.615 175.715 115.615 173.592C115.615 171.562 116.627 170.081 118.592 170.081ZM129.86 169.605H122.816V170.247H125.929V177.527H126.736V170.247H129.86V169.605ZM131.374 177.527H136.964V176.874H132.181V173.809H136.498V173.167H132.181V170.257H136.919V169.605H131.374V177.527ZM139.086 177.527H141.847C144.131 177.527 145.926 176.295 145.926 173.488C145.926 170.702 144.085 169.605 141.79 169.605H139.086V177.527ZM139.893 176.885V170.247H141.801C143.642 170.247 145.085 171.137 145.085 173.519C145.085 176.067 143.653 176.885 141.767 176.885H139.893Z" fill="black"/>
<path d="M273.913 179.007C277.275 179.007 280 176.523 280 173.459C280 170.395 277.275 167.911 273.913 167.911C270.551 167.911 267.826 170.395 267.826 173.459C267.826 176.523 270.551 179.007 273.913 179.007Z" fill="#EDF0F4"/>
<path d="M249.565 179.007C252.927 179.007 255.652 176.523 255.652 173.459C255.652 170.395 252.927 167.911 249.565 167.911C246.204 167.911 243.479 170.395 243.479 173.459C243.479 176.523 246.204 179.007 249.565 179.007Z" fill="#99C140"/>
<path d="M225.218 179.007C228.58 179.007 231.305 176.523 231.305 173.459C231.305 170.395 228.58 167.911 225.218 167.911C221.856 167.911 219.131 170.395 219.131 173.459C219.131 176.523 221.856 179.007 225.218 179.007Z" fill="#99C140"/>
<path d="M200.869 179.007C204.231 179.007 206.956 176.523 206.956 173.459C206.956 170.395 204.231 167.911 200.869 167.911C197.507 167.911 194.782 170.395 194.782 173.459C194.782 176.523 197.507 179.007 200.869 179.007Z" fill="#99C140"/>
<path d="M176.522 179.007C179.883 179.007 182.608 176.523 182.608 173.459C182.608 170.395 179.883 167.911 176.522 167.911C173.16 167.911 170.435 170.395 170.435 173.459C170.435 176.523 173.16 179.007 176.522 179.007Z" fill="#99C140"/>
<path d="M0 191.212H280" stroke="#EDEDED"/>
<path d="M2.0909 204.877H6.9767V208.595H7.78343V200.673H6.9767V204.235H2.0909V200.673H1.28418V208.595H2.0909V204.877ZM13.1561 201.387H13.1788C13.1788 201.387 13.3265 201.874 13.5197 202.35L14.7355 205.405H11.5654L12.7925 202.36C12.9743 201.905 13.1334 201.439 13.1561 201.387ZM16.008 208.595H16.8602L13.656 200.673H12.7016L9.48607 208.595H10.2928L11.3268 206.006H14.9741L16.008 208.595ZM18.5607 208.595H19.3447V201.677H19.3674C19.3674 201.677 19.5037 201.936 19.7764 202.329L24.0941 208.595H25.1054V200.673H24.3214V207.601H24.2986C24.2986 207.601 24.1737 207.342 23.9123 206.958L19.5606 200.673H18.5607V208.595ZM27.6594 208.595H30.4204C32.7042 208.595 34.4995 207.362 34.4995 204.556C34.4995 201.77 32.6588 200.673 30.3636 200.673H27.6594V208.595ZM28.4661 207.953V201.315H30.375C32.2157 201.315 33.6587 202.205 33.6587 204.587C33.6587 207.135 32.227 207.953 30.3409 207.953H28.4661ZM36.0006 205.457H39.2389V204.815H36.0006V205.457ZM43.2184 208.595L45.0477 202.713C45.2977 201.926 45.3886 201.491 45.3886 201.491H45.4113C45.4113 201.491 45.4908 201.936 45.7408 202.733L47.5815 208.595H48.4791L50.9788 200.673H50.1835L48.3087 206.72C48.1382 207.259 48.0587 207.694 48.0587 207.694H48.036C48.036 207.694 47.9451 207.259 47.7747 206.71L45.8999 200.673H44.9341L43.0593 206.72C42.8775 207.29 42.8207 207.673 42.8207 207.673H42.798C42.798 207.673 42.7411 207.29 42.5593 206.72L40.6732 200.673H39.8551L42.3662 208.595H43.2184ZM55.1102 201.387H55.1329C55.1329 201.387 55.2806 201.874 55.4738 202.35L56.6895 205.405H53.5194L54.7466 202.36C54.9284 201.905 55.0874 201.439 55.1102 201.387ZM57.9621 208.595H58.8143L55.6101 200.673H54.6557L51.4401 208.595H52.2469L53.2808 206.006H56.9281L57.9621 208.595ZM66.0749 202.785C66.0181 201.428 65.0068 200.559 63.2343 200.559C61.53 200.559 60.3142 201.408 60.3142 202.713C60.3142 203.821 60.8937 204.535 62.598 204.815L63.9956 205.043C65.1205 205.229 65.5181 205.695 65.5181 206.451C65.5181 207.362 64.8818 208.16 63.2002 208.16C61.564 208.16 60.8937 207.259 60.7687 206.389H59.9506C60.0529 207.632 61.1891 208.76 63.1889 208.76C65.2227 208.76 66.3362 207.787 66.3362 206.389C66.3362 205.281 65.609 204.577 64.166 204.338L62.7116 204.1C61.5754 203.914 61.1436 203.52 61.1436 202.671C61.1436 201.729 61.9731 201.149 63.2343 201.149C64.6773 201.149 65.1886 201.905 65.2795 202.785H66.0749ZM69.244 204.877H74.1298V208.595H74.9365V200.673H74.1298V204.235H69.244V200.673H68.4373V208.595H69.244V204.877ZM77.5027 208.595H78.3094V200.673H77.5027V208.595ZM80.887 208.595H81.671V201.677H81.6937C81.6937 201.677 81.83 201.936 82.1027 202.329L86.4204 208.595H87.4317V200.673H86.6477V207.601H86.6249C86.6249 207.601 86.5 207.342 86.2386 206.958L81.8869 200.673H80.887V208.595ZM93.3831 201.149C94.6557 201.149 95.6101 201.77 95.826 202.775H96.6554C96.4396 201.439 95.2124 200.559 93.3831 200.559C91.1788 200.559 89.4858 202.019 89.4858 204.67C89.4858 207.569 91.2015 208.76 93.2808 208.76C94.8261 208.76 95.701 208.087 96.0987 207.342H96.1328V208.595H96.86V204.68H93.4172V205.333H96.076V205.757C96.076 207.186 95.0533 208.16 93.349 208.16C91.4401 208.16 90.3266 206.865 90.3266 204.711C90.3266 202.578 91.4174 201.149 93.3831 201.149ZM2.0909 217.721H5.97682V217.079H2.0909V213.9H6.36314V213.247H1.28418V221.169H2.0909V217.721ZM10.5375 213.962H10.5602C10.5602 213.962 10.7079 214.449 10.9011 214.925L12.1169 217.98H8.94677L10.1739 214.935C10.3557 214.48 10.5148 214.014 10.5375 213.962ZM13.3894 221.169H14.2416L11.0374 213.247H10.083L6.86743 221.169H7.67415L8.70816 218.581H12.3555L13.3894 221.169ZM19.1161 213.724C20.7523 213.724 21.4454 214.656 21.5704 215.526H22.3998C22.2067 213.775 20.5932 213.123 19.1161 213.123C16.9346 213.123 15.2757 214.625 15.2757 217.234C15.2757 220.051 16.9005 221.335 19.082 221.335C21.025 221.335 22.2635 220.289 22.3998 218.871H21.5931C21.4795 219.771 20.7977 220.724 19.1502 220.724C17.1959 220.724 16.1392 219.357 16.1392 217.234C16.1392 215.205 17.1504 213.724 19.1161 213.724ZM24.4971 221.169H25.3038V213.247H24.4971V221.169ZM27.8813 221.169H33.1762V220.517H28.6881V213.247H27.8813V221.169ZM34.8829 221.169H35.6896V213.247H34.8829V221.169ZM44.2097 213.247H37.1651V213.889H40.2784V221.169H41.0851V213.889H44.2097V213.247ZM45.7238 221.169H46.5305V213.247H45.7238V221.169ZM49.108 221.169H54.6983V220.517H49.9147V217.452H54.2324V216.81H49.9147V213.9H54.6528V213.247H49.108V221.169ZM62.3799 215.36C62.3231 214.003 61.3119 213.133 59.5394 213.133C57.835 213.133 56.6192 213.983 56.6192 215.287C56.6192 216.396 57.1987 217.11 58.9031 217.39L60.3006 217.617C61.4255 217.804 61.8232 218.27 61.8232 219.026C61.8232 219.937 61.1869 220.735 59.5053 220.735C57.8691 220.735 57.1987 219.834 57.0737 218.964H56.2556C56.3579 220.206 57.4941 221.335 59.4939 221.335C61.5278 221.335 62.6413 220.362 62.6413 218.964C62.6413 217.856 61.9141 217.151 60.4711 216.913L59.0167 216.675C57.8805 216.489 57.4487 216.095 57.4487 215.246C57.4487 214.304 58.2781 213.724 59.5394 213.724C60.9824 213.724 61.4937 214.48 61.5846 215.36H62.3799Z" fill="black"/>
<path d="M273.913 210.074C277.275 210.074 280 207.59 280 204.526C280 201.462 277.275 198.979 273.913 198.979C270.551 198.979 267.826 201.462 267.826 204.526C267.826 207.59 270.551 210.074 273.913 210.074Z" fill="#F1F1F1"/>
<path d="M249.565 210.074C252.927 210.074 255.652 207.59 255.652 204.526C255.652 201.462 252.927 198.979 249.565 198.979C246.204 198.979 243.479 201.462 243.479 204.526C243.479 207.59 246.204 210.074 249.565 210.074Z" fill="#F1F1F1"/>
<path d="M225.218 210.074C228.58 210.074 231.305 207.59 231.305 204.526C231.305 201.462 228.58 198.979 225.218 198.979C221.856 198.979 219.131 201.462 219.131 204.526C219.131 207.59 221.856 210.074 225.218 210.074Z" fill="#F1F1F1"/>
<path d="M200.869 210.074C204.231 210.074 206.956 207.59 206.956 204.526C206.956 201.462 204.231 198.979 200.869 198.979C197.507 198.979 194.782 201.462 194.782 204.526C194.782 207.59 197.507 210.074 200.869 210.074Z" fill="#F1F1F1"/>
<path d="M176.522 210.074C179.883 210.074 182.608 207.59 182.608 204.526C182.608 201.462 179.883 198.979 176.522 198.979C173.16 198.979 170.435 201.462 170.435 204.526C170.435 207.59 173.16 210.074 176.522 210.074Z" fill="#CC3232"/>
<path d="M0 234.854H280" stroke="#EDEDED"/>
<path d="M4.68146 244.791C5.95404 244.791 6.90847 245.412 7.12435 246.417H7.9538C7.73792 245.081 6.51079 244.201 4.68146 244.201C2.47717 244.201 0.78418 245.661 0.78418 248.312C0.78418 251.212 2.49989 252.403 4.57919 252.403C6.12447 252.403 6.99937 251.729 7.39705 250.984H7.43114V252.237H8.15833V248.322H4.71554V248.975H7.37433V249.399C7.37433 250.828 6.35172 251.802 4.64737 251.802C2.7385 251.802 1.62499 250.507 1.62499 248.353C1.62499 246.22 2.71577 244.791 4.68146 244.791ZM10.0826 248.312C10.0826 251.17 11.8665 252.403 13.9231 252.403C15.9797 252.403 17.7863 251.17 17.7863 248.312C17.7863 245.433 15.9683 244.201 13.9231 244.201C11.9006 244.201 10.0826 245.433 10.0826 248.312ZM13.9231 251.812C12.1733 251.812 10.9234 250.621 10.9234 248.312C10.9234 245.961 12.196 244.791 13.9231 244.791C15.6729 244.791 16.9455 245.992 16.9455 248.312C16.9455 250.611 15.6615 251.812 13.9231 251.812ZM19.4144 248.312C19.4144 251.17 21.1983 252.403 23.2549 252.403C25.3115 252.403 27.1181 251.17 27.1181 248.312C27.1181 245.433 25.3001 244.201 23.2549 244.201C21.2324 244.201 19.4144 245.433 19.4144 248.312ZM23.2549 251.812C21.5051 251.812 20.2552 250.621 20.2552 248.312C20.2552 245.961 21.5278 244.791 23.2549 244.791C25.0047 244.791 26.2773 245.992 26.2773 248.312C26.2773 250.611 24.9933 251.812 23.2549 251.812ZM29.1906 252.237H31.9517C34.2355 252.237 36.0307 251.005 36.0307 248.198C36.0307 245.412 34.19 244.315 31.8949 244.315H29.1906V252.237ZM29.9974 251.595V244.957H31.9062C33.7469 244.957 35.1899 245.847 35.1899 248.229C35.1899 250.777 33.7583 251.595 31.8721 251.595H29.9974ZM43.892 245.029H43.9147C43.9147 245.029 44.0624 245.516 44.2556 245.992L45.4714 249.047H42.3013L43.5284 246.003C43.7102 245.547 43.8693 245.081 43.892 245.029ZM46.7439 252.237H47.5961L44.3919 244.315H43.4375L40.222 252.237H41.0287L42.0627 249.648H45.71L46.7439 252.237ZM49.2966 252.237H50.1033V244.315H49.2966V252.237ZM53.4876 248.25V244.936H55.7941C56.9985 244.936 57.7825 245.485 57.7825 246.531C57.7825 247.753 56.8849 248.25 55.7714 248.25H53.4876ZM57.7598 252.237H58.6915L56.7145 248.757V248.737C57.6803 248.519 58.612 247.856 58.612 246.52C58.612 245.609 58.1688 245.009 57.4985 244.667C57.0099 244.429 56.419 244.315 55.7941 244.315H52.6808V252.237H53.4876V248.861H55.8737L57.7598 252.237ZM67.073 244.791C68.7092 244.791 69.4023 245.723 69.5273 246.593H70.3567C70.1636 244.843 68.5501 244.19 67.073 244.19C64.8914 244.19 63.2325 245.692 63.2325 248.302C63.2325 251.118 64.8574 252.403 67.0389 252.403C68.9819 252.403 70.2204 251.357 70.3567 249.938H69.55C69.4364 250.839 68.7546 251.792 67.1071 251.792C65.1528 251.792 64.0961 250.425 64.0961 248.302C64.0961 246.272 65.1073 244.791 67.073 244.791ZM72.454 252.237H73.2607V244.315H72.454V252.237ZM76.645 248.25V244.936H78.9515C80.1559 244.936 80.9399 245.485 80.9399 246.531C80.9399 247.753 80.0423 248.25 78.9288 248.25H76.645ZM80.9172 252.237H81.8486L79.8718 248.757V248.737C80.8376 248.519 81.7691 247.856 81.7691 246.52C81.7691 245.609 81.326 245.009 80.6558 244.667C80.1673 244.429 79.5764 244.315 78.9515 244.315H75.8382V252.237H76.645V248.861H79.031L80.9172 252.237ZM87.223 244.791C88.8592 244.791 89.5523 245.723 89.6773 246.593H90.5067C90.3136 244.843 88.7001 244.19 87.223 244.19C85.0415 244.19 83.3826 245.692 83.3826 248.302C83.3826 251.118 85.0074 252.403 87.1889 252.403C89.1319 252.403 90.3704 251.357 90.5067 249.938H89.7C89.5864 250.839 88.9046 251.792 87.2571 251.792C85.3028 251.792 84.2461 250.425 84.2461 248.302C84.2461 246.272 85.2573 244.791 87.223 244.791ZM92.4456 249.596C92.4456 251.595 93.7296 252.392 95.6725 252.392C97.5928 252.392 98.8881 251.584 98.8881 249.596V244.315H98.0927V248.83C98.0927 249.617 98.1041 250.538 97.6382 251.077C97.2064 251.574 96.5474 251.792 95.6953 251.792C94.8431 251.792 94.1727 251.574 93.7296 251.077C93.2637 250.538 93.2637 249.617 93.2637 248.83V244.315H92.4456V249.596ZM101.293 252.237H106.588V251.584H102.1V244.315H101.293V252.237ZM111.267 245.029H111.29C111.29 245.029 111.438 245.516 111.631 245.992L112.847 249.047H109.677L110.904 246.003C111.086 245.547 111.245 245.081 111.267 245.029ZM114.119 252.237H114.971L111.767 244.315H110.813L107.597 252.237H108.404L109.438 249.648H113.085L114.119 252.237ZM122.104 244.315H115.059V244.957H118.172V252.237H118.979V244.957H122.104V244.315ZM123.617 252.237H124.424V244.315H123.617V252.237ZM126.502 248.312C126.502 251.17 128.286 252.403 130.342 252.403C132.399 252.403 134.205 251.17 134.205 248.312C134.205 245.433 132.387 244.201 130.342 244.201C128.32 244.201 126.502 245.433 126.502 248.312ZM130.342 251.812C128.592 251.812 127.343 250.621 127.343 248.312C127.343 245.961 128.615 244.791 130.342 244.791C132.092 244.791 133.365 245.992 133.365 248.312C133.365 250.611 132.081 251.812 130.342 251.812ZM136.278 252.237H137.062V245.319H137.085C137.085 245.319 137.221 245.578 137.494 245.972L141.812 252.237H142.823V244.315H142.039V251.243H142.016C142.016 251.243 141.891 250.984 141.63 250.601L137.278 244.315H136.278V252.237Z" fill="black"/>
<path d="M273.913 253.716C277.275 253.716 280 251.232 280 248.168C280 245.104 277.275 242.62 273.913 242.62C270.551 242.62 267.826 245.104 267.826 248.168C267.826 251.232 270.551 253.716 273.913 253.716Z" fill="#2DC937"/>
<path d="M249.565 253.716C252.927 253.716 255.652 251.232 255.652 248.168C255.652 245.104 252.927 242.62 249.565 242.62C246.204 242.62 243.479 245.104 243.479 248.168C243.479 251.232 246.204 253.716 249.565 253.716Z" fill="#2DC937"/>
<path d="M225.218 253.716C228.58 253.716 231.305 251.232 231.305 248.168C231.305 245.104 228.58 242.62 225.218 242.62C221.856 242.62 219.131 245.104 219.131 248.168C219.131 251.232 221.856 253.716 225.218 253.716Z" fill="#2DC937"/>
<path d="M200.869 253.716C204.231 253.716 206.956 251.232 206.956 248.168C206.956 245.104 204.231 242.62 200.869 242.62C197.507 242.62 194.782 245.104 194.782 248.168C194.782 251.232 197.507 253.716 200.869 253.716Z" fill="#2DC937"/>
<path d="M176.522 253.716C179.883 253.716 182.608 251.232 182.608 248.168C182.608 245.104 179.883 242.62 176.522 242.62C173.16 242.62 170.435 245.104 170.435 248.168C170.435 251.232 173.16 253.716 176.522 253.716Z" fill="#2DC937"/>
<path d="M0 265.921H280" stroke="#EDEDED"/>
<path d="M0.78418 279.379C0.78418 282.237 2.56806 283.469 4.62464 283.469C6.68122 283.469 8.48783 282.237 8.48783 279.379C8.48783 276.5 6.66986 275.268 4.62464 275.268C2.60215 275.268 0.78418 276.5 0.78418 279.379ZM4.62464 282.879C2.87485 282.879 1.62499 281.688 1.62499 279.379C1.62499 277.028 2.89757 275.858 4.62464 275.858C6.37444 275.858 7.64702 277.059 7.64702 279.379C7.64702 281.678 6.36308 282.879 4.62464 282.879ZM10.4013 280.663C10.4013 282.662 11.6853 283.459 13.6282 283.459C15.5485 283.459 16.8438 282.651 16.8438 280.663V275.382H16.0484V279.897C16.0484 280.684 16.0598 281.605 15.5939 282.144C15.1621 282.641 14.5031 282.858 13.651 282.858C12.7988 282.858 12.1284 282.641 11.6853 282.144C11.2194 281.605 11.2194 280.684 11.2194 279.897V275.382H10.4013V280.663ZM25.1911 275.382H18.1465V276.024H21.2597V283.304H22.0665V276.024H25.1911V275.382ZM26.7051 283.304H29.4662C31.75 283.304 33.5452 282.071 33.5452 279.265C33.5452 276.479 31.7045 275.382 29.4094 275.382H26.7051V283.304ZM27.5118 282.662V276.024H29.4207C31.2614 276.024 32.7044 276.914 32.7044 279.296C32.7044 281.844 31.2728 282.662 29.3866 282.662H27.5118ZM35.1485 279.379C35.1485 282.237 36.9324 283.469 38.989 283.469C41.0456 283.469 42.8522 282.237 42.8522 279.379C42.8522 276.5 41.0342 275.268 38.989 275.268C36.9665 275.268 35.1485 276.5 35.1485 279.379ZM38.989 282.879C37.2392 282.879 35.9894 281.688 35.9894 279.379C35.9894 277.028 37.2619 275.858 38.989 275.858C40.7388 275.858 42.0114 277.059 42.0114 279.379C42.0114 281.678 40.7274 282.879 38.989 282.879ZM44.4803 279.379C44.4803 282.237 46.2641 283.469 48.3207 283.469C50.3773 283.469 52.1839 282.237 52.1839 279.379C52.1839 276.5 50.3659 275.268 48.3207 275.268C46.2982 275.268 44.4803 276.5 44.4803 279.379ZM48.3207 282.879C46.5709 282.879 45.3211 281.688 45.3211 279.379C45.3211 277.028 46.5936 275.858 48.3207 275.858C50.0705 275.858 51.3431 277.059 51.3431 279.379C51.3431 281.678 50.0592 282.879 48.3207 282.879ZM55.0632 279.317V276.003H57.3697C58.5742 276.003 59.3582 276.552 59.3582 277.598C59.3582 278.82 58.4605 279.317 57.347 279.317H55.0632ZM59.3354 283.304H60.2671L58.2901 279.824V279.803C59.2559 279.586 60.1876 278.923 60.1876 277.587C60.1876 276.676 59.7445 276.075 59.0741 275.734C58.5855 275.495 57.9947 275.382 57.3697 275.382H54.2565V283.304H55.0632V279.928H57.4493L59.3354 283.304ZM64.8082 279.379C64.8082 282.237 66.5921 283.469 68.6486 283.469C70.7052 283.469 72.5118 282.237 72.5118 279.379C72.5118 276.5 70.6939 275.268 68.6486 275.268C66.6261 275.268 64.8082 276.5 64.8082 279.379ZM68.6486 282.879C66.8988 282.879 65.649 281.688 65.649 279.379C65.649 277.028 66.9216 275.858 68.6486 275.858C70.3984 275.858 71.671 277.059 71.671 279.379C71.671 281.678 70.3871 282.879 68.6486 282.879ZM77.1295 280.156C78.9816 280.156 80.0838 279.265 80.0838 277.732C80.0838 276.22 78.9702 275.382 77.175 275.382H74.5844V283.304H75.3911V280.156H77.1295ZM75.3911 279.565V275.992H77.175C78.4817 275.992 79.2543 276.593 79.2543 277.753C79.2543 279.027 78.368 279.565 77.1523 279.565H75.3911ZM87.8723 275.382H80.8278V276.024H83.9409V283.304H84.7477V276.024H87.8723V275.382ZM89.3867 283.304H90.1935V275.382H89.3867V283.304ZM92.2711 279.379C92.2711 282.237 94.055 283.469 96.1116 283.469C98.1682 283.469 99.9748 282.237 99.9748 279.379C99.9748 276.5 98.1568 275.268 96.1116 275.268C94.0891 275.268 92.2711 276.5 92.2711 279.379ZM96.1116 282.879C94.3618 282.879 93.1119 281.688 93.1119 279.379C93.1119 277.028 94.3845 275.858 96.1116 275.858C97.8614 275.858 99.134 277.059 99.134 279.379C99.134 281.678 97.85 282.879 96.1116 282.879ZM102.047 283.304H102.831V276.386H102.854C102.854 276.386 102.99 276.645 103.263 277.038L107.58 283.304H108.591V275.382H107.807V282.31H107.785C107.785 282.31 107.66 282.051 107.398 281.667L103.047 275.382H102.047V283.304ZM116.762 277.494C116.705 276.137 115.694 275.268 113.921 275.268C112.217 275.268 111.001 276.117 111.001 277.422C111.001 278.53 111.581 279.244 113.285 279.524L114.682 279.752C115.807 279.938 116.205 280.404 116.205 281.16C116.205 282.071 115.569 282.869 113.887 282.869C112.251 282.869 111.581 281.968 111.456 281.098H110.638C110.74 282.341 111.876 283.469 113.876 283.469C115.91 283.469 117.023 282.496 117.023 281.098C117.023 279.99 116.296 279.286 114.853 279.047L113.399 278.809C112.262 278.623 111.831 278.229 111.831 277.38C111.831 276.438 112.66 275.858 113.921 275.858C115.364 275.858 115.876 276.614 115.966 277.494H116.762Z" fill="black"/>
<path d="M273.913 284.783C277.275 284.783 280 282.299 280 279.235C280 276.171 277.275 273.688 273.913 273.688C270.551 273.688 267.826 276.171 267.826 279.235C267.826 282.299 270.551 284.783 273.913 284.783Z" fill="#F1F1F1"/>
<path d="M249.565 284.783C252.927 284.783 255.652 282.299 255.652 279.235C255.652 276.171 252.927 273.688 249.565 273.688C246.204 273.688 243.479 276.171 243.479 279.235C243.479 282.299 246.204 284.783 249.565 284.783Z" fill="#F1F1F1"/>
<path d="M225.218 284.783C228.58 284.783 231.305 282.299 231.305 279.235C231.305 276.171 228.58 273.688 225.218 273.688C221.856 273.688 219.131 276.171 219.131 279.235C219.131 282.299 221.856 284.783 225.218 284.783Z" fill="#F1F1F1"/>
<path d="M200.869 284.783C204.231 284.783 206.956 282.299 206.956 279.235C206.956 276.171 204.231 273.688 200.869 273.688C197.507 273.688 194.782 276.171 194.782 279.235C194.782 282.299 197.507 284.783 200.869 284.783Z" fill="#F1F1F1"/>
<path d="M176.522 284.783C179.883 284.783 182.608 282.299 182.608 279.235C182.608 276.171 179.883 273.688 176.522 273.688C173.16 273.688 170.435 276.171 170.435 279.235C170.435 282.299 173.16 284.783 176.522 284.783Z" fill="#CC3232"/>
<path d="M0 296.988H280" stroke="#EDEDED"/>
<path d="M7.01007 308.561C6.95326 307.204 5.94201 306.335 4.16949 306.335C2.46514 306.335 1.24937 307.184 1.24937 308.489C1.24937 309.597 1.82885 310.311 3.5332 310.591L4.93076 310.819C6.05563 311.005 6.45331 311.471 6.45331 312.227C6.45331 313.138 5.81702 313.936 4.1354 313.936C2.49923 313.936 1.82885 313.035 1.70386 312.165H0.885777C0.988038 313.408 2.12427 314.536 4.12404 314.536C6.15789 314.536 7.2714 313.563 7.2714 312.165C7.2714 311.057 6.54421 310.353 5.1012 310.114L3.64682 309.876C2.51059 309.69 2.07882 309.296 2.07882 308.447C2.07882 307.505 2.90827 306.925 4.16949 306.925C5.6125 306.925 6.12381 307.681 6.2147 308.561H7.01007ZM11.9176 311.222C13.7697 311.222 14.8718 310.332 14.8718 308.799C14.8718 307.287 13.7583 306.448 11.9631 306.448H9.37246V314.371H10.1792V311.222H11.9176ZM10.1792 310.632V307.059H11.9631C13.2697 307.059 14.0424 307.66 14.0424 308.82C14.0424 310.094 13.1561 310.632 11.9403 310.632H10.1792ZM16.718 314.371H22.3083V313.718H17.5248V310.653H21.8424V310.011H17.5248V307.101H22.2628V306.448H16.718V314.371ZM27.7148 306.925C29.351 306.925 30.0441 307.857 30.1691 308.727H30.9985C30.8054 306.977 29.1919 306.324 27.7148 306.324C25.5332 306.324 23.8743 307.826 23.8743 310.435C23.8743 313.252 25.4992 314.536 27.6807 314.536C29.6237 314.536 30.8622 313.49 30.9985 312.072H30.1918C30.0782 312.973 29.3964 313.925 27.7489 313.925C25.7946 313.925 24.7379 312.558 24.7379 310.435C24.7379 308.406 25.7491 306.925 27.7148 306.925ZM33.0958 314.371H33.9025V306.448H33.0958V314.371ZM39.2865 307.163H39.3092C39.3092 307.163 39.457 307.65 39.6501 308.126L40.8659 311.181H37.6958L38.9229 308.136C39.1047 307.681 39.2638 307.215 39.2865 307.163ZM42.1385 314.371H42.9906L39.7865 306.448H38.832L35.6165 314.371H36.4232L37.4572 311.782H41.1045L42.1385 314.371ZM44.6911 314.371H49.9859V313.718H45.4978V306.448H44.6911V314.371ZM55.5064 310.653H60.3922V314.371H61.1989V306.448H60.3922V310.011H55.5064V306.448H54.6997V314.371H55.5064V310.653ZM63.2652 310.446C63.2652 313.304 65.049 314.536 67.1056 314.536C69.1622 314.536 70.9688 313.304 70.9688 310.446C70.9688 307.567 69.1508 306.335 67.1056 306.335C65.0831 306.335 63.2652 307.567 63.2652 310.446ZM67.1056 313.946C65.3558 313.946 64.106 312.755 64.106 310.446C64.106 308.095 65.3785 306.925 67.1056 306.925C68.8554 306.925 70.128 308.126 70.128 310.446C70.128 312.745 68.8441 313.946 67.1056 313.946ZM72.8823 311.73C72.8823 313.729 74.1662 314.526 76.1092 314.526C78.0294 314.526 79.3247 313.718 79.3247 311.73V306.448H78.5294V310.964C78.5294 311.751 78.5407 312.672 78.0749 313.211C77.6431 313.708 76.9841 313.925 76.1319 313.925C75.2798 313.925 74.6094 313.708 74.1663 313.211C73.7004 312.672 73.7004 311.751 73.7004 310.964V306.448H72.8823V311.73ZM82.5362 310.384V307.07H84.8428C86.0472 307.07 86.8312 307.619 86.8312 308.665C86.8312 309.887 85.9336 310.384 84.82 310.384H82.5362ZM86.8084 314.371H87.7402L85.7631 310.891V310.87C86.7289 310.653 87.6606 309.99 87.6606 308.654C87.6606 307.743 87.2175 307.142 86.5471 306.801C86.0585 306.562 85.4677 306.448 84.8428 306.448H81.7295V314.371H82.5362V310.995H84.9223L86.8084 314.371ZM95.3894 308.561C95.3326 307.204 94.3214 306.335 92.5489 306.335C90.8445 306.335 89.6287 307.184 89.6287 308.489C89.6287 309.597 90.2082 310.311 91.9126 310.591L93.3101 310.819C94.435 311.005 94.8327 311.471 94.8327 312.227C94.8327 313.138 94.1964 313.936 92.5148 313.936C90.8786 313.936 90.2082 313.035 90.0832 312.165H89.2651C89.3674 313.408 90.5036 314.536 92.5034 314.536C94.5373 314.536 95.6508 313.563 95.6508 312.165C95.6508 311.057 94.9236 310.353 93.4806 310.114L92.0262 309.876C90.89 309.69 90.4582 309.296 90.4582 308.447C90.4582 307.505 91.2876 306.925 92.5489 306.925C93.9919 306.925 94.5032 307.681 94.5941 308.561H95.3894ZM101.566 310.922H105.452V310.28H101.566V307.101H105.838V306.448H100.759V314.371H101.566V310.922ZM107.106 310.446C107.106 313.304 108.889 314.536 110.946 314.536C113.003 314.536 114.809 313.304 114.809 310.446C114.809 307.567 112.991 306.335 110.946 306.335C108.924 306.335 107.106 307.567 107.106 310.446ZM110.946 313.946C109.196 313.946 107.946 312.755 107.946 310.446C107.946 308.095 109.219 306.925 110.946 306.925C112.696 306.925 113.968 308.126 113.968 310.446C113.968 312.745 112.685 313.946 110.946 313.946ZM117.689 310.384V307.07H119.995C121.2 307.07 121.984 307.619 121.984 308.665C121.984 309.887 121.086 310.384 119.973 310.384H117.689ZM121.961 314.371H122.893L120.916 310.891V310.87C121.881 310.653 122.813 309.99 122.813 308.654C122.813 307.743 122.37 307.142 121.7 306.801C121.211 306.562 120.62 306.448 119.995 306.448H116.882V314.371H117.689V310.995H120.075L121.961 314.371ZM4.08995 319.738H4.11268C4.11268 319.738 4.26039 320.225 4.45355 320.701L5.66931 323.756H2.49923L3.72636 320.711C3.90815 320.256 4.06723 319.79 4.08995 319.738ZM6.94189 326.945H7.79407L4.58989 319.023H3.63546L0.419922 326.945H1.22665L2.26062 324.357H5.90792L6.94189 326.945ZM14.9266 319.023H7.88195V319.665H10.9952V326.945H11.802V319.665H14.9266V319.023ZM15.106 323.808H18.3443V323.166H15.106V323.808ZM21.1199 322.959V319.645H23.4264C24.6308 319.645 25.4148 320.194 25.4148 321.239C25.4148 322.461 24.5172 322.959 23.4037 322.959H21.1199ZM25.3921 326.945H26.3238L24.3468 323.466V323.445C25.3126 323.228 26.2443 322.565 26.2443 321.229C26.2443 320.318 25.8012 319.717 25.1308 319.375C24.6422 319.137 24.0514 319.023 23.4264 319.023H20.3132V326.945H21.1199V323.57H23.506L25.3921 326.945ZM28.3578 326.945H29.1645V319.023H28.3578V326.945ZM37.3577 321.136C37.3009 319.779 36.2896 318.909 34.5171 318.909C32.8128 318.909 31.597 319.759 31.597 321.063C31.597 322.171 32.1765 322.886 33.8808 323.166L35.2784 323.393C36.4033 323.58 36.8009 324.046 36.8009 324.802C36.8009 325.713 36.1646 326.511 34.483 326.511C32.8468 326.511 32.1765 325.61 32.0515 324.74H31.2334C31.3357 325.982 32.4719 327.111 34.4717 327.111C36.5055 327.111 37.619 326.138 37.619 324.74C37.619 323.632 36.8918 322.927 35.4488 322.689L33.9944 322.451C32.8582 322.265 32.4264 321.871 32.4264 321.022C32.4264 320.08 33.2559 319.5 34.5171 319.5C35.9601 319.5 36.4714 320.256 36.5623 321.136H37.3577ZM40.5268 324.212L41.9357 322.855L45.2876 326.945H46.2648L42.5266 322.358L46.0375 319.023H45.0376L40.5268 323.311V319.023H39.7201V326.945H40.5268V324.212ZM53.3945 323.797C55.2466 323.797 56.3487 322.907 56.3487 321.374C56.3487 319.862 55.2352 319.023 53.44 319.023H50.8494V326.945H51.6561V323.797H53.3945ZM51.6561 323.207V319.634H53.44C54.7467 319.634 55.5193 320.235 55.5193 321.395C55.5193 322.669 54.633 323.207 53.4173 323.207H51.6561ZM57.6395 323.021C57.6395 325.879 59.4234 327.111 61.48 327.111C63.5366 327.111 65.3432 325.879 65.3432 323.021C65.3432 320.142 63.5252 318.909 61.48 318.909C59.4575 318.909 57.6395 320.142 57.6395 323.021ZM61.48 326.521C59.7302 326.521 58.4803 325.33 58.4803 323.021C58.4803 320.67 59.7529 319.5 61.48 319.5C63.2298 319.5 64.5023 320.701 64.5023 323.021C64.5023 325.32 63.2184 326.521 61.48 326.521ZM69.9609 323.797C71.813 323.797 72.9151 322.907 72.9151 321.374C72.9151 319.862 71.8016 319.023 70.0063 319.023H67.4157V326.945H68.2225V323.797H69.9609ZM68.2225 323.207V319.634H70.0063C71.313 319.634 72.0856 320.235 72.0856 321.395C72.0856 322.669 71.1994 323.207 69.9836 323.207H68.2225ZM74.6577 324.305C74.6577 326.303 75.9416 327.101 77.8846 327.101C79.8048 327.101 81.1001 326.293 81.1001 324.305V319.023H80.3047V323.538C80.3047 324.325 80.3161 325.247 79.8502 325.786C79.4185 326.283 78.7595 326.5 77.9073 326.5C77.0551 326.5 76.3847 326.283 75.9416 325.786C75.4758 325.247 75.4758 324.325 75.4758 323.538V319.023H74.6577V324.305ZM83.5053 326.945H88.8001V326.293H84.312V319.023H83.5053V326.945ZM93.4798 319.738H93.5025C93.5025 319.738 93.6502 320.225 93.8433 320.701L95.0591 323.756H91.889L93.1162 320.711C93.298 320.256 93.457 319.79 93.4798 319.738ZM96.3317 326.945H97.1839L93.9797 319.023H93.0253L89.8097 326.945H90.6164L91.6504 324.357H95.2977L96.3317 326.945ZM104.316 319.023H97.2715V319.665H100.385V326.945H101.192V319.665H104.316V319.023ZM105.83 326.945H106.637V319.023H105.83V326.945ZM108.714 323.021C108.714 325.879 110.498 327.111 112.555 327.111C114.611 327.111 116.418 325.879 116.418 323.021C116.418 320.142 114.6 318.909 112.555 318.909C110.532 318.909 108.714 320.142 108.714 323.021ZM112.555 326.521C110.805 326.521 109.555 325.33 109.555 323.021C109.555 320.67 110.828 319.5 112.555 319.5C114.304 319.5 115.577 320.701 115.577 323.021C115.577 325.32 114.293 326.521 112.555 326.521ZM118.491 326.945H119.275V320.028H119.297C119.297 320.028 119.434 320.287 119.706 320.68L124.024 326.945H125.035V319.023H124.251V325.951H124.229C124.229 325.951 124.104 325.692 123.842 325.309L119.491 319.023H118.491V326.945ZM133.205 321.136C133.148 319.779 132.137 318.909 130.364 318.909C128.66 318.909 127.444 319.759 127.444 321.063C127.444 322.171 128.024 322.886 129.728 323.166L131.126 323.393C132.25 323.58 132.648 324.046 132.648 324.802C132.648 325.713 132.012 326.511 130.33 326.511C128.694 326.511 128.024 325.61 127.899 324.74H127.081C127.183 325.982 128.319 327.111 130.319 327.111C132.353 327.111 133.466 326.138 133.466 324.74C133.466 323.632 132.739 322.927 131.296 322.689L129.842 322.451C128.705 322.265 128.274 321.871 128.274 321.022C128.274 320.08 129.103 319.5 130.364 319.5C131.807 319.5 132.319 320.256 132.409 321.136H133.205Z" fill="black"/>
<path d="M273.913 315.85C277.275 315.85 280 313.367 280 310.303C280 307.239 277.275 304.755 273.913 304.755C270.551 304.755 267.826 307.239 267.826 310.303C267.826 313.367 270.551 315.85 273.913 315.85Z" fill="#EDF0F4"/>
<path d="M249.565 315.85C252.927 315.85 255.652 313.367 255.652 310.303C255.652 307.239 252.927 304.755 249.565 304.755C246.204 304.755 243.479 307.239 243.479 310.303C243.479 313.367 246.204 315.85 249.565 315.85Z" fill="#99C140"/>
<path d="M225.218 315.85C228.58 315.85 231.305 313.367 231.305 310.303C231.305 307.239 228.58 304.755 225.218 304.755C221.856 304.755 219.131 307.239 219.131 310.303C219.131 313.367 221.856 315.85 225.218 315.85Z" fill="#99C140"/>
<path d="M200.869 315.85C204.231 315.85 206.956 313.367 206.956 310.303C206.956 307.239 204.231 304.755 200.869 304.755C197.507 304.755 194.782 307.239 194.782 310.303C194.782 313.367 197.507 315.85 200.869 315.85Z" fill="#99C140"/>
<path d="M176.522 315.85C179.883 315.85 182.608 313.367 182.608 310.303C182.608 307.239 179.883 304.755 176.522 304.755C173.16 304.755 170.435 307.239 170.435 310.303C170.435 313.367 173.16 315.85 176.522 315.85Z" fill="#99C140"/>
<path d="M0 340.63H280" stroke="#EDEDED"/>
</g>
<defs>
<clipPath id="clip0">
<rect width="280" height="341" fill="white"/>
</clipPath>
</defs>
</svg>
