<svg width="280" height="198" viewBox="0 0 280 198" fill="none" xmlns="http://www.w3.org/2000/svg">
<g clip-path="url(#clip0)">
<path d="M55 133.85H0V197.647H55V133.85Z" fill="#00B0DA"/>
<path d="M55 66.2998H0V132.599H55V66.2998Z" fill="#FDB515"/>
<path d="M55 15.0107H0V65.048H55V15.0107Z" fill="#EE1F60"/>
<path d="M111.25 120.089H56.25V197.647H111.25V120.089Z" fill="#00B0DA"/>
<path d="M111.25 46.2842H56.25V118.838H111.25V46.2842Z" fill="#FDB515"/>
<path d="M111.25 1.25098H56.25V45.0336H111.25V1.25098Z" fill="#EE1F60"/>
<path d="M167.5 111.333H112.5V197.647H167.5V111.333Z" fill="#00B0DA"/>
<path d="M167.5 46.2842H112.5V110.082H167.5V46.2842Z" fill="#FDB515"/>
<path d="M167.5 3.75293H112.5V45.0336H167.5V3.75293Z" fill="#EE1F60"/>
<path d="M223.75 108.831H168.75V197.647H223.75V108.831Z" fill="#00B0DA"/>
<path d="M223.75 52.5391H168.75V107.58H223.75V52.5391Z" fill="#FDB515"/>
<path d="M223.75 1.25098H168.75V51.2882H223.75V1.25098Z" fill="#EE1F60"/>
<path d="M280 113.835H225V197.647H280V113.835Z" fill="#00B0DA"/>
<path d="M280 68.8008H225V112.583H280V68.8008Z" fill="#FDB515"/>
<path d="M280 28.7715H225V67.5503H280V28.7715Z" fill="#EE1F60"/>
</g>
<defs>
<clipPath id="clip0">
<rect width="280" height="197.647" fill="white"/>
</clipPath>
</defs>
</svg>
