<svg width="312" height="257" viewBox="0 0 312 257" fill="none" xmlns="http://www.w3.org/2000/svg">
<path d="M44.3148 25.64H29.4348V27.128H36.0108V44H37.7148V27.128H44.3148V25.64ZM48.0233 42.848C46.5113 42.848 45.5273 42.08 45.5273 40.592C45.5273 39.8 45.8153 39.176 46.3913 38.768C47.1833 38.192 48.7673 38 51.8873 37.808V38.336C51.8873 41.432 49.8233 42.848 48.0233 42.848ZM46.0553 34.76C46.1513 33.464 47.0633 32.384 48.9833 32.384C51.2153 32.384 51.9113 33.752 51.9113 35.72V36.512C48.8633 36.68 46.7993 36.896 45.5513 37.592C44.4473 38.192 43.8233 39.224 43.8233 40.664C43.8233 42.896 45.3353 44.192 47.6873 44.192C49.6073 44.192 51.1433 43.28 51.9113 41.648H51.9593C52.0553 43.328 52.7033 44.12 54.5033 44.12H54.7193V42.8C53.8313 42.776 53.4953 42.368 53.4953 41.216V35.744C53.4953 33.032 52.5113 31.112 49.0313 31.112C46.1993 31.112 44.4953 32.792 44.4713 34.76H46.0553ZM59.7295 38.528V36.704C59.7295 34.52 61.0735 32.456 63.5935 32.456C66.3775 32.456 67.2895 34.736 67.2895 37.568C67.2895 40.88 66.0415 42.968 63.5455 42.968C60.9295 42.968 59.7295 40.784 59.7295 38.528ZM58.0975 48.512H59.7775V41.912H59.8255C60.2815 43.112 61.7455 44.312 63.6655 44.312C66.5455 44.312 68.9935 42.128 68.9935 37.568C68.9935 32.72 66.5455 31.112 63.9295 31.112C61.9855 31.112 60.5215 32.096 59.7295 33.656H59.6815V31.424H58.0975V48.512ZM82.1483 42.848C80.6363 42.848 79.6523 42.08 79.6523 40.592C79.6523 39.8 79.9403 39.176 80.5163 38.768C81.3083 38.192 82.8923 38 86.0123 37.808V38.336C86.0123 41.432 83.9483 42.848 82.1483 42.848ZM80.1803 34.76C80.2763 33.464 81.1883 32.384 83.1083 32.384C85.3403 32.384 86.0363 33.752 86.0363 35.72V36.512C82.9883 36.68 80.9243 36.896 79.6763 37.592C78.5723 38.192 77.9483 39.224 77.9483 40.664C77.9483 42.896 79.4603 44.192 81.8123 44.192C83.7323 44.192 85.2683 43.28 86.0363 41.648H86.0843C86.1803 43.328 86.8283 44.12 88.6283 44.12H88.8443V42.8C87.9563 42.776 87.6203 42.368 87.6203 41.216V35.744C87.6203 33.032 86.6363 31.112 83.1563 31.112C80.3243 31.112 78.6203 32.792 78.5963 34.76H80.1803ZM100.287 44H101.943V35.456C101.943 32.576 100.719 31.112 98.0065 31.112C95.9185 31.112 94.5025 32.24 93.8305 33.656H93.7825V31.424H92.2225V44H93.9025V36.584C93.9025 34.424 95.0545 32.528 97.6225 32.528C98.6065 32.528 99.3025 32.816 99.7345 33.416C100.191 34.04 100.287 35 100.287 36.056V44ZM109.258 44.024L108.874 45.08C108.322 46.616 107.794 47.384 106.282 47.384C105.826 47.384 105.346 47.288 104.938 47.168V48.56C105.274 48.656 105.754 48.776 106.354 48.776C108.658 48.776 109.57 47.792 110.53 45.008L115.21 31.424H113.554L110.674 40.04C110.362 41 110.098 41.864 110.098 41.864H110.05C110.05 41.864 109.81 41.048 109.474 40.04L106.57 31.424H104.89L109.258 44.024ZM132.894 34.448C132.678 32.336 131.022 31.112 128.406 31.112C125.766 31.112 123.966 32.6 123.966 34.808C123.966 36.872 125.166 37.88 127.278 38.168L129.342 38.456C131.166 38.72 131.526 39.44 131.526 40.568C131.526 41.984 130.326 42.992 128.382 42.992C126.246 42.992 125.31 41.96 125.046 40.472H123.414C123.75 43.28 125.814 44.312 128.358 44.312C131.214 44.312 133.158 42.8 133.158 40.424C133.158 38.504 132.174 37.28 129.774 36.944L127.518 36.632C126.246 36.464 125.55 35.888 125.55 34.664C125.55 33.392 126.63 32.408 128.358 32.408C130.062 32.408 131.094 33.224 131.286 34.448H132.894ZM139.586 44.024L139.202 45.08C138.65 46.616 138.122 47.384 136.61 47.384C136.154 47.384 135.674 47.288 135.266 47.168V48.56C135.602 48.656 136.082 48.776 136.682 48.776C138.986 48.776 139.898 47.792 140.858 45.008L145.538 31.424H143.882L141.002 40.04C140.69 41 140.426 41.864 140.426 41.864H140.378C140.378 41.864 140.138 41.048 139.802 40.04L136.898 31.424H135.218L139.586 44.024ZM148.566 44H150.246V36.56C150.246 34.424 151.374 32.528 153.966 32.528C154.95 32.528 155.622 32.816 156.054 33.416C156.51 34.04 156.606 35 156.606 36.032V44H158.262V36.584C158.262 34.424 159.39 32.528 161.982 32.528C162.966 32.528 163.662 32.792 164.094 33.392C164.55 34.04 164.646 35 164.646 36.056V44H166.302V35.456C166.302 32.576 165.054 31.112 162.366 31.112C160.254 31.112 158.742 32.336 158.118 33.824H158.07C157.638 31.928 156.27 31.112 154.326 31.112C152.262 31.112 150.822 32.24 150.174 33.656H150.126V31.424H148.566V44ZM172.511 38.528V36.704C172.511 34.52 173.855 32.456 176.375 32.456C179.159 32.456 180.071 34.736 180.071 37.568C180.071 40.88 178.823 42.968 176.327 42.968C173.711 42.968 172.511 40.784 172.511 38.528ZM170.879 48.512H172.559V41.912H172.607C173.063 43.112 174.527 44.312 176.447 44.312C179.327 44.312 181.775 42.128 181.775 37.568C181.775 32.72 179.327 31.112 176.711 31.112C174.767 31.112 173.303 32.096 172.511 33.656H172.463V31.424H170.879V48.512ZM186.013 27.656V28.808C186.013 31.112 185.677 31.472 184.069 31.472H183.517V32.72H185.917V41.048C185.917 42.92 186.757 44.216 189.181 44.216C190.309 44.216 191.029 44.024 191.029 44.024V42.632C191.029 42.632 190.309 42.776 189.589 42.776C188.149 42.776 187.573 42.2 187.573 40.856V32.72H190.789V31.424H187.573V27.656H186.013ZM198.687 44.312C202.191 44.312 204.183 41.576 204.183 37.712C204.183 33.92 202.479 31.112 198.687 31.112C195.207 31.112 193.167 33.92 193.167 37.712C193.167 41.552 194.919 44.312 198.687 44.312ZM198.687 32.408C201.303 32.408 202.455 34.472 202.455 37.712C202.455 40.952 201.255 42.992 198.711 42.992C196.071 42.992 194.871 40.952 194.871 37.712C194.871 34.472 196.215 32.408 198.687 32.408ZM207.793 44H209.473V36.56C209.473 34.424 210.601 32.528 213.193 32.528C214.177 32.528 214.849 32.816 215.281 33.416C215.737 34.04 215.833 35 215.833 36.032V44H217.489V36.584C217.489 34.424 218.617 32.528 221.209 32.528C222.193 32.528 222.889 32.792 223.321 33.392C223.777 34.04 223.873 35 223.873 36.056V44H225.529V35.456C225.529 32.576 224.281 31.112 221.593 31.112C219.481 31.112 217.969 32.336 217.345 33.824H217.297C216.865 31.928 215.497 31.112 213.553 31.112C211.489 31.112 210.049 32.24 209.401 33.656H209.353V31.424H207.793V44ZM238.409 34.448C238.193 32.336 236.537 31.112 233.921 31.112C231.281 31.112 229.481 32.6 229.481 34.808C229.481 36.872 230.681 37.88 232.793 38.168L234.857 38.456C236.681 38.72 237.041 39.44 237.041 40.568C237.041 41.984 235.841 42.992 233.897 42.992C231.761 42.992 230.825 41.96 230.561 40.472H228.929C229.265 43.28 231.329 44.312 233.873 44.312C236.729 44.312 238.673 42.8 238.673 40.424C238.673 38.504 237.689 37.28 235.289 36.944L233.033 36.632C231.761 36.464 231.065 35.888 231.065 34.664C231.065 33.392 232.145 32.408 233.873 32.408C235.577 32.408 236.609 33.224 236.801 34.448H238.409ZM251.454 44.024L251.07 45.08C250.518 46.616 249.99 47.384 248.478 47.384C248.022 47.384 247.542 47.288 247.134 47.168V48.56C247.47 48.656 247.95 48.776 248.55 48.776C250.854 48.776 251.766 47.792 252.726 45.008L257.406 31.424H255.75L252.87 40.04C252.558 41 252.294 41.864 252.294 41.864H252.246C252.246 41.864 252.006 41.048 251.67 40.04L248.766 31.424H247.086L251.454 44.024ZM264.897 44.312C268.401 44.312 270.393 41.576 270.393 37.712C270.393 33.92 268.689 31.112 264.897 31.112C261.417 31.112 259.377 33.92 259.377 37.712C259.377 41.552 261.129 44.312 264.897 44.312ZM264.897 32.408C267.513 32.408 268.665 34.472 268.665 37.712C268.665 40.952 267.465 42.992 264.921 42.992C262.281 42.992 261.081 40.952 261.081 37.712C261.081 34.472 262.425 32.408 264.897 32.408ZM275.612 31.424H273.956V40.016C273.956 42.896 275.3 44.312 277.988 44.312C280.076 44.312 281.42 43.064 282.02 41.672H282.068V44H283.628V31.424H281.972V38.216C281.972 41.048 280.772 42.92 278.348 42.92C277.316 42.92 276.596 42.608 276.164 42.032C275.708 41.432 275.612 40.472 275.612 39.464V31.424ZM43.2045 73H44.8605V64.456C44.8605 61.576 43.6365 60.112 40.9245 60.112C38.8365 60.112 37.4445 61.24 36.8685 62.632H36.8205V54.088H35.1405V73H36.8205V65.584C36.8205 63.448 37.9485 61.528 40.5405 61.528C41.5245 61.528 42.2205 61.816 42.6525 62.416C43.1085 63.04 43.2045 64 43.2045 65.032V73ZM52.6054 71.848C51.0934 71.848 50.1094 71.08 50.1094 69.592C50.1094 68.8 50.3974 68.176 50.9734 67.768C51.7654 67.192 53.3494 67 56.4694 66.808V67.336C56.4694 70.432 54.4054 71.848 52.6054 71.848ZM50.6374 63.76C50.7334 62.464 51.6454 61.384 53.5654 61.384C55.7974 61.384 56.4934 62.752 56.4934 64.72V65.512C53.4454 65.68 51.3814 65.896 50.1334 66.592C49.0294 67.192 48.4054 68.224 48.4054 69.664C48.4054 71.896 49.9174 73.192 52.2694 73.192C54.1894 73.192 55.7254 72.28 56.4934 70.648H56.5414C56.6374 72.328 57.2854 73.12 59.0854 73.12H59.3014V71.8C58.4134 71.776 58.0774 71.368 58.0774 70.216V64.744C58.0774 62.032 57.0934 60.112 53.6134 60.112C50.7814 60.112 49.0774 61.792 49.0534 63.76H50.6374ZM65.2504 73H67.0264L71.3704 60.424H69.7864L66.7624 69.232C66.4504 70.12 66.1864 71.032 66.1864 71.032H66.1384C66.1384 71.032 65.8744 70.12 65.5624 69.232L62.5864 60.424H60.8824L65.2504 73ZM82.1989 65.824H75.0229C75.2389 63.232 76.4869 61.408 78.8389 61.408C81.5029 61.408 82.1749 63.736 82.1989 65.704V65.824ZM83.6869 69.856H82.1029C81.8869 70.552 81.1429 71.992 78.9349 71.992C76.2949 71.992 75.0949 70.144 74.9989 67.096H83.8789V66.064C83.8789 63.088 82.5589 60.112 78.8389 60.112C75.2629 60.112 73.3189 62.992 73.3189 66.808C73.3189 70.744 75.0709 73.312 78.9109 73.312C81.3829 73.312 83.2309 71.776 83.6869 69.856ZM98.2686 73.312C101.773 73.312 103.765 70.576 103.765 66.712C103.765 62.92 102.061 60.112 98.2686 60.112C94.7886 60.112 92.7486 62.92 92.7486 66.712C92.7486 70.552 94.5006 73.312 98.2686 73.312ZM98.2686 61.408C100.885 61.408 102.037 63.472 102.037 66.712C102.037 69.952 100.837 71.992 98.2926 71.992C95.6526 71.992 94.4526 69.952 94.4526 66.712C94.4526 63.472 95.7966 61.408 98.2686 61.408ZM107.375 73H109.055V66.112C109.055 63.136 110.855 61.84 112.823 61.84H113.159V60.184H112.943C111.047 60.184 109.511 61.576 108.983 63.04H108.935V60.424H107.375V73ZM125.965 71.848C124.453 71.848 123.469 71.08 123.469 69.592C123.469 68.8 123.757 68.176 124.333 67.768C125.125 67.192 126.709 67 129.829 66.808V67.336C129.829 70.432 127.765 71.848 125.965 71.848ZM123.997 63.76C124.093 62.464 125.005 61.384 126.925 61.384C129.157 61.384 129.853 62.752 129.853 64.72V65.512C126.805 65.68 124.741 65.896 123.493 66.592C122.389 67.192 121.765 68.224 121.765 69.664C121.765 71.896 123.277 73.192 125.629 73.192C127.549 73.192 129.085 72.28 129.853 70.648H129.901C129.997 72.328 130.645 73.12 132.445 73.12H132.661V71.8C131.773 71.776 131.437 71.368 131.437 70.216V64.744C131.437 62.032 130.453 60.112 126.973 60.112C124.141 60.112 122.437 61.792 122.413 63.76H123.997ZM144.388 67.744C144.388 69.88 143.092 71.968 140.548 71.968C137.884 71.968 136.828 69.808 136.828 66.688C136.828 63.64 138.052 61.456 140.692 61.456C142.996 61.456 144.388 63.424 144.388 65.776V67.744ZM146.02 54.088H144.34V62.488H144.292C143.716 61.096 142.372 60.112 140.5 60.112C137.26 60.112 135.1 62.488 135.1 66.784C135.1 71.8 137.86 73.312 140.38 73.312C142.42 73.312 143.716 72.112 144.364 70.816H144.436V73H146.02V54.088ZM158.919 67.744C158.919 69.88 157.623 71.968 155.079 71.968C152.415 71.968 151.359 69.808 151.359 66.688C151.359 63.64 152.583 61.456 155.223 61.456C157.527 61.456 158.919 63.424 158.919 65.776V67.744ZM160.551 54.088H158.871V62.488H158.823C158.247 61.096 156.903 60.112 155.031 60.112C151.791 60.112 149.631 62.488 149.631 66.784C149.631 71.8 152.391 73.312 154.911 73.312C156.951 73.312 158.247 72.112 158.895 70.816H158.967V73H160.551V54.088ZM179.634 73H181.29V64.456C181.29 61.576 180.066 60.112 177.354 60.112C175.266 60.112 173.85 61.24 173.178 62.656H173.13V60.424H171.57V73H173.25V65.584C173.25 63.424 174.402 61.528 176.97 61.528C177.954 61.528 178.65 61.816 179.082 62.416C179.538 63.04 179.634 64 179.634 65.056V73ZM193.691 65.824H186.515C186.731 63.232 187.979 61.408 190.331 61.408C192.995 61.408 193.667 63.736 193.691 65.704V65.824ZM195.179 69.856H193.595C193.379 70.552 192.635 71.992 190.427 71.992C187.787 71.992 186.587 70.144 186.491 67.096H195.371V66.064C195.371 63.088 194.051 60.112 190.331 60.112C186.755 60.112 184.811 62.992 184.811 66.808C184.811 70.744 186.563 73.312 190.403 73.312C192.875 73.312 194.723 71.776 195.179 69.856ZM201.438 73H203.262L205.878 64.624C206.19 63.616 206.526 62.416 206.526 62.416H206.574C206.574 62.416 206.91 63.616 207.222 64.624L209.838 73H211.638L215.598 60.424H213.966L211.158 69.712C210.99 70.264 210.822 71.056 210.822 71.056H210.774C210.774 71.056 210.534 70.264 210.366 69.712L207.462 60.424H205.71L202.806 69.712C202.59 70.384 202.398 71.056 202.398 71.056H202.35C202.35 71.056 202.182 70.408 201.99 69.736L199.182 60.424H197.478L201.438 73ZM229.495 73.312C232.999 73.312 234.991 70.576 234.991 66.712C234.991 62.92 233.287 60.112 229.495 60.112C226.015 60.112 223.975 62.92 223.975 66.712C223.975 70.552 225.727 73.312 229.495 73.312ZM229.495 61.408C232.111 61.408 233.263 63.472 233.263 66.712C233.263 69.952 232.063 71.992 229.519 71.992C226.879 71.992 225.679 69.952 225.679 66.712C225.679 63.472 227.023 61.408 229.495 61.408ZM246.665 73H248.321V64.456C248.321 61.576 247.097 60.112 244.385 60.112C242.297 60.112 240.881 61.24 240.209 62.656H240.161V60.424H238.601V73H240.281V65.584C240.281 63.424 241.433 61.528 244.001 61.528C244.985 61.528 245.681 61.816 246.113 62.416C246.569 63.04 246.665 64 246.665 65.056V73ZM260.722 65.824H253.546C253.762 63.232 255.01 61.408 257.362 61.408C260.026 61.408 260.698 63.736 260.722 65.704V65.824ZM262.21 69.856H260.626C260.41 70.552 259.666 71.992 257.458 71.992C254.818 71.992 253.618 70.144 253.522 67.096H262.402V66.064C262.402 63.088 261.082 60.112 257.362 60.112C253.786 60.112 251.842 62.992 251.842 66.808C251.842 70.744 253.594 73.312 257.434 73.312C259.906 73.312 261.754 71.776 262.21 69.856ZM274.28 63.448C274.064 61.336 272.408 60.112 269.792 60.112C267.152 60.112 265.352 61.6 265.352 63.808C265.352 65.872 266.552 66.88 268.664 67.168L270.728 67.456C272.552 67.72 272.912 68.44 272.912 69.568C272.912 70.984 271.712 71.992 269.768 71.992C267.632 71.992 266.696 70.96 266.432 69.472H264.8C265.136 72.28 267.2 73.312 269.744 73.312C272.6 73.312 274.544 71.8 274.544 69.424C274.544 67.504 273.56 66.28 271.16 65.944L268.904 65.632C267.632 65.464 266.936 64.888 266.936 63.664C266.936 62.392 268.016 61.408 269.744 61.408C271.448 61.408 272.48 62.224 272.672 63.448H274.28ZM278.063 63.256H280.367V60.952H278.063V63.256ZM280.367 73V70.696H278.063V73H280.367Z" fill="white"/>
<line x1="3" y1="111.5" x2="305" y2="111.5" stroke="#828180"/>
<rect x="2" y="137" width="87" height="30" fill="#282B32"/>
<path d="M19.2166 152.934C19.2166 154.18 18.4606 155.398 16.9766 155.398C15.4226 155.398 14.8066 154.138 14.8066 152.318C14.8066 150.54 15.5206 149.266 17.0606 149.266C18.4046 149.266 19.2166 150.414 19.2166 151.786V152.934ZM20.1686 144.968H19.1886V149.868H19.1606C18.8246 149.056 18.0406 148.482 16.9486 148.482C15.0586 148.482 13.7986 149.868 13.7986 152.374C13.7986 155.3 15.4086 156.182 16.8786 156.182C18.0686 156.182 18.8246 155.482 19.2026 154.726H19.2446V156H20.1686V144.968ZM22.8912 156H23.8712V151.982C23.8712 150.246 24.9212 149.49 26.0692 149.49H26.2652V148.524H26.1392C25.0332 148.524 24.1372 149.336 23.8292 150.19H23.8012V148.664H22.8912V156ZM29.7799 156.014L29.5559 156.63C29.2339 157.526 28.9259 157.974 28.0439 157.974C27.7779 157.974 27.4979 157.918 27.2599 157.848V158.66C27.4559 158.716 27.7359 158.786 28.0859 158.786C29.4299 158.786 29.9619 158.212 30.5219 156.588L33.2519 148.664H32.2859L30.6059 153.69C30.4239 154.25 30.2699 154.754 30.2699 154.754H30.2419C30.2419 154.754 30.1019 154.278 29.9059 153.69L28.2119 148.664H27.2319L29.7799 156.014ZM44.1692 150.708C43.9872 149.084 42.6852 148.468 41.3552 148.468C39.2972 148.468 38.1072 150.148 38.1072 152.388C38.1072 154.684 39.1852 156.182 41.3132 156.182C42.8252 156.182 43.9592 155.356 44.1832 153.746H43.2452C43.1192 154.488 42.6992 155.398 41.3272 155.398C39.7592 155.398 39.1152 154.208 39.1152 152.318C39.1152 150.4 39.9552 149.252 41.3692 149.252C42.5172 149.252 43.1192 149.966 43.2032 150.708H44.1692ZM48.8878 156.182C50.9318 156.182 52.0938 154.586 52.0938 152.332C52.0938 150.12 51.0998 148.482 48.8878 148.482C46.8578 148.482 45.6678 150.12 45.6678 152.332C45.6678 154.572 46.6898 156.182 48.8878 156.182ZM48.8878 149.238C50.4138 149.238 51.0858 150.442 51.0858 152.332C51.0858 154.222 50.3858 155.412 48.9018 155.412C47.3618 155.412 46.6618 154.222 46.6618 152.332C46.6618 150.442 47.4458 149.238 48.8878 149.238ZM55.1378 148.664H54.1718V153.676C54.1718 155.356 54.9558 156.182 56.5238 156.182C57.7418 156.182 58.5258 155.454 58.8758 154.642H58.9038V156H59.8138V148.664H58.8478V152.626C58.8478 154.278 58.1478 155.37 56.7338 155.37C56.1318 155.37 55.7118 155.188 55.4598 154.852C55.1938 154.502 55.1378 153.942 55.1378 153.354V148.664ZM67.356 152.78C67.356 154.04 66.544 155.188 65.144 155.188C63.492 155.188 62.918 153.928 62.918 152.234C62.918 150.498 63.618 149.266 65.088 149.266C66.6 149.266 67.356 150.47 67.356 151.758V152.78ZM65.102 158.786C66.95 158.786 68.294 157.82 68.294 155.706V148.664H67.384V149.91H67.356C67.048 149.196 66.292 148.482 65.074 148.482C63.226 148.482 61.91 149.784 61.91 152.234C61.91 155.034 63.478 155.958 64.878 155.958C66.012 155.958 66.908 155.37 67.328 154.53H67.342V155.692C67.342 157.456 66.362 158.016 65.13 158.016C63.898 158.016 63.282 157.442 63.142 156.784H62.19C62.372 158.044 63.548 158.786 65.102 158.786ZM75.6655 156H76.6315V151.016C76.6315 149.336 75.9175 148.482 74.3355 148.482C73.1175 148.482 72.3055 149.14 71.9695 149.952H71.9415V144.968H70.9615V156H71.9415V151.674C71.9415 150.428 72.5995 149.308 74.1115 149.308C74.6855 149.308 75.0915 149.476 75.3435 149.826C75.6095 150.19 75.6655 150.75 75.6655 151.352V156Z" fill="white"/>
<rect x="104" y="137" width="50" height="30" fill="#282B32"/>
<path d="M115.569 149.42H117.431V148.664H115.569V146.984C115.569 146.088 115.919 145.738 116.675 145.738C116.983 145.738 117.207 145.766 117.375 145.808V144.996C117.109 144.94 116.871 144.926 116.633 144.926C115.387 144.926 114.589 145.556 114.589 146.816V148.664H113.161V149.42H114.589V156H115.569V149.42ZM123.588 151.814H119.402C119.528 150.302 120.256 149.238 121.628 149.238C123.182 149.238 123.574 150.596 123.588 151.744V151.814ZM124.456 154.166H123.532C123.406 154.572 122.972 155.412 121.684 155.412C120.144 155.412 119.444 154.334 119.388 152.556H124.568V151.954C124.568 150.218 123.798 148.482 121.628 148.482C119.542 148.482 118.408 150.162 118.408 152.388C118.408 154.684 119.43 156.182 121.67 156.182C123.112 156.182 124.19 155.286 124.456 154.166ZM128.221 156H129.257L131.791 148.664H130.867L129.103 153.802C128.921 154.32 128.767 154.852 128.767 154.852H128.739C128.739 154.852 128.585 154.32 128.403 153.802L126.667 148.664H125.673L128.221 156ZM138.108 151.814H133.922C134.048 150.302 134.776 149.238 136.148 149.238C137.702 149.238 138.094 150.596 138.108 151.744V151.814ZM138.976 154.166H138.052C137.926 154.572 137.492 155.412 136.204 155.412C134.664 155.412 133.964 154.334 133.908 152.556H139.088V151.954C139.088 150.218 138.318 148.482 136.148 148.482C134.062 148.482 132.928 150.162 132.928 152.388C132.928 154.684 133.95 156.182 136.19 156.182C137.632 156.182 138.71 155.286 138.976 154.166ZM141.172 156H142.152V151.982C142.152 150.246 143.202 149.49 144.35 149.49H144.546V148.524H144.42C143.314 148.524 142.418 149.336 142.11 150.19H142.082V148.664H141.172V156Z" fill="white"/>
<rect x="169" y="137" width="50" height="30" fill="#282B32"/>
<path d="M183.837 150.708C183.655 149.084 182.353 148.468 181.023 148.468C178.965 148.468 177.775 150.148 177.775 152.388C177.775 154.684 178.853 156.182 180.981 156.182C182.493 156.182 183.627 155.356 183.851 153.746H182.913C182.787 154.488 182.367 155.398 180.995 155.398C179.427 155.398 178.783 154.208 178.783 152.318C178.783 150.4 179.623 149.252 181.037 149.252C182.185 149.252 182.787 149.966 182.871 150.708H183.837ZM190.519 156H191.485V151.016C191.485 149.336 190.771 148.482 189.189 148.482C187.971 148.482 187.159 149.14 186.823 149.952H186.795V144.968H185.815V156H186.795V151.674C186.795 150.428 187.453 149.308 188.965 149.308C189.539 149.308 189.945 149.476 190.197 149.826C190.463 150.19 190.519 150.75 190.519 151.352V156ZM194.127 146.844H195.177V145.738H194.127V146.844ZM194.155 156H195.135V148.664H194.155V156ZM197.86 156H198.84V144.968H197.86V156ZM201.551 156H202.531V144.968H201.551V156ZM210.087 150.428C209.961 149.196 208.995 148.482 207.469 148.482C205.929 148.482 204.879 149.35 204.879 150.638C204.879 151.842 205.579 152.43 206.811 152.598L208.015 152.766C209.079 152.92 209.289 153.34 209.289 153.998C209.289 154.824 208.589 155.412 207.455 155.412C206.209 155.412 205.663 154.81 205.509 153.942H204.557C204.753 155.58 205.957 156.182 207.441 156.182C209.107 156.182 210.241 155.3 210.241 153.914C210.241 152.794 209.667 152.08 208.267 151.884L206.951 151.702C206.209 151.604 205.803 151.268 205.803 150.554C205.803 149.812 206.433 149.238 207.441 149.238C208.435 149.238 209.037 149.714 209.149 150.428H210.087Z" fill="white"/>
<rect x="234" y="137" width="61" height="30" fill="#282B32"/>
<path d="M244.342 149.42H246.204V148.664H244.342V146.984C244.342 146.088 244.692 145.738 245.448 145.738C245.756 145.738 245.98 145.766 246.148 145.808V144.996C245.882 144.94 245.644 144.926 245.406 144.926C244.16 144.926 243.362 145.556 243.362 146.816V148.664H241.934V149.42H243.362V156H244.342V149.42ZM249.577 155.328C248.695 155.328 248.121 154.88 248.121 154.012C248.121 153.55 248.289 153.186 248.625 152.948C249.087 152.612 250.011 152.5 251.831 152.388V152.696C251.831 154.502 250.627 155.328 249.577 155.328ZM248.429 150.61C248.485 149.854 249.017 149.224 250.137 149.224C251.439 149.224 251.845 150.022 251.845 151.17V151.632C250.067 151.73 248.863 151.856 248.135 152.262C247.491 152.612 247.127 153.214 247.127 154.054C247.127 155.356 248.009 156.112 249.381 156.112C250.501 156.112 251.397 155.58 251.845 154.628H251.873C251.929 155.608 252.307 156.07 253.357 156.07H253.483V155.3C252.965 155.286 252.769 155.048 252.769 154.376V151.184C252.769 149.602 252.195 148.482 250.165 148.482C248.513 148.482 247.519 149.462 247.505 150.61H248.429ZM255.805 146.466V147.138C255.805 148.482 255.609 148.692 254.671 148.692H254.349V149.42H255.749V154.278C255.749 155.37 256.239 156.126 257.653 156.126C258.311 156.126 258.731 156.014 258.731 156.014V155.202C258.731 155.202 258.311 155.286 257.891 155.286C257.051 155.286 256.715 154.95 256.715 154.166V149.42H258.591V148.664H256.715V146.466H255.805ZM260.498 146.844H261.548V145.738H260.498V146.844ZM260.526 156H261.506V148.664H260.526V156ZM269.061 152.78C269.061 154.04 268.249 155.188 266.849 155.188C265.197 155.188 264.623 153.928 264.623 152.234C264.623 150.498 265.323 149.266 266.793 149.266C268.305 149.266 269.061 150.47 269.061 151.758V152.78ZM266.807 158.786C268.655 158.786 269.999 157.82 269.999 155.706V148.664H269.089V149.91H269.061C268.753 149.196 267.997 148.482 266.779 148.482C264.931 148.482 263.615 149.784 263.615 152.234C263.615 155.034 265.183 155.958 266.583 155.958C267.717 155.958 268.613 155.37 269.033 154.53H269.047V155.692C269.047 157.456 268.067 158.016 266.835 158.016C265.603 158.016 264.987 157.442 264.847 156.784H263.895C264.077 158.044 265.253 158.786 266.807 158.786ZM273.673 148.664H272.707V153.676C272.707 155.356 273.491 156.182 275.059 156.182C276.277 156.182 277.061 155.454 277.411 154.642H277.439V156H278.349V148.664H277.383V152.626C277.383 154.278 276.683 155.37 275.269 155.37C274.667 155.37 274.247 155.188 273.995 154.852C273.729 154.502 273.673 153.942 273.673 153.354V148.664ZM285.625 151.814H281.439C281.565 150.302 282.293 149.238 283.665 149.238C285.219 149.238 285.611 150.596 285.625 151.744V151.814ZM286.493 154.166H285.569C285.443 154.572 285.009 155.412 283.721 155.412C282.181 155.412 281.481 154.334 281.425 152.556H286.605V151.954C286.605 150.218 285.835 148.482 283.665 148.482C281.579 148.482 280.445 150.162 280.445 152.388C280.445 154.684 281.467 156.182 283.707 156.182C285.149 156.182 286.227 155.286 286.493 154.166Z" fill="white"/>
<rect x="2" y="182" width="140" height="30" fill="#282B32"/>
<path d="M15.0721 195.428C14.9461 194.196 13.9801 193.482 12.4541 193.482C10.9141 193.482 9.86412 194.35 9.86412 195.638C9.86412 196.842 10.5641 197.43 11.7961 197.598L13.0001 197.766C14.0641 197.92 14.2741 198.34 14.2741 198.998C14.2741 199.824 13.5741 200.412 12.4401 200.412C11.1941 200.412 10.6481 199.81 10.4941 198.942H9.54212C9.73812 200.58 10.9421 201.182 12.4261 201.182C14.0921 201.182 15.2261 200.3 15.2261 198.914C15.2261 197.794 14.6521 197.08 13.2521 196.884L11.9361 196.702C11.1941 196.604 10.7881 196.268 10.7881 195.554C10.7881 194.812 11.4181 194.238 12.4261 194.238C13.4201 194.238 14.0221 194.714 14.1341 195.428H15.0721ZM21.9458 201H22.9118V196.016C22.9118 194.336 22.1978 193.482 20.6158 193.482C19.3978 193.482 18.5858 194.14 18.2498 194.952H18.2218V189.968H17.2418V201H18.2218V196.674C18.2218 195.428 18.8798 194.308 20.3918 194.308C20.9658 194.308 21.3718 194.476 21.6238 194.826C21.8898 195.19 21.9458 195.75 21.9458 196.352V201ZM28.1856 201.182C30.2296 201.182 31.3916 199.586 31.3916 197.332C31.3916 195.12 30.3976 193.482 28.1856 193.482C26.1556 193.482 24.9656 195.12 24.9656 197.332C24.9656 199.572 25.9876 201.182 28.1856 201.182ZM28.1856 194.238C29.7116 194.238 30.3836 195.442 30.3836 197.332C30.3836 199.222 29.6836 200.412 28.1996 200.412C26.6596 200.412 25.9596 199.222 25.9596 197.332C25.9596 195.442 26.7436 194.238 28.1856 194.238ZM33.4976 201H34.4776V196.982C34.4776 195.246 35.5276 194.49 36.6756 194.49H36.8716V193.524H36.7456C35.6396 193.524 34.7436 194.336 34.4356 195.19H34.4076V193.664H33.4976V201ZM39.277 191.466V192.138C39.277 193.482 39.081 193.692 38.143 193.692H37.821V194.42H39.221V199.278C39.221 200.37 39.711 201.126 41.125 201.126C41.783 201.126 42.203 201.014 42.203 201.014V200.202C42.203 200.202 41.783 200.286 41.363 200.286C40.523 200.286 40.187 199.95 40.187 199.166V194.42H42.063V193.664H40.187V191.466H39.277ZM48.6333 201H49.5993V196.016C49.5993 194.336 48.8853 193.482 47.3033 193.482C46.0853 193.482 45.2593 194.14 44.8673 194.966H44.8393V193.664H43.9293V201H44.9093V196.674C44.9093 195.414 45.5813 194.308 47.0793 194.308C47.6533 194.308 48.0593 194.476 48.3113 194.826C48.5773 195.19 48.6333 195.75 48.6333 196.366V201ZM56.8331 196.814H52.6471C52.7731 195.302 53.5011 194.238 54.8731 194.238C56.4271 194.238 56.8191 195.596 56.8331 196.744V196.814ZM57.7011 199.166H56.7771C56.6511 199.572 56.2171 200.412 54.9291 200.412C53.3891 200.412 52.6891 199.334 52.6331 197.556H57.8131V196.954C57.8131 195.218 57.0431 193.482 54.8731 193.482C52.7871 193.482 51.6531 195.162 51.6531 197.388C51.6531 199.684 52.6751 201.182 54.9151 201.182C56.3571 201.182 57.4351 200.286 57.7011 199.166ZM64.742 195.428C64.616 194.196 63.65 193.482 62.124 193.482C60.584 193.482 59.534 194.35 59.534 195.638C59.534 196.842 60.234 197.43 61.466 197.598L62.67 197.766C63.734 197.92 63.944 198.34 63.944 198.998C63.944 199.824 63.244 200.412 62.11 200.412C60.864 200.412 60.318 199.81 60.164 198.942H59.212C59.408 200.58 60.612 201.182 62.096 201.182C63.762 201.182 64.896 200.3 64.896 198.914C64.896 197.794 64.322 197.08 62.922 196.884L61.606 196.702C60.864 196.604 60.458 196.268 60.458 195.554C60.458 194.812 61.088 194.238 62.096 194.238C63.09 194.238 63.692 194.714 63.804 195.428H64.742ZM71.8241 195.428C71.6981 194.196 70.7321 193.482 69.2061 193.482C67.6661 193.482 66.6161 194.35 66.6161 195.638C66.6161 196.842 67.3161 197.43 68.5481 197.598L69.7521 197.766C70.8161 197.92 71.0261 198.34 71.0261 198.998C71.0261 199.824 70.3261 200.412 69.1921 200.412C67.9461 200.412 67.4001 199.81 67.2461 198.942H66.2941C66.4901 200.58 67.6941 201.182 69.1781 201.182C70.8441 201.182 71.9781 200.3 71.9781 198.914C71.9781 197.794 71.4041 197.08 70.0041 196.884L68.6881 196.702C67.9461 196.604 67.5401 196.268 67.5401 195.554C67.5401 194.812 68.1701 194.238 69.1781 194.238C70.1721 194.238 70.7741 194.714 70.8861 195.428H71.8241ZM80.3712 201.182C82.4152 201.182 83.5772 199.586 83.5772 197.332C83.5772 195.12 82.5832 193.482 80.3712 193.482C78.3412 193.482 77.1512 195.12 77.1512 197.332C77.1512 199.572 78.1732 201.182 80.3712 201.182ZM80.3712 194.238C81.8972 194.238 82.5692 195.442 82.5692 197.332C82.5692 199.222 81.8692 200.412 80.3852 200.412C78.8452 200.412 78.1452 199.222 78.1452 197.332C78.1452 195.442 78.9292 194.238 80.3712 194.238ZM86.9992 194.42H88.8612V193.664H86.9992V191.984C86.9992 191.088 87.3492 190.738 88.1052 190.738C88.4132 190.738 88.6372 190.766 88.8052 190.808V189.996C88.5392 189.94 88.3012 189.926 88.0632 189.926C86.8172 189.926 86.0192 190.556 86.0192 191.816V193.664H84.5912V194.42H86.0192V201H86.9992V194.42ZM94.2281 201H95.1381V199.74H95.1661C95.5161 200.482 96.3001 201.182 97.4901 201.182C99.1701 201.182 100.584 199.95 100.584 197.29C100.584 194.462 99.1561 193.482 97.6301 193.482C96.4961 193.482 95.6561 194.028 95.2221 194.924H95.2081V189.968H94.2281V201ZM97.4061 200.398C95.8801 200.398 95.1801 199.124 95.1801 197.836V196.688C95.1801 195.456 95.9361 194.266 97.4341 194.266C99.0581 194.266 99.5901 195.624 99.5901 197.29C99.5901 199.222 98.8621 200.398 97.4061 200.398ZM102.705 201H103.685V196.982C103.685 195.246 104.735 194.49 105.883 194.49H106.079V193.524H105.953C104.847 193.524 103.951 194.336 103.643 195.19H103.615V193.664H102.705V201ZM112.355 196.814H108.169C108.295 195.302 109.023 194.238 110.395 194.238C111.949 194.238 112.341 195.596 112.355 196.744V196.814ZM113.223 199.166H112.299C112.173 199.572 111.739 200.412 110.451 200.412C108.911 200.412 108.211 199.334 108.155 197.556H113.335V196.954C113.335 195.218 112.565 193.482 110.395 193.482C108.309 193.482 107.175 195.162 107.175 197.388C107.175 199.684 108.197 201.182 110.437 201.182C111.879 201.182 112.957 200.286 113.223 199.166ZM117.268 200.328C116.386 200.328 115.812 199.88 115.812 199.012C115.812 198.55 115.98 198.186 116.316 197.948C116.778 197.612 117.702 197.5 119.522 197.388V197.696C119.522 199.502 118.318 200.328 117.268 200.328ZM116.12 195.61C116.176 194.854 116.708 194.224 117.828 194.224C119.13 194.224 119.536 195.022 119.536 196.17V196.632C117.758 196.73 116.554 196.856 115.826 197.262C115.182 197.612 114.818 198.214 114.818 199.054C114.818 200.356 115.7 201.112 117.072 201.112C118.192 201.112 119.088 200.58 119.536 199.628H119.564C119.62 200.608 119.998 201.07 121.048 201.07H121.174V200.3C120.656 200.286 120.46 200.048 120.46 199.376V196.184C120.46 194.602 119.886 193.482 117.856 193.482C116.204 193.482 115.21 194.462 115.196 195.61H116.12ZM123.496 191.466V192.138C123.496 193.482 123.3 193.692 122.362 193.692H122.04V194.42H123.44V199.278C123.44 200.37 123.93 201.126 125.344 201.126C126.002 201.126 126.422 201.014 126.422 201.014V200.202C126.422 200.202 126.002 200.286 125.582 200.286C124.742 200.286 124.406 199.95 124.406 199.166V194.42H126.282V193.664H124.406V191.466H123.496ZM132.852 201H133.818V196.016C133.818 194.336 133.104 193.482 131.522 193.482C130.304 193.482 129.492 194.14 129.156 194.952H129.128V189.968H128.148V201H129.128V196.674C129.128 195.428 129.786 194.308 131.298 194.308C131.872 194.308 132.278 194.476 132.53 194.826C132.796 195.19 132.852 195.75 132.852 196.352V201Z" fill="white"/>
<rect y="227" width="207" height="30" fill="#282B32"/>
<path d="M9.358 246H10.338V234.968H9.358V246ZM15.6534 246.182C17.6974 246.182 18.8594 244.586 18.8594 242.332C18.8594 240.12 17.8654 238.482 15.6534 238.482C13.6234 238.482 12.4334 240.12 12.4334 242.332C12.4334 244.572 13.4554 246.182 15.6534 246.182ZM15.6534 239.238C17.1794 239.238 17.8514 240.442 17.8514 242.332C17.8514 244.222 17.1514 245.412 15.6674 245.412C14.1274 245.412 13.4274 244.222 13.4274 242.332C13.4274 240.442 14.2114 239.238 15.6534 239.238ZM25.8094 240.428C25.6834 239.196 24.7174 238.482 23.1914 238.482C21.6514 238.482 20.6014 239.35 20.6014 240.638C20.6014 241.842 21.3014 242.43 22.5334 242.598L23.7374 242.766C24.8014 242.92 25.0114 243.34 25.0114 243.998C25.0114 244.824 24.3114 245.412 23.1774 245.412C21.9314 245.412 21.3854 244.81 21.2314 243.942H20.2794C20.4754 245.58 21.6794 246.182 23.1634 246.182C24.8294 246.182 25.9634 245.3 25.9634 243.914C25.9634 242.794 25.3894 242.08 23.9894 241.884L22.6734 241.702C21.9314 241.604 21.5254 241.268 21.5254 240.554C21.5254 239.812 22.1554 239.238 23.1634 239.238C24.1574 239.238 24.7594 239.714 24.8714 240.428H25.8094ZM32.8915 240.428C32.7655 239.196 31.7995 238.482 30.2735 238.482C28.7335 238.482 27.6835 239.35 27.6835 240.638C27.6835 241.842 28.3835 242.43 29.6155 242.598L30.8195 242.766C31.8835 242.92 32.0935 243.34 32.0935 243.998C32.0935 244.824 31.3935 245.412 30.2595 245.412C29.0135 245.412 28.4675 244.81 28.3135 243.942H27.3615C27.5575 245.58 28.7615 246.182 30.2455 246.182C31.9115 246.182 33.0455 245.3 33.0455 243.914C33.0455 242.794 32.4715 242.08 31.0715 241.884L29.7555 241.702C29.0135 241.604 28.6075 241.268 28.6075 240.554C28.6075 239.812 29.2375 239.238 30.2455 239.238C31.2395 239.238 31.8415 239.714 31.9535 240.428H32.8915ZM41.4386 246.182C43.4826 246.182 44.6446 244.586 44.6446 242.332C44.6446 240.12 43.6506 238.482 41.4386 238.482C39.4086 238.482 38.2186 240.12 38.2186 242.332C38.2186 244.572 39.2406 246.182 41.4386 246.182ZM41.4386 239.238C42.9646 239.238 43.6366 240.442 43.6366 242.332C43.6366 244.222 42.9366 245.412 41.4526 245.412C39.9126 245.412 39.2126 244.222 39.2126 242.332C39.2126 240.442 39.9966 239.238 41.4386 239.238ZM48.0666 239.42H49.9286V238.664H48.0666V236.984C48.0666 236.088 48.4166 235.738 49.1726 235.738C49.4806 235.738 49.7046 235.766 49.8726 235.808V234.996C49.6066 234.94 49.3686 234.926 49.1306 234.926C47.8846 234.926 47.0866 235.556 47.0866 236.816V238.664H45.6586V239.42H47.0866V246H48.0666V239.42ZM60.1395 240.428C60.0135 239.196 59.0475 238.482 57.5215 238.482C55.9815 238.482 54.9315 239.35 54.9315 240.638C54.9315 241.842 55.6315 242.43 56.8635 242.598L58.0675 242.766C59.1315 242.92 59.3415 243.34 59.3415 243.998C59.3415 244.824 58.6415 245.412 57.5075 245.412C56.2615 245.412 55.7155 244.81 55.5615 243.942H54.6095C54.8055 245.58 56.0095 246.182 57.4935 246.182C59.1595 246.182 60.2935 245.3 60.2935 243.914C60.2935 242.794 59.7195 242.08 58.3195 241.884L57.0035 241.702C56.2615 241.604 55.8555 241.268 55.8555 240.554C55.8555 239.812 56.4855 239.238 57.4935 239.238C58.4875 239.238 59.0895 239.714 59.2015 240.428H60.1395ZM66.9415 241.814H62.7555C62.8815 240.302 63.6095 239.238 64.9815 239.238C66.5355 239.238 66.9275 240.596 66.9415 241.744V241.814ZM67.8095 244.166H66.8855C66.7595 244.572 66.3255 245.412 65.0375 245.412C63.4975 245.412 62.7975 244.334 62.7415 242.556H67.9215V241.954C67.9215 240.218 67.1515 238.482 64.9815 238.482C62.8955 238.482 61.7615 240.162 61.7615 242.388C61.7615 244.684 62.7835 246.182 65.0235 246.182C66.4655 246.182 67.5435 245.286 67.8095 244.166ZM74.7104 246H75.6764V241.016C75.6764 239.336 74.9624 238.482 73.3804 238.482C72.1624 238.482 71.3364 239.14 70.9444 239.966H70.9164V238.664H70.0064V246H70.9864V241.674C70.9864 240.414 71.6584 239.308 73.1564 239.308C73.7304 239.308 74.1364 239.476 74.3884 239.826C74.6544 240.19 74.7104 240.75 74.7104 241.366V246ZM83.1903 240.428C83.0643 239.196 82.0983 238.482 80.5723 238.482C79.0323 238.482 77.9823 239.35 77.9823 240.638C77.9823 241.842 78.6823 242.43 79.9143 242.598L81.1183 242.766C82.1823 242.92 82.3923 243.34 82.3923 243.998C82.3923 244.824 81.6923 245.412 80.5583 245.412C79.3123 245.412 78.7663 244.81 78.6123 243.942H77.6603C77.8563 245.58 79.0603 246.182 80.5443 246.182C82.2103 246.182 83.3443 245.3 83.3443 243.914C83.3443 242.794 82.7703 242.08 81.3703 241.884L80.0543 241.702C79.3123 241.604 78.9063 241.268 78.9063 240.554C78.9063 239.812 79.5363 239.238 80.5443 239.238C81.5383 239.238 82.1403 239.714 82.2523 240.428H83.1903ZM89.9923 241.814H85.8063C85.9323 240.302 86.6603 239.238 88.0323 239.238C89.5863 239.238 89.9783 240.596 89.9923 241.744V241.814ZM90.8603 244.166H89.9363C89.8103 244.572 89.3763 245.412 88.0883 245.412C86.5483 245.412 85.8483 244.334 85.7923 242.556H90.9723V241.954C90.9723 240.218 90.2023 238.482 88.0323 238.482C85.9463 238.482 84.8123 240.162 84.8123 242.388C84.8123 244.684 85.8343 246.182 88.0743 246.182C89.5163 246.182 90.5943 245.286 90.8603 244.166ZM99.3663 246.182C101.41 246.182 102.572 244.586 102.572 242.332C102.572 240.12 101.578 238.482 99.3663 238.482C97.3363 238.482 96.1463 240.12 96.1463 242.332C96.1463 244.572 97.1683 246.182 99.3663 246.182ZM99.3663 239.238C100.892 239.238 101.564 240.442 101.564 242.332C101.564 244.222 100.864 245.412 99.3803 245.412C97.8403 245.412 97.1403 244.222 97.1403 242.332C97.1403 240.442 97.9243 239.238 99.3663 239.238ZM105.994 239.42H107.856V238.664H105.994V236.984C105.994 236.088 106.344 235.738 107.1 235.738C107.408 235.738 107.632 235.766 107.8 235.808V234.996C107.534 234.94 107.296 234.926 107.058 234.926C105.812 234.926 105.014 235.556 105.014 236.816V238.664H103.586V239.42H105.014V246H105.994V239.42ZM113.643 236.466V237.138C113.643 238.482 113.447 238.692 112.509 238.692H112.187V239.42H113.587V244.278C113.587 245.37 114.077 246.126 115.491 246.126C116.149 246.126 116.569 246.014 116.569 246.014V245.202C116.569 245.202 116.149 245.286 115.729 245.286C114.889 245.286 114.553 244.95 114.553 244.166V239.42H116.429V238.664H114.553V236.466H113.643ZM120.417 245.328C119.535 245.328 118.961 244.88 118.961 244.012C118.961 243.55 119.129 243.186 119.465 242.948C119.927 242.612 120.851 242.5 122.671 242.388V242.696C122.671 244.502 121.467 245.328 120.417 245.328ZM119.269 240.61C119.325 239.854 119.857 239.224 120.977 239.224C122.279 239.224 122.685 240.022 122.685 241.17V241.632C120.907 241.73 119.703 241.856 118.975 242.262C118.331 242.612 117.967 243.214 117.967 244.054C117.967 245.356 118.849 246.112 120.221 246.112C121.341 246.112 122.237 245.58 122.685 244.628H122.713C122.769 245.608 123.147 246.07 124.197 246.07H124.323V245.3C123.805 245.286 123.609 245.048 123.609 244.376V241.184C123.609 239.602 123.035 238.482 121.005 238.482C119.353 238.482 118.359 239.462 118.345 240.61H119.269ZM131.138 240.428C131.012 239.196 130.046 238.482 128.52 238.482C126.98 238.482 125.93 239.35 125.93 240.638C125.93 241.842 126.63 242.43 127.862 242.598L129.066 242.766C130.13 242.92 130.34 243.34 130.34 243.998C130.34 244.824 129.64 245.412 128.506 245.412C127.26 245.412 126.714 244.81 126.56 243.942H125.608C125.804 245.58 127.008 246.182 128.492 246.182C130.158 246.182 131.292 245.3 131.292 243.914C131.292 242.794 130.718 242.08 129.318 241.884L128.002 241.702C127.26 241.604 126.854 241.268 126.854 240.554C126.854 239.812 127.484 239.238 128.492 239.238C129.486 239.238 130.088 239.714 130.2 240.428H131.138ZM133.796 236.466V237.138C133.796 238.482 133.6 238.692 132.662 238.692H132.34V239.42H133.74V244.278C133.74 245.37 134.23 246.126 135.644 246.126C136.302 246.126 136.722 246.014 136.722 246.014V245.202C136.722 245.202 136.302 245.286 135.882 245.286C135.042 245.286 134.706 244.95 134.706 244.166V239.42H136.582V238.664H134.706V236.466H133.796ZM143.149 241.814H138.963C139.089 240.302 139.817 239.238 141.189 239.238C142.743 239.238 143.135 240.596 143.149 241.744V241.814ZM144.017 244.166H143.093C142.967 244.572 142.533 245.412 141.245 245.412C139.705 245.412 139.005 244.334 138.949 242.556H144.129V241.954C144.129 240.218 143.359 238.482 141.189 238.482C139.103 238.482 137.969 240.162 137.969 242.388C137.969 244.684 138.991 246.182 141.231 246.182C142.673 246.182 143.751 245.286 144.017 244.166ZM152.523 246.182C154.567 246.182 155.729 244.586 155.729 242.332C155.729 240.12 154.735 238.482 152.523 238.482C150.493 238.482 149.303 240.12 149.303 242.332C149.303 244.572 150.325 246.182 152.523 246.182ZM152.523 239.238C154.049 239.238 154.721 240.442 154.721 242.332C154.721 244.222 154.021 245.412 152.537 245.412C150.997 245.412 150.297 244.222 150.297 242.332C150.297 240.442 151.081 239.238 152.523 239.238ZM157.835 246H158.815V241.982C158.815 240.246 159.865 239.49 161.013 239.49H161.209V238.524H161.083C159.977 238.524 159.081 239.336 158.773 240.19H158.745V238.664H157.835V246ZM171.675 240.428C171.549 239.196 170.583 238.482 169.057 238.482C167.517 238.482 166.467 239.35 166.467 240.638C166.467 241.842 167.167 242.43 168.399 242.598L169.603 242.766C170.667 242.92 170.877 243.34 170.877 243.998C170.877 244.824 170.177 245.412 169.043 245.412C167.797 245.412 167.251 244.81 167.097 243.942H166.145C166.341 245.58 167.545 246.182 169.029 246.182C170.695 246.182 171.829 245.3 171.829 243.914C171.829 242.794 171.255 242.08 169.855 241.884L168.539 241.702C167.797 241.604 167.391 241.268 167.391 240.554C167.391 239.812 168.021 239.238 169.029 239.238C170.023 239.238 170.625 239.714 170.737 240.428H171.675ZM173.913 246H174.893V241.66C174.893 240.414 175.551 239.308 177.063 239.308C177.637 239.308 178.029 239.476 178.281 239.826C178.547 240.19 178.603 240.75 178.603 241.352V246H179.569V241.674C179.569 240.414 180.227 239.308 181.739 239.308C182.313 239.308 182.719 239.462 182.971 239.812C183.237 240.19 183.293 240.75 183.293 241.366V246H184.259V241.016C184.259 239.336 183.531 238.482 181.963 238.482C180.731 238.482 179.849 239.196 179.485 240.064H179.457C179.205 238.958 178.407 238.482 177.273 238.482C176.069 238.482 175.229 239.14 174.851 239.966H174.823V238.664H173.913V246ZM191.492 241.814H187.306C187.432 240.302 188.16 239.238 189.532 239.238C191.086 239.238 191.478 240.596 191.492 241.744V241.814ZM192.36 244.166H191.436C191.31 244.572 190.876 245.412 189.588 245.412C188.048 245.412 187.348 244.334 187.292 242.556H192.472V241.954C192.472 240.218 191.702 238.482 189.532 238.482C187.446 238.482 186.312 240.162 186.312 242.388C186.312 244.684 187.334 246.182 189.574 246.182C191.016 246.182 192.094 245.286 192.36 244.166ZM194.557 246H195.537V234.968H194.557V246ZM198.249 246H199.229V234.968H198.249V246Z" fill="white"/>
<rect x="157" y="182" width="140" height="30" fill="#282B32"/>
<path d="M171.431 197.934C171.431 199.18 170.675 200.398 169.191 200.398C167.637 200.398 167.021 199.138 167.021 197.318C167.021 195.54 167.735 194.266 169.275 194.266C170.619 194.266 171.431 195.414 171.431 196.786V197.934ZM172.383 189.968H171.403V194.868H171.375C171.039 194.056 170.255 193.482 169.163 193.482C167.273 193.482 166.013 194.868 166.013 197.374C166.013 200.3 167.623 201.182 169.093 201.182C170.283 201.182 171.039 200.482 171.417 199.726H171.459V201H172.383V189.968ZM175.078 191.844H176.128V190.738H175.078V191.844ZM175.106 201H176.086V193.664H175.106V201ZM180.127 194.42H183.739V201H184.719V194.42H186.581V193.664H184.719V191.984C184.719 191.088 185.069 190.738 185.825 190.738C186.133 190.738 186.357 190.766 186.525 190.808V189.996C186.259 189.94 186.021 189.926 185.783 189.926C184.537 189.926 183.739 190.556 183.739 191.816V193.664H180.127V192.068C180.127 191.172 180.477 190.822 181.233 190.822C181.541 190.822 181.765 190.85 181.933 190.892V190.08C181.667 190.024 181.429 190.01 181.191 190.01C179.945 190.01 179.147 190.64 179.147 191.9V193.664H177.719V194.42H179.147V201H180.127V194.42ZM188.217 191.844H189.267V190.738H188.217V191.844ZM188.245 201H189.225V193.664H188.245V201ZM197.396 195.708C197.214 194.084 195.912 193.468 194.582 193.468C192.524 193.468 191.334 195.148 191.334 197.388C191.334 199.684 192.412 201.182 194.54 201.182C196.052 201.182 197.186 200.356 197.41 198.746H196.472C196.346 199.488 195.926 200.398 194.554 200.398C192.986 200.398 192.342 199.208 192.342 197.318C192.342 195.4 193.182 194.252 194.596 194.252C195.744 194.252 196.346 194.966 196.43 195.708H197.396ZM200.312 193.664H199.346V198.676C199.346 200.356 200.13 201.182 201.698 201.182C202.916 201.182 203.7 200.454 204.05 199.642H204.078V201H204.988V193.664H204.022V197.626C204.022 199.278 203.322 200.37 201.908 200.37C201.306 200.37 200.886 200.188 200.634 199.852C200.368 199.502 200.312 198.942 200.312 198.354V193.664ZM207.7 201H208.68V189.968H207.7V201ZM211.811 191.466V192.138C211.811 193.482 211.615 193.692 210.677 193.692H210.355V194.42H211.755V199.278C211.755 200.37 212.245 201.126 213.659 201.126C214.317 201.126 214.737 201.014 214.737 201.014V200.202C214.737 200.202 214.317 200.286 213.897 200.286C213.057 200.286 212.721 199.95 212.721 199.166V194.42H214.597V193.664H212.721V191.466H211.811ZM218.335 201.014L218.111 201.63C217.789 202.526 217.481 202.974 216.599 202.974C216.333 202.974 216.053 202.918 215.815 202.848V203.66C216.011 203.716 216.291 203.786 216.641 203.786C217.985 203.786 218.517 203.212 219.077 201.588L221.807 193.664H220.841L219.161 198.69C218.979 199.25 218.825 199.754 218.825 199.754H218.797C218.797 199.754 218.657 199.278 218.461 198.69L216.767 193.664H215.787L218.335 201.014ZM227.278 201H228.188V199.74H228.216C228.566 200.482 229.35 201.182 230.54 201.182C232.22 201.182 233.634 199.95 233.634 197.29C233.634 194.462 232.206 193.482 230.68 193.482C229.546 193.482 228.706 194.028 228.272 194.924H228.258V189.968H227.278V201ZM230.456 200.398C228.93 200.398 228.23 199.124 228.23 197.836V196.688C228.23 195.456 228.986 194.266 230.484 194.266C232.108 194.266 232.64 195.624 232.64 197.29C232.64 199.222 231.912 200.398 230.456 200.398ZM235.754 201H236.734V196.982C236.734 195.246 237.784 194.49 238.932 194.49H239.128V193.524H239.002C237.896 193.524 237 194.336 236.692 195.19H236.664V193.664H235.754V201ZM245.404 196.814H241.218C241.344 195.302 242.072 194.238 243.444 194.238C244.998 194.238 245.39 195.596 245.404 196.744V196.814ZM246.272 199.166H245.348C245.222 199.572 244.788 200.412 243.5 200.412C241.96 200.412 241.26 199.334 241.204 197.556H246.384V196.954C246.384 195.218 245.614 193.482 243.444 193.482C241.358 193.482 240.224 195.162 240.224 197.388C240.224 199.684 241.246 201.182 243.486 201.182C244.928 201.182 246.006 200.286 246.272 199.166ZM250.317 200.328C249.435 200.328 248.861 199.88 248.861 199.012C248.861 198.55 249.029 198.186 249.365 197.948C249.827 197.612 250.751 197.5 252.571 197.388V197.696C252.571 199.502 251.367 200.328 250.317 200.328ZM249.169 195.61C249.225 194.854 249.757 194.224 250.877 194.224C252.179 194.224 252.585 195.022 252.585 196.17V196.632C250.807 196.73 249.603 196.856 248.875 197.262C248.231 197.612 247.867 198.214 247.867 199.054C247.867 200.356 248.749 201.112 250.121 201.112C251.241 201.112 252.137 200.58 252.585 199.628H252.613C252.669 200.608 253.047 201.07 254.097 201.07H254.223V200.3C253.705 200.286 253.509 200.048 253.509 199.376V196.184C253.509 194.602 252.935 193.482 250.905 193.482C249.253 193.482 248.259 194.462 248.245 195.61H249.169ZM256.546 191.466V192.138C256.546 193.482 256.35 193.692 255.412 193.692H255.09V194.42H256.49V199.278C256.49 200.37 256.98 201.126 258.394 201.126C259.052 201.126 259.472 201.014 259.472 201.014V200.202C259.472 200.202 259.052 200.286 258.632 200.286C257.792 200.286 257.456 199.95 257.456 199.166V194.42H259.332V193.664H257.456V191.466H256.546ZM265.902 201H266.868V196.016C266.868 194.336 266.154 193.482 264.572 193.482C263.354 193.482 262.542 194.14 262.206 194.952H262.178V189.968H261.198V201H262.178V196.674C262.178 195.428 262.836 194.308 264.348 194.308C264.922 194.308 265.328 194.476 265.58 194.826C265.846 195.19 265.902 195.75 265.902 196.352V201ZM269.51 191.844H270.56V190.738H269.51V191.844ZM269.538 201H270.518V193.664H269.538V201ZM277.947 201H278.913V196.016C278.913 194.336 278.199 193.482 276.617 193.482C275.399 193.482 274.573 194.14 274.181 194.966H274.153V193.664H273.243V201H274.223V196.674C274.223 195.414 274.895 194.308 276.393 194.308C276.967 194.308 277.373 194.476 277.625 194.826C277.891 195.19 277.947 195.75 277.947 196.366V201ZM286.413 197.78C286.413 199.04 285.601 200.188 284.201 200.188C282.549 200.188 281.975 198.928 281.975 197.234C281.975 195.498 282.675 194.266 284.145 194.266C285.657 194.266 286.413 195.47 286.413 196.758V197.78ZM284.159 203.786C286.007 203.786 287.351 202.82 287.351 200.706V193.664H286.441V194.91H286.413C286.105 194.196 285.349 193.482 284.131 193.482C282.283 193.482 280.967 194.784 280.967 197.234C280.967 200.034 282.535 200.958 283.935 200.958C285.069 200.958 285.965 200.37 286.385 199.53H286.399V200.692C286.399 202.456 285.419 203.016 284.187 203.016C282.955 203.016 282.339 202.442 282.199 201.784H281.247C281.429 203.044 282.605 203.786 284.159 203.786Z" fill="white"/>
</svg>
