<svg width="281" height="171" viewBox="0 0 281 171" fill="none" xmlns="http://www.w3.org/2000/svg">
<path d="M1.8775 122.688V121.665H4.6775V113.783H4.5795L2.1155 116.079L1.4295 115.337L4.0195 112.915H5.8535V121.665H8.4295V122.688H1.8775Z" fill="#545454"/>
<path d="M8.2055 86.125H1.6815V84.921L4.9435 81.981C5.4195 81.5517 5.8115 81.113 6.1195 80.665C6.4275 80.2077 6.5815 79.727 6.5815 79.223V79.055C6.5815 78.467 6.4275 78.0143 6.1195 77.697C5.8115 77.3703 5.35417 77.207 4.7475 77.207C4.15017 77.207 3.68817 77.361 3.3615 77.669C3.04417 77.9677 2.80617 78.369 2.6475 78.873L1.5975 78.481C1.69083 78.1917 1.81683 77.9117 1.9755 77.641C2.1435 77.361 2.3535 77.1137 2.6055 76.899C2.8575 76.6843 3.16083 76.5117 3.5155 76.381C3.8795 76.2503 4.2995 76.185 4.7755 76.185C5.26083 76.185 5.69017 76.255 6.0635 76.395C6.44617 76.535 6.7635 76.731 7.0155 76.983C7.27683 77.235 7.47283 77.5337 7.6035 77.879C7.7435 78.2243 7.8135 78.6023 7.8135 79.013C7.8135 79.3863 7.7575 79.7363 7.6455 80.063C7.54283 80.3897 7.3935 80.7023 7.1975 81.001C7.01083 81.2997 6.78217 81.5937 6.5115 81.883C6.25017 82.163 5.95617 82.443 5.6295 82.723L2.8995 85.103H8.2055V86.125Z" fill="#545454"/>
<path d="M4.4675 43.9345C5.14883 43.9345 5.6575 43.7852 5.9935 43.4865C6.33883 43.1785 6.5115 42.7865 6.5115 42.3105V42.2125C6.5115 41.6898 6.3435 41.2978 6.0075 41.0365C5.68083 40.7752 5.2515 40.6445 4.7195 40.6445C4.19683 40.6445 3.77217 40.7612 3.4455 40.9945C3.12817 41.2185 2.86683 41.5172 2.6615 41.8905L1.7795 41.2185C1.90083 41.0225 2.05017 40.8312 2.2275 40.6445C2.40483 40.4485 2.61017 40.2758 2.8435 40.1265C3.08617 39.9772 3.3615 39.8558 3.6695 39.7625C3.98683 39.6692 4.34617 39.6225 4.7475 39.6225C5.1675 39.6225 5.5595 39.6785 5.9235 39.7905C6.2875 39.8932 6.60483 40.0518 6.8755 40.2665C7.14617 40.4718 7.35617 40.7285 7.5055 41.0365C7.66417 41.3445 7.7435 41.6945 7.7435 42.0865C7.7435 42.4038 7.69217 42.6885 7.5895 42.9405C7.49617 43.1925 7.36083 43.4118 7.1835 43.5985C7.0155 43.7852 6.81483 43.9438 6.5815 44.0745C6.34817 44.2052 6.10083 44.3032 5.8395 44.3685V44.4245C6.11017 44.4805 6.3715 44.5738 6.6235 44.7045C6.8755 44.8258 7.0995 44.9892 7.2955 45.1945C7.4915 45.3905 7.6455 45.6332 7.7575 45.9225C7.87883 46.2025 7.9395 46.5245 7.9395 46.8885C7.9395 47.3085 7.8555 47.6958 7.6875 48.0505C7.52883 48.3958 7.30017 48.6945 7.0015 48.9465C6.71217 49.1892 6.3575 49.3805 5.9375 49.5205C5.52683 49.6605 5.0695 49.7305 4.5655 49.7305C4.13617 49.7305 3.7535 49.6838 3.4175 49.5905C3.09083 49.4972 2.79683 49.3712 2.5355 49.2125C2.2835 49.0538 2.0595 48.8765 1.8635 48.6805C1.67683 48.4845 1.50883 48.2792 1.3595 48.0645L2.2415 47.3925C2.37217 47.5885 2.5075 47.7658 2.6475 47.9245C2.7875 48.0832 2.94617 48.2232 3.1235 48.3445C3.31017 48.4565 3.52017 48.5452 3.7535 48.6105C3.98683 48.6758 4.2575 48.7085 4.5655 48.7085C5.25617 48.7085 5.7835 48.5498 6.1475 48.2325C6.52083 47.9152 6.7075 47.4625 6.7075 46.8745V46.7625C6.7075 46.1838 6.5255 45.7358 6.1615 45.4185C5.80683 45.1012 5.27017 44.9425 4.5515 44.9425H3.3895V43.9345H4.4675Z" fill="#545454"/>
<path d="M5.9795 13V11.082H1.1635V10.046L5.3915 3.228H7.0995V10.116H8.5555V11.082H7.0995V13H5.9795ZM2.2135 10.116H5.9795V4.138H5.9235L2.2135 10.116Z" fill="#545454"/>
<path d="M17.047 170.606C16.1697 170.606 15.451 170.447 14.891 170.129C14.331 169.803 13.869 169.387 13.505 168.883L14.359 168.183C14.7417 168.659 15.143 169.014 15.563 169.247C15.9923 169.481 16.501 169.597 17.089 169.597C17.7983 169.597 18.3397 169.434 18.713 169.107C19.0863 168.781 19.273 168.323 19.273 167.735C19.273 167.259 19.1377 166.891 18.867 166.629C18.5963 166.359 18.125 166.167 17.453 166.055L16.361 165.873C15.885 165.789 15.4837 165.663 15.157 165.495C14.8397 165.327 14.583 165.127 14.387 164.893C14.191 164.651 14.051 164.389 13.967 164.109C13.883 163.82 13.841 163.521 13.841 163.213C13.841 162.317 14.135 161.641 14.723 161.183C15.311 160.726 16.1043 160.497 17.103 160.497C17.887 160.497 18.545 160.628 19.077 160.889C19.6183 161.151 20.0523 161.519 20.379 161.995L19.553 162.709C19.2823 162.355 18.9557 162.065 18.573 161.841C18.1903 161.617 17.6957 161.505 17.089 161.505C16.4263 161.505 15.9177 161.645 15.563 161.925C15.2083 162.205 15.031 162.625 15.031 163.185C15.031 163.624 15.1617 163.983 15.423 164.263C15.6937 164.534 16.1743 164.73 16.865 164.851L17.915 165.033C18.391 165.117 18.7923 165.243 19.119 165.411C19.4457 165.579 19.707 165.78 19.903 166.013C20.1083 166.247 20.253 166.508 20.337 166.797C20.421 167.087 20.463 167.39 20.463 167.707C20.463 168.613 20.1643 169.322 19.567 169.835C18.979 170.349 18.139 170.606 17.047 170.606Z" fill="#545454"/>
<path d="M55.8075 165.537V162.443H55.6955L53.6375 167.469L51.5795 162.443H51.4675V165.537V170.438H50.3895V160.665H51.9015L53.6235 164.977H53.7075L55.4295 160.665H56.8855V170.438H55.8075V165.537Z" fill="#545454"/>
<path d="M90.788 161.688V170.438H89.612V161.688H86.35V160.665H94.05V161.688H90.788Z" fill="#545454"/>
<path d="M123.823 170.438L123.053 160.665H124.103L124.509 166.265L124.719 169.219H124.831L126.119 163.213H127.435L128.723 169.219H128.835L129.045 166.265L129.451 160.665H130.472L129.703 170.438H128.009L126.819 164.599H126.707L125.517 170.438H123.823Z" fill="#545454"/>
<path d="M163.913 161.688V170.438H162.737V161.688H159.475V160.665H167.175V161.688H163.913Z" fill="#545454"/>
<path d="M196.948 170.438V160.665H203.108V161.688H198.124V164.977H202.688V165.999H198.124V170.438H196.948Z" fill="#545454"/>
<path d="M236.422 170.606C235.545 170.606 234.826 170.447 234.266 170.129C233.706 169.803 233.244 169.387 232.88 168.883L233.734 168.183C234.117 168.659 234.518 169.014 234.938 169.247C235.367 169.481 235.876 169.597 236.464 169.597C237.173 169.597 237.715 169.434 238.088 169.107C238.461 168.781 238.648 168.323 238.648 167.735C238.648 167.259 238.513 166.891 238.242 166.629C237.971 166.359 237.5 166.167 236.828 166.055L235.736 165.873C235.26 165.789 234.859 165.663 234.532 165.495C234.215 165.327 233.958 165.127 233.762 164.893C233.566 164.651 233.426 164.389 233.342 164.109C233.258 163.82 233.216 163.521 233.216 163.213C233.216 162.317 233.51 161.641 234.098 161.183C234.686 160.726 235.479 160.497 236.478 160.497C237.262 160.497 237.92 160.628 238.452 160.889C238.993 161.151 239.427 161.519 239.754 161.995L238.928 162.709C238.657 162.355 238.331 162.065 237.948 161.841C237.565 161.617 237.071 161.505 236.464 161.505C235.801 161.505 235.293 161.645 234.938 161.925C234.583 162.205 234.406 162.625 234.406 163.185C234.406 163.624 234.537 163.983 234.798 164.263C235.069 164.534 235.549 164.73 236.24 164.851L237.29 165.033C237.766 165.117 238.167 165.243 238.494 165.411C238.821 165.579 239.082 165.78 239.278 166.013C239.483 166.247 239.628 166.508 239.712 166.797C239.796 167.087 239.838 167.39 239.838 167.707C239.838 168.613 239.539 169.322 238.942 169.835C238.354 170.349 237.514 170.606 236.422 170.606Z" fill="#545454"/>
<rect width="35.75" height="35.75" transform="matrix(-1 0 0 1 158.312 110.688)" fill="#81CFFA"/>
<line y1="-0.5" x2="35.75" y2="-0.5" transform="matrix(-1 0 0 1 158.312 110.688)" stroke="black"/>
<line y1="-0.5" x2="35.75" y2="-0.5" transform="matrix(-1 0 0 1 121.75 74.125)" stroke="black"/>
<line y1="-0.5" x2="35.75" y2="-0.5" transform="matrix(-1 0 0 1 85.1875 1)" stroke="black"/>
<line y1="-0.5" x2="35.75" y2="-0.5" transform="matrix(-1 0 0 1 48.625 1)" stroke="black"/>
<rect width="35.75" height="35.75" transform="matrix(-1 0 0 1 121.75 110.688)" fill="#81CFFA"/>
<rect width="35.75" height="35.75" transform="matrix(-1 0 0 1 121.75 74.125)" fill="#E3C878"/>
<rect width="35.75" height="35.75" transform="matrix(-1 0 0 1 85.1875 110.688)" fill="#81CFFA"/>
<rect width="35.75" height="35.75" transform="matrix(-1 0 0 1 85.1875 74.125)" fill="#E3C878"/>
<rect width="35.75" height="35.75" transform="matrix(-1 0 0 1 85.1875 37.5625)" fill="#E688A1"/>
<rect width="35.75" height="35.75" transform="matrix(-1 0 0 1 48.625 37.5625)" fill="#E688A1"/>
<rect width="35.75" height="35.75" transform="matrix(-1 0 0 1 85.1875 1)" fill="#BBEAA6"/>
<rect width="35.75" height="35.75" transform="matrix(-1 0 0 1 48.625 1)" fill="#ED9A73"/>
<rect width="35.75" height="35.75" transform="matrix(-1 0 0 1 48.625 110.688)" fill="#81CFFA"/>
<rect width="35.75" height="35.75" transform="matrix(-1 0 0 1 48.625 74.125)" fill="#E3C878"/>
<line x1="0.6875" y1="146.75" x2="281" y2="146.75" stroke="#828180"/>
</svg>
