<svg width="280" height="152" viewBox="0 0 280 152" fill="none" xmlns="http://www.w3.org/2000/svg">
<g clip-path="url(#clip0)">
<path d="M6.08696 12.9854C9.44869 12.9854 12.1739 10.2602 12.1739 6.89848C12.1739 3.53675 9.44869 0.811523 6.08696 0.811523C2.72522 0.811523 0 3.53675 0 6.89848C0 10.2602 2.72522 12.9854 6.08696 12.9854Z" fill="#81CFFA"/>
<path d="M26.4386 6.76692H30.3245V6.06246H26.4386V2.57422H30.7108V1.8584H25.6318V10.5506H26.4386V6.76692ZM32.5891 10.5506H38.1793V9.83475H33.3958V6.4715H37.7135V5.76704H33.3958V2.57422H38.1339V1.8584H32.5891V10.5506ZM42.6515 10.5506H43.5491L46.7533 1.8584H45.9465L43.4695 8.6417C43.2196 9.32344 43.1173 9.75521 43.1173 9.75521H43.0946C43.0946 9.75521 43.0037 9.32344 42.7537 8.63034L40.2881 1.8584H39.4359L42.6515 10.5506ZM48.4009 10.5506H53.9911V9.83475H49.2076V6.4715H53.5253V5.76704H49.2076V2.57422H53.9457V1.8584H48.4009V10.5506ZM56.9193 6.17608V2.54014H59.2258C60.4302 2.54014 61.2142 3.14234 61.2142 4.28993C61.2142 5.63069 60.3166 6.17608 59.2031 6.17608H56.9193ZM61.1915 10.5506H62.1232L60.1462 6.73283V6.71011C61.112 6.4715 62.0437 5.74431 62.0437 4.27857C62.0437 3.27869 61.6006 2.61967 60.9302 2.24472C60.4416 1.98338 59.8508 1.8584 59.2258 1.8584H56.1126V10.5506H56.9193V6.84646H59.3054L61.1915 10.5506Z" fill="black"/>
<path d="M216.612 10.9563V9.39965H212.704V8.55884L216.135 3.02539H217.521V8.61565H218.703V9.39965H217.521V10.9563H216.612ZM213.556 8.61565H216.612V3.76394H216.567L213.556 8.61565Z" fill="black"/>
<path d="M231.304 6.89844L235.362 10.9564L239.42 6.89844" stroke="#2A6D0C" stroke-linecap="round" stroke-linejoin="round"/>
<path d="M235.362 2.84082V10.9568" stroke="#2A6D0C" stroke-linecap="round" stroke-linejoin="round"/>
<path d="M244.466 10.9569V10.1274H246.739V3.73046H246.659L244.659 5.59388L244.103 4.99168L246.205 3.026H247.693V10.1274H249.784V10.9569H244.466ZM253.722 11.0592C253.412 11.0592 253.192 10.9948 253.063 10.866C252.942 10.7372 252.882 10.5744 252.882 10.3774V10.1729C252.882 9.97592 252.942 9.81312 253.063 9.68432C253.192 9.55552 253.412 9.49116 253.722 9.49116C254.033 9.49116 254.249 9.55552 254.37 9.68432C254.499 9.81312 254.563 9.97592 254.563 10.1729V10.3774C254.563 10.5744 254.499 10.7372 254.37 10.866C254.249 10.9948 254.033 11.0592 253.722 11.0592ZM263.228 10.9569H257.933V9.97974L260.58 7.59365C260.967 7.24521 261.285 6.88918 261.535 6.52559C261.785 6.15442 261.91 5.76432 261.91 5.35527V5.21892C261.91 4.74171 261.785 4.37432 261.535 4.11678C261.285 3.85166 260.914 3.7191 260.421 3.7191C259.937 3.7191 259.562 3.84408 259.296 4.09405C259.039 4.33645 258.846 4.66217 258.717 5.07121L257.865 4.75307C257.941 4.51825 258.043 4.291 258.172 4.07133C258.308 3.84408 258.478 3.64335 258.683 3.46913C258.887 3.2949 259.134 3.15477 259.421 3.04872C259.717 2.94267 260.058 2.88965 260.444 2.88965C260.838 2.88965 261.187 2.94646 261.489 3.06008C261.8 3.17371 262.057 3.33278 262.262 3.5373C262.475 3.74182 262.634 3.98422 262.739 4.26449C262.853 4.54476 262.91 4.85154 262.91 5.18484C262.91 5.48783 262.864 5.77189 262.773 6.03701C262.69 6.30213 262.569 6.55589 262.41 6.79829C262.259 7.04069 262.073 7.27929 261.853 7.51411C261.641 7.74136 261.402 7.96861 261.137 8.19585L258.921 10.1274H263.228V10.9569ZM267.007 6.38924C267.56 6.38924 267.973 6.26805 268.246 6.02565C268.526 5.77568 268.666 5.45753 268.666 5.07121V4.99168C268.666 4.56748 268.53 4.24934 268.257 4.03724C267.992 3.82515 267.644 3.7191 267.212 3.7191C266.787 3.7191 266.443 3.81379 266.178 4.00316C265.921 4.18495 265.708 4.42735 265.542 4.73034L264.826 4.18495C264.924 4.02588 265.046 3.8706 265.189 3.7191C265.333 3.56003 265.5 3.41989 265.689 3.29869C265.887 3.1775 266.11 3.07902 266.36 3.00327C266.617 2.92753 266.909 2.88965 267.235 2.88965C267.575 2.88965 267.894 2.9351 268.189 3.026C268.484 3.10932 268.742 3.23809 268.962 3.41232C269.182 3.57896 269.352 3.78727 269.473 4.03724C269.602 4.28721 269.666 4.57127 269.666 4.88942C269.666 5.14696 269.625 5.378 269.541 5.58252C269.466 5.78704 269.355 5.96505 269.212 6.11655C269.075 6.26805 268.912 6.39682 268.723 6.50287C268.534 6.60892 268.333 6.68845 268.121 6.74147V6.78692C268.341 6.83237 268.553 6.90812 268.757 7.01417C268.962 7.11264 269.143 7.24521 269.303 7.41185C269.462 7.57092 269.587 7.76787 269.677 8.00269C269.776 8.22994 269.825 8.49127 269.825 8.78669C269.825 9.12756 269.757 9.44189 269.621 9.72976C269.492 10.01 269.307 10.2524 269.064 10.457C268.829 10.6539 268.541 10.8092 268.2 10.9228C267.867 11.0364 267.496 11.0932 267.087 11.0932C266.739 11.0932 266.428 11.0553 266.155 10.9796C265.89 10.9039 265.651 10.8016 265.439 10.6728C265.235 10.544 265.053 10.4001 264.894 10.2411C264.742 10.082 264.606 9.91538 264.485 9.74113L265.201 9.19574C265.307 9.35481 265.417 9.4987 265.53 9.6275C265.644 9.7563 265.773 9.86993 265.917 9.96837C266.068 10.0593 266.239 10.1313 266.428 10.1843C266.617 10.2373 266.837 10.2638 267.087 10.2638C267.648 10.2638 268.075 10.135 268.371 9.87748C268.674 9.61996 268.825 9.25255 268.825 8.77533V8.68443C268.825 8.21476 268.678 7.85119 268.382 7.59365C268.094 7.33611 267.659 7.20733 267.076 7.20733H266.132V6.38924H267.007ZM272.672 6.91191C272.172 6.91191 271.763 6.74527 271.445 6.41197C271.135 6.0711 270.979 5.56737 270.979 4.90078C270.979 4.23419 271.135 3.73425 271.445 3.40095C271.763 3.06008 272.172 2.88965 272.672 2.88965C273.172 2.88965 273.578 3.06008 273.888 3.40095C274.206 3.73425 274.365 4.23419 274.365 4.90078C274.365 5.56737 274.206 6.0711 273.888 6.41197C273.578 6.74527 273.172 6.91191 272.672 6.91191ZM272.672 6.29834C272.945 6.29834 273.165 6.20366 273.331 6.01429C273.506 5.82492 273.593 5.54843 273.593 5.18484V4.61672C273.593 4.25313 273.506 3.97664 273.331 3.78727C273.165 3.5979 272.945 3.50321 272.672 3.50321C272.4 3.50321 272.176 3.5979 272.002 3.78727C271.836 3.97664 271.752 4.25313 271.752 4.61672V5.18484C271.752 5.54843 271.836 5.82492 272.002 6.01429C272.176 6.20366 272.4 6.29834 272.672 6.29834ZM276.547 3.026H277.365L275.547 6.43469H274.729L276.547 3.026ZM272.775 7.5482H273.593L271.775 10.9569H270.957L272.775 7.5482ZM275.649 11.0932C275.149 11.0932 274.74 10.9266 274.422 10.5933C274.112 10.2524 273.956 9.74867 273.956 9.08211C273.956 8.41555 274.112 7.91558 274.422 7.58229C274.74 7.24142 275.149 7.07098 275.649 7.07098C276.149 7.07098 276.555 7.24142 276.865 7.58229C277.183 7.91558 277.342 8.41555 277.342 9.08211C277.342 9.74867 277.183 10.2524 276.865 10.5933C276.555 10.9266 276.149 11.0932 275.649 11.0932ZM275.649 10.4797C275.922 10.4797 276.142 10.385 276.308 10.1956C276.483 10.0063 276.57 9.72976 276.57 9.36617V8.79805C276.57 8.43446 276.483 8.15795 276.308 7.96861C276.142 7.77924 275.922 7.68455 275.649 7.68455C275.377 7.68455 275.153 7.77924 274.979 7.96861C274.812 8.15795 274.729 8.43446 274.729 8.79805V9.36617C274.729 9.72976 274.812 10.0063 274.979 10.1956C275.153 10.385 275.377 10.4797 275.649 10.4797Z" fill="#2A6D0C"/>
<path d="M0 25.5654H280" stroke="#EDEDED"/>
<path d="M6.08696 47.0723C9.44869 47.0723 12.1739 44.3471 12.1739 40.9854C12.1739 37.6237 9.44869 34.8984 6.08696 34.8984C2.72522 34.8984 0 37.6237 0 40.9854C0 44.3471 2.72522 47.0723 6.08696 47.0723Z" fill="#E3C878"/>
<path d="M25.6318 44.6381H28.3929C30.6767 44.6381 32.472 43.286 32.472 40.2068C32.472 37.1503 30.6313 35.9459 28.3361 35.9459H25.6318V44.6381ZM26.4386 43.9336V36.6504H28.3474C30.1881 36.6504 31.6311 37.6275 31.6311 40.2409C31.6311 43.036 30.1995 43.9336 28.3133 43.9336H26.4386ZM35.3265 40.2636V36.6277H37.633C38.8375 36.6277 39.6214 37.2299 39.6214 38.3775C39.6214 39.7182 38.7238 40.2636 37.6103 40.2636H35.3265ZM39.5987 44.6381H40.5304L38.5534 40.8204V40.7976C39.5192 40.559 40.4509 39.8318 40.4509 38.3661C40.4509 37.3662 40.0078 36.7072 39.3374 36.3322C38.8488 36.0709 38.258 35.9459 37.633 35.9459H34.5198V44.6381H35.3265V40.934H37.7126L39.5987 44.6381ZM44.4077 44.6381H45.2145V40.7863L48.305 35.9459H47.4301L44.8282 40.0932H44.8054L42.2489 35.9459H41.3172L44.4077 40.8317V44.6381ZM56.0688 36.4686C57.705 36.4686 58.3981 37.4912 58.5231 38.4456H59.3525C59.1594 36.5254 57.5459 35.8096 56.0688 35.8096C53.8872 35.8096 52.2283 37.4571 52.2283 40.3204C52.2283 43.411 53.8532 44.8199 56.0347 44.8199C57.9777 44.8199 59.2162 43.6723 59.3525 42.1157H58.5458C58.4322 43.1042 57.7504 44.1495 56.1029 44.1495C54.1486 44.1495 53.0919 42.6497 53.0919 40.3204C53.0919 38.0934 54.1031 36.4686 56.0688 36.4686ZM60.9498 40.3318C60.9498 43.4678 62.7337 44.8199 64.7903 44.8199C66.8469 44.8199 68.6535 43.4678 68.6535 40.3318C68.6535 37.173 66.8355 35.8209 64.7903 35.8209C62.7678 35.8209 60.9498 37.173 60.9498 40.3318ZM64.7903 44.1722C63.0405 44.1722 61.7906 42.8656 61.7906 40.3318C61.7906 37.7525 63.0632 36.4686 64.7903 36.4686C66.5401 36.4686 67.8127 37.7866 67.8127 40.3318C67.8127 42.8542 66.5287 44.1722 64.7903 44.1722ZM70.567 41.7407C70.567 43.9336 71.8509 44.8085 73.7939 44.8085C75.7141 44.8085 77.0094 43.9223 77.0094 41.7407V35.9459H76.214V40.8999C76.214 41.7634 76.2254 42.7747 75.7595 43.3655C75.3278 43.9109 74.6688 44.1495 73.8166 44.1495C72.9644 44.1495 72.294 43.9109 71.8509 43.3655C71.3851 42.7747 71.3851 41.7634 71.3851 40.8999V35.9459H70.567V41.7407ZM82.8119 36.4686C84.0845 36.4686 85.0389 37.1503 85.2548 38.2525H86.0843C85.8684 36.7867 84.6412 35.8209 82.8119 35.8209C80.6073 35.8209 78.9143 37.423 78.9143 40.3318C78.9143 43.5132 80.63 44.8199 82.7096 44.8199C84.2549 44.8199 85.1298 44.0813 85.5275 43.2632H85.5616V44.6381H86.2888V40.3431H82.846V41.059H85.5048V41.5248C85.5048 43.0928 84.4822 44.1609 82.7778 44.1609C80.8686 44.1609 79.7551 42.7406 79.7551 40.3772C79.7551 38.0366 80.8459 36.4686 82.8119 36.4686ZM89.5197 40.559H94.4055V44.6381H95.2122V35.9459H94.4055V39.8546H89.5197V35.9459H88.713V44.6381H89.5197V40.559Z" fill="black"/>
<path d="M215.385 40.4762C215.938 40.4762 216.351 40.355 216.623 40.1126C216.904 39.8626 217.044 39.5444 217.044 39.1581V39.0786C217.044 38.6544 216.907 38.3362 216.635 38.1242C216.37 37.9121 216.021 37.806 215.589 37.806C215.166 37.806 214.821 37.9007 214.555 38.0901C214.298 38.2719 214.086 38.5143 213.919 38.8173L213.203 38.2719C213.302 38.1128 213.423 37.9575 213.567 37.806C213.711 37.6469 213.878 37.5068 214.067 37.3856C214.264 37.2644 214.487 37.1659 214.737 37.0902C214.995 37.0145 215.287 36.9766 215.612 36.9766C215.953 36.9766 216.271 37.022 216.566 37.1129C216.862 37.1963 217.12 37.325 217.339 37.4992C217.559 37.6658 217.729 37.8742 217.85 38.1242C217.979 38.3741 218.044 38.6582 218.044 38.9763C218.044 39.2338 218.002 39.4649 217.919 39.6694C217.843 39.874 217.733 40.0519 217.589 40.2035C217.453 40.355 217.29 40.4837 217.1 40.5898C216.911 40.6959 216.711 40.7754 216.498 40.8284V40.8738C216.718 40.9193 216.93 40.995 217.135 41.1011C217.339 41.1995 217.521 41.3321 217.68 41.4988C217.839 41.6578 217.964 41.8548 218.055 42.0896C218.154 42.3169 218.203 42.5782 218.203 42.8736C218.203 43.2145 218.134 43.5288 217.998 43.8167C217.87 44.0969 217.684 44.3393 217.441 44.5439C217.207 44.7408 216.919 44.8961 216.578 45.0097C216.245 45.1233 215.873 45.1802 215.464 45.1802C215.116 45.1802 214.805 45.1423 214.533 45.0665C214.268 44.9908 214.029 44.8885 213.817 44.7597C213.612 44.6309 213.43 44.4871 213.271 44.328C213.12 44.1689 212.984 44.0023 212.862 43.828L213.578 43.2826C213.684 43.4417 213.794 43.5856 213.908 43.7144C214.021 43.8432 214.15 43.9568 214.294 44.0553C214.446 44.1462 214.616 44.2182 214.805 44.2712C214.995 44.3242 215.214 44.3507 215.464 44.3507C216.025 44.3507 216.453 44.2219 216.748 43.9644C217.052 43.7069 217.203 43.3395 217.203 42.8622V42.7713C217.203 42.3017 217.055 41.9381 216.76 41.6806C216.472 41.423 216.036 41.2942 215.453 41.2942H214.51V40.4762H215.385Z" fill="black"/>
<path d="M239.42 40.9857L235.362 36.9277L231.304 40.9857" stroke="#CC3232" stroke-linecap="round" stroke-linejoin="round"/>
<path d="M235.362 45.0437V36.9277" stroke="#CC3232" stroke-linecap="round" stroke-linejoin="round"/>
<path d="M249.602 45.0438H244.307V44.0666L246.954 41.6806C247.341 41.3321 247.659 40.9761 247.909 40.6125C248.159 40.2414 248.284 39.8512 248.284 39.4422V39.3058C248.284 38.8286 248.159 38.4612 247.909 38.2037C247.659 37.9385 247.288 37.806 246.795 37.806C246.311 37.806 245.936 37.931 245.67 38.181C245.413 38.4234 245.22 38.7491 245.091 39.1581L244.239 38.84C244.315 38.6052 244.417 38.3779 244.546 38.1582C244.682 37.931 244.852 37.7303 245.057 37.556C245.261 37.3818 245.508 37.2417 245.795 37.1356C246.091 37.0296 246.432 36.9766 246.818 36.9766C247.212 36.9766 247.561 37.0334 247.863 37.147C248.174 37.2606 248.431 37.4197 248.636 37.6242C248.849 37.8287 249.008 38.0712 249.113 38.3514C249.227 38.6316 249.284 38.9384 249.284 39.2717C249.284 39.5747 249.238 39.8588 249.147 40.1239C249.064 40.3891 248.943 40.6428 248.784 40.8852C248.633 41.1276 248.447 41.3662 248.227 41.601C248.015 41.8283 247.776 42.0555 247.511 42.2828L245.295 44.2144H249.602V45.0438ZM253.722 45.1461C253.411 45.1461 253.192 45.0817 253.063 44.9529C252.942 44.8241 252.881 44.6613 252.881 44.4643V44.2598C252.881 44.0628 252.942 43.9 253.063 43.7712C253.192 43.6424 253.411 43.5781 253.722 43.5781C254.033 43.5781 254.249 43.6424 254.37 43.7712C254.499 43.9 254.563 44.0628 254.563 44.2598V44.4643C254.563 44.6613 254.499 44.8241 254.37 44.9529C254.249 45.0817 254.033 45.1461 253.722 45.1461ZM260.194 40.4762C260.747 40.4762 261.16 40.355 261.432 40.1126C261.713 39.8626 261.853 39.5444 261.853 39.1581V39.0786C261.853 38.6544 261.716 38.3362 261.444 38.1242C261.179 37.9121 260.83 37.806 260.398 37.806C259.975 37.806 259.63 37.9007 259.364 38.0901C259.107 38.2719 258.895 38.5143 258.728 38.8173L258.012 38.2719C258.111 38.1128 258.232 37.9575 258.376 37.806C258.52 37.6469 258.687 37.5068 258.876 37.3856C259.073 37.2644 259.296 37.1659 259.546 37.0902C259.804 37.0145 260.096 36.9766 260.421 36.9766C260.762 36.9766 261.08 37.022 261.376 37.1129C261.671 37.1963 261.929 37.325 262.148 37.4992C262.368 37.6658 262.539 37.8742 262.66 38.1242C262.789 38.3741 262.853 38.6582 262.853 38.9763C262.853 39.2338 262.811 39.4649 262.728 39.6694C262.652 39.874 262.543 40.0519 262.398 40.2035C262.262 40.355 262.1 40.4837 261.91 40.5898C261.72 40.6959 261.52 40.7754 261.307 40.8284V40.8738C261.527 40.9193 261.739 40.995 261.944 41.1011C262.148 41.1995 262.33 41.3321 262.489 41.4988C262.648 41.6578 262.773 41.8548 262.864 42.0896C262.963 42.3169 263.012 42.5782 263.012 42.8736C263.012 43.2145 262.944 43.5288 262.807 43.8167C262.679 44.0969 262.493 44.3393 262.25 44.5439C262.016 44.7408 261.728 44.8961 261.387 45.0097C261.054 45.1233 260.682 45.1802 260.273 45.1802C259.925 45.1802 259.614 45.1423 259.342 45.0665C259.077 44.9908 258.839 44.8885 258.626 44.7597C258.421 44.6309 258.24 44.4871 258.081 44.328C257.93 44.1689 257.793 44.0023 257.671 43.828L258.387 43.2826C258.494 43.4417 258.603 43.5856 258.717 43.7144C258.83 43.8432 258.959 43.9568 259.103 44.0553C259.255 44.1462 259.425 44.2182 259.614 44.2712C259.804 44.3242 260.023 44.3507 260.273 44.3507C260.834 44.3507 261.262 44.2219 261.557 43.9644C261.861 43.7069 262.012 43.3395 262.012 42.8622V42.7713C262.012 42.3017 261.864 41.9381 261.569 41.6806C261.281 41.423 260.846 41.2942 260.262 41.2942H259.319V40.4762H260.194ZM268.234 45.0438V43.4872H264.326V42.6464L267.757 37.1129H269.143V42.7032H270.325V43.4872H269.143V45.0438H268.234ZM265.178 42.7032H268.234V37.8515H268.189L265.178 42.7032ZM272.672 40.9988C272.172 40.9988 271.763 40.8322 271.445 40.4989C271.135 40.158 270.979 39.6543 270.979 38.9877C270.979 38.3211 271.135 37.8212 271.445 37.4879C271.763 37.147 272.172 36.9766 272.672 36.9766C273.172 36.9766 273.578 37.147 273.888 37.4879C274.206 37.8212 274.365 38.3211 274.365 38.9877C274.365 39.6543 274.206 40.158 273.888 40.4989C273.578 40.8322 273.172 40.9988 272.672 40.9988ZM272.672 40.3853C272.945 40.3853 273.165 40.2905 273.331 40.1012C273.506 39.9119 273.593 39.6353 273.593 39.2717V38.7036C273.593 38.34 273.506 38.0635 273.331 37.8742C273.165 37.6848 272.945 37.5901 272.672 37.5901C272.399 37.5901 272.176 37.6848 272.002 37.8742C271.835 38.0635 271.752 38.34 271.752 38.7036V39.2717C271.752 39.6353 271.835 39.9119 272.002 40.1012C272.176 40.2905 272.399 40.3853 272.672 40.3853ZM276.547 37.1129H277.365L275.547 40.5216H274.729L276.547 37.1129ZM272.774 41.6351H273.593L271.775 45.0438H270.956L272.774 41.6351ZM275.649 45.1802C275.149 45.1802 274.74 45.0135 274.422 44.6802C274.112 44.3393 273.956 43.8356 273.956 43.169C273.956 42.5025 274.112 42.0025 274.422 41.6692C274.74 41.3283 275.149 41.1579 275.649 41.1579C276.149 41.1579 276.555 41.3283 276.865 41.6692C277.183 42.0025 277.342 42.5025 277.342 43.169C277.342 43.8356 277.183 44.3393 276.865 44.6802C276.555 45.0135 276.149 45.1802 275.649 45.1802ZM275.649 44.5666C275.922 44.5666 276.142 44.4719 276.308 44.2825C276.483 44.0932 276.569 43.8167 276.569 43.4531V42.885C276.569 42.5214 276.483 42.2449 276.308 42.0555C276.142 41.8662 275.922 41.7715 275.649 41.7715C275.376 41.7715 275.153 41.8662 274.979 42.0555C274.812 42.2449 274.729 42.5214 274.729 42.885V43.4531C274.729 43.8167 274.812 44.0932 274.979 44.2825C275.153 44.4719 275.376 44.5666 275.649 44.5666Z" fill="#CC3232"/>
<path d="M0 59.6523H280" stroke="#EDEDED"/>
<path d="M6.08696 81.1593C9.44869 81.1593 12.1739 78.434 12.1739 75.0723C12.1739 71.7106 9.44869 68.9854 6.08696 68.9854C2.72522 68.9854 0 71.7106 0 75.0723C0 78.434 2.72522 81.1593 6.08696 81.1593Z" fill="#E688A1"/>
<path d="M31.3582 72.3501C31.3014 70.8617 30.2901 69.9072 28.5176 69.9072C26.8133 69.9072 25.5975 70.8389 25.5975 72.2706C25.5975 73.4864 26.177 74.2704 27.8813 74.5771L29.2789 74.8271C30.4037 75.0316 30.8014 75.5429 30.8014 76.3724C30.8014 77.3723 30.1651 78.2472 28.4835 78.2472C26.8473 78.2472 26.177 77.2586 26.052 76.3042H25.2339C25.3361 77.6677 26.4724 78.9062 28.4721 78.9062C30.506 78.9062 31.6195 77.8381 31.6195 76.3042C31.6195 75.0884 30.8923 74.3158 29.4493 74.0545L27.9949 73.7931C26.8587 73.5886 26.4269 73.1568 26.4269 72.2251C26.4269 71.1912 27.2564 70.5549 28.5176 70.5549C29.9606 70.5549 30.4719 71.3843 30.5628 72.3501H31.3582ZM34.5273 74.6453H39.4131V78.7244H40.2198V70.0322H39.4131V73.9409H34.5273V70.0322H33.7206V78.7244H34.5273V74.6453ZM42.2861 74.4181C42.2861 77.5541 44.0699 78.9062 46.1265 78.9062C48.1831 78.9062 49.9897 77.5541 49.9897 74.4181C49.9897 71.2593 48.1717 69.9072 46.1265 69.9072C44.104 69.9072 42.2861 71.2593 42.2861 74.4181ZM46.1265 78.2585C44.3767 78.2585 43.1269 76.9519 43.1269 74.4181C43.1269 71.8388 44.3994 70.5549 46.1265 70.5549C47.8763 70.5549 49.1489 71.8729 49.1489 74.4181C49.1489 76.9405 47.865 78.2585 46.1265 78.2585ZM52.869 74.3499V70.7139H55.1755C56.38 70.7139 57.164 71.3162 57.164 72.4637C57.164 73.8045 56.2663 74.3499 55.1528 74.3499H52.869ZM57.1412 78.7244H58.0729L56.0959 74.9066V74.8839C57.0617 74.6453 57.9934 73.9181 57.9934 72.4524C57.9934 71.4525 57.5503 70.7935 56.8799 70.4185C56.3913 70.1572 55.8005 70.0322 55.1755 70.0322H52.0623V78.7244H52.869V75.0203H55.2551L57.1412 78.7244ZM66.1049 70.0322H59.0602V70.7367H62.1735V78.7244H62.9802V70.7367H66.1049V70.0322ZM67.6189 78.7244H68.4029V71.1344H68.4256C68.4256 71.1344 68.562 71.4184 68.8347 71.8502L73.1524 78.7244H74.1636V70.0322H73.3796V77.6336H73.3569C73.3569 77.6336 73.2319 77.3495 72.9706 76.9291L68.6188 70.0322H67.6189V78.7244ZM76.7176 78.7244H82.3076V78.0086H77.5243V74.6453H81.8418V73.9409H77.5243V70.748H82.2622V70.0322H76.7176V78.7244ZM89.9894 72.3501C89.9326 70.8617 88.9213 69.9072 87.1488 69.9072C85.4444 69.9072 84.2287 70.8389 84.2287 72.2706C84.2287 73.4864 84.8082 74.2704 86.5125 74.5771L87.9101 74.8271C89.0349 75.0316 89.4326 75.5429 89.4326 76.3724C89.4326 77.3723 88.7963 78.2472 87.1147 78.2472C85.4785 78.2472 84.8082 77.2586 84.6832 76.3042H83.8651C83.9673 77.6677 85.1036 78.9062 87.1033 78.9062C89.1372 78.9062 90.2507 77.8381 90.2507 76.3042C90.2507 75.0884 89.5235 74.3158 88.0805 74.0545L86.6261 73.7931C85.4899 73.5886 85.0581 73.1568 85.0581 72.2251C85.0581 71.1912 85.8876 70.5549 87.1488 70.5549C88.5918 70.5549 89.1031 71.3843 89.194 72.3501H89.9894ZM97.9122 72.3501C97.8553 70.8617 96.8441 69.9072 95.0716 69.9072C93.3672 69.9072 92.1515 70.8389 92.1515 72.2706C92.1515 73.4864 92.7309 74.2704 94.4353 74.5771L95.8329 74.8271C96.9577 75.0316 97.3554 75.5429 97.3554 76.3724C97.3554 77.3723 96.7191 78.2472 95.0375 78.2472C93.4013 78.2472 92.7309 77.2586 92.6059 76.3042H91.7879C91.8901 77.6677 93.0264 78.9062 95.0261 78.9062C97.06 78.9062 98.1735 77.8381 98.1735 76.3042C98.1735 75.0884 97.4463 74.3158 96.0033 74.0545L94.5489 73.7931C93.4127 73.5886 92.9809 73.1568 92.9809 72.2251C92.9809 71.1912 93.8104 70.5549 95.0716 70.5549C96.5146 70.5549 97.0259 71.3843 97.1168 72.3501H97.9122ZM102.782 74.4181C102.782 77.5541 104.566 78.9062 106.622 78.9062C108.679 78.9062 110.485 77.5541 110.485 74.4181C110.485 71.2593 108.667 69.9072 106.622 69.9072C104.6 69.9072 102.782 71.2593 102.782 74.4181ZM106.622 78.2585C104.872 78.2585 103.623 76.9519 103.623 74.4181C103.623 71.8388 104.895 70.5549 106.622 70.5549C108.372 70.5549 109.645 71.8729 109.645 74.4181C109.645 76.9405 108.361 78.2585 106.622 78.2585ZM113.364 74.9407H117.25V74.2363H113.364V70.748H117.636V70.0322H112.557V78.7244H113.364V74.9407ZM125.601 78.7244C127.34 78.7244 128.726 78.0881 128.726 76.2133C128.726 75.1566 127.999 74.2817 126.851 74.0999V74.0772C127.885 73.884 128.476 73.1796 128.476 72.1115C128.476 70.7026 127.317 70.0322 125.908 70.0322H122.522V78.7244H125.601ZM123.329 73.7591V70.7026H125.885C126.908 70.7026 127.635 71.1912 127.635 72.2138C127.635 73.4295 126.749 73.7591 125.783 73.7591H123.329ZM123.329 78.054V74.4408H125.715C126.999 74.4408 127.885 74.9748 127.885 76.2133C127.885 77.4859 127.067 78.054 125.567 78.054H123.329ZM131.528 74.3499V70.7139H133.835C135.039 70.7139 135.823 71.3162 135.823 72.4637C135.823 73.8045 134.926 74.3499 133.812 74.3499H131.528ZM135.801 78.7244H136.732L134.755 74.9066V74.8839C135.721 74.6453 136.653 73.9181 136.653 72.4524C136.653 71.4525 136.21 70.7935 135.539 70.4185C135.051 70.1572 134.46 70.0322 133.835 70.0322H130.722V78.7244H131.528V75.0203H133.914L135.801 78.7244ZM138.766 78.7244H144.356V78.0086H139.573V74.6453H143.891V73.9409H139.573V70.748H144.311V70.0322H138.766V78.7244ZM149.396 70.8162H149.418C149.418 70.8162 149.566 71.3502 149.759 71.8729L150.975 75.2248H147.805L149.032 71.8843C149.214 71.3843 149.373 70.873 149.396 70.8162ZM152.248 78.7244H153.1L149.896 70.0322H148.941L145.726 78.7244H146.532L147.566 75.8838H151.214L152.248 78.7244ZM160.232 70.0322H153.187V70.7367H156.301V78.7244H157.107V70.7367H160.232V70.0322ZM162.553 74.6453H167.439V78.7244H168.246V70.0322H167.439V73.9409H162.553V70.0322H161.746V78.7244H162.553V74.6453Z" fill="black"/>
<path d="M218.419 79.1307H213.124V78.1536L215.771 75.7675C216.158 75.4191 216.476 75.063 216.726 74.6994C216.976 74.3283 217.101 73.9381 217.101 73.5291V73.3928C217.101 72.9155 216.976 72.5481 216.726 72.2906C216.476 72.0255 216.105 71.8929 215.612 71.8929C215.128 71.8929 214.753 72.0179 214.487 72.2679C214.23 72.5103 214.037 72.836 213.908 73.245L213.056 72.9269C213.132 72.6921 213.234 72.4649 213.362 72.2452C213.499 72.0179 213.669 71.8172 213.874 71.643C214.078 71.4687 214.325 71.3286 214.612 71.2225C214.908 71.1165 215.249 71.0635 215.635 71.0635C216.029 71.0635 216.377 71.1203 216.68 71.2339C216.991 71.3475 217.248 71.5066 217.453 71.7111C217.666 71.9157 217.825 72.1581 217.93 72.4383C218.044 72.7186 218.101 73.0253 218.101 73.3587C218.101 73.6616 218.055 73.9457 217.964 74.2108C217.881 74.476 217.76 74.7297 217.601 74.9721C217.45 75.2145 217.264 75.4532 217.044 75.6879C216.832 75.9152 216.593 76.1424 216.328 76.3697L214.112 78.3013H218.419V79.1307Z" fill="black"/>
<path d="M239.42 75.0726L235.362 71.0146L231.304 75.0726" stroke="white" stroke-linecap="round" stroke-linejoin="round"/>
<path d="M235.362 79.1306V71.0146" stroke="white" stroke-linecap="round" stroke-linejoin="round"/>
<path d="M246.909 79.2671C246.424 79.2671 246.008 79.1762 245.659 78.9944C245.311 78.805 245.022 78.5361 244.795 78.1877C244.568 77.8392 244.402 77.4112 244.295 76.9037C244.19 76.3962 244.136 75.8167 244.136 75.1653C244.136 74.5214 244.19 73.9457 244.295 73.4382C244.402 72.9231 244.568 72.4913 244.795 72.1429C245.022 71.7945 245.311 71.5293 245.659 71.3475C246.008 71.1582 246.424 71.0635 246.909 71.0635C247.394 71.0635 247.81 71.1582 248.158 71.3475C248.507 71.5293 248.795 71.7945 249.022 72.1429C249.249 72.4913 249.416 72.9231 249.522 73.4382C249.628 73.9457 249.681 74.5214 249.681 75.1653C249.681 75.8167 249.628 76.3962 249.522 76.9037C249.416 77.4112 249.249 77.8392 249.022 78.1877C248.795 78.5361 248.507 78.805 248.158 78.9944C247.81 79.1762 247.394 79.2671 246.909 79.2671ZM246.909 78.4376C247.227 78.4376 247.499 78.377 247.727 78.2558C247.954 78.127 248.136 77.949 248.272 77.7218C248.417 77.4946 248.522 77.2219 248.59 76.9037C248.658 76.578 248.693 76.2144 248.693 75.8129V74.5176C248.693 74.1238 248.658 73.7639 248.59 73.4382C248.522 73.1125 248.417 72.836 248.272 72.6088C248.136 72.3815 247.954 72.2073 247.727 72.0861C247.499 71.9573 247.227 71.8929 246.909 71.8929C246.59 71.8929 246.318 71.9573 246.091 72.0861C245.863 72.2073 245.678 72.3815 245.534 72.6088C245.397 72.836 245.295 73.1125 245.227 73.4382C245.159 73.7639 245.125 74.1238 245.125 74.5176V75.8129C245.125 76.2144 245.159 76.578 245.227 76.9037C245.295 77.2219 245.397 77.4946 245.534 77.7218C245.678 77.949 245.863 78.127 246.091 78.2558C246.318 78.377 246.59 78.4376 246.909 78.4376ZM246.909 75.8357C246.644 75.8357 246.458 75.7827 246.352 75.6766C246.254 75.5705 246.204 75.4418 246.204 75.2903V75.0403C246.204 74.8888 246.254 74.76 246.352 74.654C246.458 74.5479 246.644 74.4949 246.909 74.4949C247.174 74.4949 247.356 74.5479 247.454 74.654C247.56 74.76 247.613 74.8888 247.613 75.0403V75.2903C247.613 75.4418 247.56 75.5705 247.454 75.6766C247.356 75.7827 247.174 75.8357 246.909 75.8357ZM253.722 79.233C253.411 79.233 253.192 79.1686 253.063 79.0398C252.942 78.911 252.881 78.7482 252.881 78.5513V78.3467C252.881 78.1498 252.942 77.9869 253.063 77.8581C253.192 77.7293 253.411 77.665 253.722 77.665C254.033 77.665 254.249 77.7293 254.37 77.8581C254.499 77.9869 254.563 78.1498 254.563 78.3467V78.5513C254.563 78.7482 254.499 78.911 254.37 79.0398C254.249 79.1686 254.033 79.233 253.722 79.233ZM260.534 79.2671C260.05 79.2671 259.634 79.1762 259.285 78.9944C258.936 78.805 258.648 78.5361 258.421 78.1877C258.194 77.8392 258.027 77.4112 257.921 76.9037C257.816 76.3962 257.762 75.8167 257.762 75.1653C257.762 74.5214 257.816 73.9457 257.921 73.4382C258.027 72.9231 258.194 72.4913 258.421 72.1429C258.648 71.7945 258.936 71.5293 259.285 71.3475C259.634 71.1582 260.05 71.0635 260.534 71.0635C261.02 71.0635 261.436 71.1582 261.784 71.3475C262.133 71.5293 262.421 71.7945 262.648 72.1429C262.875 72.4913 263.042 72.9231 263.148 73.4382C263.254 73.9457 263.307 74.5214 263.307 75.1653C263.307 75.8167 263.254 76.3962 263.148 76.9037C263.042 77.4112 262.875 77.8392 262.648 78.1877C262.421 78.5361 262.133 78.805 261.784 78.9944C261.436 79.1762 261.02 79.2671 260.534 79.2671ZM260.534 78.4376C260.853 78.4376 261.125 78.377 261.353 78.2558C261.58 78.127 261.762 77.949 261.898 77.7218C262.042 77.4946 262.148 77.2219 262.216 76.9037C262.284 76.578 262.318 76.2144 262.318 75.8129V74.5176C262.318 74.1238 262.284 73.7639 262.216 73.4382C262.148 73.1125 262.042 72.836 261.898 72.6088C261.762 72.3815 261.58 72.2073 261.353 72.0861C261.125 71.9573 260.853 71.8929 260.534 71.8929C260.216 71.8929 259.944 71.9573 259.716 72.0861C259.489 72.2073 259.304 72.3815 259.16 72.6088C259.023 72.836 258.921 73.1125 258.853 73.4382C258.785 73.7639 258.751 74.1238 258.751 74.5176V75.8129C258.751 76.2144 258.785 76.578 258.853 76.9037C258.921 77.2219 259.023 77.4946 259.16 77.7218C259.304 77.949 259.489 78.127 259.716 78.2558C259.944 78.377 260.216 78.4376 260.534 78.4376ZM260.534 75.8357C260.27 75.8357 260.084 75.7827 259.978 75.6766C259.88 75.5705 259.83 75.4418 259.83 75.2903V75.0403C259.83 74.8888 259.88 74.76 259.978 74.654C260.084 74.5479 260.27 74.4949 260.534 74.4949C260.8 74.4949 260.982 74.5479 261.08 74.654C261.186 74.76 261.239 74.8888 261.239 75.0403V75.2903C261.239 75.4418 261.186 75.5705 261.08 75.6766C260.982 75.7827 260.8 75.8357 260.534 75.8357ZM267.348 79.2671C266.863 79.2671 266.446 79.1762 266.098 78.9944C265.75 78.805 265.462 78.5361 265.234 78.1877C265.007 77.8392 264.841 77.4112 264.735 76.9037C264.628 76.3962 264.575 75.8167 264.575 75.1653C264.575 74.5214 264.628 73.9457 264.735 73.4382C264.841 72.9231 265.007 72.4913 265.234 72.1429C265.462 71.7945 265.75 71.5293 266.098 71.3475C266.446 71.1582 266.863 71.0635 267.348 71.0635C267.832 71.0635 268.25 71.1582 268.598 71.3475C268.946 71.5293 269.234 71.7945 269.461 72.1429C269.688 72.4913 269.855 72.9231 269.961 73.4382C270.067 73.9457 270.12 74.5214 270.12 75.1653C270.12 75.8167 270.067 76.3962 269.961 76.9037C269.855 77.4112 269.688 77.8392 269.461 78.1877C269.234 78.5361 268.946 78.805 268.598 78.9944C268.25 79.1762 267.832 79.2671 267.348 79.2671ZM267.348 78.4376C267.666 78.4376 267.939 78.377 268.166 78.2558C268.393 78.127 268.575 77.949 268.711 77.7218C268.855 77.4946 268.961 77.2219 269.029 76.9037C269.098 76.578 269.132 76.2144 269.132 75.8129V74.5176C269.132 74.1238 269.098 73.7639 269.029 73.4382C268.961 73.1125 268.855 72.836 268.711 72.6088C268.575 72.3815 268.393 72.2073 268.166 72.0861C267.939 71.9573 267.666 71.8929 267.348 71.8929C267.03 71.8929 266.757 71.9573 266.53 72.0861C266.303 72.2073 266.117 72.3815 265.973 72.6088C265.837 72.836 265.734 73.1125 265.666 73.4382C265.598 73.7639 265.564 74.1238 265.564 74.5176V75.8129C265.564 76.2144 265.598 76.578 265.666 76.9037C265.734 77.2219 265.837 77.4946 265.973 77.7218C266.117 77.949 266.303 78.127 266.53 78.2558C266.757 78.377 267.03 78.4376 267.348 78.4376ZM267.348 75.8357C267.082 75.8357 266.897 75.7827 266.791 75.6766C266.693 75.5705 266.643 75.4418 266.643 75.2903V75.0403C266.643 74.8888 266.693 74.76 266.791 74.654C266.897 74.5479 267.082 74.4949 267.348 74.4949C267.613 74.4949 267.795 74.5479 267.893 74.654C268 74.76 268.052 74.8888 268.052 75.0403V75.2903C268.052 75.4418 268 75.5705 267.893 75.6766C267.795 75.7827 267.613 75.8357 267.348 75.8357ZM272.672 75.0857C272.172 75.0857 271.763 74.9191 271.445 74.5858C271.135 74.2449 270.979 73.7412 270.979 73.0746C270.979 72.408 271.135 71.9081 271.445 71.5748C271.763 71.2339 272.172 71.0635 272.672 71.0635C273.172 71.0635 273.578 71.2339 273.888 71.5748C274.206 71.9081 274.365 72.408 274.365 73.0746C274.365 73.7412 274.206 74.2449 273.888 74.5858C273.578 74.9191 273.172 75.0857 272.672 75.0857ZM272.672 74.4722C272.945 74.4722 273.165 74.3775 273.331 74.1881C273.505 73.9988 273.592 73.7223 273.592 73.3587V72.7906C273.592 72.427 273.505 72.1504 273.331 71.9611C273.165 71.7718 272.945 71.677 272.672 71.677C272.399 71.677 272.176 71.7718 272.002 71.9611C271.835 72.1504 271.752 72.427 271.752 72.7906V73.3587C271.752 73.7223 271.835 73.9988 272.002 74.1881C272.176 74.3775 272.399 74.4722 272.672 74.4722ZM276.546 71.1998H277.365L275.547 74.6085H274.728L276.546 71.1998ZM272.774 75.722H273.592L271.774 79.1307H270.956L272.774 75.722ZM275.649 79.2671C275.149 79.2671 274.74 79.1005 274.422 78.7671C274.112 78.4263 273.956 77.9225 273.956 77.2559C273.956 76.5894 274.112 76.0894 274.422 75.7561C274.74 75.4153 275.149 75.2448 275.649 75.2448C276.149 75.2448 276.555 75.4153 276.865 75.7561C277.183 76.0894 277.342 76.5894 277.342 77.2559C277.342 77.9225 277.183 78.4263 276.865 78.7671C276.555 79.1005 276.149 79.2671 275.649 79.2671ZM275.649 78.6535C275.922 78.6535 276.141 78.5588 276.308 78.3694C276.482 78.1801 276.569 77.9036 276.569 77.54V76.9719C276.569 76.6083 276.482 76.3318 276.308 76.1424C276.141 75.9531 275.922 75.8584 275.649 75.8584C275.376 75.8584 275.153 75.9531 274.978 76.1424C274.812 76.3318 274.728 76.6083 274.728 76.9719V77.54C274.728 77.9036 274.812 78.1801 274.978 78.3694C275.153 78.5588 275.376 78.6535 275.649 78.6535Z" fill="#999999"/>
<path d="M0 93.7393H280" stroke="#EDEDED"/>
<path d="M6.08696 115.246C9.44869 115.246 12.1739 112.521 12.1739 109.159C12.1739 105.797 9.44869 103.072 6.08696 103.072C2.72522 103.072 0 105.797 0 109.159C0 112.521 2.72522 115.246 6.08696 115.246Z" fill="#BBEAA6"/>
<path d="M26.4386 109.028H30.3245V108.323H26.4386V104.835H30.7108V104.119H25.6318V112.811H26.4386V109.028ZM34.8851 104.903H34.9079C34.9079 104.903 35.0556 105.437 35.2487 105.96L36.4645 109.312H33.2944L34.5216 105.971C34.7034 105.471 34.8624 104.96 34.8851 104.903ZM37.7371 112.811H38.5893L35.3851 104.119H34.4307L31.2151 112.811H32.0218L33.0558 109.971H36.7031L37.7371 112.811ZM45.7217 104.119H38.6771V104.824H41.7904V112.811H42.5971V104.824H45.7217V104.119ZM47.2357 112.811H48.0425V104.119H47.2357V112.811ZM54.0174 104.642C55.29 104.642 56.2444 105.324 56.4603 106.426H57.2898C57.0739 104.96 55.8468 103.994 54.0174 103.994C51.8131 103.994 50.1202 105.596 50.1202 108.505C50.1202 111.686 51.8359 112.993 53.9152 112.993C55.4604 112.993 56.3353 112.255 56.733 111.436H56.7671V112.811H57.4943V108.516H54.0515V109.232H56.7103V109.698C56.7103 111.266 55.6877 112.334 53.9833 112.334C52.0745 112.334 50.961 110.914 50.961 108.55C50.961 106.21 52.0517 104.642 54.0174 104.642ZM59.7595 109.914C59.7595 112.107 61.0434 112.982 62.9864 112.982C64.9066 112.982 66.2019 112.095 66.2019 109.914V104.119H65.4065V109.073C65.4065 109.937 65.4179 110.948 64.952 111.539C64.5203 112.084 63.8613 112.323 63.0091 112.323C62.1569 112.323 61.4865 112.084 61.0434 111.539C60.5775 110.948 60.5775 109.937 60.5775 109.073V104.119H59.7595V109.914ZM68.6067 112.811H74.197V112.095H69.4135V108.732H73.7311V108.028H69.4135V104.835H74.1515V104.119H68.6067V112.811Z" fill="#404040"/>
<path d="M213.283 113.217V112.388H215.556V105.991H215.476L213.476 107.854L212.919 107.252L215.021 105.286H216.51V112.388H218.601V113.217H213.283Z" fill="black"/>
<path d="M231.304 109.159L235.362 113.217L239.42 109.159" stroke="#2A6D0C" stroke-linecap="round" stroke-linejoin="round"/>
<path d="M235.362 105.102V113.218" stroke="#2A6D0C" stroke-linecap="round" stroke-linejoin="round"/>
<path d="M246.909 113.354C246.424 113.354 246.008 113.263 245.659 113.081C245.311 112.892 245.022 112.623 244.795 112.275C244.568 111.926 244.402 111.498 244.295 110.991C244.19 110.483 244.136 109.904 244.136 109.252C244.136 108.609 244.19 108.032 244.295 107.525C244.402 107.01 244.568 106.578 244.795 106.23C245.022 105.882 245.311 105.616 245.659 105.434C246.008 105.245 246.424 105.15 246.909 105.15C247.394 105.15 247.81 105.245 248.158 105.434C248.507 105.616 248.795 105.882 249.022 106.23C249.249 106.578 249.416 107.01 249.522 107.525C249.628 108.032 249.681 108.609 249.681 109.252C249.681 109.904 249.628 110.483 249.522 110.991C249.416 111.498 249.249 111.926 249.022 112.275C248.795 112.623 248.507 112.892 248.158 113.081C247.81 113.263 247.394 113.354 246.909 113.354ZM246.909 112.525C247.227 112.525 247.499 112.464 247.727 112.343C247.954 112.214 248.136 112.036 248.272 111.809C248.417 111.581 248.522 111.309 248.59 110.991C248.658 110.665 248.693 110.302 248.693 109.9V108.605C248.693 108.211 248.658 107.851 248.59 107.525C248.522 107.2 248.417 106.923 248.272 106.696C248.136 106.468 247.954 106.294 247.727 106.173C247.499 106.044 247.227 105.98 246.909 105.98C246.59 105.98 246.318 106.044 246.091 106.173C245.863 106.294 245.678 106.468 245.534 106.696C245.397 106.923 245.295 107.2 245.227 107.525C245.159 107.851 245.125 108.211 245.125 108.605V109.9C245.125 110.302 245.159 110.665 245.227 110.991C245.295 111.309 245.397 111.581 245.534 111.809C245.678 112.036 245.863 112.214 246.091 112.343C246.318 112.464 246.59 112.525 246.909 112.525ZM246.909 109.923C246.644 109.923 246.458 109.87 246.352 109.763C246.254 109.657 246.204 109.529 246.204 109.377V109.127C246.204 108.975 246.254 108.847 246.352 108.741C246.458 108.635 246.644 108.582 246.909 108.582C247.174 108.582 247.356 108.635 247.454 108.741C247.56 108.847 247.613 108.975 247.613 109.127V109.377C247.613 109.529 247.56 109.657 247.454 109.763C247.356 109.87 247.174 109.923 246.909 109.923ZM253.722 113.32C253.411 113.32 253.192 113.256 253.063 113.127C252.942 112.998 252.881 112.835 252.881 112.638V112.434C252.881 112.236 252.942 112.074 253.063 111.945C253.192 111.816 253.411 111.752 253.722 111.752C254.033 111.752 254.249 111.816 254.37 111.945C254.499 112.074 254.563 112.236 254.563 112.434V112.638C254.563 112.835 254.499 112.998 254.37 113.127C254.249 113.256 254.033 113.32 253.722 113.32ZM258.092 113.218V112.388H260.364V105.991H260.285L258.285 107.855L257.728 107.252L259.83 105.287H261.318V112.388H263.409V113.218H258.092ZM270.041 113.218H264.746V112.24L267.393 109.854C267.78 109.506 268.098 109.15 268.348 108.786C268.598 108.415 268.723 108.025 268.723 107.616V107.48C268.723 107.002 268.598 106.635 268.348 106.378C268.098 106.112 267.727 105.98 267.234 105.98C266.75 105.98 266.375 106.105 266.109 106.355C265.852 106.597 265.659 106.923 265.53 107.332L264.678 107.014C264.753 106.779 264.855 106.552 264.984 106.332C265.121 106.105 265.291 105.904 265.496 105.73C265.7 105.555 265.946 105.416 266.234 105.309C266.53 105.203 266.871 105.15 267.257 105.15C267.651 105.15 268 105.207 268.302 105.321C268.613 105.434 268.87 105.594 269.075 105.798C269.287 106.003 269.446 106.245 269.552 106.525C269.666 106.805 269.723 107.112 269.723 107.446C269.723 107.748 269.677 108.032 269.586 108.298C269.503 108.563 269.382 108.816 269.223 109.059C269.071 109.302 268.886 109.54 268.666 109.775C268.454 110.002 268.215 110.229 267.95 110.457L265.734 112.388H270.041V113.218ZM272.672 109.173C272.172 109.173 271.763 109.006 271.445 108.673C271.135 108.332 270.979 107.828 270.979 107.162C270.979 106.495 271.135 105.995 271.445 105.662C271.763 105.321 272.172 105.15 272.672 105.15C273.172 105.15 273.578 105.321 273.888 105.662C274.206 105.995 274.365 106.495 274.365 107.162C274.365 107.828 274.206 108.332 273.888 108.673C273.578 109.006 273.172 109.173 272.672 109.173ZM272.672 108.559C272.945 108.559 273.165 108.464 273.331 108.275C273.505 108.086 273.592 107.809 273.592 107.446V106.877C273.592 106.514 273.505 106.237 273.331 106.048C273.165 105.859 272.945 105.764 272.672 105.764C272.399 105.764 272.176 105.859 272.002 106.048C271.835 106.237 271.752 106.514 271.752 106.877V107.446C271.752 107.809 271.835 108.086 272.002 108.275C272.176 108.464 272.399 108.559 272.672 108.559ZM276.546 105.287H277.365L275.547 108.695H274.728L276.546 105.287ZM272.774 109.809H273.592L271.774 113.218H270.956L272.774 109.809ZM275.649 113.354C275.149 113.354 274.74 113.188 274.422 112.854C274.112 112.513 273.956 112.009 273.956 111.343C273.956 110.677 274.112 110.177 274.422 109.843C274.74 109.502 275.149 109.332 275.649 109.332C276.149 109.332 276.555 109.502 276.865 109.843C277.183 110.177 277.342 110.677 277.342 111.343C277.342 112.009 277.183 112.513 276.865 112.854C276.555 113.188 276.149 113.354 275.649 113.354ZM275.649 112.74C275.922 112.74 276.141 112.645 276.308 112.456C276.482 112.267 276.569 111.991 276.569 111.627V111.059C276.569 110.695 276.482 110.418 276.308 110.229C276.141 110.04 275.922 109.945 275.649 109.945C275.376 109.945 275.153 110.04 274.978 110.229C274.812 110.418 274.728 110.695 274.728 111.059V111.627C274.728 111.991 274.812 112.267 274.978 112.456C275.153 112.645 275.376 112.74 275.649 112.74Z" fill="#2A6D0C"/>
<path d="M0 127.826H280" stroke="#EDEDED"/>
<path d="M6.08696 149.333C9.44869 149.333 12.1739 146.608 12.1739 143.246C12.1739 139.884 9.44869 137.159 6.08696 137.159C2.72522 137.159 0 139.884 0 143.246C0 146.608 2.72522 149.333 6.08696 149.333Z" fill="#ED9A73"/>
<path d="M31.3582 140.524C31.3014 139.035 30.2901 138.081 28.5176 138.081C26.8133 138.081 25.5975 139.013 25.5975 140.444C25.5975 141.66 26.177 142.444 27.8813 142.751L29.2789 143.001C30.4037 143.205 30.8014 143.717 30.8014 144.546C30.8014 145.546 30.1651 146.421 28.4835 146.421C26.8473 146.421 26.177 145.432 26.052 144.478H25.2339C25.3361 145.842 26.4724 147.08 28.4721 147.08C30.506 147.08 31.6195 146.012 31.6195 144.478C31.6195 143.262 30.8923 142.49 29.4493 142.228L27.9949 141.967C26.8587 141.762 26.4269 141.331 26.4269 140.399C26.4269 139.365 27.2564 138.729 28.5176 138.729C29.9606 138.729 30.4719 139.558 30.5628 140.524H31.3582ZM33.2206 142.592C33.2206 145.728 35.0045 147.08 37.0611 147.08C39.1177 147.08 40.9243 145.728 40.9243 142.592C40.9243 139.433 39.1063 138.081 37.0611 138.081C35.0386 138.081 33.2206 139.433 33.2206 142.592ZM37.0611 146.432C35.3113 146.432 34.0614 145.126 34.0614 142.592C34.0614 140.013 35.334 138.729 37.0611 138.729C38.8109 138.729 40.0835 140.047 40.0835 142.592C40.0835 145.114 38.7995 146.432 37.0611 146.432ZM43.8036 142.524V138.888H46.1101C47.3145 138.888 48.0985 139.49 48.0985 140.638C48.0985 141.978 47.2009 142.524 46.0874 142.524H43.8036ZM48.0758 146.898H49.0075L47.0305 143.08V143.058C47.9963 142.819 48.928 142.092 48.928 140.626C48.928 139.626 48.4848 138.967 47.8145 138.592C47.3259 138.331 46.735 138.206 46.1101 138.206H42.9968V146.898H43.8036V143.194H46.1897L48.0758 146.898ZM51.0414 146.898H56.6317V146.182H51.8482V142.819H56.1659V142.115H51.8482V138.922H56.5863V138.206H51.0414V146.898ZM67.7027 138.206H60.658V138.911H63.7713V146.898H64.578V138.911H67.7027V138.206ZM70.0234 142.819H74.9092V146.898H75.7159V138.206H74.9092V142.115H70.0234V138.206H69.2167V146.898H70.0234V142.819ZM79.0888 142.524V138.888H81.3954C82.5998 138.888 83.3838 139.49 83.3838 140.638C83.3838 141.978 82.4862 142.524 81.3727 142.524H79.0888ZM83.3611 146.898H84.2928L82.3158 143.08V143.058C83.2815 142.819 84.2133 142.092 84.2133 140.626C84.2133 139.626 83.7701 138.967 83.0997 138.592C82.6112 138.331 82.0203 138.206 81.3954 138.206H78.2821V146.898H79.0888V143.194H81.4749L83.3611 146.898ZM85.8267 142.592C85.8267 145.728 87.6106 147.08 89.6672 147.08C91.7237 147.08 93.5304 145.728 93.5304 142.592C93.5304 139.433 91.7124 138.081 89.6672 138.081C87.6447 138.081 85.8267 139.433 85.8267 142.592ZM89.6672 146.432C87.9174 146.432 86.6675 145.126 86.6675 142.592C86.6675 140.013 87.9401 138.729 89.6672 138.729C91.417 138.729 92.6895 140.047 92.6895 142.592C92.6895 145.114 91.4056 146.432 89.6672 146.432ZM98.2433 138.99H98.266C98.266 138.99 98.4137 139.524 98.6069 140.047L99.8226 143.399H96.6526L97.8797 140.058C98.0615 139.558 98.2206 139.047 98.2433 138.99ZM101.095 146.898H101.947L98.7432 138.206H97.7888L94.5733 146.898H95.38L96.4139 144.058H100.061L101.095 146.898ZM109.08 138.206H102.035V138.911H105.148V146.898H105.955V138.911H109.08V138.206Z" fill="black"/>
<path d="M213.283 147.304V146.474H215.556V140.078H215.476L213.476 141.941L212.919 141.339L215.021 139.373H216.51V146.474H218.601V147.304H213.283Z" fill="black"/>
<path d="M231.304 143.246L235.362 147.304L239.42 143.246" stroke="#2A6D0C" stroke-linecap="round" stroke-linejoin="round"/>
<path d="M235.362 139.188V147.304" stroke="#2A6D0C" stroke-linecap="round" stroke-linejoin="round"/>
<path d="M249.602 147.305H244.307V146.327L246.954 143.941C247.341 143.593 247.659 143.237 247.909 142.873C248.159 142.502 248.284 142.112 248.284 141.703V141.567C248.284 141.089 248.159 140.722 247.909 140.464C247.659 140.199 247.288 140.067 246.795 140.067C246.311 140.067 245.936 140.192 245.67 140.442C245.413 140.684 245.22 141.01 245.091 141.419L244.239 141.101C244.315 140.866 244.417 140.639 244.546 140.419C244.682 140.192 244.852 139.991 245.057 139.817C245.261 139.642 245.508 139.503 245.795 139.396C246.091 139.29 246.432 139.237 246.818 139.237C247.212 139.237 247.561 139.294 247.863 139.408C248.174 139.521 248.431 139.68 248.636 139.885C248.849 140.089 249.008 140.332 249.113 140.612C249.227 140.892 249.284 141.199 249.284 141.532C249.284 141.835 249.238 142.119 249.147 142.385C249.064 142.65 248.943 142.903 248.784 143.146C248.633 143.389 248.447 143.627 248.227 143.862C248.015 144.089 247.776 144.316 247.511 144.544L245.295 146.475H249.602V147.305ZM253.722 147.407C253.411 147.407 253.192 147.343 253.063 147.214C252.942 147.085 252.881 146.922 252.881 146.725V146.521C252.881 146.323 252.942 146.161 253.063 146.032C253.192 145.903 253.411 145.839 253.722 145.839C254.033 145.839 254.249 145.903 254.37 146.032C254.499 146.161 254.563 146.323 254.563 146.521V146.725C254.563 146.922 254.499 147.085 254.37 147.214C254.249 147.343 254.033 147.407 253.722 147.407ZM260.535 147.441C260.05 147.441 259.634 147.35 259.285 147.168C258.937 146.979 258.649 146.71 258.421 146.361C258.194 146.013 258.028 145.585 257.921 145.078C257.816 144.57 257.762 143.991 257.762 143.339C257.762 142.696 257.816 142.119 257.921 141.612C258.028 141.097 258.194 140.665 258.421 140.317C258.649 139.969 258.937 139.703 259.285 139.521C259.634 139.332 260.05 139.237 260.535 139.237C261.02 139.237 261.436 139.332 261.785 139.521C262.134 139.703 262.421 139.969 262.648 140.317C262.875 140.665 263.043 141.097 263.148 141.612C263.254 142.119 263.307 142.696 263.307 143.339C263.307 143.991 263.254 144.57 263.148 145.078C263.043 145.585 262.875 146.013 262.648 146.361C262.421 146.71 262.134 146.979 261.785 147.168C261.436 147.35 261.02 147.441 260.535 147.441ZM260.535 146.611C260.853 146.611 261.126 146.551 261.353 146.43C261.58 146.301 261.762 146.123 261.898 145.896C262.043 145.668 262.148 145.396 262.216 145.078C262.285 144.752 262.319 144.388 262.319 143.987V142.691C262.319 142.298 262.285 141.937 262.216 141.612C262.148 141.287 262.043 141.01 261.898 140.783C261.762 140.555 261.58 140.381 261.353 140.26C261.126 140.131 260.853 140.067 260.535 140.067C260.217 140.067 259.944 140.131 259.717 140.26C259.489 140.381 259.304 140.555 259.16 140.783C259.024 141.01 258.921 141.287 258.853 141.612C258.785 141.937 258.751 142.298 258.751 142.691V143.987C258.751 144.388 258.785 144.752 258.853 145.078C258.921 145.396 259.024 145.668 259.16 145.896C259.304 146.123 259.489 146.301 259.717 146.43C259.944 146.551 260.217 146.611 260.535 146.611ZM260.535 144.009C260.27 144.009 260.084 143.957 259.978 143.85C259.88 143.744 259.83 143.616 259.83 143.464V143.214C259.83 143.062 259.88 142.934 259.978 142.828C260.084 142.721 260.27 142.669 260.535 142.669C260.8 142.669 260.982 142.721 261.08 142.828C261.186 142.934 261.239 143.062 261.239 143.214V143.464C261.239 143.616 261.186 143.744 261.08 143.85C260.982 143.957 260.8 144.009 260.535 144.009ZM267.348 147.441C266.864 147.441 266.446 147.35 266.098 147.168C265.75 146.979 265.462 146.71 265.235 146.361C265.007 146.013 264.841 145.585 264.735 145.078C264.628 144.57 264.576 143.991 264.576 143.339C264.576 142.696 264.628 142.119 264.735 141.612C264.841 141.097 265.007 140.665 265.235 140.317C265.462 139.969 265.75 139.703 266.098 139.521C266.446 139.332 266.864 139.237 267.348 139.237C267.833 139.237 268.25 139.332 268.598 139.521C268.946 139.703 269.234 139.969 269.461 140.317C269.689 140.665 269.855 141.097 269.961 141.612C270.068 142.119 270.12 142.696 270.12 143.339C270.12 143.991 270.068 144.57 269.961 145.078C269.855 145.585 269.689 146.013 269.461 146.361C269.234 146.71 268.946 146.979 268.598 147.168C268.25 147.35 267.833 147.441 267.348 147.441ZM267.348 146.611C267.666 146.611 267.939 146.551 268.166 146.43C268.393 146.301 268.575 146.123 268.712 145.896C268.855 145.668 268.962 145.396 269.03 145.078C269.098 144.752 269.132 144.388 269.132 143.987V142.691C269.132 142.298 269.098 141.937 269.03 141.612C268.962 141.287 268.855 141.01 268.712 140.783C268.575 140.555 268.393 140.381 268.166 140.26C267.939 140.131 267.666 140.067 267.348 140.067C267.03 140.067 266.757 140.131 266.53 140.26C266.303 140.381 266.117 140.555 265.973 140.783C265.837 141.01 265.735 141.287 265.666 141.612C265.598 141.937 265.564 142.298 265.564 142.691V143.987C265.564 144.388 265.598 144.752 265.666 145.078C265.735 145.396 265.837 145.668 265.973 145.896C266.117 146.123 266.303 146.301 266.53 146.43C266.757 146.551 267.03 146.611 267.348 146.611ZM267.348 144.009C267.083 144.009 266.898 143.957 266.791 143.85C266.693 143.744 266.644 143.616 266.644 143.464V143.214C266.644 143.062 266.693 142.934 266.791 142.828C266.898 142.721 267.083 142.669 267.348 142.669C267.613 142.669 267.795 142.721 267.893 142.828C268 142.934 268.053 143.062 268.053 143.214V143.464C268.053 143.616 268 143.744 267.893 143.85C267.795 143.957 267.613 144.009 267.348 144.009ZM272.672 143.26C272.172 143.26 271.763 143.093 271.445 142.76C271.135 142.419 270.979 141.915 270.979 141.248C270.979 140.582 271.135 140.082 271.445 139.749C271.763 139.408 272.172 139.237 272.672 139.237C273.172 139.237 273.578 139.408 273.888 139.749C274.206 140.082 274.365 140.582 274.365 141.248C274.365 141.915 274.206 142.419 273.888 142.76C273.578 143.093 273.172 143.26 272.672 143.26ZM272.672 142.646C272.945 142.646 273.165 142.551 273.331 142.362C273.506 142.173 273.593 141.896 273.593 141.532V140.964C273.593 140.601 273.506 140.324 273.331 140.135C273.165 139.946 272.945 139.851 272.672 139.851C272.399 139.851 272.176 139.946 272.002 140.135C271.835 140.324 271.752 140.601 271.752 140.964V141.532C271.752 141.896 271.835 142.173 272.002 142.362C272.176 142.551 272.399 142.646 272.672 142.646ZM276.547 139.374H277.365L275.547 142.782H274.729L276.547 139.374ZM272.774 143.896H273.593L271.775 147.305H270.956L272.774 143.896ZM275.649 147.441C275.149 147.441 274.74 147.275 274.422 146.941C274.112 146.6 273.956 146.096 273.956 145.43C273.956 144.763 274.112 144.264 274.422 143.93C274.74 143.589 275.149 143.419 275.649 143.419C276.149 143.419 276.555 143.589 276.865 143.93C277.183 144.264 277.342 144.763 277.342 145.43C277.342 146.096 277.183 146.6 276.865 146.941C276.555 147.275 276.149 147.441 275.649 147.441ZM275.649 146.827C275.922 146.827 276.142 146.732 276.308 146.543C276.483 146.354 276.569 146.077 276.569 145.714V145.146C276.569 144.782 276.483 144.505 276.308 144.316C276.142 144.127 275.922 144.032 275.649 144.032C275.376 144.032 275.153 144.127 274.979 144.316C274.812 144.505 274.729 144.782 274.729 145.146V145.714C274.729 146.077 274.812 146.354 274.979 146.543C275.153 146.732 275.376 146.827 275.649 146.827Z" fill="#2A6D0C"/>
</g>
<defs>
<clipPath id="clip0">
<rect width="280" height="298.667" fill="white"/>
</clipPath>
</defs>
</svg>
