<svg width="16" height="20" viewBox="0 0 16 20" fill="none" xmlns="http://www.w3.org/2000/svg">
<path d="M7.7251 12.849C8.05024 12.849 8.34177 12.5799 8.34177 12.2548V3.00484L8.2857 1.71544L8.98085 2.43301L10.3936 3.913C10.5057 4.03635 10.6627 4.10361 10.8196 4.10361C11.1336 4.10361 11.3802 3.86815 11.3802 3.55421C11.3802 3.38604 11.3129 3.26271 11.2008 3.15058L8.17357 0.201815C8.0166 0.044845 7.88207 0 7.7251 0C7.56813 0 7.43359 0.044845 7.27662 0.201815L4.23816 3.15058C4.12604 3.26271 4.05876 3.38604 4.05876 3.55421C4.05876 3.86815 4.29421 4.10361 4.61936 4.10361C4.76512 4.10361 4.9333 4.03635 5.04542 3.913L6.45813 2.43301L7.15329 1.70424L7.10844 3.00484V12.2548C7.10844 12.5799 7.38874 12.849 7.7251 12.849ZM2.66846 19.6659H12.7593C14.542 19.6659 15.439 18.7802 15.439 17.0311V8.15116C15.439 6.41329 14.542 5.51634 12.7593 5.51634H10.2926V6.76087H12.7369C13.6563 6.76087 14.1944 7.25419 14.1944 8.21842V16.9638C14.1944 17.9281 13.6563 18.4214 12.7369 18.4214H2.6909C1.76028 18.4214 1.24453 17.9281 1.24453 16.9638V8.21842C1.24453 7.25419 1.76028 6.76087 2.6909 6.76087H5.15755V5.51634H2.66846C0.89697 5.51634 0 6.40208 0 8.15116V17.0311C0 18.7802 0.89697 19.6659 2.66846 19.6659Z" fill="#0060F2"/>
</svg>
