<svg width="375" height="812" viewBox="0 0 375 812" fill="none" xmlns="http://www.w3.org/2000/svg">
<rect x="352" y="821.006" width="82.9999" height="859" transform="rotate(180 352 821.006)" fill="#FDB515"/>
<rect x="205" y="838.021" width="55" height="370" transform="rotate(180 205 838.021)" fill="#EE1F60"/>
<rect x="273" y="821.026" width="82" height="367" transform="rotate(180 273 821.026)" fill="#D9661F"/>
<rect x="62" y="812.025" width="76.9999" height="640" transform="rotate(180 62 812.025)" fill="#00A598"/>
<rect x="233" y="200.898" width="96" height="216" transform="rotate(180 233 200.898)" fill="#00A598"/>
<rect x="79.001" y="563.901" width="64" height="579" transform="rotate(180 79.001 563.901)" fill="#CFDD45"/>
<rect x="90.9658" y="820.732" width="46.9655" height="858.833" transform="rotate(180 90.9658 820.732)" fill="#FDB515"/>
<rect x="22.0029" y="794.924" width="30.9999" height="852" transform="rotate(180 22.0029 794.924)" fill="#CFDD45"/>
<rect x="327.134" y="454.804" width="64.8572" height="348.083" transform="rotate(180 327.134 454.804)" fill="#00B0DA"/>
<rect x="21.8584" y="453.665" width="64.8572" height="348.083" transform="rotate(180 21.8584 453.665)" fill="#00B0DA"/>
<rect x="195.183" y="453.665" width="64.8571" height="394.722" transform="rotate(180 195.183 453.665)" fill="#00B0DA"/>
<rect x="130.326" y="442.29" width="73.8029" height="557.388" transform="rotate(180 130.326 442.29)" fill="#00B0DA"/>
<rect x="240.001" y="680.901" width="142" height="465" transform="rotate(180 240.001 680.901)" fill="#D9661F"/>
<path d="M150.454 261.988L103.489 261.988L103.489 -86.0951L150.454 -86.0951L150.454 261.988Z" fill="#D9661F"/>
<path d="M411 511.007L341 511.007L341 -19.9932L411 -19.9932L411 511.007Z" fill="#D9661F"/>
<rect x="262.276" y="339.912" width="263.902" height="84.177" transform="rotate(180 262.276 339.912)" fill="#00A598"/>
<rect x="227.611" y="523.055" width="49.202" height="273.007" transform="rotate(180 227.611 523.055)" fill="#00B0DA"/>
<rect x="206.365" y="526.467" width="49.202" height="273.007" transform="rotate(180 206.365 526.467)" fill="#00B0DA"/>
<rect x="200.774" y="403.613" width="57.0296" height="31.8508" transform="rotate(180 200.774 403.613)" fill="#EE1F60"/>
<rect x="226.493" y="471.866" width="89.4581" height="44.3636" transform="rotate(180 226.493 471.866)" fill="#FDB515"/>
<rect x="166.109" y="412.714" width="49.202" height="273.007" transform="rotate(180 166.109 412.714)" fill="#CFDD45"/>
<rect x="331.606" y="412.714" width="49.202" height="273.007" transform="rotate(180 331.606 412.714)" fill="#CFDD45"/>
<rect x="379.69" y="551.493" width="49.2019" height="465.249" transform="rotate(180 379.69 551.493)" fill="#CFDD45"/>
<rect x="176.173" y="236.394" width="55.9113" height="44.3636" transform="rotate(180 176.173 236.394)" fill="#EE1F60"/>
<rect x="73" y="739.026" width="29" height="335" transform="rotate(180 73 739.026)" fill="#00B0DA"/>
<rect x="380" y="821.025" width="54" height="381" transform="rotate(180 380 821.025)" fill="#00B0DA"/>
<rect x="150" y="843.013" width="54" height="288" transform="rotate(180 150 843.013)" fill="#00B0DA"/>
<rect x="279" y="552.007" width="71.9999" height="602" transform="rotate(180 279 552.007)" fill="#EE1F60"/>
<rect x="152.001" y="689.902" width="88" height="289" transform="rotate(180 152.001 689.902)" fill="#EE1F60"/>
<rect x="336.005" y="767.95" width="39" height="370" transform="rotate(180 336.005 767.95)" fill="#EE1F60"/>
<rect x="90.0693" y="292.133" width="55.9113" height="143.328" transform="rotate(180 90.0693 292.133)" fill="#EE1F60"/>
<rect x="20.7393" y="237.531" width="55.9113" height="44.3636" transform="rotate(180 20.7393 237.531)" fill="#EE1F60"/>
<rect x="318.188" y="314.886" width="55.9113" height="44.3636" transform="rotate(180 318.188 314.886)" fill="#EE1F60"/>
<rect x="130.326" y="255.732" width="57.0296" height="85.3146" transform="rotate(180 130.326 255.732)" fill="#FDB515"/>
<rect x="84.4785" y="491.204" width="125.241" height="170.629" transform="rotate(180 84.4785 491.204)" fill="#FDB515"/>
<rect x="122.002" y="729.922" width="38" height="317" transform="rotate(180 122.002 729.922)" fill="#D9661F"/>
<rect x="157.163" y="453.665" width="48.0838" height="94.4148" transform="rotate(180 157.163 453.665)" fill="#00A598"/>
<rect x="304.77" y="369.487" width="87.2217" height="29.5757" transform="rotate(180 304.77 369.487)" fill="#00A598"/>
<rect x="50.9316" y="220.469" width="42.4926" height="240.018" transform="rotate(180 50.9316 220.469)" fill="#00A598"/>
<rect x="348" y="621.026" width="25.9999" height="641" transform="rotate(180 348 621.026)" fill="#00A598"/>
<rect x="262.276" y="537.843" width="34.665" height="94.4148" transform="rotate(180 262.276 537.843)" fill="#00A598"/>
<rect x="54.2861" y="401.339" width="55.9113" height="44.3636" transform="rotate(180 54.2861 401.339)" fill="#00B0DA"/>
<rect x="245.503" y="209.094" width="55.9113" height="44.3636" transform="rotate(180 245.503 209.094)" fill="#00B0DA"/>
<rect x="289.001" y="658.901" width="117" height="458" transform="rotate(180 289.001 658.901)" fill="#CFDD45"/>
<rect x="369.627" y="272.795" width="152.079" height="32.9883" transform="rotate(180 369.627 272.795)" fill="#CFDD45"/>
<rect x="290.232" y="391.101" width="57.0296" height="170.629" transform="rotate(180 290.232 391.101)" fill="#FDB515"/>
<path d="M359.001 577.91L310.001 577.91L310.001 139.91L359.001 139.91L359.001 577.91Z" fill="#D9661F"/>
<rect x="262" y="538.026" width="33" height="246" transform="rotate(180 262 538.026)" fill="#EE1F60"/>
<rect x="178" y="634.026" width="77" height="429" transform="rotate(180 178 634.026)" fill="#00A598"/>
<rect x="110" y="838.006" width="31" height="315" transform="rotate(180 110 838.006)" fill="#CFDD45"/>
<rect x="305" y="744.006" width="47" height="185" transform="rotate(180 305 744.006)" fill="#FDB515"/>
<rect x="15" y="680.006" width="32" height="137" transform="rotate(180 15 680.006)" fill="#FDB515"/>
<rect x="136.999" y="853" width="38" height="92" transform="rotate(180 136.999 853)" fill="#00A598"/>
</svg>
