<svg width="26" height="26" viewBox="0 0 26 26" fill="none" xmlns="http://www.w3.org/2000/svg">
<g id="thumb_up_alt_24px">
<path id="icon/social/thumb_up_alt_24px" fill-rule="evenodd" clip-rule="evenodd" d="M22.225 9.525H15.5469L16.5524 4.68842L16.5841 4.34975C16.5841 3.91584 16.4042 3.51367 16.1184 3.22792L14.9966 2.11667L8.03277 9.09109C7.64118 9.47209 7.40835 10.0013 7.40835 10.5833V21.1667C7.40835 22.3308 8.36085 23.2833 9.52502 23.2833H19.05C19.9284 23.2833 20.6799 22.7542 20.9974 21.9922L24.1935 14.5309C24.2888 14.2875 24.3417 14.0335 24.3417 13.7583V11.6417C24.3417 10.4775 23.3892 9.525 22.225 9.525ZM22.225 13.7583L19.05 21.1667H9.52502V10.5833L14.1182 5.99017L12.9434 11.6417H22.225V13.7583ZM5.29168 10.5833H1.05835V23.2833H5.29168V10.5833Z" fill="#0060F2"/>
</g>
</svg>
