<svg width="32" height="32" viewBox="0 0 32 32" fill="none" xmlns="http://www.w3.org/2000/svg">
<path d="M21.9759 18.9843V20.7908C21.9765 20.9585 21.9422 21.1245 21.875 21.2781C21.8078 21.4318 21.7093 21.5697 21.5857 21.6831C21.4621 21.7965 21.3162 21.8828 21.1574 21.9365C20.9985 21.9903 20.8302 22.0102 20.6631 21.9951C18.8102 21.7938 17.0303 21.1606 15.4665 20.1465C14.0116 19.222 12.778 17.9884 11.8535 16.5335C10.8359 14.9626 10.2025 13.174 10.0049 11.3128C9.98984 11.1463 10.0096 10.9784 10.063 10.82C10.1164 10.6615 10.2021 10.5159 10.3149 10.3924C10.4276 10.269 10.5648 10.1703 10.7177 10.1027C10.8707 10.0352 11.036 10.0002 11.2032 10.0001H13.0097C13.3019 9.99718 13.5852 10.1007 13.8068 10.2912C14.0284 10.4818 14.1731 10.7464 14.214 11.0358C14.2902 11.6139 14.4316 12.1815 14.6355 12.7278C14.7165 12.9434 14.7341 13.1776 14.686 13.4028C14.638 13.628 14.5264 13.8347 14.3645 13.9984L13.5998 14.7632C14.457 16.2707 15.7052 17.5189 17.2128 18.3761L17.9775 17.6114C18.1412 17.4495 18.3479 17.3379 18.5731 17.2899C18.7983 17.2419 19.0325 17.2594 19.2481 17.3404C19.7944 17.5443 20.362 17.6857 20.9401 17.7619C21.2326 17.8032 21.4998 17.9505 21.6908 18.1759C21.8817 18.4013 21.9832 18.689 21.9759 18.9843Z" stroke="#BFBFBF" stroke-linecap="round" stroke-linejoin="round"/>
<path d="M31 16C31 7.71573 24.2843 0.999999 16 0.999999C7.71573 1 0.999999 7.71573 0.999999 16C1 24.2843 7.71573 31 16 31C24.2843 31 31 24.2843 31 16Z" stroke="#BFBFBF" stroke-linecap="round" stroke-linejoin="round"/>
</svg>
