<svg width="226" height="226" viewBox="0 0 226 226" fill="none" xmlns="http://www.w3.org/2000/svg">
<path d="M28.9955 161.5L113 16L197.004 161.5H28.9955Z" stroke="#2DC937" stroke-width="16"/>
<path d="M64.5257 135.38L66.8477 140.906H62.2397L64.5257 135.38ZM68.9717 146H70.4837L65.1377 133.274H64.3817L58.9817 146H60.1157L61.8617 141.806H67.2077L68.9717 146ZM81.6815 133.4V140.996C81.6815 143.858 80.2235 145.118 77.9015 145.118C75.6155 145.118 74.0675 143.696 74.0675 140.978V133.4H72.6815V141.194C72.6815 144.182 74.3375 146.18 77.8655 146.18C80.5835 146.18 82.7795 144.47 82.7795 141.212V133.4H81.6815ZM90.3554 146H91.7414V134.318H96.6374V133.4H85.4594V134.318H90.3554V146ZM97.7097 139.7C97.7097 143.3 100.302 146.18 103.884 146.18C107.466 146.18 110.058 143.3 110.058 139.7C110.058 136.1 107.466 133.22 103.884 133.22C100.302 133.22 97.7097 136.1 97.7097 139.7ZM99.2757 139.7C99.2757 136.334 101.112 134.138 103.884 134.138C106.656 134.138 108.492 136.334 108.492 139.7C108.492 143.066 106.656 145.262 103.884 145.262C101.112 145.262 99.2757 143.066 99.2757 139.7ZM122.068 143.282L114.22 133.4H112.924V146H114.022V135.236L122.608 146.072H123.166V133.4H122.068V143.282ZM126.028 139.7C126.028 143.3 128.62 146.18 132.202 146.18C135.784 146.18 138.376 143.3 138.376 139.7C138.376 136.1 135.784 133.22 132.202 133.22C128.62 133.22 126.028 136.1 126.028 139.7ZM127.594 139.7C127.594 136.334 129.43 134.138 132.202 134.138C134.974 134.138 136.81 136.334 136.81 139.7C136.81 143.066 134.974 145.262 132.202 145.262C129.43 145.262 127.594 143.066 127.594 139.7ZM147.578 143.966L143.132 133.4H141.242V146H142.34V134.966L147.092 146.108H147.578L152.294 134.966V146H153.68V133.4H151.88L147.578 143.966ZM161.944 139.682L157.966 133.4H156.328L161.044 140.762V146H162.412V140.762L167.11 133.4H165.904L161.944 139.682Z" fill="#003262"/>
</svg>
