<svg width="28" height="27" viewBox="0 0 28 27" fill="none" xmlns="http://www.w3.org/2000/svg">
<path d="M10.524 26.0001C11.1815 26.0001 11.7144 25.4671 11.7144 24.8096C11.7144 24.1521 11.1815 23.6191 10.524 23.6191C9.86649 23.6191 9.3335 24.1521 9.3335 24.8096C9.3335 25.4671 9.86649 26.0001 10.524 26.0001Z" stroke="#0060F2" stroke-linecap="round" stroke-linejoin="round"/>
<path d="M23.6192 26.0001C24.2767 26.0001 24.8097 25.4671 24.8097 24.8096C24.8097 24.1521 24.2767 23.6191 23.6192 23.6191C22.9617 23.6191 22.4287 24.1521 22.4287 24.8096C22.4287 25.4671 22.9617 26.0001 23.6192 26.0001Z" stroke="#0060F2" stroke-linecap="round" stroke-linejoin="round"/>
<path d="M1 1H5.7619L8.95238 16.9405C9.06124 17.4886 9.35941 17.9809 9.7947 18.3313C10.23 18.6817 10.7746 18.8678 11.3333 18.8571H22.9048C23.4635 18.8678 24.0081 18.6817 24.4434 18.3313C24.8787 17.9809 25.1769 17.4886 25.2857 16.9405L27.1905 6.95238H6.95238" stroke="#0060F2" stroke-linecap="round" stroke-linejoin="round"/>
</svg>
