<svg width="271" height="48" viewBox="0 0 271 48" fill="none" xmlns="http://www.w3.org/2000/svg">
<g filter="url(#filter0_d)">
<path d="M0.5 18.9999C0.5 8.78269 8.78269 0.5 18.9999 0.5H243C253.217 0.5 261.5 8.78269 261.5 18.9999V20.0001C261.5 30.2173 253.217 38.5 243 38.5H18.9999C8.78269 38.5 0.5 30.2173 0.5 20.0001V18.9999Z" stroke="white"/>
<path d="M39.434 21.957C39.434 23.385 38.227 24.099 36.612 24.099C35.099 24.099 33.586 23.453 32.651 21.872L31.801 22.586C32.6 24.167 34.521 25.17 36.612 25.17C38.975 25.17 41.015 23.81 41.015 21.498C41.015 19.73 39.791 18.846 37.802 18.319L36.204 17.894C34.725 17.503 33.994 17.044 33.994 15.888C33.994 14.681 35.065 13.95 36.561 13.95C38.091 13.95 39.332 14.681 40.012 15.905L40.845 15.106C40.097 13.848 38.55 12.93 36.561 12.93C34.181 12.93 32.413 14.307 32.413 16.245C32.413 18.098 33.569 18.88 35.592 19.424L37.224 19.866C38.567 20.223 39.434 20.733 39.434 21.957ZM43.8516 25H52.2666V23.98H45.5176V19.39H50.3796V18.37H45.5176V14.12H52.0456V13.1H43.8516V25ZM53.8879 19.135C53.8879 22.756 56.5909 25.17 59.8889 25.17C61.9969 25.17 63.6289 24.218 64.6999 22.144L63.8669 21.566C63.0509 23.181 61.8949 24.048 60.0419 24.048C57.8149 24.048 55.7919 22.348 55.7919 19.067C55.7919 15.871 57.5939 14.035 60.0419 14.035C61.9629 14.035 63.0849 15.021 63.8499 16.5L64.6829 15.684C63.6289 13.78 61.9629 12.93 59.9399 12.93C56.5739 12.93 53.8879 15.497 53.8879 19.135ZM75.4218 13.1V20.24C75.4218 22.841 74.1808 24.014 72.0558 24.014C69.9478 24.014 68.6388 22.688 68.6388 20.24V13.1H66.9728V20.427C66.9728 23.334 68.6388 25.17 71.9198 25.17C74.5718 25.17 76.6118 23.538 76.6118 20.427V13.1H75.4218ZM81.7422 14.086H84.3262C86.0942 14.086 87.3012 14.732 87.3012 16.347C87.3012 18.183 85.9582 18.761 84.3262 18.761H81.7422V14.086ZM81.7422 19.747H84.0542C85.6182 19.747 86.0942 20.223 86.5532 21.515L87.2672 23.436C87.3862 23.776 87.6922 24.524 88.0322 25H89.9022C89.4432 24.456 89.1372 23.878 88.9332 23.3L88.2532 21.447C87.8282 20.189 87.2162 19.509 85.7202 19.322V19.271C87.3182 19.237 89.1202 18.455 89.1202 16.313C89.1202 13.95 87.1142 13.1 84.6662 13.1H80.0762V25H81.7422V19.747ZM92.544 25H100.959V23.98H94.21V19.39H99.072V18.37H94.21V14.12H100.738V13.1H92.544V25ZM107.573 25C111.534 25 114.101 22.773 114.101 19.016C114.101 15.378 111.585 13.1 107.454 13.1H103.816V25H107.573ZM112.265 19.016C112.265 22.212 110.531 24.031 107.403 24.031H105.482V14.069H107.318C110.531 14.069 112.265 15.973 112.265 19.016ZM126.17 25C128.652 25 130.539 24.031 130.539 21.787C130.539 19.849 128.941 18.948 127.037 18.88V18.846C128.686 18.744 130.046 17.707 130.046 16.109C130.046 13.916 128.125 13.1 125.762 13.1H121.597V25H126.17ZM123.263 14.086H125.507C127.224 14.086 128.312 14.715 128.312 16.211C128.312 17.894 127.054 18.387 125.473 18.387H123.263V14.086ZM125.626 19.39C127.581 19.39 128.805 20.07 128.805 21.719C128.805 23.368 127.598 24.014 125.847 24.014H123.263V19.39H125.626ZM137.521 18.863L133.832 13.1H131.877L136.348 20.036V25H138.014V20.036L142.485 13.1H141.176L137.521 18.863ZM154.343 25C156.825 25 158.712 24.031 158.712 21.787C158.712 19.849 157.114 18.948 155.21 18.88V18.846C156.859 18.744 158.219 17.707 158.219 16.109C158.219 13.916 156.298 13.1 153.935 13.1H149.77V25H154.343ZM151.436 14.086H153.68C155.397 14.086 156.485 14.715 156.485 16.211C156.485 17.894 155.227 18.387 153.646 18.387H151.436V14.086ZM153.799 19.39C155.754 19.39 156.978 20.07 156.978 21.719C156.978 23.368 155.771 24.014 154.02 24.014H151.436V19.39H153.799ZM163.206 13.1H161.54V25H163.206V13.1ZM170.472 25H172.138V14.103H176.711V13.1H165.899V14.103H170.472V25ZM185.524 22.518L181.597 13.1H179.387V25H180.577V14.8L184.895 25.085H185.473L189.774 14.8V25H191.44V13.1H189.366L185.524 22.518ZM199.154 15.446L201.228 20.342H197.097L199.154 15.446ZM203.217 25H205.019L199.885 12.998H199.086L193.935 25H195.142L196.706 21.294H201.636L203.217 25ZM209.192 14.086H211.776C213.544 14.086 214.751 14.732 214.751 16.347C214.751 18.183 213.408 18.761 211.776 18.761H209.192V14.086ZM209.192 19.747H211.504C213.068 19.747 213.544 20.223 214.003 21.515L214.717 23.436C214.836 23.776 215.142 24.524 215.482 25H217.352C216.893 24.456 216.587 23.878 216.383 23.3L215.703 21.447C215.278 20.189 214.666 19.509 213.17 19.322V19.271C214.768 19.237 216.57 18.455 216.57 16.313C216.57 13.95 214.564 13.1 212.116 13.1H207.526V25H209.192V19.747ZM227.916 25H230.024L224.38 18.013L229.582 13.1H227.984L221.66 19.254V13.1H219.994V25H221.66V20.58L223.207 19.118L227.916 25Z" fill="white"/>
</g>
<defs>
<filter id="filter0_d" x="0" y="0" width="271" height="48" filterUnits="userSpaceOnUse" color-interpolation-filters="sRGB">
<feFlood flood-opacity="0" result="BackgroundImageFix"/>
<feColorMatrix in="SourceAlpha" type="matrix" values="0 0 0 0 0 0 0 0 0 0 0 0 0 0 0 0 0 0 127 0"/>
<feOffset dx="5" dy="5"/>
<feGaussianBlur stdDeviation="2"/>
<feColorMatrix type="matrix" values="0 0 0 0 0 0 0 0 0 0 0 0 0 0 0 0 0 0 0.4 0"/>
<feBlend mode="normal" in2="BackgroundImageFix" result="effect1_dropShadow"/>
<feBlend mode="normal" in="SourceGraphic" in2="effect1_dropShadow" result="shape"/>
</filter>
</defs>
</svg>
