<svg width="262" height="39" viewBox="0 0 262 39" fill="none" xmlns="http://www.w3.org/2000/svg">
<path d="M0.5 18.9999C0.5 8.78269 8.78269 0.5 18.9999 0.5H243C253.217 0.5 261.5 8.78269 261.5 18.9999V20.0001C261.5 30.2173 253.217 38.5 243 38.5H18.9999C8.78269 38.5 0.5 30.2173 0.5 20.0001V18.9999Z" stroke="black"/>
<path d="M36.7199 24.099C37.5926 24.099 38.2783 23.912 38.7769 23.538C39.2869 23.1527 39.5419 22.6257 39.5419 21.957C39.5419 21.4243 39.3719 20.9993 39.0319 20.682C38.7033 20.3533 38.1366 20.0813 37.3319 19.866L35.6999 19.424C34.5439 19.118 33.7223 18.7213 33.2349 18.234C32.7589 17.7353 32.5209 17.0723 32.5209 16.245C32.5209 15.2817 32.9119 14.4883 33.6939 13.865C34.4759 13.2417 35.4676 12.93 36.6689 12.93C37.6096 12.93 38.4596 13.1283 39.2189 13.525C39.9783 13.9103 40.5563 14.4373 40.9529 15.106L40.1199 15.905C39.7799 15.2817 39.3096 14.8 38.7089 14.46C38.1083 14.12 37.4283 13.95 36.6689 13.95C35.8983 13.95 35.2749 14.1257 34.7989 14.477C34.3343 14.8283 34.1019 15.2987 34.1019 15.888C34.1019 16.4093 34.2606 16.823 34.5779 17.129C34.8953 17.4237 35.4733 17.6787 36.3119 17.894L37.9099 18.319C39.0319 18.6137 39.8479 19.016 40.3579 19.526C40.8679 20.036 41.1229 20.6933 41.1229 21.498C41.1229 22.586 40.7036 23.47 39.8649 24.15C39.0376 24.83 37.9893 25.17 36.7199 25.17C35.6659 25.17 34.6969 24.9377 33.8129 24.473C32.9403 23.997 32.3056 23.368 31.9089 22.586L32.7589 21.872C33.1896 22.5973 33.7449 23.1527 34.4249 23.538C35.1049 23.912 35.8699 24.099 36.7199 24.099ZM52.3745 25H43.9595V13.1H52.1535V14.12H45.6255V18.37H50.4875V19.39H45.6255V23.98H52.3745V25ZM59.864 25.17C58.1526 25.17 56.7246 24.6033 55.58 23.47C54.4353 22.3253 53.863 20.8803 53.863 19.135C53.863 17.3557 54.441 15.8767 55.597 14.698C56.753 13.5193 58.1923 12.93 59.915 12.93C60.9803 12.93 61.9096 13.1623 62.703 13.627C63.5076 14.0917 64.1593 14.7773 64.658 15.684L63.825 16.5C63.3943 15.6613 62.8673 15.0437 62.244 14.647C61.6206 14.239 60.8783 14.035 60.017 14.035C58.7363 14.035 57.705 14.494 56.923 15.412C56.1523 16.3187 55.767 17.537 55.767 19.067C55.767 20.563 56.1636 21.77 56.957 22.688C57.7616 23.5947 58.7816 24.048 60.017 24.048C60.901 24.048 61.649 23.8497 62.261 23.453C62.8843 23.045 63.4113 22.416 63.842 21.566L64.675 22.144C64.1536 23.1527 63.4906 23.912 62.686 24.422C61.8926 24.9207 60.952 25.17 59.864 25.17ZM75.3969 20.24V13.1H76.5869V20.427C76.5869 21.889 76.1619 23.045 75.3119 23.895C74.4619 24.745 73.3229 25.17 71.8949 25.17C70.3083 25.17 69.0843 24.7563 68.2229 23.929C67.3729 23.1017 66.9479 21.9343 66.9479 20.427V13.1H68.6139V20.24C68.6139 21.4413 68.9143 22.3707 69.5149 23.028C70.1156 23.6853 70.9543 24.014 72.0309 24.014C73.1416 24.014 73.9803 23.6967 74.5469 23.062C75.1136 22.4273 75.3969 21.4867 75.3969 20.24ZM84.3013 14.086H81.7173V18.761H84.3013C85.276 18.761 86.0127 18.557 86.5113 18.149C87.0213 17.741 87.2763 17.1403 87.2763 16.347C87.2763 15.599 87.0213 15.038 86.5113 14.664C86.0127 14.2787 85.276 14.086 84.3013 14.086ZM84.0293 19.747H81.7173V25H80.0513V13.1H84.6413C86.0693 13.1 87.1687 13.3777 87.9393 13.933C88.71 14.477 89.0953 15.2703 89.0953 16.313C89.0953 17.2197 88.7837 17.9337 88.1603 18.455C87.537 18.9763 86.7153 19.2483 85.6953 19.271V19.322C86.3753 19.4127 86.908 19.6167 87.2933 19.934C87.6787 20.24 87.9903 20.7443 88.2283 21.447L88.9083 23.3C89.0217 23.6173 89.1577 23.9177 89.3163 24.201C89.475 24.4843 89.662 24.7507 89.8773 25H88.0073C87.8713 24.8187 87.7297 24.5807 87.5823 24.286C87.4463 23.9913 87.333 23.708 87.2423 23.436L86.5283 21.515C86.279 20.8123 85.9787 20.342 85.6273 20.104C85.276 19.866 84.7433 19.747 84.0293 19.747ZM100.934 25H92.5191V13.1H100.713V14.12H94.1851V18.37H99.0471V19.39H94.1851V23.98H100.934V25ZM114.077 19.016C114.077 20.8633 113.487 22.3253 112.309 23.402C111.141 24.4673 109.555 25 107.549 25H103.792V13.1H107.43C109.481 13.1 111.102 13.6327 112.292 14.698C113.482 15.752 114.077 17.1913 114.077 19.016ZM112.241 19.016C112.241 17.452 111.804 16.2393 110.932 15.378C110.07 14.5053 108.858 14.069 107.294 14.069H105.458V24.031H107.379C108.931 24.031 110.127 23.6003 110.966 22.739C111.816 21.8663 112.241 20.6253 112.241 19.016ZM130.514 21.787C130.514 22.8183 130.129 23.6117 129.358 24.167C128.587 24.7223 127.516 25 126.145 25H121.572V13.1H125.737C127.108 13.1 128.162 13.3607 128.899 13.882C129.647 14.392 130.021 15.1343 130.021 16.109C130.021 16.8683 129.738 17.503 129.171 18.013C128.604 18.5117 127.885 18.7893 127.012 18.846V18.88C128.089 18.914 128.939 19.1917 129.562 19.713C130.197 20.223 130.514 20.9143 130.514 21.787ZM125.482 14.086H123.238V18.387H125.448C126.4 18.387 127.108 18.2057 127.573 17.843C128.049 17.4803 128.287 16.9363 128.287 16.211C128.287 15.5083 128.049 14.9813 127.573 14.63C127.097 14.2673 126.4 14.086 125.482 14.086ZM128.78 21.719C128.78 20.9483 128.514 20.3703 127.981 19.985C127.448 19.5883 126.655 19.39 125.601 19.39H123.238V24.014H125.822C126.797 24.014 127.533 23.8213 128.032 23.436C128.531 23.0507 128.78 22.4783 128.78 21.719ZM133.724 13.1L137.413 18.863L141.068 13.1H142.377L137.906 20.036V25H136.24V20.036L131.769 13.1H133.724ZM158.604 21.787C158.604 22.8183 158.218 23.6117 157.448 24.167C156.677 24.7223 155.606 25 154.235 25H149.662V13.1H153.827C155.198 13.1 156.252 13.3607 156.989 13.882C157.737 14.392 158.111 15.1343 158.111 16.109C158.111 16.8683 157.827 17.503 157.261 18.013C156.694 18.5117 155.974 18.7893 155.102 18.846V18.88C156.178 18.914 157.028 19.1917 157.652 19.713C158.286 20.223 158.604 20.9143 158.604 21.787ZM153.572 14.086H151.328V18.387H153.538C154.49 18.387 155.198 18.2057 155.663 17.843C156.139 17.4803 156.377 16.9363 156.377 16.211C156.377 15.5083 156.139 14.9813 155.663 14.63C155.187 14.2673 154.49 14.086 153.572 14.086ZM156.87 21.719C156.87 20.9483 156.603 20.3703 156.071 19.985C155.538 19.5883 154.745 19.39 153.691 19.39H151.328V24.014H153.912C154.886 24.014 155.623 23.8213 156.122 23.436C156.62 23.0507 156.87 22.4783 156.87 21.719ZM161.432 13.1H163.098V25H161.432V13.1ZM172.03 25H170.364V14.103H165.791V13.1H176.603V14.103H172.03V25ZM181.489 13.1L185.416 22.518L189.258 13.1H191.332V25H189.666V14.8L185.365 25.085H184.787L180.469 14.8V25H179.279V13.1H181.489ZM196.99 20.342H201.121L199.047 15.446L196.99 20.342ZM204.912 25H203.11L201.529 21.294H196.599L195.035 25H193.828L198.979 12.998H199.778L204.912 25ZM211.669 14.086H209.085V18.761H211.669C212.643 18.761 213.38 18.557 213.879 18.149C214.389 17.741 214.644 17.1403 214.644 16.347C214.644 15.599 214.389 15.038 213.879 14.664C213.38 14.2787 212.643 14.086 211.669 14.086ZM211.397 19.747H209.085V25H207.419V13.1H212.009C213.437 13.1 214.536 13.3777 215.307 13.933C216.077 14.477 216.463 15.2703 216.463 16.313C216.463 17.2197 216.151 17.9337 215.528 18.455C214.904 18.9763 214.083 19.2483 213.063 19.271V19.322C213.743 19.4127 214.275 19.6167 214.661 19.934C215.046 20.24 215.358 20.7443 215.596 21.447L216.276 23.3C216.389 23.6173 216.525 23.9177 216.684 24.201C216.842 24.4843 217.029 24.7507 217.245 25H215.375C215.239 24.8187 215.097 24.5807 214.95 24.286C214.814 23.9913 214.7 23.708 214.61 23.436L213.896 21.515C213.646 20.8123 213.346 20.342 212.995 20.104C212.643 19.866 212.111 19.747 211.397 19.747ZM229.916 25H227.808L223.099 19.118L221.552 20.58V25H219.886V13.1H221.552V19.254L227.876 13.1H229.474L224.272 18.013L229.916 25Z" fill="black"/>
</svg>
