<svg width="173" height="29" viewBox="0 0 173 29" fill="none" xmlns="http://www.w3.org/2000/svg">
<path d="M158.984 29H14.0164C6.28737 29 0 22.4957 0 14.5C0 6.5043 6.28737 0 14.0164 0H158.984C166.713 0 173 6.5043 173 14.5C173 22.4957 166.713 29 158.984 29ZM14.0164 0.784174C6.70535 0.784174 0.758027 6.9367 0.758027 14.5C0.758027 22.0633 6.70535 28.2158 14.0164 28.2158H158.984C166.295 28.2158 172.242 22.0633 172.242 14.5C172.242 6.9367 166.295 0.784174 158.984 0.784174H14.0164Z" fill="white"/>
<path d="M18.1435 15.1599L16.9816 14.8338C15.5399 14.4344 14.7146 13.8554 14.7146 12.4886C14.7146 11.0595 15.9756 10.0444 17.6688 10.0444C19.0857 10.0444 20.1873 10.7223 20.7222 11.6494L20.1271 12.2394C19.6418 11.338 18.7598 10.7956 17.6688 10.7956C16.6026 10.7956 15.841 11.3343 15.841 12.2247C15.841 13.0749 16.3617 13.4157 17.4138 13.7052L18.5543 14.0166C19.9712 14.4051 20.8426 15.0573 20.8426 16.3618C20.8426 18.0658 19.3903 19.0698 17.7042 19.0698C16.213 19.0698 14.8457 18.3296 14.2754 17.1643L14.8811 16.6403C15.547 17.8056 16.6274 18.282 17.7042 18.282C18.8554 18.282 19.7162 17.7543 19.7162 16.7026C19.7197 15.7975 19.0998 15.4238 18.1435 15.1599Z" fill="white"/>
<path d="M23.1626 10.1729H29.0001V10.924H24.3492V14.0571H27.8135V14.8083H24.3492V18.1942H29.1595V18.9454H23.1626V10.1729Z" fill="white"/>
<path d="M34.5437 10.0479C35.9854 10.0479 37.172 10.6745 37.923 12.0779L37.3279 12.6789C36.7824 11.5906 35.9819 10.8613 34.6146 10.8613C32.8683 10.8613 31.586 12.2135 31.586 14.5734C31.586 16.9919 33.0277 18.2451 34.6146 18.2451C35.9358 18.2451 36.7611 17.6038 37.3421 16.4129L37.9371 16.838C37.1756 18.366 36.0102 19.0696 34.5083 19.0696C32.1563 19.0696 30.2329 17.2887 30.2329 14.621C30.2329 11.9387 32.1457 10.0479 34.5437 10.0479Z" fill="white"/>
<path d="M46.7111 10.1729V15.5742C46.7111 17.8681 45.2588 19.07 43.3672 19.07C41.0294 19.07 39.8428 17.7178 39.8428 15.5742V10.1729H41.0294V15.4386C41.0294 17.2415 41.961 18.2199 43.4629 18.2199C44.9789 18.2199 45.8609 17.3551 45.8609 15.4386V10.1729H46.7111Z" fill="white"/>
<path d="M50.6676 18.9454H49.481V10.1729H52.7504C54.4967 10.1729 55.9242 10.7995 55.9242 12.54C55.9242 14.1194 54.6384 14.6947 53.5013 14.7204V14.757C54.5675 14.8962 55.0032 15.3983 55.3078 16.3254L55.7931 17.6922C55.9384 18.1209 56.158 18.546 56.4838 18.9454H55.152C54.9111 18.5936 54.6915 18.044 54.6065 17.7911L54.0964 16.3767C53.7705 15.4239 53.4305 15.0721 52.3147 15.0721H50.6676V18.9454ZM50.6676 14.3466H52.5095C53.6714 14.3466 54.6313 13.9215 54.6313 12.5694C54.6313 11.3784 53.7705 10.9021 52.5095 10.9021H50.6676V14.3466Z" fill="white"/>
<path d="M58.5352 10.1729H64.3727V10.924H59.7218V14.0571H63.186V14.8083H59.7218V18.1942H64.5321V18.9454H58.5352V10.1729Z" fill="white"/>
<path d="M66.5972 18.9454V10.1729H69.19C72.1336 10.1729 73.9259 11.8511 73.9259 14.5335C73.9259 17.3038 72.0982 18.9454 69.2751 18.9454H66.5972ZM69.0944 10.8837H67.7838V18.2272H69.1546C71.3827 18.2272 72.6189 16.886 72.6189 14.5298C72.6189 12.2909 71.3827 10.8837 69.0944 10.8837Z" fill="white"/>
<path d="M79.7383 18.9454V10.1729H82.7066C84.3927 10.1729 85.76 10.7738 85.76 12.3898C85.76 13.5697 84.7894 14.3319 83.617 14.4089V14.4345C84.9736 14.4858 86.1142 15.1491 86.1142 16.5782C86.1142 18.2308 84.7682 18.9454 83.0006 18.9454H79.7383ZM80.9249 14.0681H82.5012C83.6276 14.0681 84.5238 13.7053 84.5238 12.4631C84.5238 11.3601 83.748 10.8984 82.526 10.8984H80.9249V14.0681ZM80.9249 14.8083V18.2162H82.7668C84.0137 18.2162 84.8744 17.7398 84.8744 16.5232C84.8744 15.3067 84.0031 14.8046 82.6074 14.8046H80.9249V14.8083Z" fill="white"/>
<path d="M93.7831 10.1729H94.7182L91.5302 15.2847V18.9454H90.3436V15.2847L87.1592 10.1729H88.5513L91.1796 14.4199L93.7831 10.1729Z" fill="white"/>
<path d="M100.379 18.9454V10.1729H103.347C105.03 10.1729 106.401 10.7738 106.401 12.3898C106.401 13.5697 105.43 14.3319 104.254 14.4089V14.4345C105.611 14.4858 106.751 15.1491 106.751 16.5782C106.751 18.2308 105.405 18.9454 103.638 18.9454H100.379ZM101.569 14.0681H103.142C104.268 14.0681 105.164 13.7053 105.164 12.4631C105.164 11.3601 104.389 10.8984 103.167 10.8984H101.566V14.0681H101.569ZM101.569 14.8083V18.2162H103.411C104.661 18.2162 105.519 17.7398 105.519 16.5232C105.519 15.3067 104.647 14.8046 103.252 14.8046H101.569V14.8083Z" fill="white"/>
<path d="M110.283 18.9454H109.096V10.1729H110.283V18.9454Z" fill="white"/>
<path d="M115.532 10.9131H112.273V10.1729H119.978V10.9131H116.719V18.9454H115.532V10.9131Z" fill="white"/>
<path d="M129.095 10.1729H130.572V18.9454H129.386V11.4261L126.322 19.0077H125.907L122.829 11.4261V18.9454H121.979V10.1729H123.555L126.354 17.1169L129.095 10.1729Z" fill="white"/>
<path d="M138.004 16.2111H134.49L133.374 18.9447H132.513L136.183 10.0952H136.753L140.412 18.9447H139.126L138.004 16.2111ZM134.77 15.5112H137.713L136.236 11.9018L134.77 15.5112Z" fill="white"/>
<path d="M143.533 18.9454H142.346V10.1729H145.619C147.365 10.1729 148.793 10.7995 148.793 12.54C148.793 14.1194 147.507 14.6947 146.37 14.7204V14.757C147.436 14.8962 147.872 15.3983 148.177 16.3254L148.662 17.6922C148.807 18.1209 149.023 18.546 149.353 18.9454H148.021C147.776 18.5936 147.56 18.044 147.475 17.7911L146.965 16.3767C146.639 15.4239 146.299 15.0721 145.183 15.0721H143.536V18.9454H143.533ZM143.533 14.3466H145.375C146.537 14.3466 147.497 13.9215 147.497 12.5694C147.497 11.3784 146.636 10.9021 145.375 10.9021H143.533V14.3466Z" fill="white"/>
<path d="M153.692 14.6065L152.59 15.6839V18.9415H151.404V10.1689H152.59V14.7055L157.096 10.1689H158.237L154.528 13.7894L158.552 18.9415H157.05L153.692 14.6065Z" fill="white"/>
</svg>
