<svg width="213" height="62" viewBox="0 0 213 62" fill="none" xmlns="http://www.w3.org/2000/svg">
<path d="M182 61C198.569 61 212 47.5685 212 31C212 14.4315 198.569 1 182 1C165.431 1 152 14.4315 152 31C152 47.5685 165.431 61 182 61Z" stroke="white" stroke-linecap="round" stroke-linejoin="round"/>
<path d="M182 43L194 31L182 19" stroke="white" stroke-linecap="round" stroke-linejoin="round"/>
<path d="M170 31L194 31" stroke="white" stroke-linecap="round" stroke-linejoin="round"/>
<path d="M31.5178 36.412C31.5178 39.652 28.8538 41.344 25.1818 41.344C22.0858 41.344 18.8818 40.012 16.8298 36.556L15.1738 37.816C16.7938 41.2 20.8618 43.36 25.1818 43.36C29.9338 43.36 34.2538 40.624 34.2538 35.728C34.2538 32.128 31.6978 30.256 27.4498 29.14L24.1378 28.276C20.9338 27.448 19.2418 26.44 19.2418 23.776C19.2418 21.04 21.6538 19.384 25.0378 19.384C28.2418 19.384 30.8698 20.896 32.2737 23.524L33.9297 22.084C32.4538 19.42 29.1418 17.44 25.0378 17.44C20.1778 17.44 16.5058 20.248 16.5058 24.244C16.5058 28.132 18.9538 29.716 23.2018 30.832L26.6578 31.732C29.5378 32.488 31.5178 33.64 31.5178 36.412ZM47.3788 43H50.1508V19.636H59.9428V17.8H37.5868V19.636H47.3788V43ZM72.36 21.76L77.004 32.812H67.788L72.36 21.76ZM81.252 43H84.276L73.584 17.548H72.072L61.272 43H63.54L67.032 34.612H77.724L81.252 43ZM92.475 19.636H98.487C102.303 19.636 105.075 20.932 105.075 24.568C105.075 28.744 101.943 29.932 98.487 29.932H92.475V19.636ZM92.475 31.732H97.911C101.511 31.732 102.519 32.848 103.527 35.728L105.075 39.832C105.291 40.372 106.011 42.064 106.695 43H109.791C108.891 41.992 108.207 40.696 107.811 39.616L106.299 35.476C105.471 32.92 104.391 31.408 101.187 30.976V30.868C104.319 30.796 108.135 29.248 108.135 24.604C108.135 19.564 103.959 17.8 98.775 17.8H89.703V43H92.475V31.732ZM122.578 43H125.35V19.636H135.142V17.8H112.786V19.636H122.578V43Z" fill="white"/>
</svg>
