<svg width="22" height="27" viewBox="0 0 22 27" fill="none" xmlns="http://www.w3.org/2000/svg">
<path d="M15.6739 3.5H18.1196C18.7682 3.5 19.3903 3.76339 19.8489 4.23223C20.3075 4.70107 20.5652 5.33696 20.5652 6V23.5C20.5652 24.163 20.3075 24.7989 19.8489 25.2678C19.3903 25.7366 18.7682 26 18.1196 26H3.44565C2.79702 26 2.17496 25.7366 1.71631 25.2678C1.25767 24.7989 1 24.163 1 23.5V6C1 5.33696 1.25767 4.70107 1.71631 4.23223C2.17496 3.76339 2.79702 3.5 3.44565 3.5H5.8913" stroke="#0060F2" stroke-linecap="round" stroke-linejoin="round"/>
<path d="M14.4509 1H7.11394C6.43859 1 5.89111 1.55964 5.89111 2.25V4.75C5.89111 5.44036 6.43859 6 7.11394 6H14.4509C15.1262 6 15.6737 5.44036 15.6737 4.75V2.25C15.6737 1.55964 15.1262 1 14.4509 1Z" stroke="#0060F2" stroke-linecap="round" stroke-linejoin="round"/>
<path d="M15.6742 12.1113L9.69591 18.2224L6.97852 15.4447" stroke="#0060F2" stroke-linecap="round" stroke-linejoin="round"/>
</svg>
