<svg width="21" height="30" viewBox="0 0 21 30" fill="none" xmlns="http://www.w3.org/2000/svg">
<path d="M10.5 0C4.695 0 0 4.695 0 10.5C0 16.755 6.63 25.38 9.36 28.665C9.96 29.385 11.055 29.385 11.655 28.665C14.37 25.38 21 16.755 21 10.5C21 4.695 16.305 0 10.5 0Z" fill="#2DC937"/>
<path d="M6.00795 9.02533C5.84195 8.39152 6.32013 7.77197 6.97532 7.77197H14.7344C15.3803 7.77197 15.8568 8.37522 15.7072 9.00359L14.8026 12.803C14.5881 13.7039 13.7831 14.3397 12.857 14.3397H8.94346C8.03405 14.3397 7.23912 13.7262 7.00872 12.8464L6.00795 9.02533Z" fill="white"/>
<circle cx="8.49391" cy="19.0305" r="0.938251" fill="white"/>
<circle cx="13.1853" cy="19.0305" r="0.938251" fill="white"/>
<path d="M14.1232 16.2161H8.19739C7.46327 16.2161 6.97939 15.4515 7.29365 14.788L7.95049 13.4014" stroke="white"/>
<line x1="3.76762" y1="6.09127" x2="6.42139" y2="8.74504" stroke="white"/>
</svg>
