<svg width="23" height="32" viewBox="0 0 23 32" fill="none" xmlns="http://www.w3.org/2000/svg">
<mask id="path-1-outside-1" maskUnits="userSpaceOnUse" x="0" y="0" width="23" height="32" fill="black">
<rect fill="white" width="23" height="32"/>
<path d="M11.5 1C5.695 1 1 5.695 1 11.5C1 17.755 7.63 26.38 10.36 29.665C10.96 30.385 12.055 30.385 12.655 29.665C15.37 26.38 22 17.755 22 11.5C22 5.695 17.305 1 11.5 1Z"/>
</mask>
<path d="M11.5 1C5.695 1 1 5.695 1 11.5C1 17.755 7.63 26.38 10.36 29.665C10.96 30.385 12.055 30.385 12.655 29.665C15.37 26.38 22 17.755 22 11.5C22 5.695 17.305 1 11.5 1Z" fill="#E7B416"/>
<path d="M10.36 29.665L9.59091 30.3041L9.59178 30.3052L10.36 29.665ZM12.655 29.665L13.4232 30.3052L13.4258 30.3021L12.655 29.665ZM11.5 0C5.14272 0 0 5.14272 0 11.5H2C2 6.24728 6.24728 2 11.5 2V0ZM0 11.5C0 14.9172 1.78583 18.8382 3.79757 22.2088C5.83376 25.6202 8.20996 28.6424 9.59092 30.3041L11.1291 29.0259C9.78004 27.4026 7.47624 24.4698 5.51493 21.1837C3.52917 17.8568 2 14.3378 2 11.5H0ZM9.59178 30.3052C10.5916 31.5049 12.4234 31.5049 13.4232 30.3052L11.8868 29.0248C11.6866 29.2651 11.3284 29.2651 11.1282 29.0248L9.59178 30.3052ZM13.4258 30.3021C14.7981 28.6417 17.1704 25.6197 19.2045 22.2084C21.2142 18.8382 23 14.9171 23 11.5H21C21 14.3379 19.4708 17.8568 17.4867 21.1841C15.5271 24.4703 13.2269 27.4033 11.8842 29.0279L13.4258 30.3021ZM23 11.5C23 5.14272 17.8573 0 11.5 0V2C16.7527 2 21 6.24728 21 11.5H23Z" fill="white" mask="url(#path-1-outside-1)"/>
<rect x="7.93945" y="6" width="7.60003" height="2.85001" fill="white"/>
<path fill-rule="evenodd" clip-rule="evenodd" d="M7.57364 11.276C7.25123 11.6367 7.07053 12.1021 7.06502 12.5859L7.00007 18.2885C6.99373 18.8452 7.44326 19.2998 8 19.2998H15.4989C16.0556 19.2998 16.5051 18.8452 16.4988 18.2885L16.4338 12.5859C16.4283 12.1021 16.2476 11.6367 15.9252 11.276L14.606 9.7998H8.8929L7.57364 11.276ZM10.7978 11.6998H12.7022V13.5998H14.6065V15.4998L12.7022 15.4998V17.3998H10.7978V15.4998H8.89347L8.89347 13.5998L10.7978 13.5998V11.6998Z" fill="white"/>
</svg>
