<svg width="21" height="30" viewBox="0 0 21 30" fill="none" xmlns="http://www.w3.org/2000/svg">
<path d="M10.5 0C4.695 0 0 4.695 0 10.5C0 16.755 6.63 25.38 9.36 28.665C9.96 29.385 11.055 29.385 11.655 28.665C14.37 25.38 21 16.755 21 10.5C21 4.695 16.305 0 10.5 0Z" fill="#E7B416"/>
<rect x="6.93945" y="5" width="7.60003" height="2.85001" fill="white"/>
<path fill-rule="evenodd" clip-rule="evenodd" d="M6.57364 10.276C6.25123 10.6367 6.07053 11.1021 6.06502 11.5859L6.00007 17.2885C5.99373 17.8452 6.44326 18.2998 7 18.2998H14.4989C15.0556 18.2998 15.5051 17.8452 15.4988 17.2885L15.4338 11.5859C15.4283 11.1021 15.2476 10.6367 14.9252 10.276L13.606 8.7998H7.8929L6.57364 10.276ZM9.79781 10.6998H11.7022V12.5998H13.6065V14.4998L11.7022 14.4998V16.3998H9.79781V14.4998H7.89347L7.89347 12.5998L9.79781 12.5998V10.6998Z" fill="white"/>
</svg>
