<svg width="21" height="30" viewBox="0 0 21 30" fill="none" xmlns="http://www.w3.org/2000/svg">
<path d="M10.5 0C4.695 0 0 4.695 0 10.5C0 16.755 6.63 25.38 9.36 28.665C9.96 29.385 11.055 29.385 11.655 28.665C14.37 25.38 21 16.755 21 10.5C21 4.695 16.305 0 10.5 0Z" fill="#CC3232"/>
<path d="M5.5 6V10C5.5 11.1046 6.39543 12 7.5 12V12M7.5 12C7.5 12 7.5 15 7.5 19M7.5 12V6M7.5 12V12C8.60457 12 9.5 11.1046 9.5 10V6" stroke="white"/>
<path d="M12.4737 7.5C12.893 6.83611 13.4896 6.39857 14.2488 6.19822L15 6V19H14.2368C13.9607 19 13.7369 18.7761 13.7368 18.5L13.7368 13C13.7368 13 13.1053 12.5 12.4737 11.5C11.8421 10.5 11.8421 8.5 12.4737 7.5V7.5Z" fill="white"/>
</svg>
