<svg width="21" height="30" viewBox="0 0 21 30" fill="none" xmlns="http://www.w3.org/2000/svg">
<path d="M10.5 0C4.695 0 0 4.695 0 10.5C0 16.755 6.63 25.38 9.36 28.665C9.96 29.385 11.055 29.385 11.655 28.665C14.37 25.38 21 16.755 21 10.5C21 4.695 16.305 0 10.5 0Z" fill="#99C140"/>
<path d="M5 7H15L14.3635 13.3015C14.2087 14.8338 12.9188 16 11.3787 16H8.62132C7.08122 16 5.79129 14.8338 5.63651 13.3015L5 7Z" fill="white"/>
<path d="M14 8H16C16.5523 8 17 8.44772 17 9V11C17 11.5523 16.5523 12 16 12H14" stroke="white"/>
<line x1="7" y1="17.5" x2="13" y2="17.5" stroke="white"/>
</svg>
