<svg width="23" height="32" viewBox="0 0 23 32" fill="none" xmlns="http://www.w3.org/2000/svg">
<mask id="path-1-outside-1" maskUnits="userSpaceOnUse" x="0" y="0" width="23" height="32" fill="black">
<rect fill="white" width="23" height="32"/>
<path d="M11.5 1C5.695 1 1 5.695 1 11.5C1 17.755 7.63 26.38 10.36 29.665C10.96 30.385 12.055 30.385 12.655 29.665C15.37 26.38 22 17.755 22 11.5C22 5.695 17.305 1 11.5 1Z"/>
</mask>
<path d="M11.5 1C5.695 1 1 5.695 1 11.5C1 17.755 7.63 26.38 10.36 29.665C10.96 30.385 12.055 30.385 12.655 29.665C15.37 26.38 22 17.755 22 11.5C22 5.695 17.305 1 11.5 1Z" fill="#C2BAAD"/>
<path d="M10.36 29.665L9.59091 30.3041L9.59178 30.3052L10.36 29.665ZM12.655 29.665L13.4232 30.3052L13.4258 30.3021L12.655 29.665ZM11.5 0C5.14272 0 0 5.14272 0 11.5H2C2 6.24728 6.24728 2 11.5 2V0ZM0 11.5C0 14.9172 1.78583 18.8382 3.79757 22.2088C5.83376 25.6202 8.20996 28.6424 9.59092 30.3041L11.1291 29.0259C9.78004 27.4026 7.47624 24.4698 5.51493 21.1837C3.52917 17.8568 2 14.3378 2 11.5H0ZM9.59178 30.3052C10.5916 31.5049 12.4234 31.5049 13.4232 30.3052L11.8868 29.0248C11.6866 29.2651 11.3284 29.2651 11.1282 29.0248L9.59178 30.3052ZM13.4258 30.3021C14.7981 28.6417 17.1704 25.6197 19.2045 22.2084C21.2142 18.8382 23 14.9171 23 11.5H21C21 14.3379 19.4708 17.8568 17.4867 21.1841C15.5271 24.4703 13.2269 27.4033 11.8842 29.0279L13.4258 30.3021ZM23 11.5C23 5.14272 17.8573 0 11.5 0V2C16.7527 2 21 6.24728 21 11.5H23Z" fill="white" mask="url(#path-1-outside-1)"/>
<path d="M6 8H16L15.3635 14.3015C15.2087 15.8338 13.9188 17 12.3787 17H9.62132C8.08122 17 6.79129 15.8338 6.63651 14.3015L6 8Z" fill="white"/>
<path d="M15 9H17C17.5523 9 18 9.44772 18 10V12C18 12.5523 17.5523 13 17 13H15" stroke="white"/>
<line x1="8" y1="18.5" x2="14" y2="18.5" stroke="white"/>
</svg>
