<svg width="23" height="32" viewBox="0 0 23 32" fill="none" xmlns="http://www.w3.org/2000/svg">
<mask id="path-1-outside-1" maskUnits="userSpaceOnUse" x="0" y="0" width="23" height="32" fill="black">
<rect fill="white" width="23" height="32"/>
<path fill-rule="evenodd" clip-rule="evenodd" d="M1 11.5C1 5.695 5.695 1 11.5 1C17.305 1 22 5.695 22 11.5C22 17.755 15.37 26.38 12.655 29.665C12.055 30.385 10.96 30.385 10.36 29.665C7.63 26.38 1 17.755 1 11.5ZM7.75 11.5C7.75 13.57 9.43 15.25 11.5 15.25C13.57 15.25 15.25 13.57 15.25 11.5C15.25 9.43 13.57 7.75 11.5 7.75C9.43 7.75 7.75 9.43 7.75 11.5Z"/>
</mask>
<path fill-rule="evenodd" clip-rule="evenodd" d="M1 11.5C1 5.695 5.695 1 11.5 1C17.305 1 22 5.695 22 11.5C22 17.755 15.37 26.38 12.655 29.665C12.055 30.385 10.96 30.385 10.36 29.665C7.63 26.38 1 17.755 1 11.5ZM7.75 11.5C7.75 13.57 9.43 15.25 11.5 15.25C13.57 15.25 15.25 13.57 15.25 11.5C15.25 9.43 13.57 7.75 11.5 7.75C9.43 7.75 7.75 9.43 7.75 11.5Z" fill="#99C140"/>
<path d="M12.655 29.665L13.4232 30.3052L13.4258 30.3021L12.655 29.665ZM10.36 29.665L9.59091 30.3041L9.59178 30.3052L10.36 29.665ZM11.5 0C5.14272 0 0 5.14272 0 11.5H2C2 6.24728 6.24728 2 11.5 2V0ZM23 11.5C23 5.14272 17.8573 0 11.5 0V2C16.7527 2 21 6.24728 21 11.5H23ZM13.4258 30.3021C14.7981 28.6417 17.1704 25.6197 19.2045 22.2084C21.2142 18.8382 23 14.9171 23 11.5H21C21 14.3379 19.4708 17.8568 17.4867 21.1841C15.5271 24.4703 13.2269 27.4033 11.8842 29.0279L13.4258 30.3021ZM9.59178 30.3052C10.5916 31.5049 12.4234 31.5049 13.4232 30.3052L11.8868 29.0248C11.6866 29.2651 11.3284 29.2651 11.1282 29.0248L9.59178 30.3052ZM0 11.5C0 14.9172 1.78583 18.8382 3.79757 22.2088C5.83376 25.6202 8.20996 28.6424 9.59092 30.3041L11.1291 29.0259C9.78004 27.4026 7.47624 24.4698 5.51493 21.1837C3.52917 17.8568 2 14.3378 2 11.5H0ZM11.5 14.25C9.98228 14.25 8.75 13.0177 8.75 11.5H6.75C6.75 14.1223 8.87772 16.25 11.5 16.25V14.25ZM14.25 11.5C14.25 13.0177 13.0177 14.25 11.5 14.25V16.25C14.1223 16.25 16.25 14.1223 16.25 11.5H14.25ZM11.5 8.75C13.0177 8.75 14.25 9.98229 14.25 11.5H16.25C16.25 8.87772 14.1223 6.75 11.5 6.75V8.75ZM8.75 11.5C8.75 9.98229 9.98228 8.75 11.5 8.75V6.75C8.87772 6.75 6.75 8.87772 6.75 11.5H8.75Z" fill="white" mask="url(#path-1-outside-1)"/>
</svg>
