<svg width="22" height="30" viewBox="0 0 22 30" fill="none" xmlns="http://www.w3.org/2000/svg">
<path fill-rule="evenodd" clip-rule="evenodd" d="M0.5 10.8975C0.5 5.09246 5.195 0.397461 11 0.397461C16.805 0.397461 21.5 5.09246 21.5 10.8975C21.5 17.1525 14.87 25.7775 12.155 29.0625C11.555 29.7825 10.46 29.7825 9.86 29.0625C7.13 25.7775 0.5 17.1525 0.5 10.8975ZM7.25 10.8975C7.25 12.9675 8.93 14.6475 11 14.6475C13.07 14.6475 14.75 12.9675 14.75 10.8975C14.75 8.82746 13.07 7.14746 11 7.14746C8.93 7.14746 7.25 8.82746 7.25 10.8975Z" fill="#CC3232"/>
</svg>
